<?xml version="1.0" encoding="utf-8"?>
<!-- Generator: Adobe Illustrator 17.1.0, SVG Export Plug-In . SVG Version: 6.00 Build 0)  -->
<!DOCTYPE svg PUBLIC "-//W3C//DTD SVG 1.1//EN" "http://www.w3.org/Graphics/SVG/1.1/DTD/svg11.dtd">
<svg version="1.1" id="Layer_1" xmlns="http://www.w3.org/2000/svg" xmlns:xlink="http://www.w3.org/1999/xlink" x="0px" y="0px"
	 viewBox="0 0 165.7 110.8" enable-background="new 0 0 165.7 110.8" xml:space="preserve">
<g>
	<g>
		<polygon fill="#F15D46" points="105.2,78 122.5,36.5 132.3,41.5 109.4,80.1 		"/>
	</g>
	<g>
		<g>
			<path fill="#FFD66D" d="M128.4,50.5l-2.4-5.6l-5.3-1.8c0,0-5.8,0.9-7.3,10.1c0,0,1.4-1.6,2.4-2.3c0,0-2.7,6.2-1.7,10.4
				c3.7,0.3,8.5-3.8,8.5-3.8c-0.4,1.3-1.5,3.1-1.5,3.1C128.6,57.2,128.4,50.5,128.4,50.5z M122.7,55.3c0,0,0.7-1.2,1-2
				c0,0-3.1,2.6-5.5,2.5c-0.7-2.7,1.1-6.7,1.1-6.7c-0.7,0.4-1.6,1.4-1.6,1.4c1-5.9,4.7-6.5,4.7-6.5l3.4,1.2l1.5,3.6
				C127.4,48.8,127.5,53.1,122.7,55.3z"/>
			<path fill="#F15D46" d="M125.9,45.1l-3.4-1.2c0,0-3.7,0.6-4.7,6.5c0,0,0.9-1,1.6-1.4c0,0-1.8,4-1.1,6.7c2.3,0.2,5.5-2.5,5.5-2.5
				c-0.3,0.8-1,2-1,2c4.9-2.2,4.7-6.5,4.7-6.5L125.9,45.1z"/>
		</g>
		<path fill="#2B576D" d="M140,40.1l-1.5,11.6l-10.1,4.4c0,0,6.7-7.2,1.1-12.6l5.8-8L140,40.1z"/>
		<path fill="#2B576D" d="M127.3,27.7l-9.6,3.8l-2,12.3c0,0,4.9-8.9,10.5-3.4l5.8-8L127.3,27.7z"/>
		<g>
			<path fill="#8AA3BD" d="M136,31.1c1.9,1.8,4.3,3.5,7.3,4.6c4.1-6.5,6.8-13.5,8.7-19.2c-1.6-0.5-2.8-1.4-3.8-2.4
				c-1.2-1.2-2-2.5-2.6-3.6c-0.1-0.2-0.2-0.4-0.3-0.6c-4.5,3.1-9.9,7.5-14.7,13.3c0.2,0.4,0.4,0.9,0.7,1.4
				C132.2,26.6,133.8,28.9,136,31.1z"/>
			<path fill="#8AA3BD" d="M148.7,13.4c0.9,0.9,2.1,1.7,3.6,2.2c2-6.4,2.7-11,2.7-11s-3.7,1.6-8.8,5c0.1,0.2,0.2,0.4,0.3,0.6
				C146.8,11.1,147.6,12.3,148.7,13.4z"/>
			<path fill="#8AA3BD" d="M135.4,31.9c-2.3-2.3-3.9-4.7-5-6.6c-0.2-0.4-0.4-0.8-0.6-1.2c-4.1,5.2-7.7,11.4-9.7,18.8
				c0,0,1.1,2.7,3.3,4.9c2.2,2.2,5,3.2,5,3.2c5.9-3.6,10.6-8.8,14.3-14.4C139.8,35.5,137.3,33.8,135.4,31.9z"/>
			<path fill="#D3EEF4" d="M148.1,14.2c1,1,2.3,1.8,3.8,2.4c0.1-0.3,0.2-0.7,0.3-1c-1.5-0.5-2.6-1.3-3.6-2.2
				c-1.1-1.1-1.9-2.3-2.3-3.3c-0.1-0.2-0.2-0.4-0.3-0.6c-0.3,0.2-0.5,0.4-0.8,0.5c0.1,0.2,0.2,0.4,0.3,0.6
				C146.1,11.7,146.9,13,148.1,14.2z"/>
			<path fill="#D3EEF4" d="M135.4,31.9c1.9,1.9,4.3,3.6,7.3,4.7c0.2-0.3,0.4-0.6,0.6-0.9c-3-1.1-5.4-2.8-7.3-4.6
				c-2.2-2.2-3.8-4.5-4.8-6.3c-0.3-0.5-0.5-1-0.7-1.4c-0.2,0.3-0.4,0.5-0.7,0.8c0.2,0.4,0.4,0.7,0.6,1.2
				C131.5,27.2,133.1,29.7,135.4,31.9z"/>
		</g>
		<polygon fill="#2B576D" points="132.4,32.7 134.9,35.2 122,49.9 		"/>
		<polygon fill="#2B576D" points="158.2,0 153.1,5.4 152.9,7.4 154.5,6.8 		"/>
		<g>
			<path fill="#D3EEF4" d="M146.3,22.6c-1.1,2.8-4.4,3.1-5.9,0.5c-0.7-1.1-0.8-2.6-0.3-3.9c1.1-2.8,4.4-3.1,5.9-0.5
				C146.6,19.9,146.7,21.4,146.3,22.6z"/>
			<path fill="#173A45" d="M143.5,25.3c-1,0.1-2-0.3-2.8-1c-0.8-0.8-1.3-1.8-1.4-3c-0.1-1.2,0.2-2.3,0.8-3.2
				c0.6-0.9,1.6-1.4,2.6-1.5c1-0.1,2,0.3,2.8,1c0.8,0.8,1.3,1.8,1.4,3c0.1,1.2-0.2,2.3-0.8,3.2C145.4,24.7,144.5,25.2,143.5,25.3z
				 M142.8,17.5c-0.8,0.1-1.5,0.5-2,1.2c-0.5,0.7-0.7,1.6-0.7,2.5c0.1,0.9,0.5,1.8,1.1,2.4c0.6,0.6,1.4,0.9,2.2,0.8
				c0.8-0.1,1.5-0.5,2-1.2c0.5-0.7,0.7-1.6,0.7-2.5c-0.1-0.9-0.5-1.8-1.1-2.4C144.4,17.7,143.6,17.4,142.8,17.5z"/>
		</g>
		<g opacity="0.1">
			<path fill="#010101" d="M154.9,4.6L154.9,4.6L154.9,4.6C154.9,4.6,154.9,4.6,154.9,4.6z"/>
			<path fill="#010101" d="M154.8,4.7L154.8,4.7c0,0-10.4,29.8-29.3,44.7l2.9,1.6C149.2,38.4,154.5,6.3,154.8,4.7z"/>
		</g>
	</g>
</g>
<g>
	<path fill="#2A566D" d="M17.7,94.8h-8V54.3h8V94.8z"/>
	<path fill="#2A566D" d="M57.2,54.3v6.2H44.3v34.3h-8V60.5H23.4v-6.2H57.2z"/>
</g>
<g>
	<path fill="#F15D46" d="M114.3,70.7c-1,2.2-3.1,6.4-4.1,8.1c-1,1.8-2.1,3.4-3.3,5c-1.2,1.5-2.5,2.9-3.8,4.2
		c-1.3,1.3-2.7,2.3-4.1,3.2c-2.9,1.9-5.6,2.8-8.2,2.8c-2.4,0-4.1-0.9-5.3-2.8c-1-1.6-1.5-3.7-1.5-6.1c0-4.1,0.8-8.1,2.4-12
		c-1.5,1.7-2.9,3.4-4.4,5.2c-3.5,4.6-6,7.9-7.3,9.9l-3.5,5.1c-0.4,0.5-1,0.8-1.9,0.8c-0.9,0-1.7-0.3-2.3-0.8
		c-0.6-0.5-1.1-1.1-1.6-1.9c-0.8-1.5-1.2-3-1.2-4.5s0.2-3,0.5-4.6c0.3-1.6,0.8-3.2,1.4-5c0.6-1.7,1.2-3.5,2-5.4
		c0.8-1.8,1.6-3.6,2.4-5.3c1.8-3.6,3.5-6.7,5.2-9.4h-0.3c-2.1,0-4.1,0.5-5.9,1.5c-0.4,0.3-0.9,0.5-1.3,0.5c-0.9,0-1.7-0.4-2.5-1.3
		c-1.9-2-0.8-3.6,3.3-4.9c1.9-0.6,3.5-0.9,4.6-0.9c1.2,0,2.1,0.2,2.8,0.6c0.7,0.4,1.3,0.8,1.8,1.3c0.8,0.8,1.3,1.6,1.7,2.3
		c0.3,0.8,0.5,1.4,0.5,2c0,0.6-0.2,1.4-0.5,2.3c-0.3,1-0.8,2-1.3,3.1l-1.8,3.5c-0.6,1.2-1.3,2.5-1.9,3.9c-0.6,1.4-1.3,2.7-1.9,4.1
		c-0.6,1.4-1.2,2.7-1.7,4c-1.1,2.9-1.6,5.3-1.6,7.3c0,1.1,0.1,2.1,0.3,2.9l2.8-4.7c5.7-9.2,11.4-16.2,17-20.8
		c1.6-1.3,3.1-2.4,4.7-3.1c0.3-0.1,0.5-0.2,0.9-0.2c0.3,0,0.7,0,1.1,0.1c0.4,0.1,0.7,0.2,1.1,0.4c0.8,0.4,1.2,0.8,1.2,1.4
		c0,0.3-0.1,0.5-0.3,0.7l-0.9,1c-3.6,3.8-6,9.1-7.2,15.9c-0.4,2.1-0.6,3.8-0.6,5c0,1.2,0,2.1,0.1,2.5c0.1,0.4,0.2,0.9,0.4,1.3
		c0.5,0.9,1.2,1.3,2.2,1.3s2-0.4,3.2-1.1c1.2-0.7,2.4-1.7,3.6-3c1.2-1.3,2.4-2.7,3.5-4.4c1.1-1.7,4.7-9,5.6-10.9"/>
	<path fill="#F15D46" d="M132.3,87.4c0,1.5,0.5,2.2,1.6,2.2c0.7,0,1.3-0.1,1.8-0.3c0.5-0.2,0.8-0.3,0.9-0.3c0.3,0,0.5,0.2,0.5,0.5
		c0,1.4-0.7,2.6-2.2,3.5c-1.5,1-3.1,1.3-4.6,0.8c-1-0.4-1.8-1.2-2.3-2.4c-0.2-0.6-0.4-1.2-0.4-1.7c0-0.8,0.1-1.7,0.2-2.6
		c-1.5,3-3.3,5.1-5.5,6.3c-0.9,0.4-1.8,0.7-2.8,0.7c-1,0-1.8-0.2-2.6-0.6c-0.7-0.4-1.3-1-1.9-1.7c-1-1.5-1.5-3.4-1.4-5.6
		c0.1-2.8,0.9-5.6,2.5-8.4c1.5-2.6,3.3-4.6,5.5-6.2c2.2-1.6,4.3-2.5,6.2-2.5c1.9,0,3.5,0.9,4.7,2.7c1.1-1.8,2.1-2.7,2.9-2.7
		c0.9,0,1.6,0.2,2.1,0.5c0.9,0.6,1.2,1.2,0.9,1.7c-4,8.2-6.1,13.3-6.2,15.3C132.3,86.8,132.3,87.1,132.3,87.4z M119,87.5
		c0,1.9,0.6,2.9,1.8,2.9c0.9,0,2.1-0.8,3.5-2.4c2-2.3,3.8-5.5,5.3-9.5c0.5-1.2,0.9-2.5,1.2-3.7c-0.1-1.1-0.5-1.9-1.4-2.4
		c-0.3-0.2-0.7-0.3-1.3-0.3c-0.6,0-1.2,0.2-2,0.6c-0.8,0.4-1.5,1-2.2,1.7c-0.7,0.7-1.4,1.6-2,2.5c-0.6,1-1.2,2-1.6,3.2
		C119.5,82.7,119,85.1,119,87.5z"/>
	<path fill="#F15D46" d="M140.3,91.5c-0.2-0.5-0.3-1.1-0.3-1.8c0-0.7,0.1-1.4,0.3-2.3c0.2-0.8,0.5-1.7,0.9-2.6
		c0.4-0.9,0.8-1.8,1.2-2.8l1.3-2.9c1.7-3.7,2.3-5.9,1.8-6.6c-0.2-0.3-0.6-0.6-1.1-0.9c-0.2-0.1-0.3-0.3-0.3-0.6
		c0-0.3,0.1-0.5,0.3-0.8c0.2-0.3,0.5-0.5,0.9-0.7c0.8-0.4,1.6-0.6,2.3-0.6c0.8,0,1.4,0.1,1.8,0.3c0.4,0.2,0.7,0.4,1,0.6
		c0.5,0.5,0.8,1.1,0.8,1.7c0,0.6-0.1,1.4-0.3,2.1c-0.2,0.8-0.5,1.6-0.8,2.6c-0.3,0.9-0.7,1.9-1.1,2.9c-1.1,2.6-1.8,4.3-2.2,5.1
		l-0.9,1.8c-0.5,1.1-0.7,1.9-0.7,2.3c0,0.4,0.1,0.8,0.2,0.9c0.1,0.2,0.4,0.3,0.8,0.3c0.4,0,0.8-0.1,1.2-0.4c0.5-0.3,0.9-0.7,1.5-1.1
		s1.1-1,1.6-1.7c0.6-0.6,1.1-1.3,1.7-2c1.4-1.8,2.5-3.3,3.2-4.5c3.4-6.3,5.3-9.7,5.5-10c0.5-0.7,1.1-1,1.6-1c0.5,0,1,0.1,1.4,0.2
		c0.4,0.1,0.7,0.3,1,0.5c0.6,0.5,0.8,1,0.6,1.6c-0.2,0.6-0.5,1.4-0.9,2.4c-3,8.8-5,14.3-5.9,16.4c-0.9,2.2-1.7,3.9-2.4,5.2
		c-0.7,1.3-1.5,2.6-2.4,4c-0.9,1.3-1.9,2.6-2.9,3.7c-2.3,2.5-4.5,3.8-6.6,4c-0.8,0.1-1.4,0-1.9-0.3c-0.8-0.5-1.2-0.9-1.2-1.4
		s0.4-0.7,1.1-0.9c0.7-0.2,1.5-0.5,2.2-1c0.8-0.5,1.5-1.1,2.2-1.8c2.1-2,3.7-4.2,4.9-6.6c1-2.1,1.8-4,2.4-5.9l1.9-5.7
		c-0.5,0.6-1,1.2-1.5,2l-1.7,2.3c-1.5,1.9-2.7,3.2-3.7,4c-1.9,1.5-3.6,2.3-5,2.3C142.3,94,140.9,93.2,140.3,91.5z"/>
</g>
</svg>
