<?xml version="1.0" standalone="no"?>
<!DOCTYPE svg PUBLIC "-//W3C//DTD SVG 1.1//EN" "http://www.w3.org/Graphics/SVG/1.1/DTD/svg11.dtd" >
<svg xmlns="http://www.w3.org/2000/svg" xmlns:xlink="http://www.w3.org/1999/xlink" version="1.1">
<metadata>
Created by FontForge 20161013 at Mon Apr 16 13:27:11 2007
 By ,,,
Copyright (c) 2005 Parachute :, www.parachute.gr.  All rights reserved.
</metadata>
<defs>
<font id="PFSquareSansPro-Thin" horiz-adv-x="1818" >
  <font-face 
    font-family="PF Square Sans Pro Thin"
    font-weight="200"
    font-stretch="normal"
    units-per-em="1000"
    panose-1="2 0 5 6 4 0 0 2 0 4"
    ascent="750"
    descent="-250"
    x-height="487"
    cap-height="663"
    bbox="-131.333 -217.286 1760 913"
    underline-thickness="40"
    underline-position="-160"
    unicode-range="U+0020-FB05"
  />
<missing-glyph horiz-adv-x="428" 
d="M0 700h428v-700h-428v700zM408 27v648l-179 -325zM20 29l179 321l-179 322v-643zM384 679h-340l170 -310zM384 21l-170 310l-170 -310h340z" />
    <glyph glyph-name="fj" unicode="fj" horiz-adv-x="440" 
d="M97 555q0 31 7 57.5t23.5 46.5t43.5 31.5t68 11.5q26 0 62 -4.5t65 -15.5q6 -2 5 -8l-2 -10q-1 -2 -1.5 -3.5t-5.5 -1.5q-27 4 -59 7t-63 3q-53 0 -80 -25.5t-28 -92.5v-64h242q6 0 6 -6v-575q0 -17 -3.5 -36.5t-17 -35.5t-41 -26t-76.5 -7q-1 0 -5 1.5t-4 7.5v10
q0 9 10 9q37 1 57.5 9t30.5 20t12 27t2 31v544h-213v-454q0 -6 -5 -6h-23q-7 0 -7 6v454h-56q-6 0 -6 5v16q0 6 7 6h55v68z" />
    <glyph glyph-name="ffj" unicode="ffj" horiz-adv-x="684" 
d="M246 695q13 0 30 -1t35.5 -3t36.5 -6t34 -10q17 17 42.5 26t62.5 9q26 0 62 -4.5t65 -15.5q6 -2 5 -8l-2 -10q-1 -2 -1.5 -3.5t-5.5 -1.5q-27 4 -59 7t-63 3q-53 0 -80 -25.5t-28 -92.5v-72h238q6 0 6 -6v-575q0 -17 -3.5 -36.5t-17 -35.5t-41 -26t-76.5 -7q-1 0 -5 1.5
t-4 7.5v10q0 9 10 9q37 1 57.5 9t30.5 20t12 27t2 31v544h-209v-454q0 -6 -5 -6h-23q-7 0 -7 6v454h-213v-454q0 -6 -5 -6h-23q-7 0 -7 6v454h-56q-6 0 -6 5v16q0 6 7 6h55v61q0 31 8 57.5t25.5 46.5t46 31.5t69.5 11.5zM345 487v76q0 26 5 49t16 42q-27 3 -59.5 5.5
t-59.5 2.5q-55 0 -84.5 -25.5t-30.5 -92.5v-57h213z" />
    <glyph glyph-name="ff" unicode="ff" horiz-adv-x="552" 
d="M246 695q26 0 58.5 -4t63.5 -15q34 32 91 32q14 0 43 -2.5t60 -13.5q6 -2 9 -4t1 -7l-3 -10q-2 -5 -4 -5.5t-10 1.5q-28 5 -51 6.5t-34 1.5q-48 0 -74 -21t-26 -71v-95h141q6 0 6 -5v-18q0 -5 -6 -5h-141v-454q0 -6 -5 -6h-23q-7 0 -7 6v454h-203v-454q0 -6 -5 -6h-23
q-7 0 -7 6v454h-56q-6 0 -6 5v16q0 6 7 6h55v61q0 31 8 57.5t25.5 46.5t46 31.5t69.5 11.5zM335 585q0 21 3.5 37.5t11.5 30.5q-50 9 -103 9q-55 0 -84.5 -25.5t-30.5 -92.5v-57h88.5t49 0.5t31 0.5h34.5v97z" />
    <glyph glyph-name="fi" unicode="fi" horiz-adv-x="440" 
d="M381 6q0 -6 -5 -6h-23q-6 0 -6 6l-1 454h-214v-454q0 -6 -5 -6h-23q-7 0 -7 6v454h-56q-6 0 -6 5v16q0 6 7 6h55v68q0 31 7 57.5t23.5 46.5t43.5 31.5t68 11.5q26 0 62 -4.5t65 -15.5q6 -2 5 -8l-2 -10q-1 -2 -1.5 -3.5t-5.5 -1.5q-27 4 -59 7t-63 3q-53 0 -80 -25.5
t-28 -92.5v-64h242q6 0 6 -6q0 -37 0.5 -63.5t0.5 -52.5v-54.5v-69v-97.5v-138z" />
    <glyph glyph-name="fl" unicode="fl" horiz-adv-x="440" 
d="M132 487h155q7 0 7 -6v-16q0 -5 -6 -5h-156v-454q0 -6 -5 -6h-23q-7 0 -7 6v454h-56q-6 0 -6 5v16q0 6 7 6h55v69q0 31 7 57.5t23.5 46.5t43.5 31.5t68 11.5q23 0 53.5 -3.5t57.5 -11.5l23 9q8 4 8 -4v-687q0 -6 -5 -6h-23q-6 0 -6 6l-1 656q-25 3 -52.5 5.5t-53.5 2.5
q-53 0 -80 -25.5t-28 -92.5v-65z" />
    <glyph glyph-name="ffi" unicode="ffi" horiz-adv-x="684" 
d="M380 460v-454q0 -6 -5 -6h-23q-7 0 -7 6v454h-213v-454q0 -6 -5 -6h-23q-7 0 -7 6v454h-56q-6 0 -6 5v16q0 6 7 6h55v61q0 31 8 57.5t25.5 46.5t46 31.5t69.5 11.5q13 0 30 -1t35.5 -3t36.5 -6t34 -10q17 17 42.5 26t62.5 9q26 0 62 -4.5t65 -15.5q6 -2 5 -8l-2 -10
q-1 -2 -1.5 -3.5t-5.5 -1.5q-27 4 -59 7t-63 3q-53 0 -80 -25.5t-28 -92.5v-72h238q6 0 6 -6v-475q0 -6 -5 -6h-23q-6 0 -6 6v454h-210zM345 487v76q0 26 5 49t16 42q-27 3 -59.5 5.5t-59.5 2.5q-55 0 -84.5 -25.5t-30.5 -92.5v-57h213z" />
    <glyph glyph-name="ffl" unicode="ffl" horiz-adv-x="688" 
d="M132 6q0 -6 -5 -6h-23q-7 0 -7 6v454h-56q-6 0 -6 5v16q0 6 7 6h55v61q0 31 8.5 57.5t27 46.5t47.5 31.5t70 11.5q25 0 61 -3t67 -14q17 16 42.5 24.5t60.5 8.5q23 0 56 -3.5t60 -11.5l23 9q8 4 8 -4v-695q0 -6 -5 -6h-23q-6 0 -6 6v664q-25 3 -55.5 5.5t-56.5 2.5
q-53 0 -80 -25.5t-28 -92.5v-73h155q7 0 7 -6v-16q0 -5 -6 -5h-156v-454q0 -6 -5 -6h-23q-7 0 -7 6v454h-207v-454zM339 564q0 25 4.5 47.5t15.5 40.5q-26 6 -55 8t-53 2q-55 0 -86.5 -25.5t-32.5 -92.5v-57h207v77z" />
    <glyph glyph-name="ft" unicode="ft" horiz-adv-x="524" 
d="M521 13q1 -5 -0.5 -6l-4.5 -3q-10 -3 -34.5 -7.5t-56.5 -4.5q-47 0 -63.5 21.5t-16.5 70.5v376h-213v-454q0 -6 -5 -6h-23q-7 0 -7 6v454h-56q-6 0 -6 5v17q0 6 7 6h55v97q0 63 34 93t90 30q14 0 43 -2.5t60 -13.5q6 -2 9 -4t1 -7l-3 -10q-2 -5 -4 -5.5t-10 1.5
q-28 5 -51 6.5t-34 1.5q-48 0 -74 -21t-26 -71v-95h213v114q0 6 5 8l18 7q9 4 10 2t1 -9v-122h109q5 0 5 -5v-18q0 -5 -5 -5h-109v-365q0 -17 1.5 -30t7.5 -22.5t18.5 -14.5t34.5 -5q14 0 36 1t34 3q5 1 6 -0.5t2 -4.5l2 -9v0z" />
    <glyph glyph-name=".notdef" horiz-adv-x="428" 
d="M0 700h428v-700h-428v700zM408 27v648l-179 -325zM20 29l179 321l-179 322v-643zM384 679h-340l170 -310zM384 21l-170 310l-170 -310h340z" />
    <glyph glyph-name=".null" horiz-adv-x="0" 
 />
    <glyph glyph-name="nonmarkingreturn" horiz-adv-x="333" 
 />
    <glyph glyph-name="space" unicode=" " horiz-adv-x="240" 
 />
    <glyph glyph-name="exclam" unicode="!" horiz-adv-x="198" 
d="M109 153q0 -6 -4 -6h-11q-5 0 -5 6l-10 502q0 8 7 8h32q7 0 5 -8zM127 23q0 -14 -5.5 -23t-24.5 -9q-20 0 -25 9.5t-5 22.5q0 14 6 22.5t24 8.5q19 0 24.5 -8.5t5.5 -22.5z" />
    <glyph glyph-name="quotedbl" unicode="&#x22;" horiz-adv-x="224" 
d="M66 493q-2 0 -4 6l-8 157q0 7 7 7h22q6 0 6 -7l-10 -157q0 -6 -5 -6h-8zM145 493q-4 0 -4 6l-9 157q0 7 8 7h21q6 0 6 -7l-10 -157q0 -6 -5 -6h-7z" />
    <glyph glyph-name="numbersign" unicode="#" horiz-adv-x="530" 
d="M319 273l36 153h-149l-35 -153h148zM480 273q5 0 5 -5l-3 -13q-2 -8 -7 -8h-134l-56 -241q-2 -6 -8 -6h-15q-6 0 -5 6l56 241h-148l-56 -241q-2 -6 -8 -6h-15q-6 0 -5 6l56 241h-132q-6 0 -4 8l2 13q2 5 7 5h133l36 153h-130q-6 0 -4 7l2 13q1 6 7 6h131l48 205q1 6 5 6
h15q8 0 7 -6l-48 -205h149l48 205q1 6 5 6h15q8 0 7 -6l-48 -205h136q5 0 4 -6l-2 -13q-2 -7 -7 -7h-137l-35 -153h133z" />
    <glyph glyph-name="dollar" unicode="$" horiz-adv-x="530" 
d="M278 -89q0 -6 -5 -6h-19q-3 0 -4.5 0.5t-1.5 5.5v91q-16 0 -41.5 2t-52 5t-50.5 7.5t-37 9.5q-7 2 -5 9l2 11q1 5 9 5q22 -3 47.5 -5.5t50 -4.5t46 -3t37.5 -1q81 0 128.5 34t47.5 96q0 41 -11 68t-31.5 45t-50.5 28t-69 16q-47 7 -84.5 17.5t-64.5 28t-41.5 45.5
t-14.5 72q0 80 50 124t135 48v83q0 5 6 5h20q4 0 4 -5v-82q41 -1 82 -4.5t76 -15.5q6 -3 5 -9l-1 -11q-1 -6 -8 -5q-10 1 -29.5 3t-43 3.5t-48 3t-43.5 1.5q-85 0 -125.5 -36.5t-40.5 -99.5q0 -36 13 -59t35.5 -37t52.5 -21.5t63 -13.5q41 -7 78 -17t64.5 -29.5t43.5 -51
t16 -81.5q0 -47 -15 -79.5t-40.5 -53.5t-60 -31.5t-74.5 -13.5v-91v0z" />
    <glyph glyph-name="percent" unicode="%" horiz-adv-x="730" 
d="M552 -5q-50 0 -77.5 18.5t-41 47.5t-16.5 65t-3 71q0 24 3 56.5t16.5 62.5t41.5 50.5t77 20.5q48 0 76.5 -16.5t43 -43t18.5 -60.5t4 -70q0 -32 -3.5 -67.5t-17.5 -65.5t-42.5 -49.5t-78.5 -19.5zM552 361q-36 0 -57 -15t-32.5 -39.5t-14.5 -55t-3 -61.5q0 -33 3 -63.5
t14 -53.5t32.5 -37t57.5 -14t57.5 14t33.5 37.5t15.5 54t3.5 62.5q0 36 -3.5 67.5t-14.5 54.5t-33 36t-59 13zM174 276q-50 0 -77.5 18.5t-41 47.5t-16.5 65t-3 71q0 24 3 56.5t16.5 62.5t41.5 50.5t77 20.5q48 0 76.5 -16.5t43 -43t18.5 -60.5t4 -70q0 -32 -3.5 -67.5
t-17.5 -65.5t-42.5 -49.5t-78.5 -19.5zM174 642q-36 0 -57 -15t-32.5 -39.5t-14.5 -55t-3 -61.5q0 -33 3 -63.5t14 -53.5t32.5 -37t57.5 -14t57.5 14t33.5 37.5t15.5 54t3.5 62.5q0 36 -3.5 67.5t-14.5 54.5t-33 36t-59 13zM248 -17q-2 -6 -7 -6h-20q-6 0 -4 6l272 712
q1 5 6 5h21q5 0 5.5 -1t-1.5 -4z" />
    <glyph glyph-name="ampersand" unicode="&#x26;" horiz-adv-x="658" 
d="M629 -43q-2 -5 -6 -4.5t-6 2.5q-14 7 -33.5 19.5t-41.5 28t-43.5 34t-40.5 36.5q-54 -41 -111.5 -61.5t-111.5 -20.5q-43 0 -79.5 11.5t-63.5 35t-42.5 58t-15.5 81.5q0 67 43 118t129 100q-29 42 -44 78.5t-15 65.5q0 57 33.5 95.5t93.5 38.5q31 0 54.5 -9t39 -25
t23.5 -37.5t8 -46.5q0 -52 -35.5 -92.5t-106.5 -80.5q42 -71 96.5 -139t111.5 -125q52 51 88.5 116.5t45.5 149.5q2 7 7 7l15 -1q5 0 5 -8q-3 -42 -16.5 -83.5t-33 -79t-43 -70t-47.5 -54.5q38 -35 76.5 -65.5t71.5 -48.5q7 -5 4 -10zM271 643q-25 0 -41.5 -10.5
t-26.5 -25.5t-14 -32.5t-4 -30.5q0 -30 14 -63.5t40 -70.5q26 14 49 28.5t40 31.5t27 37t10 45q0 41 -26 66t-68 25zM223 369q-34 -18 -62.5 -38t-49.5 -43t-32.5 -50t-11.5 -59q0 -41 13 -70.5t35.5 -49t52 -29.5t62.5 -10q48 0 100.5 18.5t106.5 57.5q-29 29 -58.5 63
t-57 70t-52.5 71.5t-46 68.5z" />
    <glyph glyph-name="quotesingle" unicode="'" horiz-adv-x="172" 
d="M79 493q-2 0 -4 6l-8 157q0 7 7 7h22q6 0 6 -7l-10 -157q0 -6 -5 -6h-8z" />
    <glyph glyph-name="parenleft" unicode="(" horiz-adv-x="263" 
d="M215 691q-13 -19 -31.5 -52t-36 -79.5t-29.5 -106t-12 -132.5q0 -87 11.5 -154.5t28 -118.5t36 -86.5t36.5 -58.5q4 -5 0 -8l-7 -4q-5 -3 -8 1q-21 30 -45 66t-44 86t-33 117.5t-13 159.5q0 112 35 204t97 176q3 4 8 3l6 -4q4 -2 1 -9z" />
    <glyph glyph-name="parenright" unicode=")" horiz-adv-x="263" 
d="M211 321q0 -92 -13 -159.5t-33 -117.5t-43.5 -86t-45.5 -66q-3 -4 -8 -1l-7 4q-4 3 0 8q17 23 36.5 58.5t36.5 86.5t28 118.5t11 154.5q0 73 -12 132.5t-29 106t-35.5 79.5t-31.5 52q-5 7 0 9l7 4q5 2 8 -3q61 -84 96 -176t35 -204z" />
    <glyph glyph-name="asterisk" unicode="*" horiz-adv-x="291" 
d="M183 542l73 -49q3 -2 3.5 -3t-1.5 -6l-5 -8q-2 -4 -9 -1l-75 40l-4 -86q0 -6 -5 -6h-11q-4 0 -5 6l-6 87l-80 -39q-4 -2 -7 1l-5 9q-2 3 4 8l72 48l-73 49q-3 2 -3.5 3t1.5 5l4 7q3 4 8 2l79 -40l5 86l1.5 4.5t5.5 1.5h9q5 0 5 -6l5 -86l76 36q3 2 4.5 2t4.5 -4l4 -6
q3 -4 -3 -8z" />
    <glyph glyph-name="plus" unicode="+" horiz-adv-x="530" 
d="M281 143q0 -6 -5 -6h-21q-6 0 -6 6v169h-161q-6 0 -6 5v21q0 6 6 6h161v165q0 6 6 6h22q4 0 4 -6v-165h161q6 0 6 -6v-22q0 -4 -6 -4h-161v-169v0z" />
    <glyph glyph-name="comma" unicode="," horiz-adv-x="169" 
d="M51 -107q27 27 27 66q0 16 -5.5 32t-14.5 29q-6 6 1 10l35 23q5 4 11 -1q10 -11 14 -25.5t4 -22.5q0 -38 -17 -72t-41 -52q-4 -4 -7 -1l-8 7q-4 4 1 7z" />
    <glyph glyph-name="hyphen" unicode="-" horiz-adv-x="344" 
d="M44 304q-5 0 -5 5v27q0 6 5 6h265q5 0 5 -6v-28q0 -4 -5 -4h-265v0z" />
    <glyph glyph-name="period" unicode="." horiz-adv-x="137" 
d="M97 23q0 -14 -5.5 -23t-24.5 -9q-20 0 -25 9.5t-5 22.5q0 14 6 22.5t24 8.5q19 0 24.5 -8.5t5.5 -22.5z" />
    <glyph glyph-name="slash" unicode="/" horiz-adv-x="230" 
d="M40 -62q-1 -5 -6 -5h-25q-7 0 -6 5l185 748q1 6 7 6h24q5 0 5.5 -1t-0.5 -5l-184 -748v0z" />
    <glyph glyph-name="zero" unicode="0" horiz-adv-x="530" 
d="M266 -9q-79 0 -123.5 32t-66 82.5t-26.5 113t-5 122.5q0 28 2 64t9 72.5t21.5 71.5t39 62t61 43.5t88.5 16.5q78 0 123.5 -28t69 -74.5t30 -105.5t6.5 -122q0 -36 -2 -76t-9.5 -79t-22.5 -74.5t-40.5 -62t-63 -42.5t-91.5 -16zM266 641q-62 0 -98.5 -27t-55.5 -71
t-24.5 -99.5t-5.5 -112.5q0 -61 5.5 -116.5t24 -98t55 -68t99.5 -25.5t101 26t58 69t26.5 98.5t6.5 114.5q0 66 -5.5 122.5t-25 98t-58 65.5t-103.5 24z" />
    <glyph glyph-name="one" unicode="1" horiz-adv-x="530" 
d="M451 5q0 -5 -6 -5h-336q-6 0 -6 5v23q0 5 6 5h152v580h-128q-6 0 -6 5v9q0 6 5 7l114 27q5 2 10.5 2h9.5h25q6 0 6 -7v-623h148q6 0 6 -5v-23v0z" />
    <glyph glyph-name="two" unicode="2" horiz-adv-x="530" 
d="M451 506q0 -34 -6 -60t-17.5 -48.5t-28.5 -43t-38 -43.5q-31 -33 -66 -70t-70.5 -73.5t-69 -71.5t-62.5 -63h364q7 0 7 -5v-23q0 -5 -7 -5h-400q-9 0 -9 9v15q0 6 2 11.5t12 15.5q21 21 52 53t66.5 69.5t73 77.5t73.5 77q16 16 31 33.5t27 37.5t19 43t7 50
q0 71 -39 106.5t-133 35.5q-13 0 -33 -1t-43 -3t-46.5 -4t-44.5 -5q-8 -1 -9 5l-2 11q-2 7 5 9q17 7 39.5 11.5t46 7.5t46.5 4.5t40 1.5q58 0 99 -11.5t66 -33t36.5 -52t11.5 -68.5z" />
    <glyph glyph-name="three" unicode="3" horiz-adv-x="530" 
d="M442 663q8 0 8 -8v-21q0 -10 -1.5 -14.5t-6.5 -8.5l-222 -217l108 -18q29 -5 54.5 -15.5t44.5 -28t30 -43.5t11 -60q0 -74 -18 -120.5t-49.5 -72.5t-74.5 -35.5t-94 -9.5q-17 0 -41 1.5t-48.5 4.5t-48 7.5t-40.5 11.5q-7 2 -5 9l2 11q1 6 9 5q21 -3 44.5 -5.5t47 -4.5
t43.5 -3t33 -1q37 0 73 6.5t64.5 27t46 59t17.5 103.5q0 30 -9.5 51t-26 34.5t-39 21.5t-49.5 13l-119 21q-8 0 -8 8v23q0 9 9 18l222 216h-347q-7 0 -7 5v24q0 5 7 5h380v0z" />
    <glyph glyph-name="four" unicode="4" horiz-adv-x="530" 
d="M511 196q0 -5 -7 -5h-91v-185q0 -6 -5 -6h-26q-5 0 -5 6l-1 185h-352q-7 0 -7 5v21q0 12 9 23l342 415q4 5 9 6.5t11 1.5h20q2 -1 3.5 -1.5t1.5 -4.5v-433h91q7 0 7 -5v-23zM376 610l-320 -386h320v386z" />
    <glyph glyph-name="five" unicode="5" horiz-adv-x="530" 
d="M466 229q0 -74 -18 -120.5t-49.5 -72.5t-74.5 -35.5t-94 -9.5q-17 0 -41 1.5t-48.5 4.5t-48 7.5t-40.5 11.5q-7 2 -5 9l2 11q1 6 9 5q21 -3 44.5 -5.5t47 -4.5t43.5 -3t33 -1q37 0 73 6.5t64.5 27t46 59t17.5 103.5q0 30 -9.5 51t-26 34.5t-39 21.5t-49.5 13l-226 37
q-13 3 -11 17l39 256q1 9 12 9h317q8 0 8 -5v-23q0 -5 -8 -5h-297l-34 -218l223 -35q29 -5 54.5 -15.5t44.5 -28t30 -43.5t11 -60z" />
    <glyph glyph-name="six" unicode="6" horiz-adv-x="530" 
d="M492 176q0 -50 -16.5 -85t-46 -57.5t-71.5 -32.5t-93 -10q-83 0 -128 21.5t-65.5 62t-24 99t-3.5 131.5q0 69 7.5 134.5t32.5 116.5t73 82.5t130 31.5q15 0 36 -1t43 -3.5t43.5 -6.5t37.5 -10q7 -2 5 -9l-1 -11q-1 -3 -2.5 -4.5t-6.5 -0.5q-30 2 -73.5 6t-83.5 4
q-63 0 -101.5 -22.5t-60.5 -60.5t-30 -88t-9 -105q48 5 82 8.5t60.5 6t48.5 3.5t47 1q40 0 71.5 -11t53.5 -35.5t33.5 -62.5t11.5 -92zM454 175q0 38 -6.5 69t-23 53t-44.5 34t-71 12q-30 0 -85.5 -4t-140.5 -14v-34q0 -60 2 -111t17 -84q18 -38 58 -56.5t109 -18.5
q28 0 60.5 5.5t60 22t46 46.5t18.5 80z" />
    <glyph glyph-name="seven" unicode="7" horiz-adv-x="530" 
d="M167 -5q-3 -6 -9 -3l-22 10q-7 2 -2 9l304 619h-394q-6 0 -6 6v20q0 7 7 7h425q4 0 6.5 -3t2.5 -5v-19q0 -6 -2.5 -10.5t-4.5 -9.5l-305 -621v0z" />
    <glyph glyph-name="eight" unicode="8" horiz-adv-x="530" 
d="M491 168q0 -38 -15 -70.5t-44.5 -56t-72.5 -37t-99 -13.5q-226 0 -226 175q0 70 36.5 116.5t113.5 69.5v2q-60 16 -94 53.5t-34 85.5q0 88 52 133.5t155 45.5q98 0 151 -44.5t53 -129.5q0 -23 -7.5 -45.5t-23.5 -42t-41 -34.5t-60 -24v-2q75 -18 115.5 -63t40.5 -119z
M428 500q0 39 -13 65.5t-35.5 43.5t-52.5 24.5t-64 7.5q-90 0 -128.5 -35.5t-38.5 -105.5q0 -35 15.5 -58t39.5 -38t53.5 -24t58.5 -16q41 8 72 18.5t51.5 26.5t31 38t10.5 53zM452 166q0 46 -17 75t-44.5 47t-62.5 29t-71 22q-36 -8 -69.5 -18.5t-59 -28t-40.5 -46
t-15 -72.5q0 -46 16.5 -75.5t43.5 -46t60.5 -23t66.5 -6.5q31 0 65 7t62 24t46.5 44t18.5 68z" />
    <glyph glyph-name="nine" unicode="9" horiz-adv-x="530" 
d="M42 484q0 50 16.5 85.5t46.5 58t72 32.5t93 10q81 0 126 -21.5t66 -62.5t25 -99.5t4 -131.5q0 -69 -7.5 -134.5t-33 -116.5t-74 -82t-129.5 -31q-15 0 -36 1t-43.5 3.5t-43.5 6t-37 9.5q-6 3 -6 10l2 11q1 3 2 4.5t6 0.5q30 -3 74 -7t83 -4q63 0 101.5 22.5t60.5 60.5
t30 88t10 106q-48 -5 -82 -9t-60.5 -6t-48.5 -3t-47 -1q-80 0 -125 46.5t-45 153.5zM80 486q0 -38 6.5 -69t23 -53t44.5 -34t71 -12q30 0 85 4t141 14v33q0 60 -2 111.5t-18 84.5q-18 38 -57.5 56t-108.5 18q-28 0 -60.5 -5.5t-60 -21.5t-46 -46.5t-18.5 -79.5z" />
    <glyph glyph-name="colon" unicode=":" horiz-adv-x="169" 
d="M116 410q0 -14 -5.5 -23.5t-24.5 -9.5q-20 0 -25 9.5t-5 23.5q0 13 5.5 21.5t24.5 8.5t24.5 -8t5.5 -22zM116 26q0 -14 -5.5 -23.5t-24.5 -9.5q-20 0 -25 9.5t-5 23.5q0 13 5.5 21.5t24.5 8.5t24.5 -8t5.5 -22z" />
    <glyph glyph-name="semicolon" unicode=";" horiz-adv-x="169" 
d="M116 410q0 -14 -5.5 -23.5t-24.5 -9.5q-20 0 -25 9.5t-5 23.5q0 13 5.5 21.5t24.5 8.5t24.5 -8t5.5 -22zM46 -107q27 27 27 66q0 16 -5.5 32t-14.5 29q-6 6 1 10l35 23q5 4 11 -1q10 -11 14 -25.5t4 -22.5q0 -38 -17 -72.5t-41 -51.5q-4 -4 -7 -1l-8 7q-4 4 1 7z" />
    <glyph glyph-name="less" unicode="&#x3c;" horiz-adv-x="530" 
d="M448 133q0 -10 -11 -5l-345 177q-11 6 -11 12v18q0 7 10 13l343 192q9 5 11 2.5t2 -6.5v-15q0 -8 -2 -10.5t-7 -4.5l-322 -178v-1l321 -162q7 -4 9 -7t2 -11v-14z" />
    <glyph glyph-name="equal" unicode="=" horiz-adv-x="530" 
d="M88 231q-6 0 -6 5v21q0 6 6 6h354q6 0 6 -6v-22q0 -4 -6 -4h-354zM88 399q-6 0 -6 5v21q0 6 6 6h354q6 0 6 -6v-22q0 -4 -6 -4h-354z" />
    <glyph glyph-name="greater" unicode="&#x3e;" horiz-adv-x="530" 
d="M81 147q0 8 2 11t9 7l321 162v1l-322 178q-5 2 -7 4.5t-2 10.5v15q0 4 2 6.5t11 -2.5l343 -192q10 -6 10 -13v-18q0 -6 -11 -12l-345 -177q-11 -5 -11 5v14z" />
    <glyph glyph-name="question" unicode="?" horiz-adv-x="338" 
d="M318 532q0 -23 -7 -41t-18 -32.5t-24.5 -26.5t-27.5 -22q-23 -17 -44 -36t-36.5 -41.5t-25.5 -49.5t-10 -60v-69q0 -7 -6 -7h-18q-3 0 -4 0.5t-2 5.5v80q0 30 9.5 56.5t25 50.5t36.5 45t45 39q12 10 25 20t23.5 22t17.5 26.5t7 34.5q0 32 -11.5 53t-31 33.5t-45.5 17.5
t-55 5q-6 0 -20 -0.5t-30.5 -1t-33 -1.5t-28.5 -2q-8 -1 -8 5l-1 11q0 7 5 8q12 4 28 7t32.5 4.5t32.5 2.5t28 1q27 0 57 -6t55.5 -21t42.5 -42t17 -69zM141 23q0 -14 -5.5 -23t-24.5 -9q-20 0 -25 9.5t-5 22.5q0 14 6 22.5t24 8.5q19 0 24.5 -8.5t5.5 -22.5z" />
    <glyph glyph-name="at" unicode="@" horiz-adv-x="797" 
d="M526 244q0 -11 2.5 -23.5t10 -23t22.5 -17.5t40 -7q29 0 53 13.5t41.5 37.5t27 57t9.5 71q0 72 -22 128.5t-62.5 95.5t-98 59.5t-127.5 20.5q-72 0 -134.5 -24.5t-109 -67.5t-73.5 -102t-27 -128q0 -74 25 -133.5t69.5 -102t106.5 -65.5t136 -23q4 0 16 0.5t28.5 1.5
t34.5 3.5t33 5.5q4 1 6 -3l4 -11q0 -3 -2 -4q-22 -11 -57.5 -15.5t-69.5 -4.5q-78 0 -144 25t-114 71t-75 110.5t-27 143.5q0 76 29.5 140.5t80.5 111t119 73t145 26.5q81 0 144 -23t106.5 -66t66.5 -105t23 -139q0 -50 -13.5 -88t-36 -63.5t-51 -38.5t-58.5 -13
q-51 0 -74.5 16.5t-34.5 53.5q-17 -10 -34 -19.5t-35.5 -16.5t-39.5 -11t-46 -4q-88 0 -88 95q0 62 29.5 89.5t92.5 27.5h118v34q0 22 -3 38t-13 27t-28.5 16.5t-48.5 5.5q-26 0 -52.5 -3t-53.5 -5q-5 -1 -6 0t-2 6l-1 10q-1 6 5 8q25 9 57 11.5t51 2.5q37 0 62 -5t40 -18.5
t21.5 -36t6.5 -58.5v-168zM374 351q-20 0 -36 -3.5t-28 -13t-18.5 -26.5t-6.5 -43q0 -41 14 -55t54 -14q18 0 39 6t40.5 13.5t35 15.5t23.5 12v108h-117z" />
    <glyph glyph-name="A" unicode="A" horiz-adv-x="522" 
d="M501 6q2 -4 1.5 -5t-5.5 -1h-27q-2 0 -4 0.5t-4 5.5l-58 181h-289l-58 -181q-1 -5 -2.5 -5.5t-4.5 -0.5h-25q-8 0 -6 6l217 650q2 5 3.5 5.5t4.5 0.5h31q5 0 8 -7zM260 620h-3l-131 -400h267z" />
    <glyph glyph-name="B" unicode="B" horiz-adv-x="525" 
d="M483 172q0 -40 -12.5 -71.5t-34.5 -54t-52.5 -34.5t-66.5 -12h-241q-8 0 -10 2.5t-2 5.5v647q0 7 7 7l214 1q85 0 131.5 -44.5t46.5 -115.5q0 -17 -3 -38.5t-13 -42.5t-28.5 -40.5t-48.5 -32.5v-1q33 -11 55 -31t35 -45t18 -51.5t5 -48.5zM102 629v-268h169
q75 0 113 37.5t38 97.5q0 59 -35 96t-111 37h-174zM102 329v-296h191q43 0 72 11.5t46 31.5t24 46.5t7 56.5q0 28 -9.5 55t-28.5 48t-47.5 34t-65.5 13h-189z" />
    <glyph glyph-name="C" unicode="C" horiz-adv-x="511" 
d="M71 324q0 70 9.5 133t36.5 110t74.5 75t123.5 28q16 0 39 -1t46.5 -3t46 -6t38.5 -10q7 -2 5 -9l-1 -11q-1 -3 -2.5 -4.5t-6.5 -0.5q-15 1 -33.5 2.5t-39.5 3t-42.5 2.5t-41.5 1q-72 0 -114.5 -28t-64.5 -72t-28.5 -99.5t-6.5 -110.5q0 -58 8 -111.5t31.5 -94.5t65 -65.5
t107.5 -24.5q17 0 38.5 0.5t43 2t42 2.5t35.5 3q8 0 9 -6l2 -11q0 -6 -6 -9q-16 -6 -40.5 -9.5t-49.5 -5.5t-47 -3t-33 -1q-75 0 -122.5 26t-74.5 71.5t-37 106t-10 129.5z" />
    <glyph glyph-name="D" unicode="D" horiz-adv-x="591" 
d="M85 0q-7 0 -8.5 2t-1.5 5v648q0 7 10 7h185q76 0 126 -25.5t79 -69.5t41 -104t12 -130q0 -71 -11 -132t-40 -105.5t-79 -70t-127 -25.5h-186zM112 629v-597h160q68 0 110.5 24.5t66 65t32 93.5t8.5 110q0 54 -8 108.5t-30.5 98t-64 70.5t-107.5 27h-167z" />
    <glyph glyph-name="E" unicode="E" horiz-adv-x="471" 
d="M74 0q-5 0 -5 5v651q0 7 5 7h345q5 0 5 -6v-22q0 -6 -5 -6h-313v-268h282q5 0 5 -5v-20q0 -7 -5 -7h-282v-296h319q6 0 6 -5v-23q0 -5 -6 -5h-351z" />
    <glyph glyph-name="F" unicode="F" horiz-adv-x="448" 
d="M422 635q0 -6 -5 -6h-308v-268h273q5 0 5 -5v-20q0 -7 -5 -7h-273v-322q0 -7 -5 -7h-26q-6 0 -6 7v649q0 7 5 7h340q5 0 5 -6v-22v0z" />
    <glyph glyph-name="G" unicode="G" horiz-adv-x="578" 
d="M333 26q15 0 33 1.5t37 4.5t36.5 7t31.5 9v251h-104q-8 0 -8 7v24q0 5 8 5h136q6 0 6 -7v-287q0 -10 -4 -17t-15 -10q-78 -22 -159 -22q-143 0 -204.5 82t-61.5 250q0 70 10 133t37 110t74.5 75t123.5 28q16 0 39 -1t46.5 -3t46 -6t38.5 -10q7 -2 5 -9l-1 -11
q-1 -3 -2.5 -4.5t-6.5 -0.5q-15 1 -34 2.5t-40.5 3t-43.5 2.5t-42 1q-73 0 -115 -28t-63.5 -72t-27 -99.5t-5.5 -110.5q0 -58 8 -112t32 -95t69 -66t120 -25z" />
    <glyph glyph-name="H" unicode="H" horiz-adv-x="570" 
d="M470 0q-7 0 -7 6v330h-355v-330q0 -6 -5 -6h-26q-5 0 -5 6v651q0 6 5 6h26q5 0 5 -6v-289h355v289q0 6 7 6h24q5 0 5 -6v-651q0 -6 -5 -6h-24z" />
    <glyph glyph-name="I" unicode="I" horiz-adv-x="224" 
d="M129 6q0 -6 -5 -6h-26q-5 0 -5 6v651q0 6 5 6h26q5 0 5 -6v-651v0z" />
    <glyph glyph-name="J" unicode="J" horiz-adv-x="395" 
d="M305 163q0 -38 -8 -70t-28 -55t-53 -35.5t-84 -12.5q-10 0 -24.5 1t-30 3t-32 6t-30.5 9q-6 4 -5 9l3 11q1 7 9 6q40 -5 68 -6t40 -1q43 0 70.5 11t42.5 31t20 48t5 62v477q0 6 5 6h27q5 0 5 -6v-494v0z" />
    <glyph glyph-name="K" unicode="K" horiz-adv-x="524" 
d="M497 8q5 -8 -5 -8h-25q-9 0 -12 6l-209 352l-141 -175v-177q0 -6 -5 -6h-26q-5 0 -5 6v651q0 6 5 6h26q5 0 5 -6v-420l339 420q3 3 5 4.5t8 1.5h27q5 0 5.5 -2.5t-1.5 -4.5l-218 -268l227 -380v0z" />
    <glyph glyph-name="L" unicode="L" horiz-adv-x="458" 
d="M446 5q0 -5 -6 -5h-361q-5 0 -5 6v650q0 7 6 7h24q5 0 5 -7l1 -622h330q6 0 6 -6v-23v0z" />
    <glyph glyph-name="M" unicode="M" horiz-adv-x="713" 
d="M640 7q0 -7 -5 -7h-24q-7 0 -7 7v580h-2l-226 -467q-4 -7 -8 -7h-22q-8 0 -10 6l-225 468h-2v-580q0 -7 -5 -7h-24q-7 0 -7 7v649q0 7 6 7h28q7 0 9 -6l240 -500h1l239 498q2 5 3 6.5t9 1.5h24q8 0 8 -8v-648v0z" />
    <glyph glyph-name="N" unicode="N" horiz-adv-x="603" 
d="M533 7q0 -7 -6 -7h-27q-5 0 -6 1t-3 5l-383 593h-2v-592q0 -7 -5 -7h-24q-7 0 -7 7l1 649q0 7 6 7h27q5 0 6 -1.5l3 -4.5l383 -593h2v592q0 7 5 7h23q7 0 7 -7v-649z" />
    <glyph glyph-name="O" unicode="O" horiz-adv-x="616" 
d="M551 341q0 -63 -7.5 -125.5t-33 -112.5t-74.5 -81t-132 -31t-130.5 31t-72.5 81t-31.5 112.5t-6.5 125.5q0 33 3 70.5t12 74t25.5 70t43.5 59t65.5 41t91.5 15.5q80 0 128.5 -28t75 -74t35 -105.5t8.5 -122.5zM516 331q0 69 -9.5 125.5t-33.5 97t-65 62.5t-104 22
q-60 0 -99.5 -23.5t-63 -64.5t-32.5 -97t-9 -122q0 -63 8.5 -119t31 -98t62 -66t102.5 -24q61 0 101.5 22.5t65 63.5t35 97t10.5 124z" />
    <glyph glyph-name="P" unicode="P" horiz-adv-x="482" 
d="M101 287v-280q0 -7 -6 -7h-24q-7 0 -7 7v650q0 6 7 6h191q41 0 75.5 -11.5t60 -34.5t40 -57t14.5 -80q0 -35 -10.5 -69.5t-33 -62t-58 -44.5t-85.5 -17h-164zM101 629v-310h163q13 0 38.5 4.5t50 21t43 48t18.5 85.5q0 39 -12.5 67.5t-34 47t-51.5 27.5t-66 9h-149z" />
    <glyph glyph-name="Q" unicode="Q" horiz-adv-x="615" 
d="M304 -9q-83 0 -130.5 31t-72.5 81t-31.5 112.5t-6.5 125.5q0 33 3 70.5t12 74t25.5 70t43.5 59t65.5 41t91.5 15.5q80 0 128.5 -28t75 -74t35 -105.5t8.5 -122.5q0 -52 -4.5 -104t-20.5 -97.5t-45.5 -80.5t-78.5 -53l158 -41q5 -1 6 -3.5t0 -4.5l-11 -33q-3 -5 -10 -3
l-206 72q-8 -1 -17 -1.5t-18 -0.5zM304 638q-60 0 -99.5 -23.5t-63 -64.5t-32.5 -97t-9 -122q0 -63 8.5 -119t31 -98t62 -66t102.5 -24q61 0 101.5 22.5t65 63.5t35 97t10.5 124q0 69 -9.5 125.5t-33.5 97t-65 62.5t-104 22z" />
    <glyph glyph-name="R" unicode="R" horiz-adv-x="497" 
d="M103 7q0 -7 -6 -7h-24q-7 0 -7 7v650q0 6 7 6h191q40 0 74.5 -10t60 -31.5t40.5 -56t15 -82.5q0 -30 -7.5 -59t-23.5 -53t-41 -42t-60 -26l139 -295q3 -8 -3 -8h-28q-5 0 -7.5 1t-5.5 7l-131 289h-183v-290zM103 629v-300h163q14 0 39 3.5t50 18.5t43 45.5t18 84.5
q0 42 -12.5 70t-34 45.5t-51.5 25t-66 7.5h-149z" />
    <glyph glyph-name="S" unicode="S" horiz-adv-x="500" 
d="M418 162q0 42 -11 70t-31.5 46t-51 28.5t-69.5 16.5q-47 8 -85 18.5t-65 29t-41.5 47t-14.5 73.5q0 87 54.5 132.5t148.5 45.5q44 0 89 -3.5t83 -17.5q7 -2 5 -9l-1 -11q-1 -3 -2.5 -4.5t-6.5 -0.5q-10 1 -29.5 3t-43 4t-48 3t-43.5 1q-85 0 -126 -37.5t-41 -102.5
q0 -37 13.5 -60.5t36 -38t52.5 -22t63 -13.5q41 -8 78 -18t64.5 -30t44 -52.5t16.5 -84.5q0 -51 -17 -86.5t-46.5 -57t-69 -31t-84.5 -9.5q-15 0 -41 2t-54 5.5t-53 8t-38 9.5q-7 3 -5 10l2 11q2 6 9 5q23 -3 48.5 -5.5t50 -4.5t46 -3t37.5 -1q81 0 129 35t48 99z" />
    <glyph glyph-name="T" unicode="T" horiz-adv-x="455" 
d="M247 630l-1 -624q0 -6 -5 -6h-24q-7 0 -7 6v624h-187q-6 0 -6 5v22q0 6 6 6h412q5 0 5 -6v-22q0 -5 -5 -5h-188z" />
    <glyph glyph-name="U" unicode="U" horiz-adv-x="591" 
d="M522 232q0 -33 -3 -61.5t-14 -55.5q-26 -66 -81 -95t-130 -29q-78 0 -132 29t-77 94q-10 26 -13.5 55.5t-3.5 62.5v423q0 8 7 8h25q5 0 5 -8v-426q0 -95 45 -150t144 -55q94 0 143 51t49 154v426q0 8 7 8h24q5 0 5 -8v-423v0z" />
    <glyph glyph-name="V" unicode="V" horiz-adv-x="532" 
d="M467 657q2 5 8 5h26q5 0 5.5 -0.5t-1.5 -4.5l-217 -650q-3 -7 -8 -7h-31q-3 0 -4.5 0.5t-3.5 5.5l-216 651q-2 5 6 5h24q6 0 7 -5l200 -611h3l202 611v0z" />
    <glyph glyph-name="W" unicode="W" horiz-adv-x="789" 
d="M259 7q-1 -7 -8 -7h-31q-3 0 -4.5 0.5t-3.5 5.5l-186 651q-1 5 6 5h24q6 0 7 -5l170 -611h3l140 496l-33 115q-1 5 6 5h24q6 0 7 -5l170 -611h3l172 611q2 5 8 5h26q5 0 5.5 -0.5t-1.5 -4.5l-187 -650q-1 -7 -8 -7h-31q-3 0 -4.5 0.5t-3.5 5.5l-135 470z" />
    <glyph glyph-name="X" unicode="X" horiz-adv-x="496" 
d="M271 343l199 -337q2 -6 -5 -6h-28q-4 0 -8 6l-180 306l-181 -306q-2 -6 -8 -6h-27q-3 0 -5 1t0 5l199 337l-185 314q-2 3 0.5 4.5t4.5 1.5h26q5 0 6 -2t3 -4l167 -283l166 283q4 6 9 6h27q2 0 4.5 -1.5t0.5 -4.5z" />
    <glyph glyph-name="Y" unicode="Y" horiz-adv-x="481" 
d="M257 7q0 -7 -5 -7h-24q-7 0 -7 7l-1 286l-196 364q-3 5 6 5h26q5 0 7 -5l177 -333l177 333q2 4 4 4.5t4 0.5h26q7 0 5 -5l-199 -364v-286v0z" />
    <glyph glyph-name="Z" unicode="Z" horiz-adv-x="464" 
d="M40 0q-6 0 -6 6v17q0 5 1.5 9t3.5 9l349 588h-329q-7 0 -7 6v22q0 6 7 6h363q4 0 4.5 -2t0.5 -3v-21q0 -9 -4 -17l-346 -587h348q5 0 5 -6v-20q0 -7 -5 -7h-385z" />
    <glyph glyph-name="bracketleft" unicode="[" horiz-adv-x="227" 
d="M184 -94q0 -5 -6 -5h-124q-5 0 -5 5v782q0 7 5 7h125q5 0 5 -6v-17q0 -6 -5 -6h-93v-738h92q1 0 3 -1q3 -3 3 -4v-17v0z" />
    <glyph glyph-name="backslash" unicode="\" horiz-adv-x="230" 
d="M222 -62q2 -5 -6 -5h-24q-5 0 -6 5l-185 748q-1 4 0 5t6 1h24q6 0 7 -6l184 -748v0z" />
    <glyph glyph-name="bracketright" unicode="]" horiz-adv-x="227" 
d="M175 -94q0 -5 -5 -5h-124q-6 0 -6 5v17q0 2 3 4q1 1 3 1h92v738h-93q-5 0 -5 6v17q0 6 5 6h125q5 0 5 -7v-782v0z" />
    <glyph glyph-name="asciicircum" unicode="^" horiz-adv-x="463" 
d="M421 387q-5 -5 -8 0l-183 247l-178 -244q-5 -7 -9 -4l-11 7q-5 4 -1 8l162 251q2 4 4.5 7t11.5 3h45q8 0 9 -2l3 -6l164 -253q2 -2 2 -4.5t-2 -4.5z" />
    <glyph glyph-name="underscore" unicode="_" horiz-adv-x="500" 
d="M0 -117q-6 0 -6 5v15q0 6 6 6h500q6 0 6 -6v-16q0 -4 -6 -4h-500v0z" />
    <glyph glyph-name="grave" unicode="`" horiz-adv-x="472" 
d="M180 681q-3 5 2 7l28 13q7 2 9 -3l67 -129q2 -5 1 -5.5t-3 -2.5l-12 -6q-5 -3 -8 2z" />
    <glyph glyph-name="a" unicode="a" horiz-adv-x="495" 
d="M388 60q-25 -15 -49 -27.5t-50.5 -21.5t-56.5 -14.5t-67 -5.5q-62 0 -91 32t-29 96q0 86 41 124t129 38h173v58q0 31 -5.5 55t-20.5 39.5t-42.5 23.5t-70.5 8q-38 0 -75 -3.5t-75 -7.5q-7 0 -8 5l-2 11q0 5 5 7q17 6 38 10.5t42 7t39.5 3.5t32.5 1q51 0 85 -8.5t54.5 -28
t28.5 -51t8 -77.5v-272q0 -26 9.5 -32t37.5 -7q6 0 6 -6v-13q0 -7 -10 -8q-45 -3 -61 10t-16 54zM388 249h-177q-28 0 -51.5 -5t-41 -19t-27 -38.5t-9.5 -63.5q0 -58 22.5 -79t80.5 -21q26 0 57.5 8.5t60.5 20t52 23l33 16.5v158z" />
    <glyph glyph-name="b" unicode="b" horiz-adv-x="481" 
d="M436 245q0 -131 -43.5 -192.5t-144.5 -61.5q-65 0 -106.5 5.5t-73.5 13.5q-12 3 -15 9t-3 17v659q0 6 5 6h23q3 0 4.5 -0.5t1.5 -5.5v-228l3 -1q53 21 94.5 26t70.5 5q54 0 89.5 -16.5t56.5 -48.5t29.5 -79t8.5 -108zM399 235q0 119 -31.5 174.5t-109.5 55.5
q-38 0 -80 -7t-93 -22v-397q32 -6 73 -10.5t87 -4.5q31 0 59 8t49 30.5t33.5 64t12.5 108.5z" />
    <glyph glyph-name="c" unicode="c" horiz-adv-x="392" 
d="M377 19q1 -6 -5 -8q-15 -5 -35 -9t-41.5 -6.5t-41 -3.5t-32.5 -1q-59 0 -93.5 18.5t-53.5 52.5t-24.5 81t-5.5 104q0 51 6 96.5t25 79.5t55 54t96 20q13 0 32 -1t39 -3.5t39.5 -6.5t34.5 -9q6 -2 5 -8l-2 -10q-2 -6 -9 -5q-40 5 -72.5 8t-63.5 3q-42 0 -70.5 -11.5
t-46 -37.5t-25 -67.5t-7.5 -100.5q0 -62 7 -104.5t24 -69t45.5 -38.5t72.5 -12q31 0 70.5 3t66.5 7q5 1 6 -0.5t2 -4.5z" />
    <glyph glyph-name="d" unicode="d" horiz-adv-x="475" 
d="M424 6v-5t-3 -1h-26q-5 0 -5 6v53q-17 -10 -39.5 -22t-48 -22t-54 -17t-57.5 -7q-83 0 -114.5 59.5t-31.5 185.5q0 65 8.5 114t29 81.5t55.5 49t88 16.5q29 0 71.5 -5.5t90.5 -25.5l3 1v229q0 6 5 6h25q3 0 3 -1v-5v-690zM390 437q-49 15 -90.5 22t-79.5 7
q-76 0 -107.5 -55t-31.5 -178q0 -60 7 -100t21.5 -64.5t36.5 -34.5t52 -10q22 0 50 7.5t55 18.5t50.5 22t36.5 19v346z" />
    <glyph glyph-name="e" unicode="e" horiz-adv-x="460" 
d="M45 247q0 45 6.5 89.5t27 80.5t57.5 58t98 22q60 0 97.5 -18t58 -48.5t28 -70t7.5 -81.5q0 -22 -6.5 -32t-25.5 -10h-310q0 -42 5 -80.5t20.5 -68t45.5 -46.5t80 -17q40 0 76.5 3.5t76.5 7.5q8 0 9 -5l1 -9q2 -7 -4 -8q-15 -6 -36 -10t-43.5 -7t-44.5 -4t-38 -1
q-63 0 -100 21t-56 56t-24.5 81.5t-5.5 96.5zM234 464q-46 0 -75 -15t-45.5 -41.5t-23.5 -62.5t-8 -79h306q-1 38 -5.5 73.5t-20 63.5t-46 44.5t-82.5 16.5z" />
    <glyph glyph-name="f" unicode="f" horiz-adv-x="314" 
d="M97 585q0 63 34 93t90 30q14 0 43 -2.5t60 -13.5q6 -2 9 -4t1 -7l-3 -10q-2 -5 -4 -5.5t-10 1.5q-28 5 -51 6.5t-34 1.5q-48 0 -74 -21t-26 -71v-95h141q6 0 6 -5v-18q0 -5 -6 -5h-141v-454q0 -6 -5 -6h-23q-7 0 -7 6v454h-56q-6 0 -6 5v17q0 6 7 6h55v97z" />
    <glyph glyph-name="g" unicode="g" horiz-adv-x="479" 
d="M430 -16q0 -48 -8 -80.5t-28 -52t-53 -28t-83 -8.5q-18 0 -38 1t-41 3t-41 5.5t-36 9.5q-6 3 -5 9l1 10q1 5 9 5q36 -4 71.5 -7.5t71.5 -3.5q41 0 69 6.5t45 21.5t24.5 40t7.5 62v44l-3 2q-53 -21 -94 -26t-70 -5q-54 0 -89.5 16.5t-57 48.5t-30 79t-8.5 108
q0 131 43 192.5t145 61.5q65 0 106.5 -5.5t73.5 -13.5q13 -3 15.5 -9t2.5 -17v-469zM395 450q-32 6 -73 10.5t-86 4.5q-31 0 -59 -8t-49 -30.5t-33.5 -64t-12.5 -108.5q0 -119 31.5 -174.5t109.5 -55.5q38 0 79.5 7t92.5 22v397z" />
    <glyph glyph-name="h" unicode="h" horiz-adv-x="469" 
d="M284 496q50 0 77 -14.5t40 -39.5t15 -58t2 -69l1 -309q0 -6 -5 -6h-28q-3 0 -3 6v313q0 31 -2 58t-12.5 46.5t-32 31t-59.5 11.5q-22 0 -50 -8t-55 -18.5t-50.5 -22t-36.5 -18.5v-393q0 -6 -5 -6h-26q-3 0 -3 6v690q0 6 3 6h26q5 0 5 -6v-269q15 9 37.5 21t48.5 22.5
t55 18t58 7.5z" />
    <glyph glyph-name="i" unicode="i" horiz-adv-x="197" 
d="M115 6q0 -6 -5 -6h-23q-6 0 -6 6v475q0 6 6 6h24q4 0 4 -6v-475zM123 618q0 -11 -4.5 -19t-20.5 -8t-20 8t-4 19t4.5 18t19.5 7q16 0 20.5 -7t4.5 -18z" />
    <glyph glyph-name="j" unicode="j" horiz-adv-x="208" 
d="M128 -94q0 -17 -3.5 -36.5t-17 -35.5t-41 -26t-76.5 -7q-1 0 -5 1.5t-4 7.5v10q0 9 10 9q37 1 57.5 9t30.5 20t12 27t2 31v566q0 6 5 6h24q6 0 6 -6v-576zM135 618q0 -11 -4.5 -19t-20.5 -8t-20 8t-4 19t4.5 18t19.5 7q16 0 20.5 -7t4.5 -18z" />
    <glyph glyph-name="k" unicode="k" horiz-adv-x="402" 
d="M201 309l196 -302q3 -5 0.5 -6t-4.5 -1h-23q-10 0 -15 9l-177 278l-94 -90v-191q0 -6 -5 -6h-23q-6 0 -6 6v690q0 6 6 6h24q4 0 4 -6v-459l85 85l166 160q6 6 14 6h25q13 0 4 -10z" />
    <glyph glyph-name="l" unicode="l" horiz-adv-x="202" 
d="M75 696q0 6 6 6h25q4 0 4 -6v-634q0 -13 1 -20t5.5 -11t13.5 -4.5t26 0.5q9 0 10 -5l2 -14q2 -8 -8 -11q-11 -3 -21.5 -4t-18.5 -1q-22 0 -33.5 11.5t-11.5 41.5v651v0z" />
    <glyph glyph-name="m" unicode="m" horiz-adv-x="775" 
d="M289 496q49 0 72.5 -21t33.5 -54q48 29 100 52t109 23q47 0 71 -20t34 -51t10.5 -69.5t0.5 -74.5v-275q0 -6 -5 -6h-27q-3 0 -3 6v279q0 31 -0.5 63t-8 58.5t-26 43t-53.5 16.5q-22 0 -50 -8t-55 -19t-50.5 -22.5t-37.5 -17.5l-3 -2q5 -27 4.5 -57t-0.5 -59l1 -275
q0 -6 -5 -6h-28q-3 0 -3 6v279q0 31 -0.5 63t-8 58.5t-26 43t-53.5 16.5q-22 0 -50 -8t-55 -18.5t-50.5 -22t-36.5 -18.5v-393q0 -6 -5 -6h-26q-3 0 -3 6v475q0 6 3 6h26q5 0 5 -6v-54q15 9 37.5 21t48.5 22.5t55 18t58 7.5z" />
    <glyph glyph-name="n" unicode="n" horiz-adv-x="464" 
d="M283 496q50 0 77.5 -14.5t40 -39.5t15 -58t2.5 -69v-309q0 -6 -6 -6h-25q-5 0 -5 6v313q0 31 -2 58t-12.5 46.5t-32 31t-59.5 11.5q-22 0 -50 -8t-55 -18.5t-50.5 -22t-36.5 -18.5v-393q0 -6 -7 -6h-22q-5 0 -5 6v475q0 6 5 6h22q7 0 7 -6v-54q15 9 37.5 21t48.5 22.5
t55 18t58 7.5z" />
    <glyph glyph-name="o" unicode="o" horiz-adv-x="477" 
d="M235 -8q-67 0 -105 23.5t-57 60.5t-23.5 83.5t-4.5 93.5q0 37 6 80t25.5 79.5t57 60.5t101.5 24q65 0 104 -21t59.5 -55.5t27 -78t6.5 -89.5q0 -45 -5 -91.5t-24.5 -84t-59 -61.5t-108.5 -24zM235 464q-49 0 -79 -17t-46.5 -46.5t-22 -69.5t-5.5 -86q0 -47 5.5 -87.5
t22 -70.5t46.5 -47t79 -17q50 0 81.5 16.5t49 46t23.5 70t6 89.5t-6 89.5t-23 69t-48.5 44.5t-82.5 16z" />
    <glyph glyph-name="p" unicode="p" horiz-adv-x="479" 
d="M62 482q0 6 3 6h26q5 0 5 -6v-53q17 10 39.5 22t48.5 22t54.5 17t57.5 7q41 0 69 -14.5t44.5 -44.5t23.5 -76.5t7 -109.5q0 -65 -8 -114t-28.5 -81.5t-55 -49t-88.5 -16.5q-29 0 -71.5 5.5t-90.5 25.5l-3 -1v-191q0 -6 -5 -6h-25q-3 0 -3 6v652zM96 51q50 -15 91 -22
t79 -7q78 0 108 55t30 178q0 60 -7 100.5t-21.5 65t-36 34.5t-51.5 10q-22 0 -50 -8t-55 -18.5t-50.5 -22.5t-36.5 -19v-346z" />
    <glyph glyph-name="q" unicode="q" horiz-adv-x="479" 
d="M43 243q0 130 43.5 192t147.5 62q64 0 104.5 -6t72.5 -13q13 -3 15.5 -9t2.5 -17v-621q0 -7 -5 -7h-23q-5 0 -5 7v190l-3 1q-53 -21 -93 -26t-69 -5q-54 0 -90 16.5t-58 48.5t-31 79t-9 108zM81 253q0 -120 33 -175t111 -55q38 0 78.5 7t91.5 22v397q-32 6 -72 10.5
t-85 4.5q-33 0 -61.5 -8t-49.5 -30.5t-33.5 -64t-12.5 -108.5z" />
    <glyph glyph-name="r" unicode="r" horiz-adv-x="266" 
d="M265 468q3 -11 -6 -13q-16 -5 -37 -12.5t-41.5 -16t-38 -16.5t-25.5 -12v-392q0 -6 -6 -6h-23q-5 0 -5 6v476q0 6 5 6h23q6 0 6 -6v-59q7 5 22 15t33 21t38.5 21t40.5 15q5 2 6.5 0t2.5 -7l5 -20v0z" />
    <glyph glyph-name="s" unicode="s" horiz-adv-x="404" 
d="M327 122q0 30 -7 49.5t-21.5 32t-38 19.5t-56.5 13q-37 6 -67 13t-51 20.5t-32.5 35.5t-11.5 58q0 65 38.5 99.5t121.5 34.5q13 0 31 -1t37.5 -3.5t38 -6.5t33.5 -9q5 -2 5 -8l-2 -10q0 -5 -7 -5q-14 1 -31 3t-35.5 4t-37 3t-33.5 1q-63 0 -93 -23t-30 -76q0 -28 8.5 -45
t24.5 -27t39.5 -15t53.5 -10q36 -6 65 -13.5t50 -22.5t32.5 -39t11.5 -63q0 -77 -46 -107.5t-124 -30.5q-14 0 -33 1t-39.5 3t-40 5.5t-34.5 8.5q-5 2 -5 8l2 10q0 5 8 5q13 -2 32.5 -3.5t40 -3.5t39.5 -3t31 -1q28 0 52.5 5t42.5 16t28 30t10 48z" />
    <glyph glyph-name="t" unicode="t" horiz-adv-x="287" 
d="M279 13q1 -5 -0.5 -6l-4.5 -3q-10 -3 -34.5 -7.5t-56.5 -4.5q-47 0 -63.5 21.5t-16.5 70.5v376h-63q-6 0 -6 5v17q0 6 7 6h62v114q0 6 5 8l18 7q9 4 10 2t1 -9v-122h109q5 0 5 -5v-18q0 -5 -5 -5h-109v-365q0 -17 1.5 -30t7.5 -22.5t18.5 -14.5t34.5 -5q14 0 36 1t34 3
q5 1 6 -0.5t2 -4.5l2 -9v0z" />
    <glyph glyph-name="u" unicode="u" horiz-adv-x="481" 
d="M191 -8q-52 0 -79.5 14.5t-39.5 39.5t-13.5 58t-1.5 69v309q0 6 6 6h24q5 0 5 -6v-313q0 -31 2 -58t12.5 -46.5t32 -31t59.5 -11.5q22 0 50 8t55 18.5t50.5 22t37.5 18.5v393q0 6 7 6h22q6 0 6 -6v-477q0 -5 -6 -5h-23q-7 0 -7 5v56q-15 -9 -37 -21t-48.5 -22.5
t-55.5 -18t-58 -7.5z" />
    <glyph glyph-name="v" unicode="v" horiz-adv-x="437" 
d="M379 481q2 7 10 7h21q5 0 5.5 -1.5t-0.5 -5.5l-172 -475q-2 -6 -8 -6h-28q-8 0 -10 7l-173 475q-2 5 4 5h24q8 0 10 -7l159 -441h2l156 442v0z" />
    <glyph glyph-name="w" unicode="w" horiz-adv-x="662" 
d="M605 481q2 7 10 7h21q5 0 5.5 -1.5t-0.5 -5.5l-152 -475q-2 -6 -8 -6h-28q-8 0 -10 7l-111 346l-111 -347q-2 -6 -8 -6h-28q-8 0 -10 7l-153 475q-2 5 4 5h24q8 0 10 -7l139 -441h2l113 368l-24 75q-2 5 4 5h24q8 0 10 -7l139 -441h2l136 442v0z" />
    <glyph glyph-name="x" unicode="x" horiz-adv-x="405" 
d="M225 248l162 -240q6 -8 -4 -8h-23q-8 0 -12 5l-144 217l-142 -217q-4 -5 -12 -5h-25q-7 0 -3 7l161 241l-151 231q-2 2 -1.5 5t5.5 3h23q6 0 10 -6l135 -207l135 207q4 6 10 6h23q5 0 5 -3t-2 -5z" />
    <glyph glyph-name="y" unicode="y" horiz-adv-x="440" 
d="M176 -171q-1 -2 -2 -3.5t-6 -1.5h-20q-5 0 -6 0.5t0 5.5l55 159l-171 493q-2 5 4 5h24q8 0 10 -7l150 -441h2l161 442q2 7 10 7h21q5 0 5.5 -1.5t-0.5 -5.5l-237 -652v0z" />
    <glyph glyph-name="z" unicode="z" horiz-adv-x="407" 
d="M39 0q-7 0 -7 7v18q0 8 5 15l302 419h-284q-7 0 -7 5v17q0 7 7 7h310q5 0 6 -0.5t1 -5.5v-18q0 -8 -5 -15l-299 -420h298q6 0 6 -5v-17q0 -7 -6 -7h-327z" />
    <glyph glyph-name="braceleft" unicode="{" horiz-adv-x="232" 
d="M23 304q0 4 2 4.5t7 2.5q19 6 30 18t16.5 28t7 34t1.5 36v193q0 18 2 33t9.5 26.5t20.5 17.5t36 6q19 0 36 -4q8 -2 9.5 -4t1.5 -4v-6q0 -5 -1.5 -5.5t-5.5 -0.5q-11 0 -19.5 -0.5t-13.5 -1.5q-17 -3 -25.5 -9t-12.5 -13.5t-4 -16v-17.5v-198q0 -18 -2.5 -37.5t-8.5 -36
t-17 -30t-28 -19.5v-1q35 -23 45 -51.5t11 -71.5v-209q0 -9 0.5 -18t4.5 -17t12.5 -13.5t25.5 -6.5l32 -2q7 -1 7 -6v-7q0 -7 -11 -8q-6 0 -13.5 -1.5t-22.5 -1.5q-23 0 -36.5 6t-20.5 17t-9 26t-2 33v204q0 18 -2 36.5t-8 34t-16.5 27.5t-28.5 17q-5 2 -7 2t-2 5v10z" />
    <glyph glyph-name="bar" unicode="|" horiz-adv-x="211" 
d="M122 -110q0 -6 -7 -6h-19q-4 0 -6.5 0.5t-2.5 5.5v800q0 6 7 6h20q8 0 8 -6v-800z" />
    <glyph glyph-name="braceright" unicode="}" horiz-adv-x="232" 
d="M205 294q0 -5 -2 -5t-7 -2q-18 -5 -28.5 -17t-16.5 -27.5t-8 -34t-2 -36.5v-204q0 -18 -2 -33t-9 -26t-20.5 -17t-36.5 -6q-15 0 -22.5 1.5t-13.5 1.5q-11 1 -11 8v7q0 5 7 6l32 2q16 1 25 6.5t13 13.5t4.5 17t0.5 18v209q1 43 11 71.5t45 51.5v1q-17 6 -28 19.5t-17 30
t-8.5 36t-2.5 37.5v198v17.5t-4 16t-12.5 13.5t-25.5 9q-5 1 -13.5 1.5t-19.5 0.5q-4 0 -5.5 0.5t-1.5 5.5v6q0 2 1.5 4.5t9.5 4.5q19 3 36 3q23 0 36.5 -6t20.5 -17.5t9 -26.5t2 -33v-193q0 -18 1.5 -36t7 -34t16.5 -28t30 -18q5 -2 7 -2.5t2 -4.5v-10v0z" />
    <glyph glyph-name="asciitilde" unicode="~" horiz-adv-x="530" 
d="M370 287q26 0 42 15.5t31 35.5q5 5 7.5 8.5t8.5 -0.5l10 -6q6 -4 6 -7.5t-2 -5.5q-20 -35 -45.5 -53.5t-58.5 -18.5q-25 0 -51 11t-51 24.5t-49 24.5t-45 11q-26 0 -43 -15.5t-32 -35.5q-7 -9 -10 -10.5t-8 1.5l-10 6q-6 4 -5.5 8.5t3.5 9.5q23 35 48.5 52t57.5 17
q24 0 50 -11.5t51.5 -25t49.5 -24.5t45 -11z" />
    <glyph glyph-name="exclamdown" unicode="&#xa1;" horiz-adv-x="198" 
d="M85 327q0 6 4 6h11q5 0 5 -6l10 -502q0 -8 -7 -8h-32q-7 0 -5 8zM67 457q0 14 5.5 23t24.5 9q20 0 25 -9.5t5 -22.5q0 -14 -6 -22.5t-24 -8.5q-19 0 -24.5 8.5t-5.5 22.5z" />
    <glyph glyph-name="cent" unicode="&#xa2;" horiz-adv-x="530" 
d="M432 19q1 -6 -5 -8q-23 -8 -55.5 -12.5t-61.5 -6.5v-109q0 -5 -6 -5h-20q-8 0 -8 5v108q-58 0 -93 19t-53.5 52.5t-24 80.5t-5.5 104q0 51 5.5 96t24 78.5t53.5 54t93 21.5v105q0 5 6 5h21q7 0 7 -5v-106q28 -2 60.5 -6.5t56.5 -12.5q6 -2 5 -8l-2 -10q-1 -2 -1.5 -3.5
t-5.5 -1.5q-14 1 -31 3t-36 4t-37.5 3t-33.5 1q-42 0 -70.5 -11.5t-46 -37.5t-25 -67.5t-7.5 -100.5q0 -62 8 -104.5t25.5 -69t46 -38.5t69.5 -12q31 0 70.5 3t66.5 7q5 1 6 -0.5t2 -4.5z" />
    <glyph glyph-name="sterling" unicode="&#xa3;" horiz-adv-x="530" 
d="M303 671q16 0 37 -1t43 -3.5t42.5 -6.5t36.5 -10q7 -2 5 -9l-1 -11q-1 -3 -2.5 -4.5t-6.5 -0.5q-29 2 -71.5 5.5t-82.5 3.5q-63 0 -96.5 -33.5t-33.5 -97.5v-164h216q5 0 5 -5v-17q0 -7 -5 -7h-216v-89q0 -27 -1 -55t-6.5 -53.5t-17 -46.5t-32.5 -34l342 1q6 0 6 -5v-23
q0 -5 -6 -5h-389q-7 0 -7 7v15q0 7 9 12q25 12 38.5 34.5t19.5 48.5t6.5 53.5t0.5 50.5v89h-59q-5 0 -5 7v17q0 5 5 5h59v168q0 75 44.5 119.5t122.5 44.5z" />
    <glyph glyph-name="currency" unicode="&#xa4;" horiz-adv-x="503" 
d="M59 271q0 36 12 68.5t33 58.5l-53 51q-3 1 -1 5l24 26q2 2 2.5 2t2.5 -2l55 -53q26 21 58.5 33t68.5 12q35 0 66.5 -11.5t57.5 -31.5l49 50q5 5 8 0l22 -23q3 -3 -1 -7l-48 -49q22 -26 34.5 -59t12.5 -70q0 -38 -12.5 -71t-34.5 -59l50 -50q4 -4 1 -7l-23 -23q-3 -5 -8 0
l-50 51q-26 -20 -57.5 -31.5t-66.5 -11.5q-36 0 -68.5 11.5t-58.5 32.5l-56 -55q-2 -2 -2.5 -2t-2.5 2l-24 24q-2 4 1 5l55 56q-21 26 -33.5 58.5t-12.5 69.5zM97 271q0 -34 13 -64t35 -52t51.5 -35t63.5 -13t64.5 13t52.5 35t35 52t13 64t-13 64t-35 52t-52.5 35t-64.5 13
t-63.5 -13t-51.5 -35t-35 -52t-13 -64z" />
    <glyph glyph-name="yen" unicode="&#xa5;" horiz-adv-x="530" 
d="M75 272q-5 0 -5 5v22q0 6 5 6h164l-190 352q-3 5 6 5h26q5 0 7 -5l177 -334l177 334q2 4 4 4.5t4 0.5h26q7 0 5 -5l-192 -352h174q6 0 6 -6v-23q0 -4 -6 -4h-388zM463 205q6 0 6 -6v-22q0 -4 -6 -4h-181v-166q0 -7 -5 -7h-24q-7 0 -7 7v166h-171q-5 0 -5 5v21q0 6 5 6
h388z" />
    <glyph glyph-name="brokenbar" unicode="&#xa6;" horiz-adv-x="211" 
d="M122 -110q0 -6 -7 -6h-19q-4 0 -6.5 0.5t-2.5 5.5v378q0 6 7 6h20q8 0 8 -6v-378zM122 318q0 -6 -7 -6h-19q-4 0 -6.5 0.5t-2.5 5.5v368q0 6 7 6h20q8 0 8 -6v-368z" />
    <glyph glyph-name="section" unicode="&#xa7;" horiz-adv-x="400" 
d="M365 258q0 -19 -2.5 -36.5t-9 -35t-19 -35.5t-32.5 -37q34 -27 44.5 -55.5t10.5 -53.5q0 -32 -11.5 -59t-33 -47t-52 -31.5t-69.5 -11.5q-13 0 -31 1t-37.5 3t-38 6t-33.5 9q-6 2 -4 9l1 10q1 5 8 4q13 -1 30.5 -3t36 -3.5t36.5 -2.5t34 -1q31 0 55.5 9.5t41 25t25.5 36
t9 42.5q0 34 -17 57t-44 40.5t-62 32t-71 30.5q-14 6 -30 17t-29.5 26t-22.5 34t-9 42q0 16 2.5 33t9.5 35.5t20 38t34 40.5q-38 24 -49.5 48.5t-11.5 55.5q0 28 11.5 52.5t33 43t52 29.5t68.5 11q13 0 31 -1t37.5 -3.5t38 -6.5t33.5 -9q7 -2 5 -8l-2 -10q0 -5 -7 -5
q-27 3 -66 7t-71 4q-31 0 -55.5 -9t-41.5 -24t-26 -34.5t-9 -41.5q0 -18 9.5 -33t25 -27.5t35 -24t40.5 -21.5q25 -12 56 -26.5t58.5 -33t46 -43.5t18.5 -59zM333 243q0 22 -7.5 39.5t-19.5 31t-27 23.5t-29 17q-28 14 -57.5 27t-62.5 30q-28 -24 -43.5 -54t-15.5 -62
q0 -44 26 -69.5t59 -41.5q28 -15 59.5 -26.5t64.5 -27.5q23 29 38 54t15 59z" />
    <glyph glyph-name="dieresis" unicode="&#xa8;" horiz-adv-x="475" 
d="M182 615q0 -11 -4.5 -18.5t-19.5 -7.5q-16 0 -19.5 7.5t-3.5 18.5t4.5 17.5t18.5 6.5q15 0 19.5 -6.5t4.5 -17.5zM357 615q0 -11 -4.5 -18.5t-19.5 -7.5q-16 0 -19.5 7.5t-3.5 18.5t4.5 17.5t18.5 6.5q15 0 19.5 -6.5t4.5 -17.5z" />
    <glyph glyph-name="copyright" unicode="&#xa9;" horiz-adv-x="784" 
d="M494 144q0 -7 -5 -7q-9 -3 -23.5 -5.5t-29 -4t-27 -2t-18.5 -0.5q-40 0 -67.5 15.5t-44 42t-24 62t-7.5 75.5t6.5 77t23.5 65t45.5 44.5t72.5 16.5q20 0 47.5 -3t45.5 -9q4 -2 4.5 -4t0.5 -6l-1 -8q0 -7 -9 -5q-3 0 -6 0.5t-7 0.5q-17 2 -37 3.5t-38 1.5q-40 0 -63.5 -17
t-36 -42.5t-16 -56t-3.5 -58.5q0 -29 4.5 -58.5t17.5 -53.5t36 -39t59 -15q20 0 46.5 1.5t43.5 3.5q3 0 6.5 -1.5t3.5 -4.5v-9zM390 -15q-74 0 -138 27.5t-110.5 74.5t-73 111t-26.5 137t27.5 137t74.5 111t110.5 74.5t135.5 27.5q75 0 138.5 -27.5t110.5 -74.5t73.5 -111
t26.5 -137t-27.5 -137t-74.5 -111t-111 -74.5t-136 -27.5zM390 659q-66 0 -124 -25.5t-101.5 -69.5t-68.5 -103t-25 -126t25 -126t68.5 -103t101.5 -69.5t124 -25.5t124.5 25.5t102 69.5t68.5 103t25 126t-25 126t-68.5 103t-102 69.5t-124.5 25.5z" />
    <glyph glyph-name="ordfeminine" unicode="&#xaa;" horiz-adv-x="337" 
d="M260 441h-115q-37 0 -60.5 -14.5t-23.5 -60.5q0 -35 13.5 -48.5t50.5 -13.5q17 0 36.5 4.5t38.5 11.5t34.5 13.5t25.5 11.5v96zM260 322q-32 -17 -66.5 -32t-82.5 -15q-83 0 -83 88q0 57 29 82.5t91 25.5h112v32q0 21 -3.5 35.5t-13.5 24.5t-28 14.5t-46 4.5
q-29 0 -51.5 -1.5t-49.5 -6.5q-8 -2 -9 5l-2 8q-1 8 12 11q10 3 23 5t26.5 3.5t26.5 2.5t23 1q36 0 60 -5.5t38 -18.5t19.5 -34t5.5 -52v-174q0 -17 5.5 -19t26.5 -4q5 0 5 -5v-11q0 -7 -10 -7q-35 -2 -46 7t-12 35z" />
    <glyph glyph-name="guillemotleft" unicode="&#xab;" horiz-adv-x="347" 
d="M308 37q2 -2 1.5 -4.5t-3.5 -2.5h-20q-9 0 -12 2.5t-6 6.5l-100 124q-7 7 0 16l100 127q3 5 5.5 7t10.5 2h20q3 0 4 -2.5t-1 -4.5l-109 -136zM188 37q2 -2 1.5 -4.5t-4.5 -2.5h-19q-9 0 -12.5 2.5t-6.5 6.5l-100 124q-3 4 -3.5 7.5t3.5 8.5l100 127q4 5 6 7t11 2h20
q3 0 3.5 -2.5t-1.5 -4.5l-108 -136z" />
    <glyph glyph-name="logicalnot" unicode="&#xac;" horiz-adv-x="530" 
d="M88 312q-6 0 -6 5v21q0 6 6 6h355q5 0 5 -6v-196q0 -5 -6 -5h-21q-4 0 -4 5v170h-329v0z" />
    <glyph glyph-name="sfthyphen" unicode="&#xad;" horiz-adv-x="344" 
d="M44 304q-5 0 -5 5v27q0 6 5 6h265q5 0 5 -6v-28q0 -4 -5 -4h-265v0z" />
    <glyph glyph-name="registered" unicode="&#xae;" horiz-adv-x="509" 
d="M470 506q0 -46 -17 -86t-46.5 -70t-68.5 -47t-84 -17t-84.5 17t-68.5 47t-46 70t-17 86t17 86t46 69.5t68.5 46.5t84.5 17q46 0 85.5 -17t68.5 -46.5t45.5 -69.5t16.5 -86zM448 506q0 41 -15.5 77t-41.5 63t-61.5 42.5t-75.5 15.5q-41 0 -76.5 -15.5t-61.5 -42.5
t-41.5 -63t-15.5 -77t15.5 -77.5t41.5 -63.5t61.5 -42.5t76.5 -15.5q40 0 75.5 15.5t61.5 42.5t41.5 63.5t15.5 77.5zM335 366q-7 0 -9 5l-51 113h-67v-113q0 -5 -6 -5h-11q-6 0 -6 5v264q0 5 7 5h77q32 0 55.5 -17.5t23.5 -59.5q0 -23 -11.5 -45t-39.5 -30l54 -114
q4 -8 -2 -8h-14zM208 618v-113h61q6 0 15.5 1.5t18.5 7.5t16 17.5t7 31.5q0 32 -17.5 43.5t-44.5 11.5h-56z" />
    <glyph glyph-name="macron" unicode="&#xaf;" horiz-adv-x="475" 
d="M139 595q-5 0 -5 5v22q0 6 5 6h225q5 0 5 -6v-23q0 -4 -5 -4h-225v0z" />
    <glyph glyph-name="degree" unicode="&#xb0;" horiz-adv-x="324" 
d="M171 425q-57 0 -88 33.5t-31 82.5q0 24 9.5 45t25.5 37t37.5 25.5t46.5 9.5t46 -9.5t36.5 -25.5t24.5 -37t9 -45t-9 -45.5t-24.5 -37t-37 -24.5t-45.5 -9zM169 627q-36 0 -61 -26t-25 -62q0 -18 6.5 -33.5t18.5 -27t27.5 -18.5t33.5 -7q17 0 32.5 7t27 18.5t18.5 27
t7 33.5t-7 34t-18.5 28t-27 19t-32.5 7z" />
    <glyph glyph-name="plusminus" unicode="&#xb1;" horiz-adv-x="530" 
d="M279 143q0 -6 -5 -6h-21q-6 0 -6 6v169h-158q-6 0 -6 5v21q0 6 6 6h158v165q0 6 6 6h22q4 0 4 -6v-165h161q6 0 6 -6v-22q0 -4 -6 -4h-161v-169zM440 80q6 0 6 -6v-22q0 -4 -6 -4h-351q-6 0 -6 5v21q0 6 6 6h351z" />
    <glyph glyph-name="twosuperior" unicode="&#xb2;" horiz-adv-x="322" 
d="M278 658q0 -37 -16 -62.5t-40 -48.5l-153 -149h208q8 0 8 -8v-11q0 -8 -8 -8h-240q-5 0 -8 0.5t-3 7.5v10q0 5 2 9t9 11l160 156q18 17 32.5 39.5t14.5 48.5q0 37 -24 56.5t-78 19.5q-17 0 -44.5 -2t-51.5 -7q-7 -1 -8.5 0.5t-2.5 6.5l-1 6q-2 8 6 10q10 3 24 5.5t28 4.5
t28 3.5t24 1.5q73 0 103.5 -28t30.5 -72z" />
    <glyph glyph-name="threesuperior" unicode="&#xb3;" horiz-adv-x="322" 
d="M268 753q9 0 9 -9v-12q0 -12 -6 -16l-131 -117l64 -10q38 -6 61 -25.5t23 -61.5q0 -43 -11 -69.5t-31 -41.5t-47 -20t-58 -5q-11 0 -25.5 1t-30.5 2.5t-31 4.5t-26 7q-5 2 -3 8l3 10q2 5 11 4q25 -4 54.5 -6t45.5 -2q21 0 42 3t37.5 13.5t26.5 31.5t10 56q0 31 -18 46
t-53 20l-71 11q-8 1 -8 9v13q0 7 6 13l126 114h-198q-9 0 -9 7v12q0 9 9 9h229v0z" />
    <glyph glyph-name="acute" unicode="&#xb4;" horiz-adv-x="472" 
d="M236 557q-3 -5 -7 -2l-12 6q-5 3 -3 8l67 129q3 6 9 3l28 -13q5 -2 2 -7z" />
    <glyph glyph-name="mu" unicode="&#xb5;" horiz-adv-x="481" 
d="M92 -170q0 -6 -5 -6h-25q-3 0 -3 6v652q0 6 6 6h22q5 0 5 -6v-313q0 -31 2 -58t12.5 -46.5t32 -31t59.5 -11.5q22 0 50 8t55 18.5t50.5 22t37.5 18.5v393q0 6 7 6h21q6 0 6 -6v-476q0 -5 -6 -5h-22q-7 0 -7 5v55q-15 -9 -37 -21t-48.5 -22.5t-55.5 -18t-58 -7.5
q-36 0 -60 8t-39 22v-192v0z" />
    <glyph glyph-name="mu" unicode="&#x3bc;" horiz-adv-x="481" 
d="M92 -170q0 -6 -5 -6h-25q-3 0 -3 6v652q0 6 6 6h22q5 0 5 -6v-313q0 -31 2 -58t12.5 -46.5t32 -31t59.5 -11.5q22 0 50 8t55 18.5t50.5 22t37.5 18.5v393q0 6 7 6h21q6 0 6 -6v-476q0 -5 -6 -5h-22q-7 0 -7 5v55q-15 -9 -37 -21t-48.5 -22.5t-55.5 -18t-58 -7.5
q-36 0 -60 8t-39 22v-192v0z" />
    <glyph glyph-name="paragraph" unicode="&#xb6;" horiz-adv-x="467" 
d="M389 656q10 0 10 -10v-14q0 -11 -10 -11h-37v-696q0 -10 -10 -10h-16q-11 0 -11 10v697h-106v-697q0 -10 -10 -10h-16q-11 0 -11 10v396q-40 0 -67.5 15t-44 39t-23.5 54t-7 60q0 39 14.5 70t38.5 52.5t56 33t67 11.5h183z" />
    <glyph glyph-name="periodcentered" unicode="&#xb7;" horiz-adv-x="169" 
d="M116 254q0 -14 -5.5 -23.5t-24.5 -9.5q-20 0 -25 9.5t-5 23.5q0 13 5.5 21.5t24.5 8.5t24.5 -8t5.5 -22z" />
    <glyph glyph-name="cedilla" unicode="&#xb8;" horiz-adv-x="392" 
d="M223 -53q47 -3 63.5 -20.5t16.5 -43.5q0 -36 -26.5 -53.5t-65.5 -17.5q-11 0 -29 3t-34 8q-8 3 -6 9l3 9q2 5 9 4q17 -3 31.5 -4.5t25.5 -1.5q23 0 39 11t16 31t-12.5 31.5t-53.5 13.5q-5 0 -7 3.5t0 8.5l29 74h25z" />
    <glyph glyph-name="onesuperior" unicode="&#xb9;" horiz-adv-x="271" 
d="M239 377q0 -6 -8 -6h-190q-8 0 -8 6v13q0 8 8 8h77v313h-71q-9 0 -9 7v6q0 7 6 8l70 18q9 3 16 3h11q9 0 9 -8v-347h81q8 0 8 -8v-13v0z" />
    <glyph glyph-name="ordmasculine" unicode="&#xba;" horiz-adv-x="329" 
d="M162 275q-47 0 -73.5 15.5t-40 40.5t-16.5 56t-3 62q0 24 4 52t18 52t40 40t71 16t72 -14t42 -36.5t19.5 -51t4.5 -58.5t-3.5 -61t-17 -56t-41.5 -41t-76 -16zM162 579q-32 0 -51.5 -10.5t-30.5 -29t-14.5 -43.5t-3.5 -53q0 -30 3.5 -55t14.5 -44t30.5 -29.5t51.5 -10.5
q33 0 53.5 10.5t32 29t15.5 44t4 55.5q0 31 -4 56t-15 43t-32 27.5t-54 9.5z" />
    <glyph glyph-name="guillemotright" unicode="&#xbb;" horiz-adv-x="347" 
d="M206 39q-3 -4 -6.5 -6.5t-11.5 -2.5h-20q-3 0 -4 2.5t1 4.5l110 135l-108 135q-6 8 2 8h20q9 0 11 -2l6 -6l100 -127q6 -10 0 -16zM85 39q-3 -4 -6 -6.5t-12 -2.5h-20q-3 0 -3.5 2.5t1.5 4.5l110 135l-108 135q-6 8 2 8h20q8 0 10.5 -2t5.5 -6l100 -127q7 -10 1 -16z" />
    <glyph glyph-name="onequarter" unicode="&#xbc;" horiz-adv-x="730" 
d="M276 287q0 -6 -8 -6h-190q-8 0 -8 6v13q0 8 8 8h77v313h-71q-9 0 -9 7v6q0 7 6 8l70 18q9 3 16 3h11q9 0 9 -8v-347h81q8 0 8 -8v-13zM248 -17q-2 -6 -7 -6h-20q-6 0 -4 6l272 712q1 5 6 5h21q5 0 5.5 -1t-1.5 -4zM659 115q0 -7 -8 -7h-50v-99q0 -9 -8 -9h-15q-5 0 -6 2
t-1 7v99h-208q-7 0 -7 7v12q0 9 6 15l205 234q5 5 7.5 5.5t6.5 0.5h11q5 0 7 -1t2 -7v-239h50q8 0 8 -7v-13zM571 338l-178 -203h178v203z" />
    <glyph glyph-name="onehalf" unicode="&#xbd;" horiz-adv-x="730" 
d="M251 287q0 -6 -8 -6h-190q-8 0 -8 6v13q0 8 8 8h77v313h-71q-9 0 -9 7v6q0 7 6 8l70 18q9 3 16 3h11q9 0 9 -8v-347h81q8 0 8 -8v-13zM228 -17q-2 -6 -7 -6h-20q-6 0 -4 6l272 712q1 5 6 5h21q5 0 5.5 -1t-1.5 -4zM678 287q0 -37 -16 -62.5t-40 -48.5l-153 -149h208
q8 0 8 -8v-11q0 -8 -8 -8h-240q-5 0 -8 0.5t-3 7.5v10q0 5 2 9t9 11l160 156q18 17 32.5 39.5t14.5 48.5q0 37 -24 56.5t-78 19.5q-17 0 -44.5 -2t-51.5 -7q-7 -1 -8.5 0.5t-2.5 6.5l-1 6q-2 8 6 10q10 3 24 5.5t28 4.5t28 3.5t24 1.5q73 0 103.5 -28t30.5 -72z" />
    <glyph glyph-name="threequarters" unicode="&#xbe;" horiz-adv-x="730" 
d="M283 663q9 0 9 -9v-12q0 -12 -6 -16l-131 -117l64 -10q38 -6 61 -25.5t23 -61.5q0 -43 -11 -69.5t-31 -41.5t-47 -20t-58 -5q-11 0 -25.5 1t-30.5 2.5t-31 4.5t-26 7q-5 2 -3 8l3 10q2 5 11 4q25 -4 54.5 -6t45.5 -2q21 0 42 3t37.5 13.5t26.5 31.5t10 56q0 31 -18 46
t-53 20l-71 11q-8 1 -8 9v13q0 7 6 13l126 114h-198q-9 0 -9 7v12q0 9 9 9h229zM264 -17q-2 -6 -7 -6h-20q-6 0 -4 6l272 712q1 5 6 5h21q5 0 5.5 -1t-1.5 -4zM690 115q0 -7 -8 -7h-50v-99q0 -9 -8 -9h-15q-5 0 -6 2t-1 7v99h-208q-7 0 -7 7v12q0 9 6 15l205 234
q5 5 7.5 5.5t6.5 0.5h11q5 0 7 -1t2 -7v-239h50q8 0 8 -7v-13zM602 338l-178 -203h178v203z" />
    <glyph glyph-name="questiondown" unicode="&#xbf;" horiz-adv-x="338" 
d="M20 -52q0 23 7 41t18 32.5t24.5 26t27.5 22.5q23 17 44 35.5t36.5 41t25.5 50t10 60.5v69q0 7 6 7h18q3 0 4.5 -0.5t1.5 -5.5v-80q0 -30 -9.5 -56.5t-25 -50.5t-36.5 -45t-45 -39q-12 -10 -25 -20t-23.5 -22t-17.5 -27.5t-7 -34.5q0 -32 11.5 -53t31 -33t45.5 -17t55 -5
q6 0 19.5 0.5t30 1t33.5 1.5t29 2q5 1 6 -0.5t2 -4.5l1 -10q2 -7 -5 -9q-12 -4 -28 -7t-32.5 -4.5t-32.5 -2.5t-28 -1q-27 0 -57.5 6t-56 21t-42 42t-16.5 69zM199 457q0 14 5.5 23t24.5 9q20 0 25 -9.5t5 -22.5q0 -14 -6 -22.5t-24 -8.5q-19 0 -24.5 8.5t-5.5 22.5z" />
    <glyph glyph-name="Agrave" unicode="&#xc0;" horiz-adv-x="522" 
d="M501 6q2 -4 1.5 -5t-5.5 -1h-27q-2 0 -4 0.5t-4 5.5l-58 181h-289l-58 -181q-1 -5 -2.5 -5.5t-4.5 -0.5h-25q-8 0 -6 6l217 650q2 5 3.5 5.5t4.5 0.5h31q5 0 8 -7zM260 620h-3l-131 -400h267zM126 781q-6 3 -2 8l19 24q3 4 4 4t5 -2l120 -83q4 -3 3.5 -4.5t-2.5 -3.5
l-8 -11q-2 -4 -7 -2z" />
    <glyph glyph-name="Aacute" unicode="&#xc1;" horiz-adv-x="522" 
d="M501 6q2 -4 1.5 -5t-5.5 -1h-27q-2 0 -4 0.5t-4 5.5l-58 181h-289l-58 -181q-1 -5 -2.5 -5.5t-4.5 -0.5h-25q-8 0 -6 6l217 650q2 5 3.5 5.5t4.5 0.5h31q5 0 8 -7zM260 620h-3l-131 -400h267zM261 711q-5 -2 -7 2l-8 11q-2 2 -2.5 3.5t3.5 4.5l120 83q4 2 5 2t4 -4
l19 -24q3 -5 -2 -8z" />
    <glyph glyph-name="Acircumflex" unicode="&#xc2;" horiz-adv-x="522" 
d="M501 6q2 -4 1.5 -5t-5.5 -1h-27q-2 0 -4 0.5t-4 5.5l-58 181h-289l-58 -181q-1 -5 -2.5 -5.5t-4.5 -0.5h-25q-8 0 -6 6l217 650q2 5 3.5 5.5t4.5 0.5h31q5 0 8 -7zM260 620h-3l-131 -400h267zM388 728q3 -4 0 -7l-11 -10q-3 -2 -8 1l-111 72l-110 -72q-5 -3 -8 -1l-11 10
q-4 3 0 7l94 82q7 7 14 7h43q6 0 8 -1.5t7 -5.5z" />
    <glyph glyph-name="Atilde" unicode="&#xc3;" horiz-adv-x="522" 
d="M501 6q2 -4 1.5 -5t-5.5 -1h-27q-2 0 -4 0.5t-4 5.5l-58 181h-289l-58 -181q-1 -5 -2.5 -5.5t-4.5 -0.5h-25q-8 0 -6 6l217 650q2 5 3.5 5.5t4.5 0.5h31q5 0 8 -7zM260 620h-3l-131 -400h267zM336 744q18 0 29.5 11.5t21.5 28.5q3 5 5 6.5t8 -1.5l10 -5q5 -3 4 -7t-2 -6
q-29 -57 -77 -57q-20 0 -38.5 8.5t-36 18t-34 18t-31.5 8.5t-28 -11t-24 -27q-5 -8 -8 -9t-8 1l-8 4q-6 3 -5.5 8t3.5 10q33 55 79 55q17 0 36 -8.5t37.5 -18.5t36 -18.5t30.5 -8.5z" />
    <glyph glyph-name="Adieresis" unicode="&#xc4;" horiz-adv-x="522" 
d="M501 6q2 -4 1.5 -5t-5.5 -1h-27q-2 0 -4 0.5t-4 5.5l-58 181h-289l-58 -181q-1 -5 -2.5 -5.5t-4.5 -0.5h-25q-8 0 -6 6l217 650q2 5 3.5 5.5t4.5 0.5h31q5 0 8 -7zM260 620h-3l-131 -400h267zM189 753q0 -11 -4 -18t-19 -7q-16 0 -20 7.5t-4 17.5q0 11 5 18t19 7
q15 0 19 -7t4 -18zM350 753q0 -11 -4 -18t-19 -7q-16 0 -20 7.5t-4 17.5q0 11 5 18t19 7q15 0 19 -7t4 -18z" />
    <glyph glyph-name="Aring" unicode="&#xc5;" horiz-adv-x="522" 
d="M501 6q2 -4 1.5 -5t-5.5 -1h-27q-2 0 -4 0.5t-4 5.5l-58 181h-289l-58 -181q-1 -5 -2.5 -5.5t-4.5 -0.5h-25q-8 0 -6 6l217 650q2 5 3.5 5.5t4.5 0.5h31q5 0 8 -7zM260 620h-3l-131 -400h267zM260 690q-36 0 -63.5 25t-27.5 65q0 39 27.5 64t63.5 25q19 0 35.5 -7.5
t28.5 -19.5t19 -28t7 -34q0 -36 -25.5 -63t-64.5 -27zM260 844q-26 0 -43.5 -19t-17.5 -45q0 -28 16.5 -46t44.5 -18q27 0 44.5 18t17.5 46q0 26 -17.5 45t-44.5 19z" />
    <glyph glyph-name="AE" unicode="&#xc6;" horiz-adv-x="779" 
d="M377 187h-235l-96 -181q-2 -5 -4.5 -5.5t-5.5 -0.5h-22q-10 0 -6 6l344 650q2 5 4 6t5 1h366q5 0 5 -6v-22q0 -6 -5 -6h-313v-268h282q5 0 5 -5v-20q0 -7 -5 -7h-282v-296h319q6 0 6 -5v-23q0 -5 -6 -5h-351q-5 0 -5 5v182zM159 220h218v409h-3z" />
    <glyph glyph-name="Ccedilla" unicode="&#xc7;" horiz-adv-x="511" 
d="M71 324q0 70 9.5 133t36.5 110t74.5 75t123.5 28q16 0 39 -1t46.5 -3t46 -6t38.5 -10q7 -2 5 -9l-1 -11q-1 -3 -2.5 -4.5t-6.5 -0.5q-15 1 -33.5 2.5t-39.5 3t-42.5 2.5t-41.5 1q-72 0 -114.5 -28t-64.5 -72t-28.5 -99.5t-6.5 -110.5q0 -58 8 -111.5t31.5 -94.5t65 -65.5
t107.5 -24.5q17 0 38.5 0.5t43 2t42 2.5t35.5 3q8 0 9 -6l2 -11q0 -6 -6 -9q-14 -5 -35.5 -8.5t-44 -5.5t-43.5 -3.5t-35 -1.5l-16 -44q47 -3 63.5 -20.5t16.5 -43.5q0 -36 -26.5 -53.5t-65.5 -17.5q-11 0 -29 3t-34 8q-8 3 -6 9l3 9q2 5 9 4q17 -3 31.5 -4.5t25.5 -1.5
q23 0 39 11t16 31t-12.5 31.5t-53.5 13.5q-5 0 -7 3.5t0 8.5l21 54q-71 2 -115.5 29t-70.5 72t-35.5 104t-9.5 127z" />
    <glyph glyph-name="Egrave" unicode="&#xc8;" horiz-adv-x="471" 
d="M74 0q-5 0 -5 5v651q0 7 5 7h345q5 0 5 -6v-22q0 -6 -5 -6h-313v-268h282q5 0 5 -5v-20q0 -7 -5 -7h-282v-296h319q6 0 6 -5v-23q0 -5 -6 -5h-351zM126 781q-6 3 -2 8l19 24q3 4 4 4t5 -2l120 -83q4 -3 3.5 -4.5t-2.5 -3.5l-8 -11q-2 -4 -7 -2z" />
    <glyph glyph-name="Eacute" unicode="&#xc9;" horiz-adv-x="471" 
d="M74 0q-5 0 -5 5v651q0 7 5 7h345q5 0 5 -6v-22q0 -6 -5 -6h-313v-268h282q5 0 5 -5v-20q0 -7 -5 -7h-282v-296h319q6 0 6 -5v-23q0 -5 -6 -5h-351zM241 711q-5 -2 -7 2l-8 11q-2 2 -2.5 3.5t3.5 4.5l120 83q4 2 5 2t4 -4l19 -24q3 -5 -2 -8z" />
    <glyph glyph-name="Ecircumflex" unicode="&#xca;" horiz-adv-x="471" 
d="M74 0q-5 0 -5 5v651q0 7 5 7h345q5 0 5 -6v-22q0 -6 -5 -6h-313v-268h282q5 0 5 -5v-20q0 -7 -5 -7h-282v-296h319q6 0 6 -5v-23q0 -5 -6 -5h-351zM381 728q3 -4 0 -7l-11 -10q-3 -2 -8 1l-111 72l-110 -72q-5 -3 -8 -1l-11 10q-4 3 0 7l94 82q7 7 14 7h43q6 0 8 -1.5
t7 -5.5z" />
    <glyph glyph-name="Edieresis" unicode="&#xcb;" horiz-adv-x="471" 
d="M74 0q-5 0 -5 5v651q0 7 5 7h345q5 0 5 -6v-22q0 -6 -5 -6h-313v-268h282q5 0 5 -5v-20q0 -7 -5 -7h-282v-296h319q6 0 6 -5v-23q0 -5 -6 -5h-351zM181 753q0 -11 -4 -18t-19 -7q-16 0 -20 7.5t-4 17.5q0 11 5 18t19 7q15 0 19 -7t4 -18zM342 753q0 -11 -4 -18t-19 -7
q-16 0 -20 7.5t-4 17.5q0 11 5 18t19 7q15 0 19 -7t4 -18z" />
    <glyph glyph-name="Igrave" unicode="&#xcc;" horiz-adv-x="224" 
d="M129 6q0 -6 -5 -6h-26q-5 0 -5 6v651q0 6 5 6h26q5 0 5 -6v-651zM-19 781q-6 3 -2 8l19 24q3 4 4 4t5 -2l120 -83q4 -3 3.5 -4.5t-2.5 -3.5l-8 -11q-2 -4 -7 -2z" />
    <glyph glyph-name="Iacute" unicode="&#xcd;" horiz-adv-x="224" 
d="M129 6q0 -6 -5 -6h-26q-5 0 -5 6v651q0 6 5 6h26q5 0 5 -6v-651zM111 711q-5 -2 -7 2l-8 11q-2 2 -2.5 3.5t3.5 4.5l120 83q4 2 5 2t4 -4l19 -24q3 -5 -2 -8z" />
    <glyph glyph-name="Icircumflex" unicode="&#xce;" horiz-adv-x="224" 
d="M129 6q0 -6 -5 -6h-26q-5 0 -5 6v651q0 6 5 6h26q5 0 5 -6v-651zM238 728q3 -4 0 -7l-11 -10q-3 -2 -8 1l-111 72l-110 -72q-5 -3 -8 -1l-11 10q-4 3 0 7l94 82q7 7 14 7h43q6 0 8 -1.5t7 -5.5z" />
    <glyph glyph-name="Idieresis" unicode="&#xcf;" horiz-adv-x="224" 
d="M129 6q0 -6 -5 -6h-26q-5 0 -5 6v651q0 6 5 6h26q5 0 5 -6v-651zM52 753q0 -11 -4 -18t-19 -7q-16 0 -20 7.5t-4 17.5q0 11 5 18t19 7q15 0 19 -7t4 -18zM213 753q0 -11 -4 -18t-19 -7q-16 0 -20 7.5t-4 17.5q0 11 5 18t19 7q15 0 19 -7t4 -18z" />
    <glyph glyph-name="Eth" unicode="&#xd0;" horiz-adv-x="591" 
d="M6 327q-5 0 -5 5v22q0 6 5 6h69v295q0 7 10 7h185q76 0 126 -25.5t79 -69.5t41 -104t12 -130q0 -71 -11 -132t-40 -105.5t-79 -70t-127 -25.5h-186q-7 0 -8.5 2t-1.5 5v320h-69zM112 629v-269h119q5 0 5 -6v-23q0 -4 -5 -4h-119v-295h160q68 0 110.5 24.5t66 65t32 93.5
t8.5 110q0 54 -8 108.5t-30.5 98t-64 70.5t-107.5 27h-167z" />
    <glyph glyph-name="Ntilde" unicode="&#xd1;" horiz-adv-x="603" 
d="M533 7q0 -7 -6 -7h-27q-5 0 -6 1t-3 5l-383 593h-2v-592q0 -7 -5 -7h-24q-7 0 -7 7l1 649q0 7 6 7h27q5 0 6 -1.5l3 -4.5l383 -593h2v592q0 7 5 7h23q7 0 7 -7v-649zM379 743q18 0 29.5 11.5t21.5 28.5q3 5 5 6.5t8 -1.5l10 -5q5 -3 4 -7t-2 -6q-29 -57 -77 -57
q-20 0 -38.5 8.5t-36 18t-34 18t-31.5 8.5t-28 -11t-24 -27q-5 -8 -8 -9t-8 1l-8 4q-6 3 -5.5 8t3.5 10q33 55 79 55q17 0 36 -8.5t37.5 -18.5t36 -18.5t30.5 -8.5z" />
    <glyph glyph-name="Ograve" unicode="&#xd2;" horiz-adv-x="616" 
d="M551 341q0 -63 -7.5 -125.5t-33 -112.5t-74.5 -81t-132 -31t-130.5 31t-72.5 81t-31.5 112.5t-6.5 125.5q0 33 3 70.5t12 74t25.5 70t43.5 59t65.5 41t91.5 15.5q80 0 128.5 -28t75 -74t35 -105.5t8.5 -122.5zM516 331q0 69 -9.5 125.5t-33.5 97t-65 62.5t-104 22
q-60 0 -99.5 -23.5t-63 -64.5t-32.5 -97t-9 -122q0 -63 8.5 -119t31 -98t62 -66t102.5 -24q61 0 101.5 22.5t65 63.5t35 97t10.5 124zM208 781q-6 3 -2 8l19 24q3 4 4 4t5 -2l120 -83q4 -3 3.5 -4.5t-2.5 -3.5l-8 -11q-2 -4 -7 -2z" />
    <glyph glyph-name="Oacute" unicode="&#xd3;" horiz-adv-x="616" 
d="M551 341q0 -63 -7.5 -125.5t-33 -112.5t-74.5 -81t-132 -31t-130.5 31t-72.5 81t-31.5 112.5t-6.5 125.5q0 33 3 70.5t12 74t25.5 70t43.5 59t65.5 41t91.5 15.5q80 0 128.5 -28t75 -74t35 -105.5t8.5 -122.5zM516 331q0 69 -9.5 125.5t-33.5 97t-65 62.5t-104 22
q-60 0 -99.5 -23.5t-63 -64.5t-32.5 -97t-9 -122q0 -63 8.5 -119t31 -98t62 -66t102.5 -24q61 0 101.5 22.5t65 63.5t35 97t10.5 124zM273 711q-5 -2 -7 2l-8 11q-2 2 -2.5 3.5t3.5 4.5l120 83q4 2 5 2t4 -4l19 -24q3 -5 -2 -8z" />
    <glyph glyph-name="Ocircumflex" unicode="&#xd4;" horiz-adv-x="616" 
d="M551 341q0 -63 -7.5 -125.5t-33 -112.5t-74.5 -81t-132 -31t-130.5 31t-72.5 81t-31.5 112.5t-6.5 125.5q0 33 3 70.5t12 74t25.5 70t43.5 59t65.5 41t91.5 15.5q80 0 128.5 -28t75 -74t35 -105.5t8.5 -122.5zM516 331q0 69 -9.5 125.5t-33.5 97t-65 62.5t-104 22
q-60 0 -99.5 -23.5t-63 -64.5t-32.5 -97t-9 -122q0 -63 8.5 -119t31 -98t62 -66t102.5 -24q61 0 101.5 22.5t65 63.5t35 97t10.5 124zM439 728q3 -4 0 -7l-11 -10q-3 -2 -8 1l-111 72l-110 -72q-5 -3 -8 -1l-11 10q-4 3 0 7l94 82q7 7 14 7h43q6 0 8 -1.5t7 -5.5z" />
    <glyph glyph-name="Otilde" unicode="&#xd5;" horiz-adv-x="616" 
d="M551 341q0 -63 -7.5 -125.5t-33 -112.5t-74.5 -81t-132 -31t-130.5 31t-72.5 81t-31.5 112.5t-6.5 125.5q0 33 3 70.5t12 74t25.5 70t43.5 59t65.5 41t91.5 15.5q80 0 128.5 -28t75 -74t35 -105.5t8.5 -122.5zM516 331q0 69 -9.5 125.5t-33.5 97t-65 62.5t-104 22
q-60 0 -99.5 -23.5t-63 -64.5t-32.5 -97t-9 -122q0 -63 8.5 -119t31 -98t62 -66t102.5 -24q61 0 101.5 22.5t65 63.5t35 97t10.5 124zM381 753q18 0 29.5 11.5t21.5 28.5q3 5 5 6.5t8 -1.5l10 -5q5 -3 4 -7t-2 -6q-29 -57 -77 -57q-20 0 -38.5 8.5t-36 18t-34 18t-31.5 8.5
t-28 -11t-24 -27q-5 -8 -8 -9t-8 1l-8 4q-6 3 -5.5 8t3.5 10q33 55 79 55q17 0 36 -8.5t37.5 -18.5t36 -18.5t30.5 -8.5z" />
    <glyph glyph-name="Odieresis" unicode="&#xd6;" horiz-adv-x="616" 
d="M551 341q0 -63 -7.5 -125.5t-33 -112.5t-74.5 -81t-132 -31t-130.5 31t-72.5 81t-31.5 112.5t-6.5 125.5q0 33 3 70.5t12 74t25.5 70t43.5 59t65.5 41t91.5 15.5q80 0 128.5 -28t75 -74t35 -105.5t8.5 -122.5zM516 331q0 69 -9.5 125.5t-33.5 97t-65 62.5t-104 22
q-60 0 -99.5 -23.5t-63 -64.5t-32.5 -97t-9 -122q0 -63 8.5 -119t31 -98t62 -66t102.5 -24q61 0 101.5 22.5t65 63.5t35 97t10.5 124zM255 753q0 -11 -4 -18t-19 -7q-16 0 -20 7.5t-4 17.5q0 11 5 18t19 7q15 0 19 -7t4 -18zM416 753q0 -11 -4 -18t-19 -7q-16 0 -20 7.5
t-4 17.5q0 11 5 18t19 7q15 0 19 -7t4 -18z" />
    <glyph glyph-name="multiply" unicode="&#xd7;" horiz-adv-x="530" 
d="M126 164q-5 -4 -8 -1l-15 15q-3 4 0 9l141 140l-135 135q-5 4 -1 8l15 15q5 5 8 0l135 -135l138 138q4 4 9 0l15 -16q3 -3 -1 -7l-138 -138l135 -135q6 -4 0 -8l-15 -16q-3 -3 -8 2l-135 135l-140 -141v0z" />
    <glyph glyph-name="Oslash" unicode="&#xd8;" horiz-adv-x="616" 
d="M551 341q0 -63 -7.5 -125.5t-33 -112.5t-74.5 -81t-132 -31q-64 0 -106.5 18.5t-69.5 50.5l-42 -59q-4 -5 -9 -1l-13 10q-7 6 -4 10l49 68q-30 51 -38 117.5t-8 135.5q0 33 3 70.5t12 74t25.5 70t43.5 59t65.5 41t91.5 15.5q63 0 106.5 -18t71.5 -49l44 61q2 4 4 4t5 -2
l13 -10q7 -4 4 -10l-50 -69q30 -47 39.5 -109t9.5 -128zM516 331q0 65 -8.5 119t-29.5 94l-326 -451q23 -32 60 -50.5t92 -18.5q61 0 101.5 22.5t65 63.5t35 97t10.5 124zM100 331q0 -60 7 -113t27 -95l325 450q-24 31 -62 48t-93 17q-60 0 -99.5 -23.5t-63 -64.5t-32.5 -97
t-9 -122z" />
    <glyph glyph-name="Ugrave" unicode="&#xd9;" horiz-adv-x="591" 
d="M522 232q0 -33 -3 -61.5t-14 -55.5q-26 -66 -81 -95t-130 -29q-78 0 -132 29t-77 94q-10 26 -13.5 55.5t-3.5 62.5v423q0 8 7 8h25q5 0 5 -8v-426q0 -95 45 -150t144 -55q94 0 143 51t49 154v426q0 8 7 8h24q5 0 5 -8v-423zM178 781q-6 3 -2 8l19 24q3 4 4 4t5 -2
l120 -83q4 -3 3.5 -4.5t-2.5 -3.5l-8 -11q-2 -4 -7 -2z" />
    <glyph glyph-name="Uacute" unicode="&#xda;" horiz-adv-x="591" 
d="M522 232q0 -33 -3 -61.5t-14 -55.5q-26 -66 -81 -95t-130 -29q-78 0 -132 29t-77 94q-10 26 -13.5 55.5t-3.5 62.5v423q0 8 7 8h25q5 0 5 -8v-426q0 -95 45 -150t144 -55q94 0 143 51t49 154v426q0 8 7 8h24q5 0 5 -8v-423zM295 711q-5 -2 -7 2l-8 11q-2 2 -2.5 3.5
t3.5 4.5l120 83q4 2 5 2t4 -4l19 -24q3 -5 -2 -8z" />
    <glyph glyph-name="Ucircumflex" unicode="&#xdb;" horiz-adv-x="591" 
d="M522 232q0 -33 -3 -61.5t-14 -55.5q-26 -66 -81 -95t-130 -29q-78 0 -132 29t-77 94q-10 26 -13.5 55.5t-3.5 62.5v423q0 8 7 8h25q5 0 5 -8v-426q0 -95 45 -150t144 -55q94 0 143 51t49 154v426q0 8 7 8h24q5 0 5 -8v-423zM424 728q3 -4 0 -7l-11 -10q-3 -2 -8 1
l-111 72l-110 -72q-5 -3 -8 -1l-11 10q-4 3 0 7l94 82q7 7 14 7h43q6 0 8 -1.5t7 -5.5z" />
    <glyph glyph-name="Udieresis" unicode="&#xdc;" horiz-adv-x="591" 
d="M522 232q0 -33 -3 -61.5t-14 -55.5q-26 -66 -81 -95t-130 -29q-78 0 -132 29t-77 94q-10 26 -13.5 55.5t-3.5 62.5v423q0 8 7 8h25q5 0 5 -8v-426q0 -95 45 -150t144 -55q94 0 143 51t49 154v426q0 8 7 8h24q5 0 5 -8v-423zM245 753q0 -11 -4 -18t-19 -7q-16 0 -20 7.5
t-4 17.5q0 11 5 18t19 7q15 0 19 -7t4 -18zM406 753q0 -11 -4 -18t-19 -7q-16 0 -20 7.5t-4 17.5q0 11 5 18t19 7q15 0 19 -7t4 -18z" />
    <glyph glyph-name="Yacute" unicode="&#xdd;" horiz-adv-x="481" 
d="M257 7q0 -7 -5 -7h-24q-7 0 -7 7l-1 286l-196 364q-3 5 6 5h26q5 0 7 -5l177 -333l177 333q2 4 4 4.5t4 0.5h26q7 0 5 -5l-199 -364v-286zM229 711q-5 -2 -7 2l-8 11q-2 2 -2.5 3.5t3.5 4.5l120 83q4 2 5 2t4 -4l19 -24q3 -5 -2 -8z" />
    <glyph glyph-name="Thorn" unicode="&#xde;" horiz-adv-x="482" 
d="M101 148v-141q0 -7 -6 -7h-24q-7 0 -7 7v649q0 7 6 7h24q7 0 7 -7v-132l161 -1q41 0 75.5 -11.5t60 -34t40 -56.5t14.5 -80q0 -35 -10.5 -69.5t-33 -62t-58 -44.5t-85.5 -17h-164zM101 490v-311h163q13 0 38.5 4.5t50 21t43 48.5t18.5 86q0 39 -12.5 67.5t-34 47
t-51.5 27.5t-66 9h-149z" />
    <glyph glyph-name="germandbls" unicode="&#xdf;" horiz-adv-x="469" 
d="M79 -3q0 -6 -5 -6h-23q-6 0 -6 6v520q0 52 16 89t40.5 59.5t54.5 33t58 10.5q36 0 67.5 -9t54.5 -28.5t36.5 -49t13.5 -71.5q0 -14 -4 -33.5t-13.5 -40.5t-25.5 -40t-40 -30q40 -8 64 -26.5t37 -45.5t17 -61.5t4 -74.5q0 -43 -8.5 -80.5t-29.5 -65.5t-55.5 -44.5
t-85.5 -16.5q-8 0 -21.5 1t-31.5 4q-12 3 -10 11l2 11q2 5 4 6t11 0q9 -2 20.5 -2.5t19.5 -0.5q82 0 115 45.5t33 133.5q0 45 -6.5 79.5t-23.5 57.5t-47 34t-76 9q-5 0 -7.5 0.5t-2.5 5.5v15q0 4 2 4.5l6 1.5q31 6 53 20.5t36 34t21 42t7 45.5q0 67 -38 98t-97 31
q-60 0 -98 -41.5t-38 -115.5v-525v0z" />
    <glyph glyph-name="agrave" unicode="&#xe0;" horiz-adv-x="495" 
d="M388 60q-25 -15 -49 -27.5t-50.5 -21.5t-56.5 -14.5t-67 -5.5q-62 0 -91 32t-29 96q0 86 41 124t129 38h173v58q0 31 -5.5 55t-20.5 39.5t-42.5 23.5t-70.5 8q-38 0 -75 -3.5t-75 -7.5q-7 0 -8 5l-2 11q0 5 5 7q17 6 38 10.5t42 7t39.5 3.5t32.5 1q51 0 85 -8.5t54.5 -28
t28.5 -51t8 -77.5v-272q0 -26 9.5 -32t37.5 -7q6 0 6 -6v-13q0 -7 -10 -8q-45 -3 -61 10t-16 54zM388 249h-177q-28 0 -51.5 -5t-41 -19t-27 -38.5t-9.5 -63.5q0 -58 22.5 -79t80.5 -21q26 0 57.5 8.5t60.5 20t52 23l33 16.5v158zM182 681q-3 5 2 7l28 13q7 2 9 -3l67 -129
q2 -5 1 -5.5t-3 -2.5l-12 -6q-5 -3 -8 2z" />
    <glyph glyph-name="aacute" unicode="&#xe1;" horiz-adv-x="495" 
d="M388 60q-25 -15 -49 -27.5t-50.5 -21.5t-56.5 -14.5t-67 -5.5q-62 0 -91 32t-29 96q0 86 41 124t129 38h173v58q0 31 -5.5 55t-20.5 39.5t-42.5 23.5t-70.5 8q-38 0 -75 -3.5t-75 -7.5q-7 0 -8 5l-2 11q0 5 5 7q17 6 38 10.5t42 7t39.5 3.5t32.5 1q51 0 85 -8.5t54.5 -28
t28.5 -51t8 -77.5v-272q0 -26 9.5 -32t37.5 -7q6 0 6 -6v-13q0 -7 -10 -8q-45 -3 -61 10t-16 54zM388 249h-177q-28 0 -51.5 -5t-41 -19t-27 -38.5t-9.5 -63.5q0 -58 22.5 -79t80.5 -21q26 0 57.5 8.5t60.5 20t52 23l33 16.5v158zM253 557q-3 -5 -7 -2l-12 6q-5 3 -3 8
l67 129q3 6 9 3l28 -13q5 -2 2 -7z" />
    <glyph glyph-name="acircumflex" unicode="&#xe2;" horiz-adv-x="495" 
d="M388 60q-25 -15 -49 -27.5t-50.5 -21.5t-56.5 -14.5t-67 -5.5q-62 0 -91 32t-29 96q0 86 41 124t129 38h173v58q0 31 -5.5 55t-20.5 39.5t-42.5 23.5t-70.5 8q-38 0 -75 -3.5t-75 -7.5q-7 0 -8 5l-2 11q0 5 5 7q17 6 38 10.5t42 7t39.5 3.5t32.5 1q51 0 85 -8.5t54.5 -28
t28.5 -51t8 -77.5v-272q0 -26 9.5 -32t37.5 -7q6 0 6 -6v-13q0 -7 -10 -8q-45 -3 -61 10t-16 54zM388 249h-177q-28 0 -51.5 -5t-41 -19t-27 -38.5t-9.5 -63.5q0 -58 22.5 -79t80.5 -21q26 0 57.5 8.5t60.5 20t52 23l33 16.5v158zM389 569q4 -4 3 -4.5t-3 -2.5l-11 -10
q-3 -2 -8 1l-110 101l-111 -101q-5 -3 -8 -1l-11 10l-2.5 2.5t2.5 4.5l99 111q3 4 5.5 5.5t8.5 1.5h36q6 0 9 -1.5t6 -5.5z" />
    <glyph glyph-name="atilde" unicode="&#xe3;" horiz-adv-x="495" 
d="M388 60q-25 -15 -49 -27.5t-50.5 -21.5t-56.5 -14.5t-67 -5.5q-62 0 -91 32t-29 96q0 86 41 124t129 38h173v58q0 31 -5.5 55t-20.5 39.5t-42.5 23.5t-70.5 8q-38 0 -75 -3.5t-75 -7.5q-7 0 -8 5l-2 11q0 5 5 7q17 6 38 10.5t42 7t39.5 3.5t32.5 1q51 0 85 -8.5t54.5 -28
t28.5 -51t8 -77.5v-272q0 -26 9.5 -32t37.5 -7q6 0 6 -6v-13q0 -7 -10 -8q-45 -3 -61 10t-16 54zM388 249h-177q-28 0 -51.5 -5t-41 -19t-27 -38.5t-9.5 -63.5q0 -58 22.5 -79t80.5 -21q26 0 57.5 8.5t60.5 20t52 23l33 16.5v158zM329 603q18 0 29.5 11.5t21.5 28.5
q3 5 5 6.5t8 -1.5l10 -5q5 -3 4 -7t-2 -6q-29 -57 -77 -57q-20 0 -38.5 8.5t-36 18t-34 18t-31.5 8.5t-28 -11t-24 -27q-5 -8 -8 -9t-8 1l-8 4q-6 3 -5.5 8t3.5 10q33 55 79 55q17 0 36 -8.5t37.5 -18.5t36 -18.5t30.5 -8.5z" />
    <glyph glyph-name="adieresis" unicode="&#xe4;" horiz-adv-x="495" 
d="M388 60q-25 -15 -49 -27.5t-50.5 -21.5t-56.5 -14.5t-67 -5.5q-62 0 -91 32t-29 96q0 86 41 124t129 38h173v58q0 31 -5.5 55t-20.5 39.5t-42.5 23.5t-70.5 8q-38 0 -75 -3.5t-75 -7.5q-7 0 -8 5l-2 11q0 5 5 7q17 6 38 10.5t42 7t39.5 3.5t32.5 1q51 0 85 -8.5t54.5 -28
t28.5 -51t8 -77.5v-272q0 -26 9.5 -32t37.5 -7q6 0 6 -6v-13q0 -7 -10 -8q-45 -3 -61 10t-16 54zM388 249h-177q-28 0 -51.5 -5t-41 -19t-27 -38.5t-9.5 -63.5q0 -58 22.5 -79t80.5 -21q26 0 57.5 8.5t60.5 20t52 23l33 16.5v158zM184 615q0 -11 -4.5 -18.5t-19.5 -7.5
q-16 0 -19.5 7.5t-3.5 18.5t4.5 17.5t18.5 6.5q15 0 19.5 -6.5t4.5 -17.5zM359 615q0 -11 -4.5 -18.5t-19.5 -7.5q-16 0 -19.5 7.5t-3.5 18.5t4.5 17.5t18.5 6.5q15 0 19.5 -6.5t4.5 -17.5z" />
    <glyph glyph-name="aring" unicode="&#xe5;" horiz-adv-x="495" 
d="M388 60q-25 -15 -49 -27.5t-50.5 -21.5t-56.5 -14.5t-67 -5.5q-62 0 -91 32t-29 96q0 86 41 124t129 38h173v58q0 31 -5.5 55t-20.5 39.5t-42.5 23.5t-70.5 8q-38 0 -75 -3.5t-75 -7.5q-7 0 -8 5l-2 11q0 5 5 7q17 6 38 10.5t42 7t39.5 3.5t32.5 1q51 0 85 -8.5t54.5 -28
t28.5 -51t8 -77.5v-272q0 -26 9.5 -32t37.5 -7q6 0 6 -6v-13q0 -7 -10 -8q-45 -3 -61 10t-16 54zM388 249h-177q-28 0 -51.5 -5t-41 -19t-27 -38.5t-9.5 -63.5q0 -58 22.5 -79t80.5 -21q26 0 57.5 8.5t60.5 20t52 23l33 16.5v158zM262 533q-36 0 -63.5 25t-27.5 65
q0 39 27.5 64t63.5 25q19 0 35.5 -7.5t28.5 -19.5t19 -28t7 -34q0 -36 -25.5 -63t-64.5 -27zM262 687q-26 0 -43.5 -19t-17.5 -45q0 -28 16.5 -46t44.5 -18q27 0 44.5 18t17.5 46q0 26 -17.5 45t-44.5 19z" />
    <glyph glyph-name="ae" unicode="&#xe6;" horiz-adv-x="807" 
d="M244 499q78 0 117 -20.5t51 -70.5q20 40 58.5 64.5t107.5 24.5q60 0 98 -17t59 -46t29 -67.5t8 -80.5q0 -22 -6.5 -33.5t-25.5 -11.5h-318q0 -42 5 -81t21.5 -69t46.5 -48t80 -18q40 0 79.5 3.5t79.5 7.5q8 0 9 -5l1 -9q2 -7 -4 -8q-15 -6 -37 -10t-45.5 -7t-46.5 -4
t-39 -1q-66 0 -103 22t-56 60q-30 -17 -56 -31.5t-53.5 -25.5t-61 -18t-79.5 -8q-62 -2 -91 31t-29 97q0 85 41.5 119.5t128.5 34.5h173v66q0 31 -5.5 55t-20.5 39.5t-42.5 23.5t-70.5 8q-38 0 -75 -3.5t-75 -7.5q-7 0 -8 5l-2 11q0 5 5 7q17 6 38 10.5t42 7t39.5 3.5
t32.5 1zM209 241q-28 0 -51.5 -4t-41 -16.5t-27 -35.5t-9.5 -62q0 -58 22.5 -79t80.5 -21q25 0 58 10t64.5 23t58 26.5t38.5 19.5q-11 32 -13.5 64.5t-2.5 74.5h-177zM578 466q-49 0 -79.5 -14.5t-47 -40.5t-22.5 -61.5t-6 -76.5h313q-1 38 -6 73t-21.5 61.5t-47.5 42.5
t-83 16z" />
    <glyph glyph-name="ccedilla" unicode="&#xe7;" horiz-adv-x="392" 
d="M377 19q1 -6 -5 -8q-13 -5 -30 -8t-35 -5.5t-35.5 -4t-32.5 -2.5l-16 -44q47 -3 63.5 -20.5t16.5 -43.5q0 -36 -26.5 -53.5t-65.5 -17.5q-11 0 -29 3t-34 8q-8 3 -6 9l3 9q2 5 9 4q17 -3 31.5 -4.5t25.5 -1.5q23 0 39 11t16 31t-12.5 31.5t-53.5 13.5q-5 0 -7 3.5t0 8.5
l21 53q-56 1 -89.5 20.5t-51 53t-23 80t-5.5 102.5q0 51 6 96.5t25 79.5t55 54t96 20q13 0 32 -1t39 -3.5t39.5 -6.5t34.5 -9q6 -2 5 -8l-2 -10q-2 -6 -9 -5q-40 5 -72.5 8t-63.5 3q-42 0 -70.5 -11.5t-46 -37.5t-25 -67.5t-7.5 -100.5q0 -62 7 -104.5t24 -69t45.5 -38.5
t72.5 -12q31 0 70.5 3t66.5 7q5 1 6 -0.5t2 -4.5z" />
    <glyph glyph-name="egrave" unicode="&#xe8;" horiz-adv-x="460" 
d="M45 247q0 45 6.5 89.5t27 80.5t57.5 58t98 22q60 0 97.5 -18t58 -48.5t28 -70t7.5 -81.5q0 -22 -6.5 -32t-25.5 -10h-310q0 -42 5 -80.5t20.5 -68t45.5 -46.5t80 -17q40 0 76.5 3.5t76.5 7.5q8 0 9 -5l1 -9q2 -7 -4 -8q-15 -6 -36 -10t-43.5 -7t-44.5 -4t-38 -1
q-63 0 -100 21t-56 56t-24.5 81.5t-5.5 96.5zM234 464q-46 0 -75 -15t-45.5 -41.5t-23.5 -62.5t-8 -79h306q-1 38 -5.5 73.5t-20 63.5t-46 44.5t-82.5 16.5zM157 681q-3 5 2 7l28 13q7 2 9 -3l67 -129q2 -5 1 -5.5t-3 -2.5l-12 -6q-5 -3 -8 2z" />
    <glyph glyph-name="eacute" unicode="&#xe9;" horiz-adv-x="460" 
d="M45 247q0 45 6.5 89.5t27 80.5t57.5 58t98 22q60 0 97.5 -18t58 -48.5t28 -70t7.5 -81.5q0 -22 -6.5 -32t-25.5 -10h-310q0 -42 5 -80.5t20.5 -68t45.5 -46.5t80 -17q40 0 76.5 3.5t76.5 7.5q8 0 9 -5l1 -9q2 -7 -4 -8q-15 -6 -36 -10t-43.5 -7t-44.5 -4t-38 -1
q-63 0 -100 21t-56 56t-24.5 81.5t-5.5 96.5zM234 464q-46 0 -75 -15t-45.5 -41.5t-23.5 -62.5t-8 -79h306q-1 38 -5.5 73.5t-20 63.5t-46 44.5t-82.5 16.5zM224 557q-3 -5 -7 -2l-12 6q-5 3 -3 8l67 129q3 6 9 3l28 -13q5 -2 2 -7z" />
    <glyph glyph-name="ecircumflex" unicode="&#xea;" horiz-adv-x="460" 
d="M45 247q0 45 6.5 89.5t27 80.5t57.5 58t98 22q60 0 97.5 -18t58 -48.5t28 -70t7.5 -81.5q0 -22 -6.5 -32t-25.5 -10h-310q0 -42 5 -80.5t20.5 -68t45.5 -46.5t80 -17q40 0 76.5 3.5t76.5 7.5q8 0 9 -5l1 -9q2 -7 -4 -8q-15 -6 -36 -10t-43.5 -7t-44.5 -4t-38 -1
q-63 0 -100 21t-56 56t-24.5 81.5t-5.5 96.5zM234 464q-46 0 -75 -15t-45.5 -41.5t-23.5 -62.5t-8 -79h306q-1 38 -5.5 73.5t-20 63.5t-46 44.5t-82.5 16.5zM370 569q4 -4 3 -4.5t-3 -2.5l-11 -10q-3 -2 -8 1l-110 101l-111 -101q-5 -3 -8 -1l-11 10l-2.5 2.5t2.5 4.5
l99 111q3 4 5.5 5.5t8.5 1.5h36q6 0 9 -1.5t6 -5.5z" />
    <glyph glyph-name="edieresis" unicode="&#xeb;" horiz-adv-x="460" 
d="M45 247q0 45 6.5 89.5t27 80.5t57.5 58t98 22q60 0 97.5 -18t58 -48.5t28 -70t7.5 -81.5q0 -22 -6.5 -32t-25.5 -10h-310q0 -42 5 -80.5t20.5 -68t45.5 -46.5t80 -17q40 0 76.5 3.5t76.5 7.5q8 0 9 -5l1 -9q2 -7 -4 -8q-15 -6 -36 -10t-43.5 -7t-44.5 -4t-38 -1
q-63 0 -100 21t-56 56t-24.5 81.5t-5.5 96.5zM234 464q-46 0 -75 -15t-45.5 -41.5t-23.5 -62.5t-8 -79h306q-1 38 -5.5 73.5t-20 63.5t-46 44.5t-82.5 16.5zM163 615q0 -11 -4.5 -18.5t-19.5 -7.5q-16 0 -19.5 7.5t-3.5 18.5t4.5 17.5t18.5 6.5q15 0 19.5 -6.5t4.5 -17.5z
M338 615q0 -11 -4.5 -18.5t-19.5 -7.5q-16 0 -19.5 7.5t-3.5 18.5t4.5 17.5t18.5 6.5q15 0 19.5 -6.5t4.5 -17.5z" />
    <glyph glyph-name="igrave" unicode="&#xec;" horiz-adv-x="197" 
d="M115 6q0 -6 -5 -6h-23q-6 0 -6 6v475q0 6 6 6h24q4 0 4 -6v-475zM2 681q-3 5 2 7l28 13q7 2 9 -3l67 -129q2 -5 1 -5.5t-3 -2.5l-12 -6q-5 -3 -8 2z" />
    <glyph glyph-name="iacute" unicode="&#xed;" horiz-adv-x="197" 
d="M115 6q0 -6 -5 -6h-23q-6 0 -6 6v475q0 6 6 6h24q4 0 4 -6v-475zM101 557q-3 -5 -7 -2l-12 6q-5 3 -3 8l67 129q3 6 9 3l28 -13q5 -2 2 -7z" />
    <glyph glyph-name="icircumflex" unicode="&#xee;" horiz-adv-x="246" 
d="M139 6q0 -6 -5 -6h-23q-6 0 -6 6v475q0 6 6 6h24q4 0 4 -6v-475zM252 569q4 -4 3 -4.5t-3 -2.5l-11 -10q-3 -2 -8 1l-110 101l-111 -101q-5 -3 -8 -1l-11 10l-2.5 2.5t2.5 4.5l99 111q3 4 5.5 5.5t8.5 1.5h36q6 0 9 -1.5t6 -5.5z" />
    <glyph glyph-name="idieresis" unicode="&#xef;" horiz-adv-x="202" 
d="M119 6q0 -6 -5 -6h-23q-6 0 -6 6v475q0 6 6 6h24q4 0 4 -6v-475zM37 615q0 -11 -4.5 -18.5t-19.5 -7.5q-16 0 -19.5 7.5t-3.5 18.5t4.5 17.5t18.5 6.5q15 0 19.5 -6.5t4.5 -17.5zM212 615q0 -11 -4.5 -18.5t-19.5 -7.5q-16 0 -19.5 7.5t-3.5 18.5t4.5 17.5t18.5 6.5
q15 0 19.5 -6.5t4.5 -17.5z" />
    <glyph glyph-name="eth" unicode="&#xf0;" horiz-adv-x="477" 
d="M236 466q63 0 103 -24t59 -62l2 2q-1 34 -3.5 68t-8 65t-14.5 58t-24 47l-60 -59q-7 -9 -14 -1l-10 11q-3 4 -2 6.5t6 7.5l59 59q-13 14 -40 23t-62 9q-25 0 -44 -1.5t-44 -5.5q-9 -2 -11 -0.5t-3 4.5l-2 13q-1 4 6 8q13 5 27.5 8t28 4.5t25 2t18.5 0.5q42 0 72.5 -11
t53.5 -29l53 53q8 8 14 0l10 -10q3 -4 4 -6.5t-4 -7.5l-53 -52q17 -22 28.5 -54.5t18 -73t9.5 -87.5t3 -97q0 -74 -6 -137t-27 -108.5t-61.5 -71t-107.5 -25.5q-60 0 -97 20.5t-58 54.5t-28 77.5t-7 89.5q0 32 7 72.5t27 76t57.5 59.5t99.5 24zM395 226q0 47 -8 85.5
t-27 65.5t-49.5 41.5t-75.5 14.5q-44 0 -73.5 -15t-47 -42.5t-25 -65.5t-7.5 -84q0 -42 7 -79t24.5 -64.5t47 -43.5t74.5 -16q53 0 84.5 19t48.5 48t22 65t5 71z" />
    <glyph glyph-name="ntilde" unicode="&#xf1;" horiz-adv-x="469" 
d="M284 496q50 0 77.5 -14.5t40 -39.5t15 -58t2.5 -69v-309q0 -6 -6 -6h-25q-5 0 -5 6v313q0 31 -2 58t-12.5 46.5t-32 31t-59.5 11.5q-22 0 -50 -8t-55 -18.5t-50.5 -22t-36.5 -18.5v-393q0 -6 -7 -6h-22q-5 0 -5 6v475q0 6 5 6h22q7 0 7 -6v-54q15 9 37.5 21t48.5 22.5
t55 18t58 7.5zM311 603q18 0 29.5 11.5t21.5 28.5q3 5 5 6.5t8 -1.5l10 -5q5 -3 4 -7t-2 -6q-29 -57 -77 -57q-20 0 -38.5 8.5t-36 18t-34 18t-31.5 8.5t-28 -11t-24 -27q-5 -8 -8 -9t-8 1l-8 4q-6 3 -5.5 8t3.5 10q33 55 79 55q17 0 36 -8.5t37.5 -18.5t36 -18.5t30.5 -8.5
z" />
    <glyph glyph-name="ograve" unicode="&#xf2;" horiz-adv-x="477" 
d="M235 -8q-67 0 -105 23.5t-57 60.5t-23.5 83.5t-4.5 93.5q0 37 6 80t25.5 79.5t57 60.5t101.5 24q65 0 104 -21t59.5 -55.5t27 -78t6.5 -89.5q0 -45 -5 -91.5t-24.5 -84t-59 -61.5t-108.5 -24zM235 464q-49 0 -79 -17t-46.5 -46.5t-22 -69.5t-5.5 -86q0 -47 5.5 -87.5
t22 -70.5t46.5 -47t79 -17q50 0 81.5 16.5t49 46t23.5 70t6 89.5t-6 89.5t-23 69t-48.5 44.5t-82.5 16zM168 681q-3 5 2 7l28 13q7 2 9 -3l67 -129q2 -5 1 -5.5t-3 -2.5l-12 -6q-5 -3 -8 2z" />
    <glyph glyph-name="oacute" unicode="&#xf3;" horiz-adv-x="477" 
d="M235 -8q-67 0 -105 23.5t-57 60.5t-23.5 83.5t-4.5 93.5q0 37 6 80t25.5 79.5t57 60.5t101.5 24q65 0 104 -21t59.5 -55.5t27 -78t6.5 -89.5q0 -45 -5 -91.5t-24.5 -84t-59 -61.5t-108.5 -24zM235 464q-49 0 -79 -17t-46.5 -46.5t-22 -69.5t-5.5 -86q0 -47 5.5 -87.5
t22 -70.5t46.5 -47t79 -17q50 0 81.5 16.5t49 46t23.5 70t6 89.5t-6 89.5t-23 69t-48.5 44.5t-82.5 16zM236 557q-3 -5 -7 -2l-12 6q-5 3 -3 8l67 129q3 6 9 3l28 -13q5 -2 2 -7z" />
    <glyph glyph-name="ocircumflex" unicode="&#xf4;" horiz-adv-x="477" 
d="M235 -8q-67 0 -105 23.5t-57 60.5t-23.5 83.5t-4.5 93.5q0 37 6 80t25.5 79.5t57 60.5t101.5 24q65 0 104 -21t59.5 -55.5t27 -78t6.5 -89.5q0 -45 -5 -91.5t-24.5 -84t-59 -61.5t-108.5 -24zM235 464q-49 0 -79 -17t-46.5 -46.5t-22 -69.5t-5.5 -86q0 -47 5.5 -87.5
t22 -70.5t46.5 -47t79 -17q50 0 81.5 16.5t49 46t23.5 70t6 89.5t-6 89.5t-23 69t-48.5 44.5t-82.5 16zM366 569q4 -4 3 -4.5t-3 -2.5l-11 -10q-3 -2 -8 1l-110 101l-111 -101q-5 -3 -8 -1l-11 10l-2.5 2.5t2.5 4.5l99 111q3 4 5.5 5.5t8.5 1.5h36q6 0 9 -1.5t6 -5.5z" />
    <glyph glyph-name="otilde" unicode="&#xf5;" horiz-adv-x="477" 
d="M235 -8q-67 0 -105 23.5t-57 60.5t-23.5 83.5t-4.5 93.5q0 37 6 80t25.5 79.5t57 60.5t101.5 24q65 0 104 -21t59.5 -55.5t27 -78t6.5 -89.5q0 -45 -5 -91.5t-24.5 -84t-59 -61.5t-108.5 -24zM235 464q-49 0 -79 -17t-46.5 -46.5t-22 -69.5t-5.5 -86q0 -47 5.5 -87.5
t22 -70.5t46.5 -47t79 -17q50 0 81.5 16.5t49 46t23.5 70t6 89.5t-6 89.5t-23 69t-48.5 44.5t-82.5 16zM307 603q18 0 29.5 11.5t21.5 28.5q3 5 5 6.5t8 -1.5l10 -5q5 -3 4 -7t-2 -6q-29 -57 -77 -57q-20 0 -38.5 8.5t-36 18t-34 18t-31.5 8.5t-28 -11t-24 -27q-5 -8 -8 -9
t-8 1l-8 4q-6 3 -5.5 8t3.5 10q33 55 79 55q17 0 36 -8.5t37.5 -18.5t36 -18.5t30.5 -8.5z" />
    <glyph glyph-name="odieresis" unicode="&#xf6;" horiz-adv-x="477" 
d="M235 -8q-67 0 -105 23.5t-57 60.5t-23.5 83.5t-4.5 93.5q0 37 6 80t25.5 79.5t57 60.5t101.5 24q65 0 104 -21t59.5 -55.5t27 -78t6.5 -89.5q0 -45 -5 -91.5t-24.5 -84t-59 -61.5t-108.5 -24zM235 464q-49 0 -79 -17t-46.5 -46.5t-22 -69.5t-5.5 -86q0 -47 5.5 -87.5
t22 -70.5t46.5 -47t79 -17q50 0 81.5 16.5t49 46t23.5 70t6 89.5t-6 89.5t-23 69t-48.5 44.5t-82.5 16zM174 615q0 -11 -4.5 -18.5t-19.5 -7.5q-16 0 -19.5 7.5t-3.5 18.5t4.5 17.5t18.5 6.5q15 0 19.5 -6.5t4.5 -17.5zM349 615q0 -11 -4.5 -18.5t-19.5 -7.5
q-16 0 -19.5 7.5t-3.5 18.5t4.5 17.5t18.5 6.5q15 0 19.5 -6.5t4.5 -17.5z" />
    <glyph glyph-name="divide" unicode="&#xf7;" horiz-adv-x="530" 
d="M300 492q0 -14 -5 -23.5t-25 -9.5t-24.5 9.5t-4.5 23.5q0 13 5.5 21.5t23.5 8.5q19 0 24.5 -8t5.5 -22zM300 167q0 -14 -5 -23.5t-25 -9.5t-24.5 9.5t-4.5 23.5q0 13 5.5 21.5t23.5 8.5q19 0 24.5 -8t5.5 -22zM88 312q-6 0 -6 5v21q0 6 6 6h354q6 0 6 -6v-22q0 -4 -6 -4
h-354z" />
    <glyph glyph-name="oslash" unicode="&#xf8;" horiz-adv-x="477" 
d="M235 -8q-47 0 -79 11.5t-53 31.5l-30 -41q-3 -4 -8 -1l-14 12q-6 5 -3 9l34 46q-13 19 -20.5 42t-11 48t-4.5 51t-1 52q0 37 6 80t25.5 79.5t57 60.5t101.5 24q48 0 80.5 -11.5t55.5 -31.5l30 41q2 4 4 4t5 -2l13 -10q6 -4 4 -10l-35 -47q25 -35 32.5 -81.5t7.5 -95.5
q0 -45 -5 -91.5t-24.5 -84t-59 -61.5t-108.5 -24zM395 245q0 47 -5.5 85.5t-20.5 67.5l-244 -333q17 -20 44 -31t66 -11q50 0 81.5 16.5t49 46t23.5 70t6 89.5zM235 464q-49 0 -79 -17t-46.5 -46.5t-22 -69.5t-5.5 -86q0 -45 5 -84t19 -68l243 332q-18 19 -45.5 29t-68.5 10
z" />
    <glyph glyph-name="ugrave" unicode="&#xf9;" horiz-adv-x="481" 
d="M191 -8q-52 0 -79.5 14.5t-39.5 39.5t-13.5 58t-1.5 69v309q0 6 6 6h24q5 0 5 -6v-313q0 -31 2 -58t12.5 -46.5t32 -31t59.5 -11.5q22 0 50 8t55 18.5t50.5 22t37.5 18.5v393q0 6 7 6h22q6 0 6 -6v-477q0 -5 -6 -5h-23q-7 0 -7 5v56q-15 -9 -37 -21t-48.5 -22.5
t-55.5 -18t-58 -7.5zM160 681q-3 5 2 7l28 13q7 2 9 -3l67 -129q2 -5 1 -5.5t-3 -2.5l-12 -6q-5 -3 -8 2z" />
    <glyph glyph-name="uacute" unicode="&#xfa;" horiz-adv-x="481" 
d="M191 -8q-52 0 -79.5 14.5t-39.5 39.5t-13.5 58t-1.5 69v309q0 6 6 6h24q5 0 5 -6v-313q0 -31 2 -58t12.5 -46.5t32 -31t59.5 -11.5q22 0 50 8t55 18.5t50.5 22t37.5 18.5v393q0 6 7 6h22q6 0 6 -6v-477q0 -5 -6 -5h-23q-7 0 -7 5v56q-15 -9 -37 -21t-48.5 -22.5
t-55.5 -18t-58 -7.5zM251 557q-3 -5 -7 -2l-12 6q-5 3 -3 8l67 129q3 6 9 3l28 -13q5 -2 2 -7z" />
    <glyph glyph-name="ucircumflex" unicode="&#xfb;" horiz-adv-x="481" 
d="M191 -8q-52 0 -79.5 14.5t-39.5 39.5t-13.5 58t-1.5 69v309q0 6 6 6h24q5 0 5 -6v-313q0 -31 2 -58t12.5 -46.5t32 -31t59.5 -11.5q22 0 50 8t55 18.5t50.5 22t37.5 18.5v393q0 6 7 6h22q6 0 6 -6v-477q0 -5 -6 -5h-23q-7 0 -7 5v56q-15 -9 -37 -21t-48.5 -22.5
t-55.5 -18t-58 -7.5zM373 569q4 -4 3 -4.5t-3 -2.5l-11 -10q-3 -2 -8 1l-110 101l-111 -101q-5 -3 -8 -1l-11 10l-2.5 2.5t2.5 4.5l99 111q3 4 5.5 5.5t8.5 1.5h36q6 0 9 -1.5t6 -5.5z" />
    <glyph glyph-name="udieresis" unicode="&#xfc;" horiz-adv-x="481" 
d="M191 -8q-52 0 -79.5 14.5t-39.5 39.5t-13.5 58t-1.5 69v309q0 6 6 6h24q5 0 5 -6v-313q0 -31 2 -58t12.5 -46.5t32 -31t59.5 -11.5q22 0 50 8t55 18.5t50.5 22t37.5 18.5v393q0 6 7 6h22q6 0 6 -6v-477q0 -5 -6 -5h-23q-7 0 -7 5v56q-15 -9 -37 -21t-48.5 -22.5
t-55.5 -18t-58 -7.5zM181 615q0 -11 -4.5 -18.5t-19.5 -7.5q-16 0 -19.5 7.5t-3.5 18.5t4.5 17.5t18.5 6.5q15 0 19.5 -6.5t4.5 -17.5zM356 615q0 -11 -4.5 -18.5t-19.5 -7.5q-16 0 -19.5 7.5t-3.5 18.5t4.5 17.5t18.5 6.5q15 0 19.5 -6.5t4.5 -17.5z" />
    <glyph glyph-name="yacute" unicode="&#xfd;" horiz-adv-x="440" 
d="M176 -171q-1 -2 -2 -3.5t-6 -1.5h-20q-5 0 -6 0.5t0 5.5l55 159l-171 493q-2 5 4 5h24q8 0 10 -7l150 -441h2l161 442q2 7 10 7h21q5 0 5.5 -1.5t-0.5 -5.5zM217 557q-3 -5 -7 -2l-12 6q-5 3 -3 8l67 129q3 6 9 3l28 -13q5 -2 2 -7z" />
    <glyph glyph-name="thorn" unicode="&#xfe;" horiz-adv-x="479" 
d="M62 657q0 6 3 6h26q5 0 5 -6v-228q17 10 39.5 22t48.5 22t54.5 17t57.5 7q41 0 69 -14.5t44.5 -44.5t23.5 -76.5t7 -109.5q0 -65 -8 -114t-28.5 -81.5t-55 -49t-88.5 -16.5q-29 0 -71.5 5.5t-90.5 25.5l-3 -1v-191q0 -6 -5 -6h-25q-3 0 -3 6v827zM96 51q50 -15 91 -22
t79 -7q78 0 108 55t30 178q0 60 -7 100.5t-21.5 65t-36 34.5t-51.5 10q-22 0 -50 -8t-55 -18.5t-50.5 -22.5t-36.5 -19v-346z" />
    <glyph glyph-name="ydieresis" unicode="&#xff;" horiz-adv-x="440" 
d="M176 -171q-1 -2 -2 -3.5t-6 -1.5h-20q-5 0 -6 0.5t0 5.5l55 159l-171 493q-2 5 4 5h24q8 0 10 -7l150 -441h2l161 442q2 7 10 7h21q5 0 5.5 -1.5t-0.5 -5.5zM160 615q0 -11 -4.5 -18.5t-19.5 -7.5q-16 0 -19.5 7.5t-3.5 18.5t4.5 17.5t18.5 6.5q15 0 19.5 -6.5t4.5 -17.5
zM335 615q0 -11 -4.5 -18.5t-19.5 -7.5q-16 0 -19.5 7.5t-3.5 18.5t4.5 17.5t18.5 6.5q15 0 19.5 -6.5t4.5 -17.5z" />
    <glyph glyph-name="Amacron" unicode="&#x100;" horiz-adv-x="522" 
d="M501 6q2 -4 1.5 -5t-5.5 -1h-27q-2 0 -4 0.5t-4 5.5l-58 181h-289l-58 -181q-1 -5 -2.5 -5.5t-4.5 -0.5h-25q-8 0 -6 6l217 650q2 5 3.5 5.5t4.5 0.5h31q5 0 8 -7zM260 620h-3l-131 -400h267zM149 736q-5 0 -5 5v22q0 6 5 6h225q5 0 5 -6v-23q0 -4 -5 -4h-225z" />
    <glyph glyph-name="amacron" unicode="&#x101;" horiz-adv-x="495" 
d="M388 60q-25 -15 -49 -27.5t-50.5 -21.5t-56.5 -14.5t-67 -5.5q-62 0 -91 32t-29 96q0 86 41 124t129 38h173v58q0 31 -5.5 55t-20.5 39.5t-42.5 23.5t-70.5 8q-38 0 -75 -3.5t-75 -7.5q-7 0 -8 5l-2 11q0 5 5 7q17 6 38 10.5t42 7t39.5 3.5t32.5 1q51 0 85 -8.5t54.5 -28
t28.5 -51t8 -77.5v-272q0 -26 9.5 -32t37.5 -7q6 0 6 -6v-13q0 -7 -10 -8q-45 -3 -61 10t-16 54zM388 249h-177q-28 0 -51.5 -5t-41 -19t-27 -38.5t-9.5 -63.5q0 -58 22.5 -79t80.5 -21q26 0 57.5 8.5t60.5 20t52 23l33 16.5v158zM141 595q-5 0 -5 5v22q0 6 5 6h225
q5 0 5 -6v-23q0 -4 -5 -4h-225z" />
    <glyph glyph-name="Abreve" unicode="&#x102;" horiz-adv-x="522" 
d="M501 6q2 -4 1.5 -5t-5.5 -1h-27q-2 0 -4 0.5t-4 5.5l-58 181h-289l-58 -181q-1 -5 -2.5 -5.5t-4.5 -0.5h-25q-8 0 -6 6l217 650q2 5 3.5 5.5t4.5 0.5h31q5 0 8 -7zM260 620h-3l-131 -400h267zM255 716q-35 0 -68.5 17t-52.5 55q-2 5 -4.5 11t2.5 10l10 7q8 6 13 -3
q24 -36 46.5 -49.5t54.5 -13.5q26 0 49.5 14.5t48.5 49.5q5 7 13 3l9 -6q5 -4 2.5 -9t-5.5 -12q-21 -39 -52.5 -56.5t-65.5 -17.5z" />
    <glyph glyph-name="abreve" unicode="&#x103;" horiz-adv-x="495" 
d="M388 60q-25 -15 -49 -27.5t-50.5 -21.5t-56.5 -14.5t-67 -5.5q-62 0 -91 32t-29 96q0 86 41 124t129 38h173v58q0 31 -5.5 55t-20.5 39.5t-42.5 23.5t-70.5 8q-38 0 -75 -3.5t-75 -7.5q-7 0 -8 5l-2 11q0 5 5 7q17 6 38 10.5t42 7t39.5 3.5t32.5 1q51 0 85 -8.5t54.5 -28
t28.5 -51t8 -77.5v-272q0 -26 9.5 -32t37.5 -7q6 0 6 -6v-13q0 -7 -10 -8q-45 -3 -61 10t-16 54zM388 249h-177q-28 0 -51.5 -5t-41 -19t-27 -38.5t-9.5 -63.5q0 -58 22.5 -79t80.5 -21q26 0 57.5 8.5t60.5 20t52 23l33 16.5v158zM270 566q-35 0 -68.5 17t-52.5 55
q-2 5 -4.5 11t2.5 10l10 7q8 6 13 -3q24 -36 46.5 -49.5t54.5 -13.5q26 0 49.5 14.5t48.5 49.5q5 7 13 3l9 -6q5 -4 2.5 -9t-5.5 -12q-21 -39 -52.5 -56.5t-65.5 -17.5z" />
    <glyph glyph-name="Aogonek" unicode="&#x104;" horiz-adv-x="522" 
d="M501 6q2 -4 1.5 -5t-5.5 -1h-4q-29 -32 -40 -57t-10 -47q1 -29 26.5 -41.5t85.5 1.5q5 1 6 0t2 -3l5 -14q2 -6 -6 -9q-14 -6 -31 -9t-34 -3q-45 0 -65.5 21t-20.5 51q0 29 14 59t39 53q-2 2 -2 4l-58 181h-289l-58 -181q-1 -5 -2.5 -5.5t-4.5 -0.5h-25q-8 0 -6 6l217 650
q2 5 3.5 5.5t4.5 0.5h31q5 0 8 -7zM260 620h-3l-131 -400h267z" />
    <glyph glyph-name="aogonek" unicode="&#x105;" horiz-adv-x="495" 
d="M388 60q-25 -15 -49 -27.5t-50.5 -21.5t-56.5 -14.5t-67 -5.5q-62 0 -91 32t-29 96q0 86 41 124t129 38h173v58q0 31 -5.5 55t-20.5 39.5t-42.5 23.5t-70.5 8q-38 0 -75 -3.5t-75 -7.5q-7 0 -8 5l-2 11q0 5 5 7q17 6 38 10.5t42 7t39.5 3.5t32.5 1q51 0 85 -8.5t54.5 -28
t28.5 -51t8 -77.5v-272q0 -26 9.5 -32t37.5 -7q6 0 6 -6v-13q0 -7 -9 -8q-27 -30 -37.5 -54.5t-9.5 -45.5q1 -29 26.5 -41.5t85.5 1.5q5 1 6 0t2 -3l5 -14q2 -6 -6 -9q-14 -6 -31 -9t-34 -3q-45 0 -65.5 21t-20.5 51q0 26 12.5 54.5t34.5 51.5q-26 2 -36 16.5t-10 47.5z
M388 249h-177q-28 0 -51.5 -5t-41 -19t-27 -38.5t-9.5 -63.5q0 -58 22.5 -79t80.5 -21q26 0 57.5 8.5t60.5 20t52 23l33 16.5v158z" />
    <glyph glyph-name="Cacute" unicode="&#x106;" horiz-adv-x="511" 
d="M71 324q0 70 9.5 133t36.5 110t74.5 75t123.5 28q16 0 39 -1t46.5 -3t46 -6t38.5 -10q7 -2 5 -9l-1 -11q-1 -3 -2.5 -4.5t-6.5 -0.5q-15 1 -33.5 2.5t-39.5 3t-42.5 2.5t-41.5 1q-72 0 -114.5 -28t-64.5 -72t-28.5 -99.5t-6.5 -110.5q0 -58 8 -111.5t31.5 -94.5t65 -65.5
t107.5 -24.5q17 0 38.5 0.5t43 2t42 2.5t35.5 3q8 0 9 -6l2 -11q0 -6 -6 -9q-16 -6 -40.5 -9.5t-49.5 -5.5t-47 -3t-33 -1q-75 0 -122.5 26t-74.5 71.5t-37 106t-10 129.5zM297 711q-5 -2 -7 2l-8 11q-2 2 -2.5 3.5t3.5 4.5l120 83q4 2 5 2t4 -4l19 -24q3 -5 -2 -8z" />
    <glyph glyph-name="cacute" unicode="&#x107;" horiz-adv-x="392" 
d="M377 19q1 -6 -5 -8q-15 -5 -35 -9t-41.5 -6.5t-41 -3.5t-32.5 -1q-59 0 -93.5 18.5t-53.5 52.5t-24.5 81t-5.5 104q0 51 6 96.5t25 79.5t55 54t96 20q13 0 32 -1t39 -3.5t39.5 -6.5t34.5 -9q6 -2 5 -8l-2 -10q-2 -6 -9 -5q-40 5 -72.5 8t-63.5 3q-42 0 -70.5 -11.5
t-46 -37.5t-25 -67.5t-7.5 -100.5q0 -62 7 -104.5t24 -69t45.5 -38.5t72.5 -12q31 0 70.5 3t66.5 7q5 1 6 -0.5t2 -4.5zM231 557q-3 -5 -7 -2l-12 6q-5 3 -3 8l67 129q3 6 9 3l28 -13q5 -2 2 -7z" />
    <glyph glyph-name="Ccircumflex" unicode="&#x108;" horiz-adv-x="511" 
d="M71 324q0 70 9.5 133t36.5 110t74.5 75t123.5 28q16 0 39 -1t46.5 -3t46 -6t38.5 -10q7 -2 5 -9l-1 -11q-1 -3 -2.5 -4.5t-6.5 -0.5q-15 1 -33.5 2.5t-39.5 3t-42.5 2.5t-41.5 1q-72 0 -114.5 -28t-64.5 -72t-28.5 -99.5t-6.5 -110.5q0 -58 8 -111.5t31.5 -94.5t65 -65.5
t107.5 -24.5q17 0 38.5 0.5t43 2t42 2.5t35.5 3q8 0 9 -6l2 -11q0 -6 -6 -9q-16 -6 -40.5 -9.5t-49.5 -5.5t-47 -3t-33 -1q-75 0 -122.5 26t-74.5 71.5t-37 106t-10 129.5zM433 728q3 -4 0 -7l-11 -10q-3 -2 -8 1l-111 72l-110 -72q-5 -3 -8 -1l-11 10q-4 3 0 7l94 82
q7 7 14 7h43q6 0 8 -1.5t7 -5.5z" />
    <glyph glyph-name="ccircumflex" unicode="&#x109;" horiz-adv-x="392" 
d="M377 19q1 -6 -5 -8q-15 -5 -35 -9t-41.5 -6.5t-41 -3.5t-32.5 -1q-59 0 -93.5 18.5t-53.5 52.5t-24.5 81t-5.5 104q0 51 6 96.5t25 79.5t55 54t96 20q13 0 32 -1t39 -3.5t39.5 -6.5t34.5 -9q6 -2 5 -8l-2 -10q-2 -6 -9 -5q-40 5 -72.5 8t-63.5 3q-42 0 -70.5 -11.5
t-46 -37.5t-25 -67.5t-7.5 -100.5q0 -62 7 -104.5t24 -69t45.5 -38.5t72.5 -12q31 0 70.5 3t66.5 7q5 1 6 -0.5t2 -4.5zM351 569q4 -4 3 -4.5t-3 -2.5l-11 -10q-3 -2 -8 1l-110 101l-111 -101q-5 -3 -8 -1l-11 10l-2.5 2.5t2.5 4.5l99 111q3 4 5.5 5.5t8.5 1.5h36
q6 0 9 -1.5t6 -5.5z" />
    <glyph glyph-name="Cdotaccent" unicode="&#x10a;" horiz-adv-x="511" 
d="M71 324q0 70 9.5 133t36.5 110t74.5 75t123.5 28q16 0 39 -1t46.5 -3t46 -6t38.5 -10q7 -2 5 -9l-1 -11q-1 -3 -2.5 -4.5t-6.5 -0.5q-15 1 -33.5 2.5t-39.5 3t-42.5 2.5t-41.5 1q-72 0 -114.5 -28t-64.5 -72t-28.5 -99.5t-6.5 -110.5q0 -58 8 -111.5t31.5 -94.5t65 -65.5
t107.5 -24.5q17 0 38.5 0.5t43 2t42 2.5t35.5 3q8 0 9 -6l2 -11q0 -6 -6 -9q-16 -6 -40.5 -9.5t-49.5 -5.5t-47 -3t-33 -1q-75 0 -122.5 26t-74.5 71.5t-37 106t-10 129.5zM344 755q0 -11 -4.5 -18.5t-19.5 -7.5q-16 0 -19.5 7.5t-3.5 18.5t4.5 17.5t18.5 6.5
q15 0 19.5 -6.5t4.5 -17.5z" />
    <glyph glyph-name="cdotaccent" unicode="&#x10b;" horiz-adv-x="392" 
d="M377 19q1 -6 -5 -8q-15 -5 -35 -9t-41.5 -6.5t-41 -3.5t-32.5 -1q-59 0 -93.5 18.5t-53.5 52.5t-24.5 81t-5.5 104q0 51 6 96.5t25 79.5t55 54t96 20q13 0 32 -1t39 -3.5t39.5 -6.5t34.5 -9q6 -2 5 -8l-2 -10q-2 -6 -9 -5q-40 5 -72.5 8t-63.5 3q-42 0 -70.5 -11.5
t-46 -37.5t-25 -67.5t-7.5 -100.5q0 -62 7 -104.5t24 -69t45.5 -38.5t72.5 -12q31 0 70.5 3t66.5 7q5 1 6 -0.5t2 -4.5zM268 615q0 -11 -4.5 -18.5t-19.5 -7.5q-16 0 -19.5 7.5t-3.5 18.5t4.5 17.5t18.5 6.5q15 0 19.5 -6.5t4.5 -17.5z" />
    <glyph glyph-name="Ccaron" unicode="&#x10c;" horiz-adv-x="511" 
d="M71 324q0 70 9.5 133t36.5 110t74.5 75t123.5 28q16 0 39 -1t46.5 -3t46 -6t38.5 -10q7 -2 5 -9l-1 -11q-1 -3 -2.5 -4.5t-6.5 -0.5q-15 1 -33.5 2.5t-39.5 3t-42.5 2.5t-41.5 1q-72 0 -114.5 -28t-64.5 -72t-28.5 -99.5t-6.5 -110.5q0 -58 8 -111.5t31.5 -94.5t65 -65.5
t107.5 -24.5q17 0 38.5 0.5t43 2t42 2.5t35.5 3q8 0 9 -6l2 -11q0 -6 -6 -9q-16 -6 -40.5 -9.5t-49.5 -5.5t-47 -3t-33 -1q-75 0 -122.5 26t-74.5 71.5t-37 106t-10 129.5zM182 799q-4 3 0 7l11 10q3 2 8 -1l111 -72l110 72q5 3 8 1l11 -10q3 -4 0 -7l-94 -82q-7 -7 -14 -7
h-43q-6 0 -8 1.5t-7 5.5z" />
    <glyph glyph-name="ccaron" unicode="&#x10d;" horiz-adv-x="392" 
d="M377 19q1 -6 -5 -8q-15 -5 -35 -9t-41.5 -6.5t-41 -3.5t-32.5 -1q-59 0 -93.5 18.5t-53.5 52.5t-24.5 81t-5.5 104q0 51 6 96.5t25 79.5t55 54t96 20q13 0 32 -1t39 -3.5t39.5 -6.5t34.5 -9q6 -2 5 -8l-2 -10q-2 -6 -9 -5q-40 5 -72.5 8t-63.5 3q-42 0 -70.5 -11.5
t-46 -37.5t-25 -67.5t-7.5 -100.5q0 -62 7 -104.5t24 -69t45.5 -38.5t72.5 -12q31 0 70.5 3t66.5 7q5 1 6 -0.5t2 -4.5zM262 558q-3 -4 -6 -5.5t-9 -1.5h-31q-6 0 -8.5 1.5t-5.5 5.5l-100 111q-3 4 -2.5 4.5l2.5 2.5l11 10q3 2 8 -1l110 -101l111 101q5 3 8 1l11 -10
q2 -2 3 -2.5t-3 -4.5z" />
    <glyph glyph-name="Dcaron" unicode="&#x10e;" horiz-adv-x="591" 
d="M85 0q-7 0 -8.5 2t-1.5 5v648q0 7 10 7h185q76 0 126 -25.5t79 -69.5t41 -104t12 -130q0 -71 -11 -132t-40 -105.5t-79 -70t-127 -25.5h-186zM112 629v-597h160q68 0 110.5 24.5t66 65t32 93.5t8.5 110q0 54 -8 108.5t-30.5 98t-64 70.5t-107.5 27h-167zM135 799
q-4 3 0 7l11 10q3 2 8 -1l111 -72l110 72q5 3 8 1l11 -10q3 -4 0 -7l-94 -82q-7 -7 -14 -7h-43q-6 0 -8 1.5t-7 5.5z" />
    <glyph glyph-name="dcaron" unicode="&#x10f;" horiz-adv-x="559" 
d="M485 580q26 26 26 62q0 16 -5.5 29.5t-14.5 26.5q-6 6 1 10l34 22q5 4 11 -1q10 -11 14 -23t4 -20q0 -38 -16 -69.5t-40 -49.5q-4 -4 -7 -1l-8 7q-4 4 1 7zM424 6v-5t-3 -1h-26q-5 0 -5 6v53q-17 -10 -39.5 -22t-48 -22t-54 -17t-57.5 -7q-83 0 -114.5 59.5t-31.5 185.5
q0 65 8.5 114t29 81.5t55.5 49t88 16.5q29 0 71.5 -5.5t90.5 -25.5l3 1v229q0 6 5 6h25q3 0 3 -1v-5v-690zM390 437q-49 15 -90.5 22t-79.5 7q-76 0 -107.5 -55t-31.5 -178q0 -60 7 -100t21.5 -64.5t36.5 -34.5t52 -10q22 0 50 7.5t55 18.5t50.5 22t36.5 19v346z" />
    <glyph glyph-name="Dcroat" unicode="&#x110;" horiz-adv-x="591" 
d="M6 327q-5 0 -5 5v22q0 6 5 6h69v295q0 7 10 7h185q76 0 126 -25.5t79 -69.5t41 -104t12 -130q0 -71 -11 -132t-40 -105.5t-79 -70t-127 -25.5h-186q-7 0 -8.5 2t-1.5 5v320h-69zM112 629v-269h119q5 0 5 -6v-23q0 -4 -5 -4h-119v-295h160q68 0 110.5 24.5t66 65t32 93.5
t8.5 110q0 54 -8 108.5t-30.5 98t-64 70.5t-107.5 27h-167z" />
    <glyph glyph-name="dcroat" unicode="&#x111;" horiz-adv-x="475" 
d="M201 586q-5 0 -5 5v17q0 6 5 6h190v82q0 6 5 6h25q3 0 3 -1v-5v-82h69q5 0 5 -6v-18q0 -4 -5 -4h-69v-580v-5t-3 -1h-26q-5 0 -5 6v53q-17 -10 -39.5 -22t-48 -22t-54 -17t-57.5 -7q-83 0 -114.5 59.5t-31.5 185.5q0 65 8.5 114t29 81.5t55.5 49t88 16.5q29 0 71.5 -5.5
t90.5 -25.5l3 1v119h-190zM390 437q-49 15 -90.5 22t-79.5 7q-76 0 -107.5 -55t-31.5 -178q0 -60 7 -100t21.5 -64.5t36.5 -34.5t52 -10q22 0 50 7.5t55 18.5t50.5 22t36.5 19v346z" />
    <glyph glyph-name="Emacron" unicode="&#x112;" horiz-adv-x="471" 
d="M74 0q-5 0 -5 5v651q0 7 5 7h345q5 0 5 -6v-22q0 -6 -5 -6h-313v-268h282q5 0 5 -5v-20q0 -7 -5 -7h-282v-296h319q6 0 6 -5v-23q0 -5 -6 -5h-351zM144 736q-5 0 -5 5v22q0 6 5 6h225q5 0 5 -6v-23q0 -4 -5 -4h-225z" />
    <glyph glyph-name="emacron" unicode="&#x113;" horiz-adv-x="460" 
d="M45 247q0 45 6.5 89.5t27 80.5t57.5 58t98 22q60 0 97.5 -18t58 -48.5t28 -70t7.5 -81.5q0 -22 -6.5 -32t-25.5 -10h-310q0 -42 5 -80.5t20.5 -68t45.5 -46.5t80 -17q40 0 76.5 3.5t76.5 7.5q8 0 9 -5l1 -9q2 -7 -4 -8q-15 -6 -36 -10t-43.5 -7t-44.5 -4t-38 -1
q-63 0 -100 21t-56 56t-24.5 81.5t-5.5 96.5zM234 464q-46 0 -75 -15t-45.5 -41.5t-23.5 -62.5t-8 -79h306q-1 38 -5.5 73.5t-20 63.5t-46 44.5t-82.5 16.5zM121 595q-5 0 -5 5v22q0 6 5 6h225q5 0 5 -6v-23q0 -4 -5 -4h-225z" />
    <glyph glyph-name="Ebreve" unicode="&#x114;" horiz-adv-x="471" 
d="M74 0q-5 0 -5 5v651q0 7 5 7h345q5 0 5 -6v-22q0 -6 -5 -6h-313v-268h282q5 0 5 -5v-20q0 -7 -5 -7h-282v-296h319q6 0 6 -5v-23q0 -5 -6 -5h-351zM244 716q-35 0 -68.5 17t-52.5 55q-2 5 -4.5 11t2.5 10l10 7q8 6 13 -3q24 -36 46.5 -49.5t54.5 -13.5q26 0 49.5 14.5
t48.5 49.5q5 7 13 3l9 -6q5 -4 2.5 -9t-5.5 -12q-21 -39 -52.5 -56.5t-65.5 -17.5z" />
    <glyph glyph-name="ebreve" unicode="&#x115;" horiz-adv-x="460" 
d="M45 247q0 45 6.5 89.5t27 80.5t57.5 58t98 22q60 0 97.5 -18t58 -48.5t28 -70t7.5 -81.5q0 -22 -6.5 -32t-25.5 -10h-310q0 -42 5 -80.5t20.5 -68t45.5 -46.5t80 -17q40 0 76.5 3.5t76.5 7.5q8 0 9 -5l1 -9q2 -7 -4 -8q-15 -6 -36 -10t-43.5 -7t-44.5 -4t-38 -1
q-63 0 -100 21t-56 56t-24.5 81.5t-5.5 96.5zM234 464q-46 0 -75 -15t-45.5 -41.5t-23.5 -62.5t-8 -79h306q-1 38 -5.5 73.5t-20 63.5t-46 44.5t-82.5 16.5zM247 566q-35 0 -68.5 17t-52.5 55q-2 5 -4.5 11t2.5 10l10 7q8 6 13 -3q24 -36 46.5 -49.5t54.5 -13.5
q26 0 49.5 14.5t48.5 49.5q5 7 13 3l9 -6q5 -4 2.5 -9t-5.5 -12q-21 -39 -52.5 -56.5t-65.5 -17.5z" />
    <glyph glyph-name="Edotaccent" unicode="&#x116;" horiz-adv-x="471" 
d="M74 0q-5 0 -5 5v651q0 7 5 7h345q5 0 5 -6v-22q0 -6 -5 -6h-313v-268h282q5 0 5 -5v-20q0 -7 -5 -7h-282v-296h319q6 0 6 -5v-23q0 -5 -6 -5h-351zM282 755q0 -11 -4.5 -18.5t-19.5 -7.5q-16 0 -19.5 7.5t-3.5 18.5t4.5 17.5t18.5 6.5q15 0 19.5 -6.5t4.5 -17.5z" />
    <glyph glyph-name="edotaccent" unicode="&#x117;" horiz-adv-x="460" 
d="M45 247q0 45 6.5 89.5t27 80.5t57.5 58t98 22q60 0 97.5 -18t58 -48.5t28 -70t7.5 -81.5q0 -22 -6.5 -32t-25.5 -10h-310q0 -42 5 -80.5t20.5 -68t45.5 -46.5t80 -17q40 0 76.5 3.5t76.5 7.5q8 0 9 -5l1 -9q2 -7 -4 -8q-15 -6 -36 -10t-43.5 -7t-44.5 -4t-38 -1
q-63 0 -100 21t-56 56t-24.5 81.5t-5.5 96.5zM234 464q-46 0 -75 -15t-45.5 -41.5t-23.5 -62.5t-8 -79h306q-1 38 -5.5 73.5t-20 63.5t-46 44.5t-82.5 16.5zM269 615q0 -11 -4.5 -18.5t-19.5 -7.5q-16 0 -19.5 7.5t-3.5 18.5t4.5 17.5t18.5 6.5q15 0 19.5 -6.5t4.5 -17.5z
" />
    <glyph glyph-name="Eogonek" unicode="&#x118;" horiz-adv-x="471" 
d="M418 0q-29 -32 -40 -57t-10 -47q1 -29 26.5 -41.5t85.5 1.5q5 1 6 0t2 -3l5 -14q2 -6 -6 -9q-14 -6 -31 -9t-34 -3q-45 0 -65.5 21t-20.5 51q0 28 13.5 57.5t37.5 52.5h-313q-5 0 -5 5v651q0 7 5 7h345q5 0 5 -6v-22q0 -6 -5 -6h-313v-268h282q5 0 5 -5v-20q0 -7 -5 -7
h-282v-296h319q6 0 6 -5v-23q0 -5 -6 -5h-7z" />
    <glyph glyph-name="eogonek" unicode="&#x119;" horiz-adv-x="472" 
d="M45 247q0 45 6.5 89.5t27 80.5t57.5 58t98 22q60 0 97.5 -18t58 -48.5t28 -70t7.5 -81.5q0 -22 -6.5 -32t-25.5 -10h-310q0 -42 5 -80.5t20.5 -68t45.5 -46.5t80 -17q40 0 76.5 3.5t76.5 7.5q8 0 9 -5l1 -9q2 -7 -4 -8q-8 -3 -18 -6t-21 -5q-31 -32 -42.5 -58t-10.5 -49
q1 -29 26.5 -41.5t85.5 1.5q5 1 6 0t2 -3l5 -14q2 -6 -6 -9q-14 -6 -31 -9t-34 -3q-45 0 -65.5 21t-20.5 51q0 27 12.5 56t35.5 52q-23 -3 -46 -4.5t-40 -1.5q-63 0 -100 21t-56 56t-24.5 81.5t-5.5 96.5zM234 464q-46 0 -75 -15t-45.5 -41.5t-23.5 -62.5t-8 -79h306
q-1 38 -5.5 73.5t-20 63.5t-46 44.5t-82.5 16.5z" />
    <glyph glyph-name="Ecaron" unicode="&#x11a;" horiz-adv-x="471" 
d="M74 0q-5 0 -5 5v651q0 7 5 7h345q5 0 5 -6v-22q0 -6 -5 -6h-313v-268h282q5 0 5 -5v-20q0 -7 -5 -7h-282v-296h319q6 0 6 -5v-23q0 -5 -6 -5h-351zM114 799q-4 3 0 7l11 10q3 2 8 -1l111 -72l110 72q5 3 8 1l11 -10q3 -4 0 -7l-94 -82q-7 -7 -14 -7h-43q-6 0 -8 1.5
t-7 5.5z" />
    <glyph glyph-name="ecaron" unicode="&#x11b;" horiz-adv-x="460" 
d="M45 247q0 45 6.5 89.5t27 80.5t57.5 58t98 22q60 0 97.5 -18t58 -48.5t28 -70t7.5 -81.5q0 -22 -6.5 -32t-25.5 -10h-310q0 -42 5 -80.5t20.5 -68t45.5 -46.5t80 -17q40 0 76.5 3.5t76.5 7.5q8 0 9 -5l1 -9q2 -7 -4 -8q-15 -6 -36 -10t-43.5 -7t-44.5 -4t-38 -1
q-63 0 -100 21t-56 56t-24.5 81.5t-5.5 96.5zM234 464q-46 0 -75 -15t-45.5 -41.5t-23.5 -62.5t-8 -79h306q-1 38 -5.5 73.5t-20 63.5t-46 44.5t-82.5 16.5zM275 558q-3 -4 -6 -5.5t-9 -1.5h-31q-6 0 -8.5 1.5t-5.5 5.5l-100 111q-3 4 -2.5 4.5l2.5 2.5l11 10q3 2 8 -1
l110 -101l111 101q5 3 8 1l11 -10q2 -2 3 -2.5t-3 -4.5z" />
    <glyph glyph-name="Gcircumflex" unicode="&#x11c;" horiz-adv-x="578" 
d="M333 26q15 0 33 1.5t37 4.5t36.5 7t31.5 9v251h-104q-8 0 -8 7v24q0 5 8 5h136q6 0 6 -7v-287q0 -10 -4 -17t-15 -10q-78 -22 -159 -22q-143 0 -204.5 82t-61.5 250q0 70 10 133t37 110t74.5 75t123.5 28q16 0 39 -1t46.5 -3t46 -6t38.5 -10q7 -2 5 -9l-1 -11
q-1 -3 -2.5 -4.5t-6.5 -0.5q-15 1 -34 2.5t-40.5 3t-43.5 2.5t-42 1q-73 0 -115 -28t-63.5 -72t-27 -99.5t-5.5 -110.5q0 -58 8 -112t32 -95t69 -66t120 -25zM442 728q3 -4 0 -7l-11 -10q-3 -2 -8 1l-111 72l-110 -72q-5 -3 -8 -1l-11 10q-4 3 0 7l94 82q7 7 14 7h43
q6 0 8 -1.5t7 -5.5z" />
    <glyph glyph-name="gcircumflex" unicode="&#x11d;" horiz-adv-x="479" 
d="M430 -16q0 -48 -8 -80.5t-28 -52t-53 -28t-83 -8.5q-18 0 -38 1t-41 3t-41 5.5t-36 9.5q-6 3 -5 9l1 10q1 5 9 5q36 -4 71.5 -7.5t71.5 -3.5q41 0 69 6.5t45 21.5t24.5 40t7.5 62v44l-3 2q-53 -21 -94 -26t-70 -5q-54 0 -89.5 16.5t-57 48.5t-30 79t-8.5 108
q0 131 43 192.5t145 61.5q65 0 106.5 -5.5t73.5 -13.5q13 -3 15.5 -9t2.5 -17v-469zM395 450q-32 6 -73 10.5t-86 4.5q-31 0 -59 -8t-49 -30.5t-33.5 -64t-12.5 -108.5q0 -119 31.5 -174.5t109.5 -55.5q38 0 79.5 7t92.5 22v397zM389 569q4 -4 3 -4.5t-3 -2.5l-11 -10
q-3 -2 -8 1l-110 101l-111 -101q-5 -3 -8 -1l-11 10l-2.5 2.5t2.5 4.5l99 111q3 4 5.5 5.5t8.5 1.5h36q6 0 9 -1.5t6 -5.5z" />
    <glyph glyph-name="Gbreve" unicode="&#x11e;" horiz-adv-x="578" 
d="M333 26q15 0 33 1.5t37 4.5t36.5 7t31.5 9v251h-104q-8 0 -8 7v24q0 5 8 5h136q6 0 6 -7v-287q0 -10 -4 -17t-15 -10q-78 -22 -159 -22q-143 0 -204.5 82t-61.5 250q0 70 10 133t37 110t74.5 75t123.5 28q16 0 39 -1t46.5 -3t46 -6t38.5 -10q7 -2 5 -9l-1 -11
q-1 -3 -2.5 -4.5t-6.5 -0.5q-15 1 -34 2.5t-40.5 3t-43.5 2.5t-42 1q-73 0 -115 -28t-63.5 -72t-27 -99.5t-5.5 -110.5q0 -58 8 -112t32 -95t69 -66t120 -25zM323 716q-35 0 -68.5 17t-52.5 55q-2 5 -4.5 11t2.5 10l10 7q8 6 13 -3q24 -36 46.5 -49.5t54.5 -13.5
q26 0 49.5 14.5t48.5 49.5q5 7 13 3l9 -6q5 -4 2.5 -9t-5.5 -12q-21 -39 -52.5 -56.5t-65.5 -17.5z" />
    <glyph glyph-name="gbreve" unicode="&#x11f;" horiz-adv-x="479" 
d="M430 -16q0 -48 -8 -80.5t-28 -52t-53 -28t-83 -8.5q-18 0 -38 1t-41 3t-41 5.5t-36 9.5q-6 3 -5 9l1 10q1 5 9 5q36 -4 71.5 -7.5t71.5 -3.5q41 0 69 6.5t45 21.5t24.5 40t7.5 62v44l-3 2q-53 -21 -94 -26t-70 -5q-54 0 -89.5 16.5t-57 48.5t-30 79t-8.5 108
q0 131 43 192.5t145 61.5q65 0 106.5 -5.5t73.5 -13.5q13 -3 15.5 -9t2.5 -17v-469zM395 450q-32 6 -73 10.5t-86 4.5q-31 0 -59 -8t-49 -30.5t-33.5 -64t-12.5 -108.5q0 -119 31.5 -174.5t109.5 -55.5q38 0 79.5 7t92.5 22v397zM268 566q-35 0 -68.5 17t-52.5 55
q-2 5 -4.5 11t2.5 10l10 7q8 6 13 -3q24 -36 46.5 -49.5t54.5 -13.5q26 0 49.5 14.5t48.5 49.5q5 7 13 3l9 -6q5 -4 2.5 -9t-5.5 -12q-21 -39 -52.5 -56.5t-65.5 -17.5z" />
    <glyph glyph-name="Gdotaccent" unicode="&#x120;" horiz-adv-x="578" 
d="M333 26q15 0 33 1.5t37 4.5t36.5 7t31.5 9v251h-104q-8 0 -8 7v24q0 5 8 5h136q6 0 6 -7v-287q0 -10 -4 -17t-15 -10q-78 -22 -159 -22q-143 0 -204.5 82t-61.5 250q0 70 10 133t37 110t74.5 75t123.5 28q16 0 39 -1t46.5 -3t46 -6t38.5 -10q7 -2 5 -9l-1 -11
q-1 -3 -2.5 -4.5t-6.5 -0.5q-15 1 -34 2.5t-40.5 3t-43.5 2.5t-42 1q-73 0 -115 -28t-63.5 -72t-27 -99.5t-5.5 -110.5q0 -58 8 -112t32 -95t69 -66t120 -25zM349 755q0 -11 -4.5 -18.5t-19.5 -7.5q-16 0 -19.5 7.5t-3.5 18.5t4.5 17.5t18.5 6.5q15 0 19.5 -6.5t4.5 -17.5z
" />
    <glyph glyph-name="gdotaccent" unicode="&#x121;" horiz-adv-x="479" 
d="M430 -16q0 -48 -8 -80.5t-28 -52t-53 -28t-83 -8.5q-18 0 -38 1t-41 3t-41 5.5t-36 9.5q-6 3 -5 9l1 10q1 5 9 5q36 -4 71.5 -7.5t71.5 -3.5q41 0 69 6.5t45 21.5t24.5 40t7.5 62v44l-3 2q-53 -21 -94 -26t-70 -5q-54 0 -89.5 16.5t-57 48.5t-30 79t-8.5 108
q0 131 43 192.5t145 61.5q65 0 106.5 -5.5t73.5 -13.5q13 -3 15.5 -9t2.5 -17v-469zM395 450q-32 6 -73 10.5t-86 4.5q-31 0 -59 -8t-49 -30.5t-33.5 -64t-12.5 -108.5q0 -119 31.5 -174.5t109.5 -55.5q38 0 79.5 7t92.5 22v397zM300 615q0 -11 -4.5 -18.5t-19.5 -7.5
q-16 0 -19.5 7.5t-3.5 18.5t4.5 17.5t18.5 6.5q15 0 19.5 -6.5t4.5 -17.5z" />
    <glyph glyph-name="Gcommaaccent" unicode="&#x122;" horiz-adv-x="578" 
d="M333 26q15 0 33 1.5t37 4.5t36.5 7t31.5 9v251h-104q-8 0 -8 7v24q0 5 8 5h136q6 0 6 -7v-287q0 -10 -4 -17t-15 -10q-78 -22 -159 -22q-143 0 -204.5 82t-61.5 250q0 70 10 133t37 110t74.5 75t123.5 28q16 0 39 -1t46.5 -3t46 -6t38.5 -10q7 -2 5 -9l-1 -11
q-1 -3 -2.5 -4.5t-6.5 -0.5q-15 1 -34 2.5t-40.5 3t-43.5 2.5t-42 1q-73 0 -115 -28t-63.5 -72t-27 -99.5t-5.5 -110.5q0 -58 8 -112t32 -95t69 -66t120 -25zM284 -202q26 26 26 62q0 16 -5.5 29.5t-14.5 26.5q-6 6 1 10l34 22q5 4 11 -1q10 -11 14 -23t4 -20
q0 -38 -16 -69.5t-40 -49.5q-4 -4 -7 -1l-8 7q-4 4 1 7z" />
    <glyph glyph-name="gcommaaccent" unicode="&#x123;" horiz-adv-x="479" 
d="M307 710q-26 -26 -26 -62q0 -16 5.5 -29.5t14.5 -26.5q6 -6 -1 -10l-34 -22q-5 -4 -11 1q-10 11 -14 23t-4 20q0 38 16 69.5t40 49.5q4 4 7 1l8 -7q4 -4 -1 -7zM430 -16q0 -48 -8 -80.5t-28 -52t-53 -28t-83 -8.5q-18 0 -38 1t-41 3t-41 5.5t-36 9.5q-6 3 -5 9l1 10
q1 5 9 5q36 -4 71.5 -7.5t71.5 -3.5q41 0 69 6.5t45 21.5t24.5 40t7.5 62v44l-3 2q-53 -21 -94 -26t-70 -5q-54 0 -89.5 16.5t-57 48.5t-30 79t-8.5 108q0 131 43 192.5t145 61.5q65 0 106.5 -5.5t73.5 -13.5q13 -3 15.5 -9t2.5 -17v-469zM395 450q-32 6 -73 10.5t-86 4.5
q-31 0 -59 -8t-49 -30.5t-33.5 -64t-12.5 -108.5q0 -119 31.5 -174.5t109.5 -55.5q38 0 79.5 7t92.5 22v397z" />
    <glyph glyph-name="Hcircumflex" unicode="&#x124;" horiz-adv-x="570" 
d="M470 0q-7 0 -7 6v330h-355v-330q0 -6 -5 -6h-26q-5 0 -5 6v651q0 6 5 6h26q5 0 5 -6v-289h355v289q0 6 7 6h24q5 0 5 -6v-651q0 -6 -5 -6h-24zM419 728q3 -4 0 -7l-11 -10q-3 -2 -8 1l-111 72l-110 -72q-5 -3 -8 -1l-11 10q-4 3 0 7l94 82q7 7 14 7h43q6 0 8 -1.5t7 -5.5
z" />
    <glyph glyph-name="hcircumflex" unicode="&#x125;" horiz-adv-x="469" 
d="M284 496q50 0 77 -14.5t40 -39.5t15 -58t2 -69l1 -309q0 -6 -5 -6h-28q-3 0 -3 6v313q0 31 -2 58t-12.5 46.5t-32 31t-59.5 11.5q-22 0 -50 -8t-55 -18.5t-50.5 -22t-36.5 -18.5v-393q0 -6 -5 -6h-26q-3 0 -3 6v690q0 6 3 6h26q5 0 5 -6v-269q15 9 37.5 21t48.5 22.5
t55 18t58 7.5zM199 728q3 -4 0 -7l-11 -10q-3 -2 -8 1l-111 72l-110 -72q-5 -3 -8 -1l-11 10q-4 3 0 7l94 82q7 7 14 7h43q6 0 8 -1.5t7 -5.5z" />
    <glyph glyph-name="Hbar" unicode="&#x126;" horiz-adv-x="570" 
d="M470 0q-7 0 -7 6v330h-355v-330q0 -6 -5 -6h-26q-5 0 -5 6v484h-37q-5 0 -5 5v19q0 6 5 6h37v137q0 6 5 6h26q5 0 5 -6v-137h355v137q0 6 7 6h24q5 0 5 -6v-137h36q5 0 5 -6v-20q0 -4 -5 -4h-36v-484q0 -6 -5 -6h-24zM463 368v122h-355v-122h355z" />
    <glyph glyph-name="hbar" unicode="&#x127;" horiz-adv-x="504" 
d="M324 496q52 0 79.5 -14.5t39.5 -39.5t13.5 -58t1.5 -69l1 -309q0 -6 -5 -6h-28q-3 0 -3 6v313q0 31 -2 58t-12.5 46.5t-32 31t-59.5 11.5q-22 0 -50 -8t-55 -18.5t-50.5 -22t-36.5 -18.5v-393q0 -6 -5 -6h-26q-3 0 -3 6v580h-64q-6 0 -6 5v17q0 6 7 6h63v82q0 6 3 6h26
q5 0 5 -6v-82h258q5 0 5 -5v-18q0 -5 -5 -5h-258v-159q15 9 37.5 21t48.5 22.5t55 18t58 7.5z" />
    <glyph glyph-name="Itilde" unicode="&#x128;" horiz-adv-x="224" 
d="M129 6q0 -6 -5 -6h-26q-5 0 -5 6v651q0 6 5 6h26q5 0 5 -6v-651zM181 746q18 0 29.5 11.5t21.5 28.5q3 5 5 6.5t8 -1.5l10 -5q5 -3 4 -7t-2 -6q-29 -57 -77 -57q-20 0 -38.5 8.5t-36 18t-34 18t-31.5 8.5t-28 -11t-24 -27q-5 -8 -8 -9t-8 1l-8 4q-6 3 -5.5 8t3.5 10
q33 55 79 55q17 0 36 -8.5t37.5 -18.5t36 -18.5t30.5 -8.5z" />
    <glyph glyph-name="itilde" unicode="&#x129;" horiz-adv-x="292" 
d="M166 6q0 -6 -5 -6h-23q-6 0 -6 6v475q0 6 6 6h24q4 0 4 -6v-475zM218 603q18 0 29.5 11.5t21.5 28.5q3 5 5 6.5t8 -1.5l10 -5q5 -3 4 -7t-2 -6q-29 -57 -77 -57q-20 0 -38.5 8.5t-36 18t-34 18t-31.5 8.5t-28 -11t-24 -27q-5 -8 -8 -9t-8 1l-8 4q-6 3 -5.5 8t3.5 10
q33 55 79 55q17 0 36 -8.5t37.5 -18.5t36 -18.5t30.5 -8.5z" />
    <glyph glyph-name="Imacron" unicode="&#x12a;" horiz-adv-x="224" 
d="M129 6q0 -6 -5 -6h-26q-5 0 -5 6v651q0 6 5 6h26q5 0 5 -6v-651zM1 736q-5 0 -5 5v22q0 6 5 6h225q5 0 5 -6v-23q0 -4 -5 -4h-225z" />
    <glyph glyph-name="imacron" unicode="&#x12b;" horiz-adv-x="225" 
d="M131 6q0 -6 -5 -6h-23q-6 0 -6 6v475q0 6 6 6h24q4 0 4 -6v-475zM0 595q-5 0 -5 5v22q0 6 5 6h225q5 0 5 -6v-23q0 -4 -5 -4h-225z" />
    <glyph glyph-name="Ibreve" unicode="&#x12c;" horiz-adv-x="271" 
d="M127 716q-35 0 -68.5 17t-52.5 55q-2 5 -4.5 11t2.5 10l10 7q8 6 13 -3q24 -36 46.5 -49.5t54.5 -13.5q26 0 49.5 14.5t48.5 49.5q5 7 13 3l9 -6q5 -4 2.5 -9t-5.5 -12q-21 -39 -52.5 -56.5t-65.5 -17.5zM145 6q0 -6 -5 -6h-26q-5 0 -5 6v651q0 6 5 6h26q5 0 5 -6v-651z
" />
    <glyph glyph-name="ibreve" unicode="&#x12d;" horiz-adv-x="241" 
d="M139 6q0 -6 -5 -6h-23q-6 0 -6 6v475q0 6 6 6h24q4 0 4 -6v-475zM122 572q-35 0 -68.5 17t-52.5 55q-2 5 -4.5 11t2.5 10l10 7q8 6 13 -3q24 -36 46.5 -49.5t54.5 -13.5q26 0 49.5 14.5t48.5 49.5q5 7 13 3l9 -6q5 -4 2.5 -9t-5.5 -12q-21 -39 -52.5 -56.5t-65.5 -17.5z
" />
    <glyph glyph-name="Iogonek" unicode="&#x12e;" horiz-adv-x="224" 
d="M129 6q0 -6 -5 -6h-4q-29 -32 -40 -57t-10 -47q1 -29 26.5 -41.5t85.5 1.5q5 1 6 0t2 -3l5 -14q2 -6 -6 -9q-14 -6 -31 -9t-34 -3q-45 0 -65.5 21t-20.5 51q0 29 14.5 59.5t40.5 53.5v3v651q0 6 5 6h26q5 0 5 -6v-651v0z" />
    <glyph glyph-name="iogonek" unicode="&#x12f;" horiz-adv-x="197" 
d="M115 6q0 -6 -5 -6h-2q-29 -32 -40 -57t-10 -47q1 -29 26.5 -41.5t85.5 1.5q5 1 6 0t2 -3l5 -14q2 -6 -6 -9q-14 -6 -31 -9t-34 -3q-45 0 -65.5 21t-20.5 51q0 29 14.5 59.5t40.5 53.5v3v475q0 6 6 6h24q4 0 4 -6v-475zM123 618q0 -11 -4.5 -19t-20.5 -8t-20 8t-4 19
t4.5 18t19.5 7q16 0 20.5 -7t4.5 -18z" />
    <glyph glyph-name="Idotaccent" unicode="&#x130;" horiz-adv-x="224" 
d="M129 6q0 -6 -5 -6h-26q-5 0 -5 6v651q0 6 5 6h26q5 0 5 -6v-651zM134 755q0 -11 -4.5 -18.5t-19.5 -7.5q-16 0 -19.5 7.5t-3.5 18.5t4.5 17.5t18.5 6.5q15 0 19.5 -6.5t4.5 -17.5z" />
    <glyph glyph-name="dotlessi" unicode="&#x131;" horiz-adv-x="197" 
d="M115 6q0 -6 -5 -6h-23q-6 0 -6 6v475q0 6 6 6h24q4 0 4 -6v-475v0z" />
    <glyph glyph-name="IJ" unicode="&#x132;" horiz-adv-x="573" 
d="M126 6q0 -6 -5 -6h-26q-5 0 -5 6v651q0 6 5 6h26q5 0 5 -6v-651zM483 163q0 -38 -8 -70t-28 -55t-53 -35.5t-84 -12.5q-10 0 -24.5 1t-30 3t-32 6t-30.5 9q-6 4 -5 9l3 11q1 7 9 6q40 -5 68 -6t40 -1q43 0 70.5 11t42.5 31t20 48t5 62v477q0 6 5 6h27q5 0 5 -6v-494z" />
    <glyph glyph-name="ij" unicode="&#x133;" horiz-adv-x="422" 
d="M115 6q0 -6 -5 -6h-23q-6 0 -6 6v475q0 6 6 6h24q4 0 4 -6v-475zM123 618q0 -11 -4.5 -19t-20.5 -8t-20 8t-4 19t4.5 18t19.5 7q16 0 20.5 -7t4.5 -18zM323 -94q0 -17 -3.5 -36.5t-17 -35.5t-41 -26t-76.5 -7q-1 0 -5 1.5t-4 7.5v10q0 9 10 9q37 1 57.5 9t30.5 20t12 27
t2 31v566q0 6 5 6h24q6 0 6 -6v-576zM330 618q0 -11 -4.5 -19t-20.5 -8t-20 8t-4 19t4.5 18t19.5 7q16 0 20.5 -7t4.5 -18z" />
    <glyph glyph-name="Jcircumflex" unicode="&#x134;" horiz-adv-x="407" 
d="M305 164q0 -38 -8 -70t-28 -55t-53 -35.5t-84 -12.5q-10 0 -24.5 1t-30 3t-32 6t-30.5 9q-6 4 -5 9l3 11q1 7 9 6q40 -5 68 -6t40 -1q43 0 70.5 11t42.5 31t20 48t5 62v477q0 6 5 6h27q5 0 5 -6v-494zM415 730q3 -4 0 -7l-11 -10q-3 -2 -8 1l-111 72l-110 -72
q-5 -3 -8 -1l-11 10q-4 3 0 7l94 82q7 7 14 7h43q6 0 8 -1.5t7 -5.5z" />
    <glyph glyph-name="jcircumflex" unicode="&#x135;" horiz-adv-x="246" 
d="M138 -94q0 -17 -3.5 -36.5t-17 -35.5t-41 -26t-76.5 -7q-1 0 -5 1.5t-4 7.5v10q0 9 10 9q37 1 57.5 9t30.5 20t12 27t2 31v566q0 6 5 6h24q6 0 6 -6v-576zM252 569q4 -4 3 -4.5t-3 -2.5l-11 -10q-3 -2 -8 1l-110 101l-111 -101q-5 -3 -8 -1l-11 10l-2.5 2.5t2.5 4.5
l99 111q3 4 5.5 5.5t8.5 1.5h36q6 0 9 -1.5t6 -5.5z" />
    <glyph glyph-name="Kcommaaccent" unicode="&#x136;" horiz-adv-x="524" 
d="M497 8q5 -8 -5 -8h-25q-9 0 -12 6l-209 352l-141 -175v-177q0 -6 -5 -6h-26q-5 0 -5 6v651q0 6 5 6h26q5 0 5 -6v-420l339 420q3 3 5 4.5t8 1.5h27q5 0 5.5 -2.5t-1.5 -4.5l-218 -268zM226 -182q26 26 26 62q0 16 -5.5 29.5t-14.5 26.5q-6 6 1 10l34 22q5 4 11 -1
q10 -11 14 -23t4 -20q0 -38 -16 -69.5t-40 -49.5q-4 -4 -7 -1l-8 7q-4 4 1 7z" />
    <glyph glyph-name="kcommaaccent" unicode="&#x137;" horiz-adv-x="402" 
d="M201 309l196 -302q3 -5 0.5 -6t-4.5 -1h-23q-10 0 -15 9l-177 278l-94 -90v-191q0 -6 -5 -6h-23q-6 0 -6 6v690q0 6 6 6h24q4 0 4 -6v-459l85 85l166 160q6 6 14 6h25q13 0 4 -10zM161 -202q26 26 26 62q0 16 -5.5 29.5t-14.5 26.5q-6 6 1 10l34 22q5 4 11 -1
q10 -11 14 -23t4 -20q0 -38 -16 -69.5t-40 -49.5q-4 -4 -7 -1l-8 7q-4 4 1 7z" />
    <glyph glyph-name="kgreenlandic" unicode="&#x138;" horiz-adv-x="406" 
d="M201 309l200 -302q3 -5 0.5 -6t-4.5 -1h-23q-10 0 -15 9l-181 278l-94 -90v-191q0 -6 -5 -6h-23q-6 0 -6 6v475q0 6 6 6h24q4 0 4 -6v-244l85 85l166 160q6 6 14 6h25q13 0 4 -10z" />
    <glyph glyph-name="Lacute" unicode="&#x139;" horiz-adv-x="458" 
d="M446 5q0 -5 -6 -5h-361q-5 0 -5 6v650q0 7 6 7h24q5 0 5 -7l1 -622h330q6 0 6 -6v-23zM111 711q-5 -2 -7 2l-8 11q-2 2 -2.5 3.5t3.5 4.5l120 83q4 2 5 2t4 -4l19 -24q3 -5 -2 -8z" />
    <glyph glyph-name="lacute" unicode="&#x13a;" horiz-adv-x="202" 
d="M75 696q0 6 6 6h25q4 0 4 -6v-634q0 -13 1 -20t5.5 -11t13.5 -4.5t26 0.5q9 0 10 -5l2 -14q2 -8 -8 -11q-11 -3 -21.5 -4t-18.5 -1q-22 0 -33.5 11.5t-11.5 41.5v651zM92 747q-5 -2 -7 2l-8 11q-2 2 -2.5 3.5t3.5 4.5l120 83q4 2 5 2t4 -4l19 -24q3 -5 -2 -8z" />
    <glyph glyph-name="Lcommaaccent" unicode="&#x13b;" horiz-adv-x="458" 
d="M446 5q0 -5 -6 -5h-361q-5 0 -5 6v650q0 7 6 7h24q5 0 5 -7l1 -622h330q6 0 6 -6v-23zM224 -202q26 26 26 62q0 16 -5.5 29.5t-14.5 26.5q-6 6 1 10l34 22q5 4 11 -1q10 -11 14 -23t4 -20q0 -38 -16 -69.5t-40 -49.5q-4 -4 -7 -1l-8 7q-4 4 1 7z" />
    <glyph glyph-name="lcommaaccent" unicode="&#x13c;" horiz-adv-x="202" 
d="M75 696q0 6 6 6h25q4 0 4 -6v-634q0 -13 1 -20t5.5 -11t13.5 -4.5t26 0.5q9 0 10 -5l2 -14q2 -8 -8 -11q-11 -3 -21.5 -4t-18.5 -1q-22 0 -33.5 11.5t-11.5 41.5v651zM72 -202q26 26 26 62q0 16 -5.5 29.5t-14.5 26.5q-6 6 1 10l34 22q5 4 11 -1q10 -11 14 -23t4 -20
q0 -38 -16 -69.5t-40 -49.5q-4 -4 -7 -1l-8 7q-4 4 1 7z" />
    <glyph glyph-name="Lcaron" unicode="&#x13d;" horiz-adv-x="458" 
d="M446 5q0 -5 -6 -5h-361q-5 0 -5 6v650q0 7 6 7h24q5 0 5 -7l1 -622h330q6 0 6 -6v-23zM301 511q26 26 26 62q0 16 -5.5 29.5t-14.5 26.5q-6 6 1 10l34 22q5 4 11 -1q10 -11 14 -23t4 -20q0 -38 -16 -69.5t-40 -49.5q-4 -4 -7 -1l-8 7q-4 4 1 7z" />
    <glyph glyph-name="lcaron" unicode="&#x13e;" horiz-adv-x="237" 
d="M166 560q26 26 26 62q0 16 -5.5 29.5t-14.5 26.5q-6 6 1 10l34 22q5 4 11 -1q10 -11 14 -23t4 -20q0 -38 -16 -69.5t-40 -49.5q-4 -4 -7 -1l-8 7q-4 4 1 7zM75 696q0 6 6 6h25q4 0 4 -6v-634q0 -13 1 -20t5.5 -11t13.5 -4.5t26 0.5q9 0 10 -5l2 -14q2 -8 -8 -11
q-11 -3 -21.5 -4t-18.5 -1q-22 0 -33.5 11.5t-11.5 41.5v651z" />
    <glyph glyph-name="Ldot" unicode="&#x13f;" horiz-adv-x="458" 
d="M446 5q0 -5 -6 -5h-361q-5 0 -5 6v650q0 7 6 7h24q5 0 5 -7l1 -622h330q6 0 6 -6v-23zM327 339q0 -11 -4.5 -18.5t-19.5 -7.5q-16 0 -19.5 7.5t-3.5 18.5t4.5 17.5t18.5 6.5q15 0 19.5 -6.5t4.5 -17.5z" />
    <glyph glyph-name="ldot" unicode="&#x140;" horiz-adv-x="222" 
d="M219 356q0 -11 -4.5 -18.5t-19.5 -7.5q-16 0 -19.5 7.5t-3.5 18.5t4.5 17.5t18.5 6.5q15 0 19.5 -6.5t4.5 -17.5zM75 696q0 6 6 6h25q4 0 4 -6v-634q0 -13 1 -20t5.5 -11t13.5 -4.5t26 0.5q9 0 10 -5l2 -14q2 -8 -8 -11q-11 -3 -21.5 -4t-18.5 -1q-22 0 -33.5 11.5
t-11.5 41.5v651z" />
    <glyph glyph-name="Lslash" unicode="&#x141;" horiz-adv-x="466" 
d="M454 5q0 -5 -6 -5h-361q-5 0 -5 6v258l-66 -35q-8 -5 -11 1l-7 13q-5 7 2 11l82 44v358q0 7 6 7h24q5 0 5 -7v-339l124 67q8 6 10 -3l8 -13q4 -7 -3 -11l-139 -74l1 -249h330q6 0 6 -6v-23v0z" />
    <glyph glyph-name="lslash" unicode="&#x142;" horiz-adv-x="216" 
d="M81 696q0 6 6 6h25q4 0 4 -6v-358l78 41q8 6 10 -3l8 -13q4 -7 -3 -11l-93 -48v-242q0 -13 1 -20t5.5 -11t13.5 -4.5t26 0.5q9 0 10 -5l2 -14q2 -8 -8 -11q-11 -3 -21.5 -4t-18.5 -1q-22 0 -33.5 11.5t-11.5 41.5v241l-62 -32q-8 -5 -11 1l-7 13q-5 7 2 11l78 41v376v0z
" />
    <glyph glyph-name="Nacute" unicode="&#x143;" horiz-adv-x="603" 
d="M533 7q0 -7 -6 -7h-27q-5 0 -6 1t-3 5l-383 593h-2v-592q0 -7 -5 -7h-24q-7 0 -7 7l1 649q0 7 6 7h27q5 0 6 -1.5l3 -4.5l383 -593h2v592q0 7 5 7h23q7 0 7 -7v-649zM291 711q-5 -2 -7 2l-8 11q-2 2 -2.5 3.5t3.5 4.5l120 83q4 2 5 2t4 -4l19 -24q3 -5 -2 -8z" />
    <glyph glyph-name="nacute" unicode="&#x144;" horiz-adv-x="469" 
d="M284 496q50 0 77.5 -14.5t40 -39.5t15 -58t2.5 -69v-309q0 -6 -6 -6h-25q-5 0 -5 6v313q0 31 -2 58t-12.5 46.5t-32 31t-59.5 11.5q-22 0 -50 -8t-55 -18.5t-50.5 -22t-36.5 -18.5v-393q0 -6 -7 -6h-22q-5 0 -5 6v475q0 6 5 6h22q7 0 7 -6v-54q15 9 37.5 21t48.5 22.5
t55 18t58 7.5zM206 557q-3 -5 -7 -2l-12 6q-5 3 -3 8l67 129q3 6 9 3l28 -13q5 -2 2 -7z" />
    <glyph glyph-name="Ncommaaccent" unicode="&#x145;" horiz-adv-x="603" 
d="M533 7q0 -7 -6 -7h-27q-5 0 -6 1t-3 5l-383 593h-2v-592q0 -7 -5 -7h-24q-7 0 -7 7l1 649q0 7 6 7h27q5 0 6 -1.5l3 -4.5l383 -593h2v592q0 7 5 7h23q7 0 7 -7v-649zM265 -182q26 26 26 62q0 16 -5.5 29.5t-14.5 26.5q-6 6 1 10l34 22q5 4 11 -1q10 -11 14 -23t4 -20
q0 -38 -16 -69.5t-40 -49.5q-4 -4 -7 -1l-8 7q-4 4 1 7z" />
    <glyph glyph-name="ncommaaccent" unicode="&#x146;" horiz-adv-x="469" 
d="M284 496q50 0 77.5 -14.5t40 -39.5t15 -58t2.5 -69v-309q0 -6 -6 -6h-25q-5 0 -5 6v313q0 31 -2 58t-12.5 46.5t-32 31t-59.5 11.5q-22 0 -50 -8t-55 -18.5t-50.5 -22t-36.5 -18.5v-393q0 -6 -7 -6h-22q-5 0 -5 6v475q0 6 5 6h22q7 0 7 -6v-54q15 9 37.5 21t48.5 22.5
t55 18t58 7.5zM203 -202q26 26 26 62q0 16 -5.5 29.5t-14.5 26.5q-6 6 1 10l34 22q5 4 11 -1q10 -11 14 -23t4 -20q0 -38 -16 -69.5t-40 -49.5q-4 -4 -7 -1l-8 7q-4 4 1 7z" />
    <glyph glyph-name="Ncaron" unicode="&#x147;" horiz-adv-x="603" 
d="M533 7q0 -7 -6 -7h-27q-5 0 -6 1t-3 5l-383 593h-2v-592q0 -7 -5 -7h-24q-7 0 -7 7l1 649q0 7 6 7h27q5 0 6 -1.5l3 -4.5l383 -593h2v592q0 7 5 7h23q7 0 7 -7v-649zM177 799q-4 3 0 7l11 10q3 2 8 -1l111 -72l110 72q5 3 8 1l11 -10q3 -4 0 -7l-94 -82q-7 -7 -14 -7h-43
q-6 0 -8 1.5t-7 5.5z" />
    <glyph glyph-name="ncaron" unicode="&#x148;" horiz-adv-x="469" 
d="M284 496q50 0 77.5 -14.5t40 -39.5t15 -58t2.5 -69v-309q0 -6 -6 -6h-25q-5 0 -5 6v313q0 31 -2 58t-12.5 46.5t-32 31t-59.5 11.5q-22 0 -50 -8t-55 -18.5t-50.5 -22t-36.5 -18.5v-393q0 -6 -7 -6h-22q-5 0 -5 6v475q0 6 5 6h22q7 0 7 -6v-54q15 9 37.5 21t48.5 22.5
t55 18t58 7.5zM254 558q-3 -4 -6 -5.5t-9 -1.5h-31q-6 0 -8.5 1.5t-5.5 5.5l-100 111q-3 4 -2.5 4.5l2.5 2.5l11 10q3 2 8 -1l110 -101l111 101q5 3 8 1l11 -10q2 -2 3 -2.5t-3 -4.5z" />
    <glyph glyph-name="napostrophe" unicode="&#x149;" horiz-adv-x="493" 
d="M308 496q50 0 77.5 -14.5t40 -39.5t15 -58t2.5 -69v-309q0 -6 -6 -6h-25q-5 0 -5 6v313q0 31 -2 58t-12.5 46.5t-32 31t-59.5 11.5q-22 0 -50 -8t-55 -18.5t-50.5 -22t-36.5 -18.5v-393q0 -6 -7 -6h-22q-5 0 -5 6v475q0 6 5 6h22q7 0 7 -6v-54q15 9 37.5 21t48.5 22.5
t55 18t58 7.5zM11 525q26 26 26 62q0 16 -5.5 29.5t-14.5 26.5q-6 6 1 10l34 22q5 4 11 -1q10 -11 14 -23t4 -20q0 -38 -16 -69.5t-40 -49.5q-4 -4 -7 -1l-8 7q-4 4 1 7z" />
    <glyph glyph-name="Eng" unicode="&#x14a;" horiz-adv-x="603" 
d="M533 -62q0 -14 -1.5 -30t-9 -30t-24.5 -23.5t-47 -10.5q-11 0 -21.5 1t-26.5 4q-6 2 -8 3.5t-1 6.5l2 14q1 5 3 6t7 1q32 -3 50 -0.5t27 10.5t11.5 21.5t2.5 32.5v52l-389 603h-2v-592q0 -7 -5 -7h-24q-7 0 -7 7l1 649q0 7 6 7h27q5 0 6 -1.5l3 -4.5l383 -593h2v592
q0 7 5 7h23q7 0 7 -7v-718z" />
    <glyph glyph-name="eng" unicode="&#x14b;" horiz-adv-x="469" 
d="M284 496q52 0 79.5 -14.5t40 -39.5t14 -58t1.5 -69v-377q0 -14 -1.5 -30t-9 -30t-24.5 -23.5t-47 -10.5q-11 0 -21.5 1t-26.5 4q-6 2 -8 3.5t-1 6.5l2 14q1 5 3 6t7 1q32 -3 50 -0.5t27 10.5t11.5 21.5t2.5 32.5v375q0 31 -2 58t-12.5 46.5t-32 31t-59.5 11.5
q-22 0 -50 -8t-55 -18.5t-50.5 -22t-36.5 -18.5v-393q0 -6 -7 -6h-22q-5 0 -5 6v475q0 6 5 6h22q7 0 7 -6v-54q15 9 37.5 21t48.5 22.5t55 18t58 7.5z" />
    <glyph glyph-name="Omacron" unicode="&#x14c;" horiz-adv-x="616" 
d="M551 341q0 -63 -7.5 -125.5t-33 -112.5t-74.5 -81t-132 -31t-130.5 31t-72.5 81t-31.5 112.5t-6.5 125.5q0 33 3 70.5t12 74t25.5 70t43.5 59t65.5 41t91.5 15.5q80 0 128.5 -28t75 -74t35 -105.5t8.5 -122.5zM516 331q0 69 -9.5 125.5t-33.5 97t-65 62.5t-104 22
q-60 0 -99.5 -23.5t-63 -64.5t-32.5 -97t-9 -122q0 -63 8.5 -119t31 -98t62 -66t102.5 -24q61 0 101.5 22.5t65 63.5t35 97t10.5 124zM200 736q-5 0 -5 5v22q0 6 5 6h225q5 0 5 -6v-23q0 -4 -5 -4h-225z" />
    <glyph glyph-name="omacron" unicode="&#x14d;" horiz-adv-x="477" 
d="M235 -8q-67 0 -105 23.5t-57 60.5t-23.5 83.5t-4.5 93.5q0 37 6 80t25.5 79.5t57 60.5t101.5 24q65 0 104 -21t59.5 -55.5t27 -78t6.5 -89.5q0 -45 -5 -91.5t-24.5 -84t-59 -61.5t-108.5 -24zM235 464q-49 0 -79 -17t-46.5 -46.5t-22 -69.5t-5.5 -86q0 -47 5.5 -87.5
t22 -70.5t46.5 -47t79 -17q50 0 81.5 16.5t49 46t23.5 70t6 89.5t-6 89.5t-23 69t-48.5 44.5t-82.5 16zM127 595q-5 0 -5 5v22q0 6 5 6h225q5 0 5 -6v-23q0 -4 -5 -4h-225z" />
    <glyph glyph-name="Obreve" unicode="&#x14e;" horiz-adv-x="616" 
d="M551 341q0 -63 -7.5 -125.5t-33 -112.5t-74.5 -81t-132 -31t-130.5 31t-72.5 81t-31.5 112.5t-6.5 125.5q0 33 3 70.5t12 74t25.5 70t43.5 59t65.5 41t91.5 15.5q80 0 128.5 -28t75 -74t35 -105.5t8.5 -122.5zM516 331q0 69 -9.5 125.5t-33.5 97t-65 62.5t-104 22
q-60 0 -99.5 -23.5t-63 -64.5t-32.5 -97t-9 -122q0 -63 8.5 -119t31 -98t62 -66t102.5 -24q61 0 101.5 22.5t65 63.5t35 97t10.5 124zM311 716q-35 0 -68.5 17t-52.5 55q-2 5 -4.5 11t2.5 10l10 7q8 6 13 -3q24 -36 46.5 -49.5t54.5 -13.5q26 0 49.5 14.5t48.5 49.5
q5 7 13 3l9 -6q5 -4 2.5 -9t-5.5 -12q-21 -39 -52.5 -56.5t-65.5 -17.5z" />
    <glyph glyph-name="obreve" unicode="&#x14f;" horiz-adv-x="477" 
d="M235 -8q-67 0 -105 23.5t-57 60.5t-23.5 83.5t-4.5 93.5q0 37 6 80t25.5 79.5t57 60.5t101.5 24q65 0 104 -21t59.5 -55.5t27 -78t6.5 -89.5q0 -45 -5 -91.5t-24.5 -84t-59 -61.5t-108.5 -24zM235 464q-49 0 -79 -17t-46.5 -46.5t-22 -69.5t-5.5 -86q0 -47 5.5 -87.5
t22 -70.5t46.5 -47t79 -17q50 0 81.5 16.5t49 46t23.5 70t6 89.5t-6 89.5t-23 69t-48.5 44.5t-82.5 16zM245 566q-35 0 -68.5 17t-52.5 55q-2 5 -4.5 11t2.5 10l10 7q8 6 13 -3q24 -36 46.5 -49.5t54.5 -13.5q26 0 49.5 14.5t48.5 49.5q5 7 13 3l9 -6q5 -4 2.5 -9t-5.5 -12
q-21 -39 -52.5 -56.5t-65.5 -17.5z" />
    <glyph glyph-name="Ohungarumlaut" unicode="&#x150;" horiz-adv-x="616" 
d="M551 341q0 -63 -7.5 -125.5t-33 -112.5t-74.5 -81t-132 -31t-130.5 31t-72.5 81t-31.5 112.5t-6.5 125.5q0 33 3 70.5t12 74t25.5 70t43.5 59t65.5 41t91.5 15.5q80 0 128.5 -28t75 -74t35 -105.5t8.5 -122.5zM516 331q0 69 -9.5 125.5t-33.5 97t-65 62.5t-104 22
q-60 0 -99.5 -23.5t-63 -64.5t-32.5 -97t-9 -122q0 -63 8.5 -119t31 -98t62 -66t102.5 -24q61 0 101.5 22.5t65 63.5t35 97t10.5 124zM245 711q-5 -2 -7 2l-8 11q-2 2 -2.5 3.5t3.5 4.5l120 83q4 2 5 2t4 -4l19 -24q3 -5 -2 -8zM365 711q-5 -2 -7 2l-8 11q-2 2 -2.5 3.5
t3.5 4.5l120 83q4 2 5 2t4 -4l19 -24q3 -5 -2 -8z" />
    <glyph glyph-name="ohungarumlaut" unicode="&#x151;" horiz-adv-x="477" 
d="M235 -8q-67 0 -105 23.5t-57 60.5t-23.5 83.5t-4.5 93.5q0 37 6 80t25.5 79.5t57 60.5t101.5 24q65 0 104 -21t59.5 -55.5t27 -78t6.5 -89.5q0 -45 -5 -91.5t-24.5 -84t-59 -61.5t-108.5 -24zM235 464q-49 0 -79 -17t-46.5 -46.5t-22 -69.5t-5.5 -86q0 -47 5.5 -87.5
t22 -70.5t46.5 -47t79 -17q50 0 81.5 16.5t49 46t23.5 70t6 89.5t-6 89.5t-23 69t-48.5 44.5t-82.5 16zM204 557q-3 -5 -7 -2l-12 6q-3 2 -4 2.5t1 5.5l67 129q2 4 3 4.5t6 -1.5l28 -13q5 -2 2 -7zM299 557q-3 -5 -7 -2l-12 6q-3 2 -4 2.5t1 5.5l67 129q2 4 3 4.5t6 -1.5
l28 -13q5 -2 2 -7z" />
    <glyph glyph-name="OE" unicode="&#x152;" horiz-adv-x="777" 
d="M382 0q-35 -9 -78 -9q-83 0 -130.5 31t-72.5 81t-31.5 112.5t-6.5 125.5q0 33 3 70.5t12 74t25.5 70t43.5 59t65.5 41t91.5 15.5q22 0 41 -2t36 -6h344q5 0 5 -6v-22q0 -6 -5 -6h-313v-268h282q5 0 5 -5v-20q0 -7 -5 -7h-282v-296h319q6 0 6 -5v-23q0 -5 -6 -5h-349z
M304 24q39 0 71 9v595q-16 5 -33.5 7.5t-37.5 2.5q-60 0 -99.5 -23.5t-63 -64.5t-32.5 -97t-9 -122q0 -63 8.5 -119t31 -98t62 -66t102.5 -24z" />
    <glyph glyph-name="oe" unicode="&#x153;" horiz-adv-x="813" 
d="M235 464q-49 0 -79 -17t-46.5 -46.5t-22 -69.5t-5.5 -86q0 -47 5.5 -87.5t22 -70.5t46.5 -47t79 -17q50 0 81.5 16.5t49 46t23.5 70t6 89.5t-6 89.5t-23 69t-48.5 44.5t-82.5 16zM412 99q-9 -23 -23 -43t-35 -34t-50.5 -22t-68.5 -8q-67 0 -105 23.5t-57 60.5t-23.5 83.5
t-4.5 93.5q0 37 6 80t25.5 79.5t57 60.5t101.5 24q79 0 120.5 -31t58.5 -78h1q9 24 22.5 44t34.5 34.5t50 22.5t67 8q60 0 97.5 -18t59 -48.5t29.5 -70t8 -81.5q0 -22 -6.5 -32t-25.5 -10h-317q0 -42 5.5 -80.5t21 -68t45.5 -46.5t80 -17q40 0 79.5 3.5t79.5 7.5q8 0 9 -5
l1 -9q2 -7 -5 -8q-15 -6 -36.5 -10t-45 -7t-46.5 -4t-40 -1q-75 0 -113.5 29.5t-54.5 77.5h-2zM589 466q-49 0 -79 -15t-46.5 -42t-22.5 -63.5t-7 -79.5h313q-2 38 -7 74t-21 64t-47 45t-83 17z" />
    <glyph glyph-name="Racute" unicode="&#x154;" horiz-adv-x="497" 
d="M103 7q0 -7 -6 -7h-24q-7 0 -7 7v650q0 6 7 6h191q40 0 74.5 -10t60 -31.5t40.5 -56t15 -82.5q0 -30 -7.5 -59t-23.5 -53t-41 -42t-60 -26l139 -295q3 -8 -3 -8h-28q-5 0 -7.5 1t-5.5 7l-131 289h-183v-290zM103 629v-300h163q14 0 39 3.5t50 18.5t43 45.5t18 84.5
q0 42 -12.5 70t-34 45.5t-51.5 25t-66 7.5h-149zM231 711q-5 -2 -7 2l-8 11q-2 2 -2.5 3.5t3.5 4.5l120 83q4 2 5 2t4 -4l19 -24q3 -5 -2 -8z" />
    <glyph glyph-name="racute" unicode="&#x155;" horiz-adv-x="266" 
d="M265 468q3 -11 -6 -13q-16 -5 -37 -12.5t-41.5 -16t-38 -16.5t-25.5 -12v-392q0 -6 -6 -6h-23q-5 0 -5 6v476q0 6 5 6h23q6 0 6 -6v-59q7 5 22 15t33 21t38.5 21t40.5 15q5 2 6.5 0t2.5 -7zM171 557q-3 -5 -7 -2l-12 6q-5 3 -3 8l67 129q3 6 9 3l28 -13q5 -2 2 -7z" />
    <glyph glyph-name="Rcommaaccent" unicode="&#x156;" horiz-adv-x="497" 
d="M103 7q0 -7 -6 -7h-24q-7 0 -7 7v650q0 6 7 6h191q40 0 74.5 -10t60 -31.5t40.5 -56t15 -82.5q0 -30 -7.5 -59t-23.5 -53t-41 -42t-60 -26l139 -295q3 -8 -3 -8h-28q-5 0 -7.5 1t-5.5 7l-131 289h-183v-290zM103 629v-300h163q14 0 39 3.5t50 18.5t43 45.5t18 84.5
q0 42 -12.5 70t-34 45.5t-51.5 25t-66 7.5h-149zM213 -182q26 26 26 62q0 16 -5.5 29.5t-14.5 26.5q-6 6 1 10l34 22q5 4 11 -1q10 -11 14 -23t4 -20q0 -38 -16 -69.5t-40 -49.5q-4 -4 -7 -1l-8 7q-4 4 1 7z" />
    <glyph glyph-name="rcommaaccent" unicode="&#x157;" horiz-adv-x="266" 
d="M265 468q3 -11 -6 -13q-16 -5 -37 -12.5t-41.5 -16t-38 -16.5t-25.5 -12v-392q0 -6 -6 -6h-23q-5 0 -5 6v476q0 6 5 6h23q6 0 6 -6v-59q7 5 22 15t33 21t38.5 21t40.5 15q5 2 6.5 0t2.5 -7zM67 -202q26 26 26 62q0 16 -5.5 29.5t-14.5 26.5q-6 6 1 10l34 22q5 4 11 -1
q10 -11 14 -23t4 -20q0 -38 -16 -69.5t-40 -49.5q-4 -4 -7 -1l-8 7q-4 4 1 7z" />
    <glyph glyph-name="Rcaron" unicode="&#x158;" horiz-adv-x="497" 
d="M103 7q0 -7 -6 -7h-24q-7 0 -7 7v650q0 6 7 6h191q40 0 74.5 -10t60 -31.5t40.5 -56t15 -82.5q0 -30 -7.5 -59t-23.5 -53t-41 -42t-60 -26l139 -295q3 -8 -3 -8h-28q-5 0 -7.5 1t-5.5 7l-131 289h-183v-290zM103 629v-300h163q14 0 39 3.5t50 18.5t43 45.5t18 84.5
q0 42 -12.5 70t-34 45.5t-51.5 25t-66 7.5h-149zM96 799q-4 3 0 7l11 10q3 2 8 -1l111 -72l110 72q5 3 8 1l11 -10q3 -4 0 -7l-94 -82q-7 -7 -14 -7h-43q-6 0 -8 1.5t-7 5.5z" />
    <glyph glyph-name="rcaron" unicode="&#x159;" horiz-adv-x="266" 
d="M265 468q3 -11 -6 -13q-16 -5 -37 -12.5t-41.5 -16t-38 -16.5t-25.5 -12v-392q0 -6 -6 -6h-23q-5 0 -5 6v476q0 6 5 6h23q6 0 6 -6v-59q7 5 22 15t33 21t38.5 21t40.5 15q5 2 6.5 0t2.5 -7zM161 558q-3 -4 -6 -5.5t-9 -1.5h-31q-6 0 -8.5 1.5t-5.5 5.5l-100 111
q-3 4 -2.5 4.5l2.5 2.5l11 10q3 2 8 -1l110 -101l111 101q5 3 8 1l11 -10q2 -2 3 -2.5t-3 -4.5z" />
    <glyph glyph-name="Sacute" unicode="&#x15a;" horiz-adv-x="500" 
d="M418 162q0 42 -11 70t-31.5 46t-51 28.5t-69.5 16.5q-47 8 -85 18.5t-65 29t-41.5 47t-14.5 73.5q0 87 54.5 132.5t148.5 45.5q44 0 89 -3.5t83 -17.5q7 -2 5 -9l-1 -11q-1 -3 -2.5 -4.5t-6.5 -0.5q-10 1 -29.5 3t-43 4t-48 3t-43.5 1q-85 0 -126 -37.5t-41 -102.5
q0 -37 13.5 -60.5t36 -38t52.5 -22t63 -13.5q41 -8 78 -18t64.5 -30t44 -52.5t16.5 -84.5q0 -51 -17 -86.5t-46.5 -57t-69 -31t-84.5 -9.5q-15 0 -41 2t-54 5.5t-53 8t-38 9.5q-7 3 -5 10l2 11q2 6 9 5q23 -3 48.5 -5.5t50 -4.5t46 -3t37.5 -1q81 0 129 35t48 99zM221 711
q-5 -2 -7 2l-8 11q-2 2 -2.5 3.5t3.5 4.5l120 83q4 2 5 2t4 -4l19 -24q3 -5 -2 -8z" />
    <glyph glyph-name="sacute" unicode="&#x15b;" horiz-adv-x="404" 
d="M327 122q0 30 -7 49.5t-21.5 32t-38 19.5t-56.5 13q-37 6 -67 13t-51 20.5t-32.5 35.5t-11.5 58q0 65 38.5 99.5t121.5 34.5q13 0 31 -1t37.5 -3.5t38 -6.5t33.5 -9q5 -2 5 -8l-2 -10q0 -5 -7 -5q-14 1 -31 3t-35.5 4t-37 3t-33.5 1q-63 0 -93 -23t-30 -76q0 -28 8.5 -45
t24.5 -27t39.5 -15t53.5 -10q36 -6 65 -13.5t50 -22.5t32.5 -39t11.5 -63q0 -77 -46 -107.5t-124 -30.5q-14 0 -33 1t-39.5 3t-40 5.5t-34.5 8.5q-5 2 -5 8l2 10q0 5 8 5q13 -2 32.5 -3.5t40 -3.5t39.5 -3t31 -1q28 0 52.5 5t42.5 16t28 30t10 48zM200 557q-3 -5 -7 -2
l-12 6q-5 3 -3 8l67 129q3 6 9 3l28 -13q5 -2 2 -7z" />
    <glyph glyph-name="Scircumflex" unicode="&#x15c;" horiz-adv-x="500" 
d="M418 162q0 42 -11 70t-31.5 46t-51 28.5t-69.5 16.5q-47 8 -85 18.5t-65 29t-41.5 47t-14.5 73.5q0 87 54.5 132.5t148.5 45.5q44 0 89 -3.5t83 -17.5q7 -2 5 -9l-1 -11q-1 -3 -2.5 -4.5t-6.5 -0.5q-10 1 -29.5 3t-43 4t-48 3t-43.5 1q-85 0 -126 -37.5t-41 -102.5
q0 -37 13.5 -60.5t36 -38t52.5 -22t63 -13.5q41 -8 78 -18t64.5 -30t44 -52.5t16.5 -84.5q0 -51 -17 -86.5t-46.5 -57t-69 -31t-84.5 -9.5q-15 0 -41 2t-54 5.5t-53 8t-38 9.5q-7 3 -5 10l2 11q2 6 9 5q23 -3 48.5 -5.5t50 -4.5t46 -3t37.5 -1q81 0 129 35t48 99zM375 728
q3 -4 0 -7l-11 -10q-3 -2 -8 1l-111 72l-110 -72q-5 -3 -8 -1l-11 10q-4 3 0 7l94 82q7 7 14 7h43q6 0 8 -1.5t7 -5.5z" />
    <glyph glyph-name="scircumflex" unicode="&#x15d;" horiz-adv-x="404" 
d="M327 122q0 30 -7 49.5t-21.5 32t-38 19.5t-56.5 13q-37 6 -67 13t-51 20.5t-32.5 35.5t-11.5 58q0 65 38.5 99.5t121.5 34.5q13 0 31 -1t37.5 -3.5t38 -6.5t33.5 -9q5 -2 5 -8l-2 -10q0 -5 -7 -5q-14 1 -31 3t-35.5 4t-37 3t-33.5 1q-63 0 -93 -23t-30 -76q0 -28 8.5 -45
t24.5 -27t39.5 -15t53.5 -10q36 -6 65 -13.5t50 -22.5t32.5 -39t11.5 -63q0 -77 -46 -107.5t-124 -30.5q-14 0 -33 1t-39.5 3t-40 5.5t-34.5 8.5q-5 2 -5 8l2 10q0 5 8 5q13 -2 32.5 -3.5t40 -3.5t39.5 -3t31 -1q28 0 52.5 5t42.5 16t28 30t10 48zM327 569q4 -4 3 -4.5
t-3 -2.5l-11 -10q-3 -2 -8 1l-110 101l-111 -101q-5 -3 -8 -1l-11 10l-2.5 2.5t2.5 4.5l99 111q3 4 5.5 5.5t8.5 1.5h36q6 0 9 -1.5t6 -5.5z" />
    <glyph glyph-name="Scedilla" unicode="&#x15e;" horiz-adv-x="500" 
d="M418 162q0 42 -11 70t-31.5 46t-51 28.5t-69.5 16.5q-47 8 -85 18.5t-65 29t-41.5 47t-14.5 73.5q0 87 54.5 132.5t148.5 45.5q44 0 89 -3.5t83 -17.5q7 -2 5 -9l-1 -11q-1 -3 -2.5 -4.5t-6.5 -0.5q-10 1 -29.5 3t-43 4t-48 3t-43.5 1q-85 0 -126 -37.5t-41 -102.5
q0 -37 13.5 -60.5t36 -38t52.5 -22t63 -13.5q41 -8 78 -18t64.5 -30t44 -52.5t16.5 -84.5q0 -50 -16 -84t-43.5 -56t-65 -32.5t-79.5 -11.5l-16 -44q47 -3 63.5 -20.5t16.5 -43.5q0 -36 -26.5 -53.5t-65.5 -17.5q-11 0 -29 3t-34 8q-8 3 -6 9l3 9q2 5 9 4q17 -3 31.5 -4.5
t25.5 -1.5q23 0 39 11t16 31t-12.5 31.5t-53.5 13.5q-5 0 -7 3.5t0 8.5l21 53q-18 1 -42.5 3t-49.5 5.5t-47.5 7.5t-34.5 9q-7 3 -5 10l2 11q2 6 9 5q23 -3 48.5 -5.5t50 -4.5t46 -3t37.5 -1q81 0 129 35t48 99z" />
    <glyph glyph-name="scedilla" unicode="&#x15f;" horiz-adv-x="404" 
d="M327 122q0 30 -7 49.5t-21.5 32t-38 19.5t-56.5 13q-37 6 -67 13t-51 20.5t-32.5 35.5t-11.5 58q0 65 38.5 99.5t121.5 34.5q13 0 31 -1t37.5 -3.5t38 -6.5t33.5 -9q5 -2 5 -8l-2 -10q0 -5 -7 -5q-14 1 -31 3t-35.5 4t-37 3t-33.5 1q-63 0 -93 -23t-30 -76q0 -28 8.5 -45
t24.5 -27t39.5 -15t53.5 -10q36 -6 65 -13.5t50 -22.5t32.5 -39t11.5 -63q0 -37 -11 -62.5t-31 -41.5t-48.5 -24t-64.5 -9l-17 -47q47 -3 63.5 -20.5t16.5 -43.5q0 -36 -26.5 -53.5t-65.5 -17.5q-11 0 -29 3t-34 8q-8 3 -6 9l3 9q2 5 9 4q17 -3 31.5 -4.5t25.5 -1.5
q23 0 39 11t16 31t-12.5 31.5t-53.5 13.5q-5 0 -7 3.5t0 8.5l21 55q-14 0 -32 1t-37 3.5t-36.5 5.5t-30.5 8q-5 2 -5 8l2 10q0 5 8 5q13 -2 32.5 -3.5t40 -3.5t39.5 -3t31 -1q28 0 52.5 5t42.5 16t28 30t10 48z" />
    <glyph glyph-name="Scaron" unicode="&#x160;" horiz-adv-x="500" 
d="M418 162q0 42 -11 70t-31.5 46t-51 28.5t-69.5 16.5q-47 8 -85 18.5t-65 29t-41.5 47t-14.5 73.5q0 87 54.5 132.5t148.5 45.5q44 0 89 -3.5t83 -17.5q7 -2 5 -9l-1 -11q-1 -3 -2.5 -4.5t-6.5 -0.5q-10 1 -29.5 3t-43 4t-48 3t-43.5 1q-85 0 -126 -37.5t-41 -102.5
q0 -37 13.5 -60.5t36 -38t52.5 -22t63 -13.5q41 -8 78 -18t64.5 -30t44 -52.5t16.5 -84.5q0 -51 -17 -86.5t-46.5 -57t-69 -31t-84.5 -9.5q-15 0 -41 2t-54 5.5t-53 8t-38 9.5q-7 3 -5 10l2 11q2 6 9 5q23 -3 48.5 -5.5t50 -4.5t46 -3t37.5 -1q81 0 129 35t48 99zM116 799
q-4 3 0 7l11 10q3 2 8 -1l111 -72l110 72q5 3 8 1l11 -10q3 -4 0 -7l-94 -82q-7 -7 -14 -7h-43q-6 0 -8 1.5t-7 5.5z" />
    <glyph glyph-name="scaron" unicode="&#x161;" horiz-adv-x="404" 
d="M327 122q0 30 -7 49.5t-21.5 32t-38 19.5t-56.5 13q-37 6 -67 13t-51 20.5t-32.5 35.5t-11.5 58q0 65 38.5 99.5t121.5 34.5q13 0 31 -1t37.5 -3.5t38 -6.5t33.5 -9q5 -2 5 -8l-2 -10q0 -5 -7 -5q-14 1 -31 3t-35.5 4t-37 3t-33.5 1q-63 0 -93 -23t-30 -76q0 -28 8.5 -45
t24.5 -27t39.5 -15t53.5 -10q36 -6 65 -13.5t50 -22.5t32.5 -39t11.5 -63q0 -77 -46 -107.5t-124 -30.5q-14 0 -33 1t-39.5 3t-40 5.5t-34.5 8.5q-5 2 -5 8l2 10q0 5 8 5q13 -2 32.5 -3.5t40 -3.5t39.5 -3t31 -1q28 0 52.5 5t42.5 16t28 30t10 48zM240 558q-3 -4 -6 -5.5
t-9 -1.5h-31q-6 0 -8.5 1.5t-5.5 5.5l-100 111q-3 4 -2.5 4.5l2.5 2.5l11 10q3 2 8 -1l110 -101l111 101q5 3 8 1l11 -10q2 -2 3 -2.5t-3 -4.5z" />
    <glyph glyph-name="Tcommaaccent" unicode="&#x162;" horiz-adv-x="455" 
d="M247 630l-1 -624q0 -6 -5 -6h-24q-7 0 -7 6v624h-187q-6 0 -6 5v22q0 6 6 6h412q5 0 5 -6v-22q0 -5 -5 -5h-188zM187 -202q26 26 26 62q0 16 -5.5 29.5t-14.5 26.5q-6 6 1 10l34 22q5 4 11 -1q10 -11 14 -23t4 -20q0 -38 -16 -69.5t-40 -49.5q-4 -4 -7 -1l-8 7q-4 4 1 7z
" />
    <glyph glyph-name="tcommaaccent" unicode="&#x163;" horiz-adv-x="287" 
d="M279 13q1 -5 -0.5 -6l-4.5 -3q-10 -3 -34.5 -7.5t-56.5 -4.5q-47 0 -63.5 21.5t-16.5 70.5v376h-63q-6 0 -6 5v17q0 6 7 6h62v114q0 6 5 8l18 7q9 4 10 2t1 -9v-122h109q5 0 5 -5v-18q0 -5 -5 -5h-109v-365q0 -17 1.5 -30t7.5 -22.5t18.5 -14.5t34.5 -5q14 0 36 1t34 3
q5 1 6 -0.5t2 -4.5zM120 -202q26 26 26 62q0 16 -5.5 29.5t-14.5 26.5q-6 6 1 10l34 22q5 4 11 -1q10 -11 14 -23t4 -20q0 -38 -16 -69.5t-40 -49.5q-4 -4 -7 -1l-8 7q-4 4 1 7z" />
    <glyph glyph-name="Tcaron" unicode="&#x164;" horiz-adv-x="455" 
d="M247 630l-1 -624q0 -6 -5 -6h-24q-7 0 -7 6v624h-187q-6 0 -6 5v22q0 6 6 6h412q5 0 5 -6v-22q0 -5 -5 -5h-188zM100 799q-4 3 0 7l11 10q3 2 8 -1l111 -72l110 72q5 3 8 1l11 -10q3 -4 0 -7l-94 -82q-7 -7 -14 -7h-43q-6 0 -8 1.5t-7 5.5z" />
    <glyph glyph-name="tcaron" unicode="&#x165;" horiz-adv-x="296" 
d="M229 558q26 26 26 62q0 16 -5.5 29.5t-14.5 26.5q-6 6 1 10l34 22q5 4 11 -1q10 -11 14 -23t4 -20q0 -38 -16 -69.5t-40 -49.5q-4 -4 -7 -1l-8 7q-4 4 1 7zM279 13q1 -5 -0.5 -6l-4.5 -3q-10 -3 -34.5 -7.5t-56.5 -4.5q-47 0 -63.5 21.5t-16.5 70.5v376h-63q-6 0 -6 5v17
q0 6 7 6h62v114q0 6 5 8l18 7q9 4 10 2t1 -9v-122h109q5 0 5 -5v-18q0 -5 -5 -5h-109v-365q0 -17 1.5 -30t7.5 -22.5t18.5 -14.5t34.5 -5q14 0 36 1t34 3q5 1 6 -0.5t2 -4.5z" />
    <glyph glyph-name="Tbar" unicode="&#x166;" horiz-adv-x="455" 
d="M247 630l-1 -240h139q5 0 5 -6v-20q0 -4 -5 -4h-139v-354q0 -6 -5 -6h-24q-7 0 -7 6v354h-137q-5 0 -5 5v19q0 6 5 6h137v240h-187q-6 0 -6 5v22q0 6 6 6h412q5 0 5 -6v-22q0 -5 -5 -5h-188z" />
    <glyph glyph-name="tbar" unicode="&#x167;" horiz-adv-x="287" 
d="M279 13q1 -5 -0.5 -6l-4.5 -3q-10 -3 -34.5 -7.5t-56.5 -4.5q-47 0 -63.5 21.5t-16.5 70.5v204h-67q-5 0 -5 5v19q0 6 5 6h67v142h-63q-6 0 -6 5v17q0 6 7 6h62v114q0 6 5 8l18 7q9 4 10 2t1 -9v-122h109q5 0 5 -5v-18q0 -5 -5 -5h-109v-142h109q5 0 5 -6v-20q0 -4 -5 -4
h-109v-193q0 -17 1.5 -30t7.5 -22.5t18.5 -14.5t34.5 -5q14 0 36 1t34 3q5 1 6 -0.5t2 -4.5l2 -9v0z" />
    <glyph glyph-name="Utilde" unicode="&#x168;" horiz-adv-x="591" 
d="M522 232q0 -33 -3 -61.5t-14 -55.5q-26 -66 -81 -95t-130 -29q-78 0 -132 29t-77 94q-10 26 -13.5 55.5t-3.5 62.5v423q0 8 7 8h25q5 0 5 -8v-426q0 -95 45 -150t144 -55q94 0 143 51t49 154v426q0 8 7 8h24q5 0 5 -8v-423zM368 742q18 0 29.5 11.5t21.5 28.5q3 5 5 6.5
t8 -1.5l10 -5q5 -3 4 -7t-2 -6q-29 -57 -77 -57q-20 0 -38.5 8.5t-36 18t-34 18t-31.5 8.5t-28 -11t-24 -27q-5 -8 -8 -9t-8 1l-8 4q-6 3 -5.5 8t3.5 10q33 55 79 55q17 0 36 -8.5t37.5 -18.5t36 -18.5t30.5 -8.5z" />
    <glyph glyph-name="utilde" unicode="&#x169;" horiz-adv-x="481" 
d="M191 -8q-52 0 -79.5 14.5t-39.5 39.5t-13.5 58t-1.5 69v309q0 6 6 6h24q5 0 5 -6v-313q0 -31 2 -58t12.5 -46.5t32 -31t59.5 -11.5q22 0 50 8t55 18.5t50.5 22t37.5 18.5v393q0 6 7 6h22q6 0 6 -6v-477q0 -5 -6 -5h-23q-7 0 -7 5v56q-15 -9 -37 -21t-48.5 -22.5
t-55.5 -18t-58 -7.5zM314 601q18 0 29.5 11.5t21.5 28.5q3 5 5 6.5t8 -1.5l10 -5q5 -3 4 -7t-2 -6q-29 -57 -77 -57q-20 0 -38.5 8.5t-36 18t-34 18t-31.5 8.5t-28 -11t-24 -27q-5 -8 -8 -9t-8 1l-8 4q-6 3 -5.5 8t3.5 10q33 55 79 55q17 0 36 -8.5t37.5 -18.5t36 -18.5
t30.5 -8.5z" />
    <glyph glyph-name="Umacron" unicode="&#x16a;" horiz-adv-x="591" 
d="M522 232q0 -33 -3 -61.5t-14 -55.5q-26 -66 -81 -95t-130 -29q-78 0 -132 29t-77 94q-10 26 -13.5 55.5t-3.5 62.5v423q0 8 7 8h25q5 0 5 -8v-426q0 -95 45 -150t144 -55q94 0 143 51t49 154v426q0 8 7 8h24q5 0 5 -8v-423zM185 736q-5 0 -5 5v22q0 6 5 6h225q5 0 5 -6
v-23q0 -4 -5 -4h-225z" />
    <glyph glyph-name="umacron" unicode="&#x16b;" horiz-adv-x="481" 
d="M191 -8q-52 0 -79.5 14.5t-39.5 39.5t-13.5 58t-1.5 69v309q0 6 6 6h24q5 0 5 -6v-313q0 -31 2 -58t12.5 -46.5t32 -31t59.5 -11.5q22 0 50 8t55 18.5t50.5 22t37.5 18.5v393q0 6 7 6h22q6 0 6 -6v-477q0 -5 -6 -5h-23q-7 0 -7 5v56q-15 -9 -37 -21t-48.5 -22.5
t-55.5 -18t-58 -7.5zM129 595q-5 0 -5 5v22q0 6 5 6h225q5 0 5 -6v-23q0 -4 -5 -4h-225z" />
    <glyph glyph-name="Ubreve" unicode="&#x16c;" horiz-adv-x="591" 
d="M522 232q0 -33 -3 -61.5t-14 -55.5q-26 -66 -81 -95t-130 -29q-78 0 -132 29t-77 94q-10 26 -13.5 55.5t-3.5 62.5v423q0 8 7 8h25q5 0 5 -8v-426q0 -95 45 -150t144 -55q94 0 143 51t49 154v426q0 8 7 8h24q5 0 5 -8v-423zM306 716q-35 0 -68.5 17t-52.5 55
q-2 5 -4.5 11t2.5 10l10 7q8 6 13 -3q24 -36 46.5 -49.5t54.5 -13.5q26 0 49.5 14.5t48.5 49.5q5 7 13 3l9 -6q5 -4 2.5 -9t-5.5 -12q-21 -39 -52.5 -56.5t-65.5 -17.5z" />
    <glyph glyph-name="ubreve" unicode="&#x16d;" horiz-adv-x="481" 
d="M191 -8q-52 0 -79.5 14.5t-39.5 39.5t-13.5 58t-1.5 69v309q0 6 6 6h24q5 0 5 -6v-313q0 -31 2 -58t12.5 -46.5t32 -31t59.5 -11.5q22 0 50 8t55 18.5t50.5 22t37.5 18.5v393q0 6 7 6h22q6 0 6 -6v-477q0 -5 -6 -5h-23q-7 0 -7 5v56q-15 -9 -37 -21t-48.5 -22.5
t-55.5 -18t-58 -7.5zM247 566q-35 0 -68.5 17t-52.5 55q-2 5 -4.5 11t2.5 10l10 7q8 6 13 -3q24 -36 46.5 -49.5t54.5 -13.5q26 0 49.5 14.5t48.5 49.5q5 7 13 3l9 -6q5 -4 2.5 -9t-5.5 -12q-21 -39 -52.5 -56.5t-65.5 -17.5z" />
    <glyph glyph-name="Uring" unicode="&#x16e;" horiz-adv-x="591" 
d="M522 232q0 -33 -3 -61.5t-14 -55.5q-26 -66 -81 -95t-130 -29q-78 0 -132 29t-77 94q-10 26 -13.5 55.5t-3.5 62.5v423q0 8 7 8h25q5 0 5 -8v-426q0 -95 45 -150t144 -55q94 0 143 51t49 154v426q0 8 7 8h24q5 0 5 -8v-423zM303 695q-36 0 -63.5 25t-27.5 65
q0 39 27.5 64t63.5 25q19 0 35.5 -7.5t28.5 -19.5t19 -28t7 -34q0 -36 -25.5 -63t-64.5 -27zM303 849q-26 0 -43.5 -19t-17.5 -45q0 -28 16.5 -46t44.5 -18q27 0 44.5 18t17.5 46q0 26 -17.5 45t-44.5 19z" />
    <glyph glyph-name="uring" unicode="&#x16f;" horiz-adv-x="481" 
d="M191 -8q-52 0 -79.5 14.5t-39.5 39.5t-13.5 58t-1.5 69v309q0 6 6 6h24q5 0 5 -6v-313q0 -31 2 -58t12.5 -46.5t32 -31t59.5 -11.5q22 0 50 8t55 18.5t50.5 22t37.5 18.5v393q0 6 7 6h22q6 0 6 -6v-477q0 -5 -6 -5h-23q-7 0 -7 5v56q-15 -9 -37 -21t-48.5 -22.5
t-55.5 -18t-58 -7.5zM255 533q-36 0 -63.5 25t-27.5 65q0 39 27.5 64t63.5 25q19 0 35.5 -7.5t28.5 -19.5t19 -28t7 -34q0 -36 -25.5 -63t-64.5 -27zM255 687q-26 0 -43.5 -19t-17.5 -45q0 -28 16.5 -46t44.5 -18q27 0 44.5 18t17.5 46q0 26 -17.5 45t-44.5 19z" />
    <glyph glyph-name="Uhungarumlaut" unicode="&#x170;" horiz-adv-x="591" 
d="M522 232q0 -33 -3 -61.5t-14 -55.5q-26 -66 -81 -95t-130 -29q-78 0 -132 29t-77 94q-10 26 -13.5 55.5t-3.5 62.5v423q0 8 7 8h25q5 0 5 -8v-426q0 -95 45 -150t144 -55q94 0 143 51t49 154v426q0 8 7 8h24q5 0 5 -8v-423zM224 711q-5 -2 -7 2l-8 11q-2 2 -2.5 3.5
t3.5 4.5l120 83q4 2 5 2t4 -4l19 -24q3 -5 -2 -8zM344 711q-5 -2 -7 2l-8 11q-2 2 -2.5 3.5t3.5 4.5l120 83q4 2 5 2t4 -4l19 -24q3 -5 -2 -8z" />
    <glyph glyph-name="uhungarumlaut" unicode="&#x171;" horiz-adv-x="481" 
d="M191 -8q-52 0 -79.5 14.5t-39.5 39.5t-13.5 58t-1.5 69v309q0 6 6 6h24q5 0 5 -6v-313q0 -31 2 -58t12.5 -46.5t32 -31t59.5 -11.5q22 0 50 8t55 18.5t50.5 22t37.5 18.5v393q0 6 7 6h22q6 0 6 -6v-477q0 -5 -6 -5h-23q-7 0 -7 5v56q-15 -9 -37 -21t-48.5 -22.5
t-55.5 -18t-58 -7.5zM204 557q-3 -5 -7 -2l-12 6q-3 2 -4 2.5t1 5.5l67 129q2 4 3 4.5t6 -1.5l28 -13q5 -2 2 -7zM299 557q-3 -5 -7 -2l-12 6q-3 2 -4 2.5t1 5.5l67 129q2 4 3 4.5t6 -1.5l28 -13q5 -2 2 -7z" />
    <glyph glyph-name="Uogonek" unicode="&#x172;" horiz-adv-x="591" 
d="M522 232q0 -33 -3 -61.5t-14 -55.5q-25 -62 -75 -91t-119 -32q-24 -29 -33.5 -52.5t-8.5 -43.5q1 -29 26.5 -41.5t85.5 1.5q5 1 6 0t2 -3l5 -14q2 -6 -6 -9q-14 -6 -31 -9t-34 -3q-45 0 -65.5 21t-20.5 51q0 25 11 52t31 49q-72 3 -122 32t-72 91q-10 26 -13.5 55.5
t-3.5 62.5v423q0 8 7 8h25q5 0 5 -8v-426q0 -95 45 -150t144 -55q94 0 143 51t49 154v426q0 8 7 8h24q5 0 5 -8v-423v0z" />
    <glyph glyph-name="uogonek" unicode="&#x173;" horiz-adv-x="481" 
d="M191 -8q-52 0 -79.5 14.5t-39.5 39.5t-13.5 58t-1.5 69v309q0 6 6 6h24q5 0 5 -6v-313q0 -31 2 -58t12.5 -46.5t32 -31t59.5 -11.5q22 0 50 8t55 18.5t50.5 22t37.5 18.5v393q0 6 7 6h22q6 0 6 -6v-477q0 -5 -6 -5h-4q-29 -32 -40 -57t-10 -47q1 -29 26.5 -41.5t85.5 1.5
q5 1 6 0t2 -3l5 -14q2 -6 -6 -9q-14 -6 -31 -9t-34 -3q-45 0 -65.5 21t-20.5 51q0 29 15 60t41 54v1v56q-15 -9 -37 -21t-48.5 -22.5t-55.5 -18t-58 -7.5z" />
    <glyph glyph-name="Wcircumflex" unicode="&#x174;" horiz-adv-x="789" 
d="M259 7q-1 -7 -8 -7h-31q-3 0 -4.5 0.5t-3.5 5.5l-186 651q-1 5 6 5h24q6 0 7 -5l170 -611h3l140 496l-33 115q-1 5 6 5h24q6 0 7 -5l170 -611h3l172 611q2 5 8 5h26q5 0 5.5 -0.5t-1.5 -4.5l-187 -650q-1 -7 -8 -7h-31q-3 0 -4.5 0.5t-3.5 5.5l-135 470zM514 728
q3 -4 0 -7l-11 -10q-3 -2 -8 1l-111 72l-110 -72q-5 -3 -8 -1l-11 10q-4 3 0 7l94 82q7 7 14 7h43q6 0 8 -1.5t7 -5.5z" />
    <glyph glyph-name="wcircumflex" unicode="&#x175;" horiz-adv-x="662" 
d="M605 481q2 7 10 7h21q5 0 5.5 -1.5t-0.5 -5.5l-152 -475q-2 -6 -8 -6h-28q-8 0 -10 7l-111 346l-111 -347q-2 -6 -8 -6h-28q-8 0 -10 7l-153 475q-2 5 4 5h24q8 0 10 -7l139 -441h2l113 368l-24 75q-2 5 4 5h24q8 0 10 -7l139 -441h2zM452 569q4 -4 3 -4.5t-3 -2.5
l-11 -10q-3 -2 -8 1l-110 101l-111 -101q-5 -3 -8 -1l-11 10l-2.5 2.5t2.5 4.5l99 111q3 4 5.5 5.5t8.5 1.5h36q6 0 9 -1.5t6 -5.5z" />
    <glyph glyph-name="Ycircumflex" unicode="&#x176;" horiz-adv-x="481" 
d="M257 7q0 -7 -5 -7h-24q-7 0 -7 7l-1 286l-196 364q-3 5 6 5h26q5 0 7 -5l177 -333l177 333q2 4 4 4.5t4 0.5h26q7 0 5 -5l-199 -364v-286zM370 728q3 -4 0 -7l-11 -10q-3 -2 -8 1l-111 72l-110 -72q-5 -3 -8 -1l-11 10q-4 3 0 7l94 82q7 7 14 7h43q6 0 8 -1.5t7 -5.5z
" />
    <glyph glyph-name="ycircumflex" unicode="&#x177;" horiz-adv-x="440" 
d="M176 -171q-1 -2 -2 -3.5t-6 -1.5h-20q-5 0 -6 0.5t0 5.5l55 159l-171 493q-2 5 4 5h24q8 0 10 -7l150 -441h2l161 442q2 7 10 7h21q5 0 5.5 -1.5t-0.5 -5.5zM355 569q4 -4 3 -4.5t-3 -2.5l-11 -10q-3 -2 -8 1l-110 101l-111 -101q-5 -3 -8 -1l-11 10l-2.5 2.5t2.5 4.5
l99 111q3 4 5.5 5.5t8.5 1.5h36q6 0 9 -1.5t6 -5.5z" />
    <glyph glyph-name="Ydieresis" unicode="&#x178;" horiz-adv-x="481" 
d="M257 7q0 -7 -5 -7h-24q-7 0 -7 7l-1 286l-196 364q-3 5 6 5h26q5 0 7 -5l177 -333l177 333q2 4 4 4.5t4 0.5h26q7 0 5 -5l-199 -364v-286zM182 753q0 -11 -4 -18t-19 -7q-16 0 -20 7.5t-4 17.5q0 11 5 18t19 7q15 0 19 -7t4 -18zM343 753q0 -11 -4 -18t-19 -7
q-16 0 -20 7.5t-4 17.5q0 11 5 18t19 7q15 0 19 -7t4 -18z" />
    <glyph glyph-name="Zacute" unicode="&#x179;" horiz-adv-x="464" 
d="M40 0q-6 0 -6 6v17q0 5 1.5 9t3.5 9l349 588h-329q-7 0 -7 6v22q0 6 7 6h363q4 0 4.5 -2t0.5 -3v-21q0 -9 -4 -17l-346 -587h348q5 0 5 -6v-20q0 -7 -5 -7h-385zM213 711q-5 -2 -7 2l-8 11q-2 2 -2.5 3.5t3.5 4.5l120 83q4 2 5 2t4 -4l19 -24q3 -5 -2 -8z" />
    <glyph glyph-name="zacute" unicode="&#x17a;" horiz-adv-x="407" 
d="M39 0q-7 0 -7 7v18q0 8 5 15l302 419h-284q-7 0 -7 5v17q0 7 7 7h310q5 0 6 -0.5t1 -5.5v-18q0 -8 -5 -15l-299 -420h298q6 0 6 -5v-17q0 -7 -6 -7h-327zM211 557q-3 -5 -7 -2l-12 6q-5 3 -3 8l67 129q3 6 9 3l28 -13q5 -2 2 -7z" />
    <glyph glyph-name="Zdotaccent" unicode="&#x17b;" horiz-adv-x="464" 
d="M40 0q-6 0 -6 6v17q0 5 1.5 9t3.5 9l349 588h-329q-7 0 -7 6v22q0 6 7 6h363q4 0 4.5 -2t0.5 -3v-21q0 -9 -4 -17l-346 -587h348q5 0 5 -6v-20q0 -7 -5 -7h-385zM265 755q0 -11 -4.5 -18.5t-19.5 -7.5q-16 0 -19.5 7.5t-3.5 18.5t4.5 17.5t18.5 6.5q15 0 19.5 -6.5
t4.5 -17.5z" />
    <glyph glyph-name="zdotaccent" unicode="&#x17c;" horiz-adv-x="407" 
d="M39 0q-7 0 -7 7v18q0 8 5 15l302 419h-284q-7 0 -7 5v17q0 7 7 7h310q5 0 6 -0.5t1 -5.5v-18q0 -8 -5 -15l-299 -420h298q6 0 6 -5v-17q0 -7 -6 -7h-327zM249 615q0 -11 -4.5 -18.5t-19.5 -7.5q-16 0 -19.5 7.5t-3.5 18.5t4.5 17.5t18.5 6.5q15 0 19.5 -6.5t4.5 -17.5z
" />
    <glyph glyph-name="Zcaron" unicode="&#x17d;" horiz-adv-x="464" 
d="M40 0q-6 0 -6 6v17q0 5 1.5 9t3.5 9l349 588h-329q-7 0 -7 6v22q0 6 7 6h363q4 0 4.5 -2t0.5 -3v-21q0 -9 -4 -17l-346 -587h348q5 0 5 -6v-20q0 -7 -5 -7h-385zM116 799q-4 3 0 7l11 10q3 2 8 -1l111 -72l110 72q5 3 8 1l11 -10q3 -4 0 -7l-94 -82q-7 -7 -14 -7h-43
q-6 0 -8 1.5t-7 5.5z" />
    <glyph glyph-name="zcaron" unicode="&#x17e;" horiz-adv-x="407" 
d="M39 0q-7 0 -7 7v18q0 8 5 15l302 419h-284q-7 0 -7 5v17q0 7 7 7h310q5 0 6 -0.5t1 -5.5v-18q0 -8 -5 -15l-299 -420h298q6 0 6 -5v-17q0 -7 -6 -7h-327zM246 558q-3 -4 -6 -5.5t-9 -1.5h-31q-6 0 -8.5 1.5t-5.5 5.5l-100 111q-3 4 -2.5 4.5l2.5 2.5l11 10q3 2 8 -1
l110 -101l111 101q5 3 8 1l11 -10q2 -2 3 -2.5t-3 -4.5z" />
    <glyph glyph-name="florin" unicode="&#x192;" horiz-adv-x="530" 
d="M261 351h-103q-7 0 -7 5v16q0 6 8 6h107l29 153q4 22 12 46.5t22 45t35 34t51 13.5q17 0 39 -4t39 -11q2 -1 4.5 -3t0.5 -6l-3 -9l-3 -4.5t-6 -0.5q-22 4 -37.5 6t-26.5 2q-21 0 -36.5 -8.5t-26 -23.5t-17.5 -34.5t-11 -41.5l-30 -154h105q7 0 7 -5v-17q0 -5 -7 -5h-110
l-50 -263q-4 -22 -12 -46.5t-22 -45t-35.5 -34t-53.5 -13.5q-17 0 -38 4t-38 11q-6 2 -4 8l4 10q2 6 9 5q21 -4 36 -5.5t26 -1.5q21 0 36.5 8t26.5 22t18 32.5t11 40.5z" />
    <glyph glyph-name="Ohorn" unicode="&#x1a0;" horiz-adv-x="616" 
d="M551 341q0 -63 -7.5 -125.5t-33 -112.5t-74.5 -81t-132 -31t-130.5 31t-72.5 81t-31.5 112.5t-6.5 125.5q0 33 3 70.5t12 74t25.5 70t43.5 59t65.5 41t91.5 15.5q65 0 108.5 -18.5t71.5 -50.5h17q38 0 57 18.5t19 66.5v60q0 6 1.5 8t7.5 2h16q8 0 8 -10v-62
q0 -54 -23.5 -84t-79.5 -31q26 -47 35 -106t9 -123zM516 331q0 69 -9.5 125.5t-33.5 97t-65 62.5t-104 22q-60 0 -99.5 -23.5t-63 -64.5t-32.5 -97t-9 -122q0 -63 8.5 -119t31 -98t62 -66t102.5 -24q61 0 101.5 22.5t65 63.5t35 97t10.5 124z" />
    <glyph glyph-name="ohorn" unicode="&#x1a1;" horiz-adv-x="514" 
d="M235 -8q-67 0 -105 23.5t-57 60.5t-23.5 83.5t-4.5 93.5q0 37 6 80t25.5 79.5t57 60.5t101.5 24q60 0 97.5 -18t58.5 -48h16q38 0 57 18.5t19 66.5v60q0 6 1.5 8t7.5 2h16q8 0 8 -10v-62q0 -54 -24 -84.5t-82 -30.5h-1q14 -32 18.5 -69.5t4.5 -76.5q0 -45 -5 -91.5
t-24.5 -84t-59 -61.5t-108.5 -24zM235 464q-49 0 -79 -17t-46.5 -46.5t-22 -69.5t-5.5 -86q0 -47 5.5 -87.5t22 -70.5t46.5 -47t79 -17q50 0 81.5 16.5t49 46t23.5 70t6 89.5t-6 89.5t-23 69t-48.5 44.5t-82.5 16z" />
    <glyph glyph-name="Uhorn" unicode="&#x1af;" horiz-adv-x="638" 
d="M526 232q0 -33 -3 -61.5t-14 -55.5q-26 -66 -81 -95t-130 -29q-78 0 -132 29t-77 94q-10 26 -13.5 55.5t-3.5 62.5v423q0 8 7 8h25q5 0 5 -8v-426q0 -95 45 -150t144 -55q94 0 143 51t49 154v426q0 8 7 8h24q5 0 5 -8v-53h22q38 0 57 18.5t19 66.5v60q0 6 1.5 8t7.5 2h16
q8 0 8 -10v-62q0 -54 -24 -84.5t-82 -30.5h-25v-338v0z" />
    <glyph glyph-name="uhorn" unicode="&#x1b0;" horiz-adv-x="547" 
d="M191 -8q-52 0 -79.5 14.5t-39.5 39.5t-13.5 58t-1.5 69v309q0 6 6 6h24q5 0 5 -6v-313q0 -31 2 -58t12.5 -46.5t32 -31t59.5 -11.5q22 0 50 8t55 18.5t50.5 22t37.5 18.5v393q0 6 7 6h22q6 0 6 -6v-51h17q38 0 57 18.5t19 66.5v60q0 6 1.5 8t7.5 2h16q8 0 8 -10v-62
q0 -54 -24 -84.5t-82 -30.5h-20v-394q0 -5 -6 -5h-23q-7 0 -7 5v56q-15 -9 -37 -21t-48.5 -22.5t-55.5 -18t-58 -7.5z" />
    <glyph glyph-name="AEacute" unicode="&#x1fc;" horiz-adv-x="779" 
d="M377 187h-235l-96 -181q-2 -5 -4.5 -5.5t-5.5 -0.5h-22q-10 0 -6 6l344 650q2 5 4 6t5 1h366q5 0 5 -6v-22q0 -6 -5 -6h-313v-268h282q5 0 5 -5v-20q0 -7 -5 -7h-282v-296h319q6 0 6 -5v-23q0 -5 -6 -5h-351q-5 0 -5 5v182zM159 220h218v409h-3zM483 711q-5 -2 -7 2
l-8 11q-2 2 -2.5 3.5t3.5 4.5l120 83q4 2 5 2t4 -4l19 -24q3 -5 -2 -8z" />
    <glyph glyph-name="aeacute" unicode="&#x1fd;" horiz-adv-x="807" 
d="M444 557q-3 -5 -7 -2l-12 6q-5 3 -3 8l67 129q3 6 9 3l28 -13q5 -2 2 -7zM244 499q78 0 117 -20.5t51 -70.5q20 40 58.5 64.5t107.5 24.5q60 0 98 -17t59 -46t29 -67.5t8 -80.5q0 -22 -6.5 -33.5t-25.5 -11.5h-318q0 -42 5 -81t21.5 -69t46.5 -48t80 -18q40 0 79.5 3.5
t79.5 7.5q8 0 9 -5l1 -9q2 -7 -4 -8q-15 -6 -37 -10t-45.5 -7t-46.5 -4t-39 -1q-66 0 -103 22t-56 60q-30 -17 -56 -31.5t-53.5 -25.5t-61 -18t-79.5 -8q-62 -2 -91 31t-29 97q0 85 41.5 119.5t128.5 34.5h173v66q0 31 -5.5 55t-20.5 39.5t-42.5 23.5t-70.5 8
q-38 0 -75 -3.5t-75 -7.5q-7 0 -8 5l-2 11q0 5 5 7q17 6 38 10.5t42 7t39.5 3.5t32.5 1zM209 241q-28 0 -51.5 -4t-41 -16.5t-27 -35.5t-9.5 -62q0 -58 22.5 -79t80.5 -21q25 0 58 10t64.5 23t58 26.5t38.5 19.5q-11 32 -13.5 64.5t-2.5 74.5h-177zM578 466
q-49 0 -79.5 -14.5t-47 -40.5t-22.5 -61.5t-6 -76.5h313q-1 38 -6 73t-21.5 61.5t-47.5 42.5t-83 16z" />
    <glyph glyph-name="Oslashacute" unicode="&#x1fe;" horiz-adv-x="616" 
d="M551 341q0 -63 -7.5 -125.5t-33 -112.5t-74.5 -81t-132 -31q-64 0 -106.5 18.5t-69.5 50.5l-42 -59q-4 -5 -9 -1l-13 10q-7 6 -4 10l49 68q-30 51 -38 117.5t-8 135.5q0 33 3 70.5t12 74t25.5 70t43.5 59t65.5 41t91.5 15.5q63 0 106.5 -18t71.5 -49l44 61q2 4 4 4t5 -2
l13 -10q7 -4 4 -10l-50 -69q30 -47 39.5 -109t9.5 -128zM516 331q0 65 -8.5 119t-29.5 94l-326 -451q23 -32 60 -50.5t92 -18.5q61 0 101.5 22.5t65 63.5t35 97t10.5 124zM100 331q0 -60 7 -113t27 -95l325 450q-24 31 -62 48t-93 17q-60 0 -99.5 -23.5t-63 -64.5t-32.5 -97
t-9 -122zM292 711q-5 -2 -7 2l-8 11q-2 2 -2.5 3.5t3.5 4.5l120 83q4 2 5 2t4 -4l19 -24q3 -5 -2 -8z" />
    <glyph glyph-name="oslashacute" unicode="&#x1ff;" horiz-adv-x="477" 
d="M235 -8q-47 0 -79 11.5t-53 31.5l-30 -41q-3 -4 -8 -1l-14 12q-6 5 -3 9l34 46q-13 19 -20.5 42t-11 48t-4.5 51t-1 52q0 37 6 80t25.5 79.5t57 60.5t101.5 24q48 0 80.5 -11.5t55.5 -31.5l30 41q2 4 4 4t5 -2l13 -10q6 -4 4 -10l-35 -47q25 -35 32.5 -81.5t7.5 -95.5
q0 -45 -5 -91.5t-24.5 -84t-59 -61.5t-108.5 -24zM395 245q0 47 -5.5 85.5t-20.5 67.5l-244 -333q17 -20 44 -31t66 -11q50 0 81.5 16.5t49 46t23.5 70t6 89.5zM235 464q-49 0 -79 -17t-46.5 -46.5t-22 -69.5t-5.5 -86q0 -45 5 -84t19 -68l243 332q-18 19 -45.5 29t-68.5 10
zM236 557q-3 -5 -7 -2l-12 6q-5 3 -3 8l67 129q3 6 9 3l28 -13q5 -2 2 -7z" />
    <glyph glyph-name="Scommaaccent" unicode="&#x218;" horiz-adv-x="500" 
d="M418 162q0 42 -11 70t-31.5 46t-51 28.5t-69.5 16.5q-47 8 -85 18.5t-65 29t-41.5 47t-14.5 73.5q0 87 54.5 132.5t148.5 45.5q44 0 89 -3.5t83 -17.5q7 -2 5 -9l-1 -11q-1 -3 -2.5 -4.5t-6.5 -0.5q-10 1 -29.5 3t-43 4t-48 3t-43.5 1q-85 0 -126 -37.5t-41 -102.5
q0 -37 13.5 -60.5t36 -38t52.5 -22t63 -13.5q41 -8 78 -18t64.5 -30t44 -52.5t16.5 -84.5q0 -51 -17 -86.5t-46.5 -57t-69 -31t-84.5 -9.5q-15 0 -41 2t-54 5.5t-53 8t-38 9.5q-7 3 -5 10l2 11q2 6 9 5q23 -3 48.5 -5.5t50 -4.5t46 -3t37.5 -1q81 0 129 35t48 99zM217 -202
q26 26 26 62q0 16 -5.5 29.5t-14.5 26.5q-6 6 1 10l34 22q5 4 11 -1q10 -11 14 -23t4 -20q0 -38 -16 -69.5t-40 -49.5q-4 -4 -7 -1l-8 7q-4 4 1 7z" />
    <glyph glyph-name="scommaaccent" unicode="&#x219;" horiz-adv-x="404" 
d="M327 122q0 30 -7 49.5t-21.5 32t-38 19.5t-56.5 13q-37 6 -67 13t-51 20.5t-32.5 35.5t-11.5 58q0 65 38.5 99.5t121.5 34.5q13 0 31 -1t37.5 -3.5t38 -6.5t33.5 -9q5 -2 5 -8l-2 -10q0 -5 -7 -5q-14 1 -31 3t-35.5 4t-37 3t-33.5 1q-63 0 -93 -23t-30 -76q0 -28 8.5 -45
t24.5 -27t39.5 -15t53.5 -10q36 -6 65 -13.5t50 -22.5t32.5 -39t11.5 -63q0 -77 -46 -107.5t-124 -30.5q-14 0 -33 1t-39.5 3t-40 5.5t-34.5 8.5q-5 2 -5 8l2 10q0 5 8 5q13 -2 32.5 -3.5t40 -3.5t39.5 -3t31 -1q28 0 52.5 5t42.5 16t28 30t10 48zM163 -202q26 26 26 62
q0 16 -5.5 29.5t-14.5 26.5q-6 6 1 10l34 22q5 4 11 -1q10 -11 14 -23t4 -20q0 -38 -16 -69.5t-40 -49.5q-4 -4 -7 -1l-8 7q-4 4 1 7z" />
    <glyph glyph-name="schwa" unicode="&#x259;" horiz-adv-x="470" 
d="M425 243q0 -45 -7.5 -89.5t-29 -80.5t-59.5 -58t-99 -22q-62 0 -99 18t-56.5 48.5t-25 70t-5.5 81.5q0 22 6.5 32t25.5 10h311q0 42 -4.5 80.5t-19.5 68t-44.5 46.5t-79.5 17q-40 0 -73.5 -3.5t-73.5 -7.5q-8 0 -9 5l-1 9q-2 7 4 8q15 6 35 10t41.5 7t42 4t37.5 1
q63 0 99.5 -21t55 -56.5t23.5 -81.5t5 -96zM230 26q46 0 75.5 15t47.5 41.5t25.5 62.5t9.5 79h-307q-1 -38 2.5 -73.5t18.5 -63.5t45 -44.5t83 -16.5z" />
    <glyph glyph-name="primemod" unicode="&#x2b9;" horiz-adv-x="226" 
d="M67 418q-2 -4 -3.5 -5t-6.5 1l-9 5q-8 3 -4 14l93 248q3 8 13 5l28 -9q4 -2 4.5 -5.5t-1.5 -7.5z" />
    <glyph glyph-name="circumflex" unicode="&#x2c6;" horiz-adv-x="477" 
d="M367 569q4 -4 3 -4.5t-3 -2.5l-11 -10q-3 -2 -8 1l-110 101l-111 -101q-5 -3 -8 -1l-11 10l-2.5 2.5t2.5 4.5l99 111q3 4 5.5 5.5t8.5 1.5h36q6 0 9 -1.5t6 -5.5l95 -111v0z" />
    <glyph glyph-name="caron" unicode="&#x2c7;" horiz-adv-x="475" 
d="M292 558q-3 -4 -6 -5.5t-9 -1.5h-31q-6 0 -8.5 1.5t-5.5 5.5l-100 111q-3 4 -2.5 4.5l2.5 2.5l11 10q3 2 8 -1l110 -101l111 101q5 3 8 1l11 -10q2 -2 3 -2.5t-3 -4.5z" />
    <glyph glyph-name="breve" unicode="&#x2d8;" horiz-adv-x="475" 
d="M233 566q-35 0 -68.5 17t-52.5 55q-2 5 -4.5 11t2.5 10l10 7q8 6 13 -3q24 -36 46.5 -49.5t54.5 -13.5q26 0 49.5 14.5t48.5 49.5q5 7 13 3l9 -6q5 -4 2.5 -9t-5.5 -12q-21 -39 -52.5 -56.5t-65.5 -17.5z" />
    <glyph glyph-name="dotaccent" unicode="&#x2d9;" horiz-adv-x="475" 
d="M284 615q0 -11 -4.5 -18.5t-19.5 -7.5q-16 0 -19.5 7.5t-3.5 18.5t4.5 17.5t18.5 6.5q15 0 19.5 -6.5t4.5 -17.5z" />
    <glyph glyph-name="ring" unicode="&#x2da;" horiz-adv-x="498" 
d="M270 533q-36 0 -63.5 25t-27.5 65q0 39 27.5 64t63.5 25q19 0 35.5 -7.5t28.5 -19.5t19 -28t7 -34q0 -36 -25.5 -63t-64.5 -27zM270 687q-26 0 -43.5 -19t-17.5 -45q0 -28 16.5 -46t44.5 -18q27 0 44.5 18t17.5 46q0 26 -17.5 45t-44.5 19z" />
    <glyph glyph-name="ogonek" unicode="&#x2db;" horiz-adv-x="288" 
d="M166 8v-2q-32 -34 -44.5 -60.5t-11.5 -49.5q1 -29 26.5 -41.5t85.5 1.5q5 1 6 0t2 -3l5 -14q2 -6 -6 -9q-14 -6 -31 -9t-34 -3q-45 0 -65.5 21t-20.5 51t16 62.5t44 55.5h28z" />
    <glyph glyph-name="tilde" unicode="&#x2dc;" horiz-adv-x="477" 
d="M316 603q18 0 29.5 11.5t21.5 28.5q3 5 5 6.5t8 -1.5l10 -5q5 -3 4 -7t-2 -6q-29 -57 -77 -57q-20 0 -38.5 8.5t-36 18t-34 18t-31.5 8.5t-28 -11t-24 -27q-5 -8 -8 -9t-8 1l-8 4q-6 3 -5.5 8t3.5 10q33 55 79 55q17 0 36 -8.5t37.5 -18.5t36 -18.5t30.5 -8.5z" />
    <glyph glyph-name="hungarumlaut" unicode="&#x2dd;" horiz-adv-x="477" 
d="M205 557q-3 -5 -7 -2l-12 6q-3 2 -4 2.5t1 5.5l67 129q2 4 3 4.5t6 -1.5l28 -13q5 -2 2 -7zM300 557q-3 -5 -7 -2l-12 6q-3 2 -4 2.5t1 5.5l67 129q2 4 3 4.5t6 -1.5l28 -13q5 -2 2 -7z" />
    <glyph glyph-name="tonos" unicode="&#x384;" horiz-adv-x="472" 
d="M268 557q-3 -5 -7 -2l-12 6q-3 2 -4 2.5t1 5.5l67 129q2 4 3 4.5t6 -1.5l28 -13q5 -2 2 -7z" />
    <glyph glyph-name="dieresistonos" unicode="&#x385;" horiz-adv-x="481" 
d="M174 615q0 -11 -4.5 -18.5t-19.5 -7.5q-16 0 -19.5 7.5t-3.5 18.5t4.5 17.5t18.5 6.5q15 0 19.5 -6.5t4.5 -17.5zM369 615q0 -11 -4.5 -18.5t-19.5 -7.5q-16 0 -19.5 7.5t-3.5 18.5t4.5 17.5t18.5 6.5q15 0 19.5 -6.5t4.5 -17.5zM221 557q-3 -5 -7 -2l-12 6q-3 2 -4 2.5
t1 5.5l67 129q2 4 3 4.5t6 -1.5l28 -13q5 -2 2 -7z" />
    <glyph glyph-name="Alphatonos" unicode="&#x386;" horiz-adv-x="522" 
d="M26 507q-3 -5 -7 -2l-12 6q-3 2 -4 2.5t1 5.5l67 129q2 4 3 4.5t6 -1.5l28 -13q5 -2 2 -7zM501 6q2 -4 1.5 -5t-5.5 -1h-27q-2 0 -4 0.5t-4 5.5l-58 181h-289l-58 -181q-1 -5 -2.5 -5.5t-4.5 -0.5h-25q-8 0 -6 6l217 650q2 5 3.5 5.5t4.5 0.5h31q5 0 8 -7zM260 620h-3
l-131 -400h267z" />
    <glyph glyph-name="anoteleia" unicode="&#x387;" horiz-adv-x="169" 
d="M116 410q0 -14 -5.5 -23.5t-24.5 -9.5q-20 0 -25 9.5t-5 23.5q0 13 5.5 21.5t24.5 8.5t24.5 -8t5.5 -22z" />
    <glyph glyph-name="Epsilontonos" unicode="&#x388;" horiz-adv-x="471" 
d="M-73 507q-3 -5 -7 -2l-12 6q-3 2 -4 2.5t1 5.5l67 129q2 4 3 4.5t6 -1.5l28 -13q5 -2 2 -7zM74 0q-5 0 -5 5v651q0 7 5 7h345q5 0 5 -6v-22q0 -6 -5 -6h-313v-268h282q5 0 5 -5v-20q0 -7 -5 -7h-282v-296h319q6 0 6 -5v-23q0 -5 -6 -5h-351z" />
    <glyph glyph-name="Etatonos" unicode="&#x389;" horiz-adv-x="570" 
d="M-83 507q-3 -5 -7 -2l-12 6q-3 2 -4 2.5t1 5.5l67 129q2 4 3 4.5t6 -1.5l28 -13q5 -2 2 -7zM470 0q-7 0 -7 6v330h-355v-330q0 -6 -5 -6h-26q-5 0 -5 6v651q0 6 5 6h26q5 0 5 -6v-289h355v289q0 6 7 6h24q5 0 5 -6v-651q0 -6 -5 -6h-24z" />
    <glyph glyph-name="Iotatonos" unicode="&#x38a;" horiz-adv-x="224" 
d="M-83 507q-3 -5 -7 -2l-12 6q-3 2 -4 2.5t1 5.5l67 129q2 4 3 4.5t6 -1.5l28 -13q5 -2 2 -7zM129 6q0 -6 -5 -6h-26q-5 0 -5 6v651q0 6 5 6h26q5 0 5 -6v-651z" />
    <glyph glyph-name="Omicrontonos" unicode="&#x38c;" horiz-adv-x="616" 
d="M-31 507q-3 -5 -7 -2l-12 6q-3 2 -4 2.5t1 5.5l67 129q2 4 3 4.5t6 -1.5l28 -13q5 -2 2 -7zM551 341q0 -63 -7.5 -125.5t-33 -112.5t-74.5 -81t-132 -31t-130.5 31t-72.5 81t-31.5 112.5t-6.5 125.5q0 33 3 70.5t12 74t25.5 70t43.5 59t65.5 41t91.5 15.5q80 0 128.5 -28
t75 -74t35 -105.5t8.5 -122.5zM516 331q0 69 -9.5 125.5t-33.5 97t-65 62.5t-104 22q-60 0 -99.5 -23.5t-63 -64.5t-32.5 -97t-9 -122q0 -63 8.5 -119t31 -98t62 -66t102.5 -24q61 0 101.5 22.5t65 63.5t35 97t10.5 124z" />
    <glyph glyph-name="Upsilontonos" unicode="&#x38e;" horiz-adv-x="481" 
d="M-108 507q-3 -5 -7 -2l-12 6q-3 2 -4 2.5t1 5.5l67 129q2 4 3 4.5t6 -1.5l28 -13q5 -2 2 -7zM257 7q0 -7 -5 -7h-24q-7 0 -7 7l-1 286l-196 364q-3 5 6 5h26q5 0 7 -5l177 -333l177 333q2 4 4 4.5t4 0.5h26q7 0 5 -5l-199 -364v-286z" />
    <glyph glyph-name="Omegatonos" unicode="&#x38f;" horiz-adv-x="637" 
d="M-30 507q-3 -5 -7 -2l-12 6q-3 2 -4 2.5t1 5.5l67 129q2 4 3 4.5t6 -1.5l28 -13q5 -2 2 -7zM580 33q6 0 6 -6v-20q0 -7 -6 -7h-186q-7 0 -7 6v26q0 10 9 13q44 14 71.5 43.5t43.5 69t21.5 87t5.5 97.5q0 44 -8 96t-31 96.5t-65.5 74.5t-112.5 30q-65 0 -107 -24
t-67.5 -65t-35.5 -94.5t-10 -111.5q0 -56 6.5 -104.5t22 -87t41 -66t64.5 -40.5q5 -2 7 -4t2 -10v-25q0 -7 -7 -7h-187q-5 0 -5 7v20q0 6 5 6h127v2q-38 27 -60 61t-34 74t-15.5 83.5t-3.5 90.5q0 67 13.5 126.5t44 104t79.5 70.5t120 26q73 0 121.5 -26.5t77.5 -71t41 -104
t12 -125.5q0 -47 -4 -91t-16 -83.5t-35.5 -73.5t-62.5 -61l1 -2h124z" />
    <glyph glyph-name="iotadieresistonos" unicode="&#x390;" horiz-adv-x="197" 
d="M31 615q0 -11 -4.5 -18.5t-19.5 -7.5q-16 0 -19.5 7.5t-3.5 18.5t4.5 17.5t18.5 6.5q15 0 19.5 -6.5t4.5 -17.5zM226 615q0 -11 -4.5 -18.5t-19.5 -7.5q-16 0 -19.5 7.5t-3.5 18.5t4.5 17.5t18.5 6.5q15 0 19.5 -6.5t4.5 -17.5zM78 557q-3 -5 -7 -2l-12 6q-3 2 -4 2.5
t1 5.5l67 129q2 4 3 4.5t6 -1.5l28 -13q5 -2 2 -7zM115 6q0 -6 -5 -6h-23q-6 0 -6 6v475q0 6 6 6h24q4 0 4 -6v-475z" />
    <glyph glyph-name="Alpha" unicode="&#x391;" horiz-adv-x="522" 
d="M501 6q2 -4 1.5 -5t-5.5 -1h-27q-2 0 -4 0.5t-4 5.5l-58 181h-289l-58 -181q-1 -5 -2.5 -5.5t-4.5 -0.5h-25q-8 0 -6 6l217 650q2 5 3.5 5.5t4.5 0.5h31q5 0 8 -7zM260 620h-3l-131 -400h267z" />
    <glyph glyph-name="Beta" unicode="&#x392;" horiz-adv-x="525" 
d="M483 172q0 -40 -12.5 -71.5t-34.5 -54t-52.5 -34.5t-66.5 -12h-241q-8 0 -10 2.5t-2 5.5v647q0 7 7 7l214 1q85 0 131.5 -44.5t46.5 -115.5q0 -17 -3 -38.5t-13 -42.5t-28.5 -40.5t-48.5 -32.5v-1q33 -11 55 -31t35 -45t18 -51.5t5 -48.5zM102 629v-268h169
q75 0 113 37.5t38 97.5q0 59 -35 96t-111 37h-174zM102 329v-296h191q43 0 72 11.5t46 31.5t24 46.5t7 56.5q0 28 -9.5 55t-28.5 48t-47.5 34t-65.5 13h-189z" />
    <glyph glyph-name="Gamma" unicode="&#x393;" horiz-adv-x="448" 
d="M422 635q0 -6 -5 -6h-308v-622q0 -7 -5 -7h-26q-6 0 -6 7v649q0 7 5 7h340q5 0 5 -6v-22v0z" />
    <glyph glyph-name="Delta" unicode="&#x394;" horiz-adv-x="522" 
d="M501 6q2 -4 1.5 -5t-5.5 -1h-472q-8 0 -6 6l217 650q2 5 3.5 5.5t4.5 0.5h31q5 0 8 -7zM260 620h-3l-189 -588h383z" />
    <glyph glyph-name="Delta" unicode="&#x2206;" horiz-adv-x="522" 
d="M501 6q2 -4 1.5 -5t-5.5 -1h-472q-8 0 -6 6l217 650q2 5 3.5 5.5t4.5 0.5h31q5 0 8 -7zM260 620h-3l-189 -588h383z" />
    <glyph glyph-name="Epsilon" unicode="&#x395;" horiz-adv-x="471" 
d="M74 0q-5 0 -5 5v651q0 7 5 7h345q5 0 5 -6v-22q0 -6 -5 -6h-313v-268h282q5 0 5 -5v-20q0 -7 -5 -7h-282v-296h319q6 0 6 -5v-23q0 -5 -6 -5h-351z" />
    <glyph glyph-name="Zeta" unicode="&#x396;" horiz-adv-x="464" 
d="M40 0q-6 0 -6 6v17q0 5 1.5 9t3.5 9l349 588h-329q-7 0 -7 6v22q0 6 7 6h363q4 0 4.5 -2t0.5 -3v-21q0 -9 -4 -17l-346 -587h348q5 0 5 -6v-20q0 -7 -5 -7h-385z" />
    <glyph glyph-name="Eta" unicode="&#x397;" horiz-adv-x="570" 
d="M470 0q-7 0 -7 6v330h-355v-330q0 -6 -5 -6h-26q-5 0 -5 6v651q0 6 5 6h26q5 0 5 -6v-289h355v289q0 6 7 6h24q5 0 5 -6v-651q0 -6 -5 -6h-24z" />
    <glyph glyph-name="Theta" unicode="&#x398;" horiz-adv-x="616" 
d="M551 341q0 -63 -7.5 -125.5t-33 -112.5t-74.5 -81t-132 -31t-130.5 31t-72.5 81t-31.5 112.5t-6.5 125.5q0 33 3 70.5t12 74t25.5 70t43.5 59t65.5 41t91.5 15.5q80 0 128.5 -28t75 -74t35 -105.5t8.5 -122.5zM516 331q0 69 -9.5 125.5t-33.5 97t-65 62.5t-104 22
q-60 0 -99.5 -23.5t-63 -64.5t-32.5 -97t-9 -122q0 -63 7.5 -119t29.5 -98t62 -66t105 -24q63 0 104 22.5t65 63.5t33.5 97t9.5 124zM178 330q-6 0 -6 5v22q0 5 6 5h265q6 0 6 -5v-22q0 -5 -6 -5h-265z" />
    <glyph glyph-name="Iota" unicode="&#x399;" horiz-adv-x="224" 
d="M129 6q0 -6 -5 -6h-26q-5 0 -5 6v651q0 6 5 6h26q5 0 5 -6v-651v0z" />
    <glyph glyph-name="Kappa" unicode="&#x39a;" horiz-adv-x="524" 
d="M497 8q5 -8 -5 -8h-25q-9 0 -12 6l-209 352l-141 -175v-177q0 -6 -5 -6h-26q-5 0 -5 6v651q0 6 5 6h26q5 0 5 -6v-420l339 420q3 3 5 4.5t8 1.5h27q5 0 5.5 -2.5t-1.5 -4.5l-218 -268l227 -380v0z" />
    <glyph glyph-name="Lambda" unicode="&#x39b;" horiz-adv-x="522" 
d="M501 6q2 -4 1.5 -5t-5.5 -1h-27q-2 0 -4 0.5t-4 5.5q-57 171 -102 307l-37.5 112.5t-32.5 98.5t-22.5 69.5t-7.5 26.5h-3l-200 -614q-1 -5 -2.5 -5.5t-4.5 -0.5h-25q-8 0 -6 6l217 650q2 5 3.5 5.5t4.5 0.5h31q5 0 8 -7l218 -649v0z" />
    <glyph glyph-name="Mu" unicode="&#x39c;" horiz-adv-x="713" 
d="M640 7q0 -7 -5 -7h-24q-7 0 -7 7v580h-2l-226 -467q-4 -7 -8 -7h-22q-8 0 -10 6l-225 468h-2v-580q0 -7 -5 -7h-24q-7 0 -7 7v649q0 7 6 7h28q7 0 9 -6l240 -500h1l239 498q2 5 3 6.5t9 1.5h24q8 0 8 -8v-648v0z" />
    <glyph glyph-name="Nu" unicode="&#x39d;" horiz-adv-x="603" 
d="M533 7q0 -7 -6 -7h-27q-5 0 -6 1t-3 5l-383 593h-2v-592q0 -7 -5 -7h-24q-7 0 -7 7l1 649q0 7 6 7h27q5 0 6 -1.5l3 -4.5l383 -593h2v592q0 7 5 7h23q7 0 7 -7v-649z" />
    <glyph glyph-name="Xi" unicode="&#x39e;" horiz-adv-x="497" 
d="M29 0q-7 0 -7 5v23q0 5 7 5h199v296h-162q-6 0 -6 7v20q0 5 6 5h162v268h-193q-6 0 -6 6v22q0 6 6 6h424q5 0 5 -6v-22q0 -6 -5 -6h-194v-268h163q5 0 5 -5v-20q0 -7 -5 -7h-163v-296h200q6 0 6 -5v-23q0 -5 -6 -5h-436v0z" />
    <glyph glyph-name="Omicron" unicode="&#x39f;" horiz-adv-x="616" 
d="M551 341q0 -63 -7.5 -125.5t-33 -112.5t-74.5 -81t-132 -31t-130.5 31t-72.5 81t-31.5 112.5t-6.5 125.5q0 33 3 70.5t12 74t25.5 70t43.5 59t65.5 41t91.5 15.5q80 0 128.5 -28t75 -74t35 -105.5t8.5 -122.5zM516 331q0 69 -9.5 125.5t-33.5 97t-65 62.5t-104 22
q-60 0 -99.5 -23.5t-63 -64.5t-32.5 -97t-9 -122q0 -63 8.5 -119t31 -98t62 -66t102.5 -24q61 0 101.5 22.5t65 63.5t35 97t10.5 124z" />
    <glyph glyph-name="Pi" unicode="&#x3a0;" horiz-adv-x="570" 
d="M470 0q-7 0 -7 6v624h-355v-624q0 -6 -5 -6h-26q-5 0 -5 6v651q0 6 5 6h417q5 0 5 -6v-651q0 -6 -5 -6h-24z" />
    <glyph glyph-name="Rho" unicode="&#x3a1;" horiz-adv-x="482" 
d="M101 287v-280q0 -7 -6 -7h-24q-7 0 -7 7v650q0 6 7 6h191q41 0 75.5 -11.5t60 -34.5t40 -57t14.5 -80q0 -35 -10.5 -69.5t-33 -62t-58 -44.5t-85.5 -17h-164zM101 629v-310h163q13 0 38.5 4.5t50 21t43 48t18.5 85.5q0 39 -12.5 67.5t-34 47t-51.5 27.5t-66 9h-149z" />
    <glyph glyph-name="Sigma" unicode="&#x3a3;" horiz-adv-x="426" 
d="M416 7q0 -7 -5 -7h-385q-6 0 -6 6v17q0 10 5 22l178 302l-179 273q-2 3 -3 8t-1 9v21q0 1 0.5 3t3.5 2h376q6 0 6 -6v-22q0 -6 -6 -6h-342l176 -264q8 -12 6.5 -20t-6.5 -16l-171 -296h348q5 0 5 -6v-20v0z" />
    <glyph glyph-name="Tau" unicode="&#x3a4;" horiz-adv-x="455" 
d="M247 630l-1 -624q0 -6 -5 -6h-24q-7 0 -7 6v624h-187q-6 0 -6 5v22q0 6 6 6h412q5 0 5 -6v-22q0 -5 -5 -5h-188z" />
    <glyph glyph-name="Upsilon" unicode="&#x3a5;" horiz-adv-x="481" 
d="M257 7q0 -7 -5 -7h-24q-7 0 -7 7l-1 286l-196 364q-3 5 6 5h26q5 0 7 -5l177 -333l177 333q2 4 4 4.5t4 0.5h26q7 0 5 -5l-199 -364v-286v0z" />
    <glyph glyph-name="Phi" unicode="&#x3a6;" horiz-adv-x="688" 
d="M366 65q67 4 112 25t72 56t38.5 82t11.5 104q0 40 -7 87t-31.5 86.5t-71 66.5t-124.5 28v-535zM329 601q-75 -4 -122.5 -28.5t-74.5 -61.5t-37 -83t-10 -94q0 -56 12 -104t40.5 -83t75 -56.5t116.5 -25.5v536zM365 6q0 -6 -5 -6h-26q-5 0 -5 6v29q-83 2 -137 28.5
t-86 68.5t-44.5 95t-12.5 107q0 136 68 213.5t212 84.5v25q0 6 5 6h26q5 0 5 -6v-25q75 -3 126.5 -24.5t84 -60t46.5 -92.5t14 -121q0 -66 -15 -119.5t-47 -92t-84 -61.5t-125 -27v-28z" />
    <glyph glyph-name="Chi" unicode="&#x3a7;" horiz-adv-x="496" 
d="M271 343l199 -337q2 -6 -5 -6h-28q-4 0 -8 6l-180 306l-181 -306q-2 -6 -8 -6h-27q-3 0 -5 1t0 5l199 337l-185 314q-2 3 0.5 4.5t4.5 1.5h26q5 0 6 -2t3 -4l167 -283l166 283q4 6 9 6h27q2 0 4.5 -1.5t0.5 -4.5z" />
    <glyph glyph-name="Psi" unicode="&#x3a8;" horiz-adv-x="661" 
d="M343 6q0 -6 -5 -6h-27q-4 0 -4 6l-1 161q-66 4 -112.5 25t-75.5 54.5t-42.5 77.5t-13.5 95v238q0 6 5 6h27q5 0 5 -6v-238q0 -103 55.5 -157t151.5 -60l1 455q0 6 4 6h27q5 0 5 -6v-455q47 3 85.5 18t66.5 42.5t43 66.5t15 90v238q0 6 5 6h26q5 0 5 -6v-238
q0 -51 -15.5 -96t-46.5 -78.5t-77 -54t-107 -22.5v-162v0z" />
    <glyph glyph-name="Omega" unicode="&#x3a9;" horiz-adv-x="637" 
d="M580 33q6 0 6 -6v-20q0 -7 -6 -7h-186q-7 0 -7 6v26q0 10 9 13q44 14 71.5 43.5t43.5 69t21.5 87t5.5 97.5q0 44 -8 96t-31 96.5t-65.5 74.5t-112.5 30q-65 0 -107 -24t-67.5 -65t-35.5 -94.5t-10 -111.5q0 -56 6.5 -104.5t22 -87t41 -66t64.5 -40.5q5 -2 7 -4t2 -10v-25
q0 -7 -7 -7h-187q-5 0 -5 7v20q0 6 5 6h127v2q-38 27 -60 61t-34 74t-15.5 83.5t-3.5 90.5q0 67 13.5 126.5t44 104t79.5 70.5t120 26q73 0 121.5 -26.5t77.5 -71t41 -104t12 -125.5q0 -47 -4 -91t-16 -83.5t-35.5 -73.5t-62.5 -61l1 -2h124z" />
    <glyph glyph-name="Iotadieresis" unicode="&#x3aa;" horiz-adv-x="224" 
d="M129 6q0 -6 -5 -6h-26q-5 0 -5 6v651q0 6 5 6h26q5 0 5 -6v-651zM49 753q0 -11 -4 -18t-19 -7q-16 0 -20 7.5t-4 17.5q0 11 5 18t19 7q15 0 19 -7t4 -18zM210 753q0 -11 -4 -18t-19 -7q-16 0 -20 7.5t-4 17.5q0 11 5 18t19 7q15 0 19 -7t4 -18z" />
    <glyph glyph-name="Upsilondieresis" unicode="&#x3ab;" horiz-adv-x="481" 
d="M257 7q0 -7 -5 -7h-24q-7 0 -7 7l-1 286l-196 364q-3 5 6 5h26q5 0 7 -5l177 -333l177 333q2 4 4 4.5t4 0.5h26q7 0 5 -5l-199 -364v-286zM170 753q0 -11 -4 -18t-19 -7q-16 0 -20 7.5t-4 17.5q0 11 5 18t19 7q15 0 19 -7t4 -18zM331 753q0 -11 -4 -18t-19 -7
q-16 0 -20 7.5t-4 17.5q0 11 5 18t19 7q15 0 19 -7t4 -18z" />
    <glyph glyph-name="alphatonos" unicode="&#x3ac;" horiz-adv-x="487" 
d="M426 62q0 -26 9.5 -32t37.5 -7q6 0 6 -6v-13q0 -7 -10 -8q-48 -5 -62.5 9t-14.5 55q-51 -29 -100 -48.5t-100 -19.5q-41 0 -69 15t-44.5 45.5t-23.5 76t-7 107.5q0 135 42.5 198.5t143.5 63.5q32 0 73.5 -10t83.5 -30l2 1v23q0 6 6 6h22q5 0 5 -5v-421zM392 427
q-95 39 -156 39q-78 0 -115 -53t-37 -179q0 -60 7 -100.5t21.5 -65t36 -34.5t51.5 -10q22 0 50 8t55 18.5t50.5 22t36.5 18.5v336zM268 557q-3 -5 -7 -2l-12 6q-3 2 -4 2.5t1 5.5l67 129q2 4 3 4.5t6 -1.5l28 -13q5 -2 2 -7z" />
    <glyph glyph-name="epsilontonos" unicode="&#x3ad;" horiz-adv-x="403" 
d="M219 557q-3 -5 -7 -2l-12 6q-3 2 -4 2.5t1 5.5l67 129q2 4 3 4.5t6 -1.5l28 -13q5 -2 2 -7zM46 135q0 19 3.5 38.5t13.5 37t27.5 31.5t45.5 22v1q-45 9 -63 36.5t-18 65.5q0 36 15 61t39.5 40.5t55.5 22.5t64 7q14 0 32.5 -1t38.5 -3.5t39 -6.5t33 -9q5 -2 5 -8l-2 -10
q0 -5 -7 -5q-13 1 -30 3t-35 3.5t-36.5 2.5t-34.5 1q-22 0 -46.5 -3.5t-45 -13.5t-34 -29.5t-13.5 -50.5q0 -32 14 -49.5t35.5 -26t46.5 -10t47 -1.5h44q5 0 5 -6v-20q0 -6 -5 -6h-40q-26 0 -53.5 -2.5t-50 -13t-37.5 -33t-15 -62.5q0 -38 14 -60.5t36 -34.5t49.5 -16
t54.5 -4q32 0 70.5 4t65.5 7q8 0 8 -5l2 -10q0 -6 -5 -8q-15 -5 -34 -9t-39.5 -6.5t-39.5 -3.5t-32 -1q-39 0 -73.5 7.5t-60 24.5t-40 44.5t-14.5 67.5z" />
    <glyph glyph-name="etatonos" unicode="&#x3ae;" horiz-adv-x="469" 
d="M284 496q50 0 77.5 -14.5t40 -39.5t15 -58t2.5 -69v-309q0 -6 -6 -6h-25q-5 0 -5 6v313q0 31 -2 58t-12.5 46.5t-32 31t-59.5 11.5q-22 0 -50 -8t-55 -18.5t-50.5 -22t-36.5 -18.5v-393q0 -6 -7 -6h-22q-5 0 -5 6v475q0 6 5 6h22q7 0 7 -6v-54q15 9 37.5 21t48.5 22.5
t55 18t58 7.5zM207 557q-3 -5 -7 -2l-12 6q-3 2 -4 2.5t1 5.5l67 129q2 4 3 4.5t6 -1.5l28 -13q5 -2 2 -7z" />
    <glyph glyph-name="iotatonos" unicode="&#x3af;" horiz-adv-x="197" 
d="M115 6q0 -6 -5 -6h-23q-6 0 -6 6v475q0 6 6 6h24q4 0 4 -6v-475zM107 557q-3 -5 -7 -2l-12 6q-3 2 -4 2.5t1 5.5l67 129q2 4 3 4.5t6 -1.5l28 -13q5 -2 2 -7z" />
    <glyph glyph-name="upsilondieresistonos" unicode="&#x3b0;" horiz-adv-x="481" 
d="M391 481q0 6 6 6h25q4 0 4 -6v-310q0 -38 -10.5 -70.5t-33 -56.5t-58 -37.5t-86.5 -13.5t-86 12t-56.5 35t-31 56t-9.5 75v310q0 6 6 6h24q4 0 4 -6l1 -309q0 -30 5.5 -57t21.5 -47.5t44.5 -32.5t75.5 -12q43 0 72.5 11.5t47.5 31.5t26 47t8 59v309zM187 615
q0 -11 -4.5 -18.5t-19.5 -7.5q-16 0 -19.5 7.5t-3.5 18.5t4.5 17.5t18.5 6.5q15 0 19.5 -6.5t4.5 -17.5zM382 615q0 -11 -4.5 -18.5t-19.5 -7.5q-16 0 -19.5 7.5t-3.5 18.5t4.5 17.5t18.5 6.5q15 0 19.5 -6.5t4.5 -17.5zM234 557q-3 -5 -7 -2l-12 6q-3 2 -4 2.5t1 5.5
l67 129q2 4 3 4.5t6 -1.5l28 -13q5 -2 2 -7z" />
    <glyph glyph-name="alpha" unicode="&#x3b1;" horiz-adv-x="487" 
d="M426 62q0 -26 9.5 -32t37.5 -7q6 0 6 -6v-13q0 -7 -10 -8q-48 -5 -62.5 9t-14.5 55q-51 -29 -100 -48.5t-100 -19.5q-41 0 -69 15t-44.5 45.5t-23.5 76t-7 107.5q0 135 42.5 198.5t143.5 63.5q32 0 73.5 -10t83.5 -30l2 1v23q0 6 6 6h22q5 0 5 -5v-421zM392 427
q-95 39 -156 39q-78 0 -115 -53t-37 -179q0 -60 7 -100.5t21.5 -65t36 -34.5t51.5 -10q22 0 50 8t55 18.5t50.5 22t36.5 18.5v336z" />
    <glyph glyph-name="beta" unicode="&#x3b2;" horiz-adv-x="469" 
d="M427 231q0 -61 -9.5 -106.5t-31.5 -75.5t-58.5 -44.5t-90.5 -14.5q-35 0 -75.5 8t-77.5 25h-2v-157q0 -5 -5 -5h-25q-3 0 -3 5v645q0 52 13.5 89.5t37.5 61.5t56 35.5t69 11.5q35 0 65 -9t51.5 -27.5t34 -48t12.5 -71.5q0 -14 -4.5 -33.5t-15 -39.5t-27.5 -38.5
t-42 -30.5l1 -2q71 -8 99 -54t28 -124zM221 676q-39 0 -65 -14.5t-42.5 -38t-23.5 -52.5t-7 -59v-460q53 -16 88 -22.5t67 -6.5q44 0 73.5 12.5t47 38t25 64t7.5 89.5q0 48 -10.5 78t-27.5 47t-40 23t-48 6q-11 0 -27 -1l-48 -3h-8t-3 7v15q0 5 2.5 5t9.5 2q30 4 59 15
t51.5 29.5t36 44.5t13.5 60t-10.5 57t-28.5 37.5t-41.5 20.5t-49.5 6z" />
    <glyph glyph-name="gamma" unicode="&#x3b3;" horiz-adv-x="418" 
d="M380 481q2 7 10 7h22q5 0 5.5 -1.5t-0.5 -5.5l-180 -478v-173q0 -6 -5 -6h-23q-6 0 -6 6v184l-151 409q-8 22 -14 30.5t-25 8.5q-5 0 -7 -0.5t-3 4.5l-2 13q-1 4 0 5.5t7 3.5q18 5 29.5 4t19.5 -8t14.5 -19.5t12.5 -30.5l138 -377h1l157 424v0z" />
    <glyph glyph-name="delta" unicode="&#x3b4;" horiz-adv-x="477" 
d="M434 240q0 -46 -5.5 -90.5t-26 -79.5t-59.5 -56.5t-106 -21.5q-65 0 -103 21.5t-57.5 56t-24.5 79t-5 91.5q0 27 3.5 59.5t16 63.5t36.5 58.5t66 44.5q-45 17 -63 44.5t-18 66.5q0 64 35 98.5t118 34.5q13 0 31 -1t37.5 -3.5t38 -6t33.5 -8.5q7 -2 5 -9l-2 -10
q0 -5 -7 -4q-14 1 -31 3t-35.5 3.5t-36.5 2.5t-34 1q-63 0 -89 -22.5t-26 -76.5q0 -29 12.5 -46t32.5 -27t45 -16t51 -13q46 -12 78 -28t52 -42.5t29 -66.5t9 -100zM397 232q0 65 -10 103.5t-31.5 61t-55 33.5t-79.5 22q-72 -18 -104.5 -69.5t-32.5 -150.5q0 -48 6.5 -86.5
t23.5 -65.5t46.5 -42t76.5 -15q49 0 80 14t49 41t24.5 66t6.5 88z" />
    <glyph glyph-name="epsilon" unicode="&#x3b5;" horiz-adv-x="403" 
d="M46 135q0 19 3.5 38.5t13.5 37t27.5 31.5t45.5 22v1q-45 9 -63 36.5t-18 65.5q0 36 15 61t39.5 40.5t55.5 22.5t64 7q14 0 32.5 -1t38.5 -3.5t39 -6.5t33 -9q5 -2 5 -8l-2 -10q0 -5 -7 -5q-13 1 -30 3t-35 3.5t-36.5 2.5t-34.5 1q-22 0 -46.5 -3.5t-45 -13.5t-34 -29.5
t-13.5 -50.5q0 -32 14 -49.5t35.5 -26t46.5 -10t47 -1.5h44q5 0 5 -6v-20q0 -6 -5 -6h-40q-26 0 -53.5 -2.5t-50 -13t-37.5 -33t-15 -62.5q0 -38 14 -60.5t36 -34.5t49.5 -16t54.5 -4q32 0 70.5 4t65.5 7q8 0 8 -5l2 -10q0 -6 -5 -8q-15 -5 -34 -9t-39.5 -6.5t-39.5 -3.5
t-32 -1q-39 0 -73.5 7.5t-60 24.5t-40 44.5t-14.5 67.5z" />
    <glyph glyph-name="zeta" unicode="&#x3b6;" horiz-adv-x="421" 
d="M59 459q-7 0 -7 5v17q0 7 7 7l345 -1q5 0 6 -0.5t1 -5.5v-18q0 -4 -1 -8t-4 -6q-25 -14 -58.5 -32.5t-70 -40.5t-72 -47t-63.5 -53.5t-45.5 -59.5t-17.5 -64q0 -38 19.5 -61.5t53.5 -36.5t79.5 -18t97.5 -5h38q8 0 11 -5l9 -18q4 -7 4 -12.5t-8 -16.5q-8 -12 -17.5 -29.5
t-18.5 -36.5t-17 -36.5t-11 -27.5q-2 -4 -3 -5.5t-6 0.5l-16 3q-8 1 -6 12t9.5 29.5t17.5 39t21 39.5t20 31q-57 0 -113 4.5t-100.5 20t-72 45t-27.5 79.5q0 56 33 102t81.5 84.5t103.5 69t99 55.5l-1 1h-300z" />
    <glyph glyph-name="eta" unicode="&#x3b7;" horiz-adv-x="469" 
d="M284 496q52 0 79.5 -14.5t39.5 -39.5t13.5 -58t1.5 -69l1 -309q0 -6 -6 -6h-25q-5 0 -5 6v313q0 31 -2 58t-12.5 46.5t-32 31t-59.5 11.5q-22 0 -50 -8t-55 -18.5t-50.5 -22t-36.5 -18.5v-393q0 -6 -7 -6h-22q-5 0 -5 6v475q0 6 5 6h22q7 0 7 -6v-54q15 9 37.5 21
t48.5 22.5t55 18t58 7.5z" />
    <glyph glyph-name="theta" unicode="&#x3b8;" horiz-adv-x="496" 
d="M244 -8q-69 0 -109.5 29.5t-61 80t-26 117.5t-5.5 143q0 61 7 123t28.5 111.5t61 81t105.5 31.5t107.5 -25.5t64 -71.5t30.5 -110t8 -140q0 -71 -6 -137.5t-27.5 -118.5t-63.5 -83t-113 -31zM244 677q-47 0 -78 -19.5t-50 -56.5t-27.5 -90.5t-9.5 -122.5h338
q-2 71 -10 125t-27.5 90.5t-52 55t-83.5 18.5zM79 360q0 -79 6.5 -141.5t24.5 -106t50 -66.5t84 -23q53 0 86.5 20.5t53 62t26.5 105t7 149.5h-338z" />
    <glyph glyph-name="iota" unicode="&#x3b9;" horiz-adv-x="197" 
d="M115 6q0 -6 -5 -6h-23q-6 0 -6 6v475q0 6 6 6h24q4 0 4 -6v-475v0z" />
    <glyph glyph-name="kappa" unicode="&#x3ba;" horiz-adv-x="406" 
d="M201 309l200 -302q3 -5 0.5 -6t-4.5 -1h-23q-10 0 -15 9l-181 278l-94 -90v-191q0 -6 -5 -6h-23q-6 0 -6 6v475q0 6 6 6h24q4 0 4 -6v-244l85 85l166 160q6 6 14 6h25q13 0 4 -10z" />
    <glyph glyph-name="lambda" unicode="&#x3bb;" horiz-adv-x="430" 
d="M225 426q-9 -24 -22 -55t-27 -65t-29.5 -69.5t-29.5 -68.5q-33 -78 -70 -161q-4 -8 -11 -8h-19q-8 0 -5 10l199 461l-46 145q-11 36 -25 51.5t-38 15.5q-8 0 -14.5 -0.5t-15.5 -2.5q-8 -1 -9 5l-2 9q-1 8 10 11q9 2 20.5 4t21.5 2q21 0 35 -7.5t23.5 -20.5t16 -31
t13.5 -38l180 -565q4 -11 9.5 -17.5t18.5 -6.5h10q5 0 7 -0.5t3 -5.5l1 -7q1 -5 -1.5 -6.5t-6.5 -3.5q-3 -2 -12 -3t-14 -1q-23 0 -33.5 14.5t-19.5 43.5q-23 69 -44 137q-9 28 -18.5 59t-19.5 62t-19 60t-16 53h-1v0z" />
    <glyph glyph-name="nu" unicode="&#x3bd;" horiz-adv-x="437" 
d="M379 481q2 7 10 7h21q5 0 5.5 -1.5t-0.5 -5.5l-172 -475q-2 -6 -8 -6h-28q-8 0 -10 7l-173 475q-2 5 4 5h24q8 0 10 -7l159 -441h2l156 442v0z" />
    <glyph glyph-name="xi" unicode="&#x3be;" horiz-adv-x="368" 
d="M378 671l-1.5 -4.5t-5.5 -0.5q-14 1 -31 3t-35 3.5t-36 2.5t-34 1q-71 0 -114.5 -35t-43.5 -105q0 -38 16 -62t40 -37.5t52 -18t53 -4.5h86q6 0 6 -5v-20q0 -6 -6 -6h-91q-90 -1 -129 -47.5t-39 -148.5q0 -56 21.5 -87t57 -46.5t79.5 -19t89 -3.5h38q8 0 11 -5l9 -18
q4 -7 3.5 -12t-7.5 -17q-9 -15 -18.5 -33t-18 -36t-16 -34.5t-11.5 -27.5q-2 -3 -3.5 -5t-6.5 0l-16 5q-7 2 -5 11q4 13 12 32t17.5 39t19.5 38t19 30q-55 -1 -110 2t-99.5 21t-72.5 56.5t-28 108.5q0 33 3.5 65t16.5 60.5t37 51t65 34.5v2q-33 8 -55 22t-34.5 32t-17.5 39
t-5 44q0 85 51 129t139 44q14 0 33 -1t39.5 -3.5t40 -6.5t33.5 -9q5 -2 5 -8z" />
    <glyph glyph-name="omicron" unicode="&#x3bf;" horiz-adv-x="477" 
d="M235 -8q-67 0 -105 23.5t-57 60.5t-23.5 83.5t-4.5 93.5q0 37 6 80t25.5 79.5t57 60.5t101.5 24q65 0 104 -21t59.5 -55.5t27 -78t6.5 -89.5q0 -45 -5 -91.5t-24.5 -84t-59 -61.5t-108.5 -24zM235 464q-49 0 -79 -17t-46.5 -46.5t-22 -69.5t-5.5 -86q0 -47 5.5 -87.5
t22 -70.5t46.5 -47t79 -17q50 0 81.5 16.5t49 46t23.5 70t6 89.5t-6 89.5t-23 69t-48.5 44.5t-82.5 16z" />
    <glyph glyph-name="pi" unicode="&#x3c0;" horiz-adv-x="469" 
d="M419 6q0 -6 -6 -6h-25q-5 0 -5 6v453h-298v-453q0 -6 -7 -6h-22q-5 0 -5 6v476q0 6 8 6h354q5 0 5 -5l1 -477v0z" />
    <glyph glyph-name="rho" unicode="&#x3c1;" horiz-adv-x="475" 
d="M80 -169q0 -7 -4 -7h-24q-6 0 -6 7v435q0 66 14.5 110.5t40.5 71.5t61.5 38t76.5 11q97 0 145 -56.5t48 -184.5q0 -66 -9 -115.5t-30 -82.5t-56.5 -50t-88.5 -17q-29 0 -73 5.5t-92 25.5l-3 -1v-190zM237 465q-47 0 -77 -16.5t-47.5 -44.5t-24 -63.5t-6.5 -74.5v-215
q52 -16 92.5 -22.5t78.5 -6.5q42 0 69 15.5t43 45.5t22.5 74t6.5 101q0 63 -12.5 103.5t-34 63.5t-50 31.5t-60.5 8.5z" />
    <glyph glyph-name="sigma1" unicode="&#x3c2;" horiz-adv-x="404" 
d="M327 122q0 30 -7 49.5t-21.5 32t-38 19.5t-56.5 13q-37 6 -67 13t-51 20.5t-32.5 35.5t-11.5 58q0 65 38.5 99.5t121.5 34.5q13 0 31 -1t37.5 -3.5t38 -6.5t33.5 -9q5 -2 5 -8l-2 -10q0 -5 -7 -5q-14 1 -31 3t-35.5 4t-37 3t-33.5 1q-63 0 -93 -23t-30 -76q0 -28 8.5 -45
t24.5 -27t39.5 -15t53.5 -10q36 -6 65 -13.5t50 -22.5t32.5 -39t11.5 -63q0 -77 -46 -107.5t-124 -30.5q-14 0 -33 1t-39.5 3t-40 5.5t-34.5 8.5q-5 2 -5 8l2 10q0 5 8 5q13 -2 32.5 -3.5t40 -3.5t39.5 -3t31 -1q28 0 52.5 5t42.5 16t28 30t10 48z" />
    <glyph glyph-name="sigma" unicode="&#x3c3;" horiz-adv-x="485" 
d="M235 455q-50 0 -80.5 -17t-46.5 -46t-21 -68.5t-5 -85.5q0 -47 5.5 -86.5t22 -68t46.5 -44.5t79 -16q50 0 81.5 15.5t49 43.5t23.5 67.5t6 88.5t-6.5 89t-24 68.5t-48.5 44t-81 15.5zM471 489q5 0 5 -6v-18q0 -5 -5 -5h-119q25 -16 40.5 -39.5t24.5 -51.5t12 -59.5
t3 -63.5q0 -45 -5 -90.5t-24.5 -82t-59 -59t-108.5 -22.5q-67 0 -105 22t-57 58t-23.5 81.5t-4.5 92.5q0 37 5.5 79.5t25 79t57.5 60.5t102 24h236z" />
    <glyph glyph-name="tau" unicode="&#x3c4;" horiz-adv-x="317" 
d="M19 460q-6 0 -6 5v17q0 6 7 6h274q5 0 5 -5v-18q0 -5 -5 -5h-133v-365q0 -17 1.5 -30t7.5 -22.5t18.5 -14.5t34.5 -5q14 0 36 1t34 3q5 1 6 -0.5t2 -4.5l2 -9q1 -5 -0.5 -6l-4.5 -3q-10 -3 -34.5 -7.5t-56.5 -4.5q-47 0 -63.5 21.5t-16.5 70.5v376h-108z" />
    <glyph glyph-name="upsilon" unicode="&#x3c5;" horiz-adv-x="481" 
d="M391 481q0 6 6 6h25q4 0 4 -6v-310q0 -38 -10.5 -70.5t-33 -56.5t-58 -37.5t-86.5 -13.5t-86 12t-56.5 35t-31 56t-9.5 75v310q0 6 6 6h24q4 0 4 -6l1 -309q0 -30 5.5 -57t21.5 -47.5t44.5 -32.5t75.5 -12q43 0 72.5 11.5t47.5 31.5t26 47t8 59v309v0z" />
    <glyph glyph-name="phi" unicode="&#x3c6;" horiz-adv-x="597" 
d="M552 242q0 -112 -56.5 -177t-181.5 -70v-165q0 -6 -4 -6h-24q-6 0 -6 6v165q-77 3 -123 26.5t-71 59.5t-33 81.5t-8 92.5q0 31 5 64.5t18 65t35.5 57.5t57.5 43q4 1 8 -2l9 -13q2 -4 -2 -7q-30 -18 -48.5 -43t-28.5 -54.5t-13.5 -60t-3.5 -58.5q0 -102 47.5 -160
t151.5 -60l1 453q0 9 3.5 12t10.5 3h30q70 0 114 -21.5t69 -57t34 -81t9 -93.5zM515 240q0 45 -8 85.5t-30.5 71t-61.5 49t-101 18.5v-438q103 8 152 59.5t49 154.5z" />
    <glyph glyph-name="chi" unicode="&#x3c7;" horiz-adv-x="405" 
d="M225 248l162 -240q6 -8 -4 -8h-23q-8 0 -12 5l-144 217l-142 -217q-4 -5 -12 -5h-25q-7 0 -3 7l161 241l-151 231q-2 2 -1.5 5t5.5 3h23q6 0 10 -6l135 -207l135 207q4 6 10 6h23q5 0 5 -3t-2 -5z" />
    <glyph glyph-name="psi" unicode="&#x3c8;" horiz-adv-x="535" 
d="M285 -170q0 -6 -5 -6h-24q-6 0 -6 6v167q-57 3 -95.5 15.5t-62 35t-33 53.5t-9.5 72q0 80 0.5 154t0.5 154q0 6 6 6h24q4 0 4 -6q0 -79 -0.5 -152.5t-0.5 -153.5q0 -30 7.5 -56.5t26.5 -46t51 -31.5t81 -13v488q0 6 6 6h25q4 0 4 -6v-488q48 1 80 13t51 31.5t27 46
t8 56.5q0 77 -0.5 153t-0.5 153q0 6 6 6h25q4 0 4 -6v-308q0 -81 -45 -125.5t-155 -51.5v-166v0z" />
    <glyph glyph-name="omega" unicode="&#x3c9;" horiz-adv-x="722" 
d="M360 70q-17 -35 -52 -56.5t-94 -21.5q-50 0 -82.5 18t-51.5 50t-27 77.5t-8 101.5q0 38 4 75t16.5 70t35 59.5t59.5 43.5q8 4 10 -1l8 -14q2 -5 -3 -8q-30 -14 -48 -39t-28 -56t-13.5 -65t-3.5 -66q0 -51 6.5 -90.5t22 -67.5t40.5 -42.5t63 -14.5q44 0 69.5 14t39 35
t17 46.5t3.5 48.5v160q0 6 6 6h25q4 0 4 -6l-1 -160q0 -24 4.5 -49.5t18 -46.5t39.5 -34.5t70 -13.5q37 0 62.5 14.5t40.5 42.5t21.5 67.5t6.5 90.5q0 32 -3.5 66t-13.5 65t-28 56t-48 39q-5 3 -3 8l8 14q2 4 4.5 3.5t5.5 -2.5q37 -17 59.5 -43.5t35 -59.5t16.5 -70t4 -75
q0 -56 -7.5 -101.5t-27 -77.5t-52 -50t-82.5 -18q-58 0 -94 21.5t-53 56.5h-1z" />
    <glyph glyph-name="iotadieresis" unicode="&#x3ca;" horiz-adv-x="197" 
d="M115 6q0 -6 -5 -6h-23q-6 0 -6 6v475q0 6 6 6h24q4 0 4 -6v-475zM34 615q0 -11 -4.5 -18.5t-19.5 -7.5q-16 0 -19.5 7.5t-3.5 18.5t4.5 17.5t18.5 6.5q15 0 19.5 -6.5t4.5 -17.5zM209 615q0 -11 -4.5 -18.5t-19.5 -7.5q-16 0 -19.5 7.5t-3.5 18.5t4.5 17.5t18.5 6.5
q15 0 19.5 -6.5t4.5 -17.5z" />
    <glyph glyph-name="upsilondieresis" unicode="&#x3cb;" horiz-adv-x="481" 
d="M181 615q0 -11 -4.5 -18.5t-19.5 -7.5q-16 0 -19.5 7.5t-3.5 18.5t4.5 17.5t18.5 6.5q15 0 19.5 -6.5t4.5 -17.5zM356 615q0 -11 -4.5 -18.5t-19.5 -7.5q-16 0 -19.5 7.5t-3.5 18.5t4.5 17.5t18.5 6.5q15 0 19.5 -6.5t4.5 -17.5zM391 481q0 6 6 6h25q4 0 4 -6v-310
q0 -38 -10.5 -70.5t-33 -56.5t-58 -37.5t-86.5 -13.5t-86 12t-56.5 35t-31 56t-9.5 75v310q0 6 6 6h24q4 0 4 -6l1 -309q0 -30 5.5 -57t21.5 -47.5t44.5 -32.5t75.5 -12q43 0 72.5 11.5t47.5 31.5t26 47t8 59v309z" />
    <glyph glyph-name="omicrontonos" unicode="&#x3cc;" horiz-adv-x="477" 
d="M235 -8q-67 0 -105 23.5t-57 60.5t-23.5 83.5t-4.5 93.5q0 37 6 80t25.5 79.5t57 60.5t101.5 24q65 0 104 -21t59.5 -55.5t27 -78t6.5 -89.5q0 -45 -5 -91.5t-24.5 -84t-59 -61.5t-108.5 -24zM235 464q-49 0 -79 -17t-46.5 -46.5t-22 -69.5t-5.5 -86q0 -47 5.5 -87.5
t22 -70.5t46.5 -47t79 -17q50 0 81.5 16.5t49 46t23.5 70t6 89.5t-6 89.5t-23 69t-48.5 44.5t-82.5 16zM249 557q-3 -5 -7 -2l-12 6q-3 2 -4 2.5t1 5.5l67 129q2 4 3 4.5t6 -1.5l28 -13q5 -2 2 -7z" />
    <glyph glyph-name="upsilontonos" unicode="&#x3cd;" horiz-adv-x="481" 
d="M391 481q0 6 6 6h25q4 0 4 -6v-310q0 -38 -10.5 -70.5t-33 -56.5t-58 -37.5t-86.5 -13.5t-86 12t-56.5 35t-31 56t-9.5 75v310q0 6 6 6h24q4 0 4 -6l1 -309q0 -30 5.5 -57t21.5 -47.5t44.5 -32.5t75.5 -12q43 0 72.5 11.5t47.5 31.5t26 47t8 59v309zM245 557q-3 -5 -7 -2
l-12 6q-3 2 -4 2.5t1 5.5l67 129q2 4 3 4.5t6 -1.5l28 -13q5 -2 2 -7z" />
    <glyph glyph-name="omegatonos" unicode="&#x3ce;" horiz-adv-x="722" 
d="M360 70q-17 -35 -52 -56.5t-94 -21.5q-50 0 -82.5 18t-51.5 50t-27 77.5t-8 101.5q0 38 4 75t16.5 70t35 59.5t59.5 43.5q8 4 10 -1l8 -14q2 -5 -3 -8q-30 -14 -48 -39t-28 -56t-13.5 -65t-3.5 -66q0 -51 6.5 -90.5t22 -67.5t40.5 -42.5t63 -14.5q44 0 69.5 14t39 35
t17 46.5t3.5 48.5v160q0 6 6 6h25q4 0 4 -6l-1 -160q0 -24 4.5 -49.5t18 -46.5t39.5 -34.5t70 -13.5q37 0 62.5 14.5t40.5 42.5t21.5 67.5t6.5 90.5q0 32 -3.5 66t-13.5 65t-28 56t-48 39q-5 3 -3 8l8 14q2 4 4.5 3.5t5.5 -2.5q37 -17 59.5 -43.5t35 -59.5t16.5 -70t4 -75
q0 -56 -7.5 -101.5t-27 -77.5t-52 -50t-82.5 -18q-58 0 -94 21.5t-53 56.5h-1zM368 557q-3 -5 -7 -2l-12 6q-3 2 -4 2.5t1 5.5l67 129q2 4 3 4.5t6 -1.5l28 -13q5 -2 2 -7z" />
    <glyph glyph-name="afii10023" unicode="&#x401;" horiz-adv-x="471" 
d="M74 0q-5 0 -5 5v651q0 7 5 7h345q5 0 5 -6v-22q0 -6 -5 -6h-313v-268h282q5 0 5 -5v-20q0 -7 -5 -7h-282v-296h319q6 0 6 -5v-23q0 -5 -6 -5h-351zM192 753q0 -11 -4 -18t-19 -7q-16 0 -20 7.5t-4 17.5q0 11 5 18t19 7q15 0 19 -7t4 -18zM353 753q0 -11 -4 -18t-19 -7
q-16 0 -20 7.5t-4 17.5q0 11 5 18t19 7q15 0 19 -7t4 -18z" />
    <glyph glyph-name="afii10051" unicode="&#x402;" horiz-adv-x="672" 
d="M233 630v-215q45 21 95.5 37t105.5 16t93 -20t61.5 -52.5t33.5 -73.5t10 -83q0 -45 -8.5 -93.5t-31 -93.5t-61.5 -82.5t-100 -59.5q-1 0 -4.5 -1t-5.5 4l-5 11q-2 5 0 7.5t5 4.5q88 46 130.5 118t42.5 183q0 51 -13 88t-36 61t-54 35t-67 11q-23 0 -48.5 -5t-51 -12.5
t-49.5 -17t-43 -19.5v-372q0 -6 -5 -6h-24q-7 0 -7 6v624h-187q-6 0 -6 5v22q0 6 6 6h511q5 0 5 -6v-22q0 -5 -5 -5h-287z" />
    <glyph glyph-name="afii10052" unicode="&#x403;" horiz-adv-x="448" 
d="M422 635q0 -6 -5 -6h-308v-622q0 -7 -5 -7h-26q-6 0 -6 7v649q0 7 5 7h340q5 0 5 -6v-22zM206 711q-5 -2 -7 2l-8 11q-2 2 -2.5 3.5t3.5 4.5l120 83q4 2 5 2t4 -4l19 -24q3 -5 -2 -8z" />
    <glyph glyph-name="afii10053" unicode="&#x404;" horiz-adv-x="511" 
d="M49 324q0 70 9.5 133t36.5 110t74.5 75t123.5 28q16 0 39 -1t46.5 -3t46 -6t38.5 -10q7 -2 5 -9l-1 -11q-1 -3 -2.5 -4.5t-6.5 -0.5q-15 1 -33.5 2.5t-39.5 3t-42.5 2.5t-41.5 1q-69 0 -111 -26t-64.5 -67.5t-30 -94t-8.5 -105.5h279q5 0 5 -5v-20q0 -7 -5 -7h-279
q1 -56 10 -106.5t32.5 -89.5t64.5 -62t105 -23q17 0 38.5 0.5t43 2t42 2.5t35.5 3q8 0 9 -6l2 -11q0 -6 -6 -9q-16 -6 -40.5 -9.5t-49.5 -5.5t-47 -3t-33 -1q-75 0 -122.5 26t-74.5 71.5t-37 106t-10 129.5z" />
    <glyph glyph-name="afii10054" unicode="&#x405;" horiz-adv-x="500" 
d="M418 162q0 42 -11 70t-31.5 46t-51 28.5t-69.5 16.5q-47 8 -85 18.5t-65 29t-41.5 47t-14.5 73.5q0 87 54.5 132.5t148.5 45.5q44 0 89 -3.5t83 -17.5q7 -2 5 -9l-1 -11q-1 -3 -2.5 -4.5t-6.5 -0.5q-10 1 -29.5 3t-43 4t-48 3t-43.5 1q-85 0 -126 -37.5t-41 -102.5
q0 -37 13.5 -60.5t36 -38t52.5 -22t63 -13.5q41 -8 78 -18t64.5 -30t44 -52.5t16.5 -84.5q0 -51 -17 -86.5t-46.5 -57t-69 -31t-84.5 -9.5q-15 0 -41 2t-54 5.5t-53 8t-38 9.5q-7 3 -5 10l2 11q2 6 9 5q23 -3 48.5 -5.5t50 -4.5t46 -3t37.5 -1q81 0 129 35t48 99z" />
    <glyph glyph-name="afii10055" unicode="&#x406;" horiz-adv-x="224" 
d="M129 6q0 -6 -5 -6h-26q-5 0 -5 6v651q0 6 5 6h26q5 0 5 -6v-651v0z" />
    <glyph glyph-name="afii10056" unicode="&#x407;" horiz-adv-x="224" 
d="M129 6q0 -6 -5 -6h-26q-5 0 -5 6v651q0 6 5 6h26q5 0 5 -6v-651zM53 753q0 -11 -4 -18t-19 -7q-16 0 -20 7.5t-4 17.5q0 11 5 18t19 7q15 0 19 -7t4 -18zM214 753q0 -11 -4 -18t-19 -7q-16 0 -20 7.5t-4 17.5q0 11 5 18t19 7q15 0 19 -7t4 -18z" />
    <glyph glyph-name="afii10057" unicode="&#x408;" horiz-adv-x="395" 
d="M305 163q0 -38 -8 -70t-28 -55t-53 -35.5t-84 -12.5q-10 0 -24.5 1t-30 3t-32 6t-30.5 9q-6 4 -5 9l3 11q1 7 9 6q40 -5 68 -6t40 -1q43 0 70.5 11t42.5 31t20 48t5 62v477q0 6 5 6h27q5 0 5 -6v-494v0z" />
    <glyph glyph-name="afii10058" unicode="&#x409;" horiz-adv-x="854" 
d="M467 663q6 0 6 -7l-1 -278h182q54 0 88.5 -17t54.5 -44.5t28 -62.5t8 -70q0 -46 -14.5 -80.5t-40 -57.5t-60 -34.5t-75.5 -11.5h-201q-7 0 -7 6v624h-241l-28 -444q-3 -44 -11 -78.5t-24.5 -59.5t-43 -39.5t-66.5 -16.5q-11 -1 -13.5 2t-2.5 11v12q0 6 2 7t9 2
q35 4 56.5 18.5t34 38.5t17.5 59t8 80l26 435q0 6 5 6h304zM632 33q36 0 66 9t51.5 28t34 48t12.5 68q0 54 -16 85.5t-39.5 48t-50 21.5t-46.5 5h-172v-313h160z" />
    <glyph glyph-name="afii10059" unicode="&#x40a;" horiz-adv-x="783" 
d="M581 378q50 0 84 -17t54.5 -44.5t29.5 -62.5t9 -70q0 -46 -14.5 -80.5t-40 -57.5t-60 -34.5t-75.5 -11.5h-201q-7 0 -7 6v340h-252v-340q0 -6 -5 -6h-26q-5 0 -5 6v651q0 6 5 6h26q5 0 5 -6v-279h252v278q0 7 7 7h24q6 0 6 -7v-278h184zM557 33q36 0 66 9t51.5 28t34 48
t12.5 68q0 54 -18.5 85.5t-43 48t-50 21.5t-38.5 5h-174v-313h160z" />
    <glyph glyph-name="afii10060" unicode="&#x40b;" horiz-adv-x="684" 
d="M463 466q49 0 81.5 -15.5t52.5 -41.5t28.5 -60t8.5 -70v-273q0 -6 -5 -6h-27q-4 0 -4 6v277q0 68 -33 107.5t-104 39.5q-23 0 -53 -6t-61 -15t-58.5 -19t-46.5 -19v-365q0 -6 -6 -6h-23q-7 0 -7 6v624h-187q-6 0 -6 5v22q0 6 6 6l527 -1q5 0 5 -6v-22q0 -5 -5 -5l-303 1
v-222q18 8 44 18t55.5 19t60.5 15t60 6z" />
    <glyph glyph-name="afii10061" unicode="&#x40c;" horiz-adv-x="524" 
d="M106 360h156q14 0 30.5 3t33 13t30.5 28t24 47l66 201q3 11 12 11h15q11 0 7 -11l-66 -204q-14 -43 -32.5 -68t-49.5 -32q38 -8 57.5 -32t36.5 -77l68 -227q3 -12 -6 -12h-18q-5 0 -7.5 1t-4.5 7l-68 228q-9 29 -20.5 47t-26.5 27.5t-33.5 13t-42.5 3.5h-161v-319
q0 -8 -7 -8h-23q-6 0 -6 8v648q0 7 6 7h23q7 0 7 -7v-296zM217 711q-5 -2 -7 2l-8 11q-2 2 -2.5 3.5t3.5 4.5l120 83q4 2 5 2t4 -4l19 -24q3 -5 -2 -8z" />
    <glyph glyph-name="afii10062" unicode="&#x40e;" horiz-adv-x="485" 
d="M423 658q2 4 4 4.5t4 0.5h24q7 0 5 -5l-197 -508q-15 -39 -28 -68.5t-28 -49t-34.5 -29.5t-49.5 -12q-16 -1 -32 1.5t-29 7.5q-6 4 -5 9l3 13q2 9 13 7q17 -4 28.5 -5t20.5 0q36 3 54.5 27.5t36.5 69.5l12 30l-202 507q-3 5 6 5h27q5 0 7 -5l181 -461zM248 703
q-35 0 -68.5 17t-52.5 55q-2 5 -4.5 11t2.5 10l10 7q8 6 13 -3q24 -36 46.5 -49.5t54.5 -13.5q26 0 49.5 14.5t48.5 49.5q5 7 13 3l9 -6q5 -4 2.5 -9t-5.5 -12q-21 -39 -52.5 -56.5t-65.5 -17.5z" />
    <glyph glyph-name="afii10145" unicode="&#x40f;" horiz-adv-x="570" 
d="M308 -138q-1 -11 -3 -14.5t-6 -3.5h-15q-5 0 -7 3.5t-2 14.5l-6 138h-188q-5 0 -5 6v651q0 6 5 6h26q5 0 5 -6v-624h355v624q0 6 7 6h24q5 0 5 -6v-651q0 -6 -5 -6h-184z" />
    <glyph glyph-name="afii10017" unicode="&#x410;" horiz-adv-x="522" 
d="M501 6q2 -4 1.5 -5t-5.5 -1h-27q-2 0 -4 0.5t-4 5.5l-58 181h-289l-58 -181q-1 -5 -2.5 -5.5t-4.5 -0.5h-25q-8 0 -6 6l217 650q2 5 3.5 5.5t4.5 0.5h31q5 0 8 -7zM260 620h-3l-131 -400h267z" />
    <glyph glyph-name="afii10018" unicode="&#x411;" horiz-adv-x="482" 
d="M401 662q5 0 5 -6v-21q0 -6 -5 -6l-300 1v-253h164q50 0 85.5 -17t58 -44.5t33 -62t10.5 -69.5q0 -46 -14.5 -80t-40 -56.5t-60 -34t-75.5 -11.5l-191 -1q-7 0 -7 6v649q0 7 7 7zM250 35q36 0 66 9t51.5 27.5t34 47t12.5 67.5q0 54 -18.5 85.5t-43 48t-50 21.5t-38.5 5
h-163v-311h149z" />
    <glyph glyph-name="afii10019" unicode="&#x412;" horiz-adv-x="525" 
d="M483 172q0 -40 -12.5 -71.5t-34.5 -54t-52.5 -34.5t-66.5 -12h-241q-8 0 -10 2.5t-2 5.5v647q0 7 7 7l214 1q85 0 131.5 -44.5t46.5 -115.5q0 -17 -3 -38.5t-13 -42.5t-28.5 -40.5t-48.5 -32.5v-1q33 -11 55 -31t35 -45t18 -51.5t5 -48.5zM102 629v-268h169
q75 0 113 37.5t38 97.5q0 59 -35 96t-111 37h-174zM102 329v-296h191q43 0 72 11.5t46 31.5t24 46.5t7 56.5q0 28 -9.5 55t-28.5 48t-47.5 34t-65.5 13h-189z" />
    <glyph glyph-name="afii10020" unicode="&#x413;" horiz-adv-x="448" 
d="M422 635q0 -6 -5 -6h-308v-622q0 -7 -5 -7h-26q-6 0 -6 7v649q0 7 5 7h340q5 0 5 -6v-22v0z" />
    <glyph glyph-name="afii10021" unicode="&#x414;" horiz-adv-x="604" 
d="M48 -131q-1 -11 -3 -14.5t-6 -3.5h-15q-5 0 -7 3.5t-2 14.5l-4 138q-1 11 1.5 15t8.5 6l28 5q39 35 59.5 97.5t26.5 140.5l28 380q0 4 2.5 8t8.5 4h352q5 0 5 -6v-624l30 -3q8 -2 10.5 -5.5t2.5 -12.5l-5 -143q-1 -11 -3 -14.5t-6 -3.5h-14q-5 0 -8 3.5t-3 14.5l-6 131
h-476zM495 630h-297l-27 -351q-3 -38 -8.5 -74.5t-14 -69t-21 -59t-29.5 -43.5h397v597z" />
    <glyph glyph-name="afii10022" unicode="&#x415;" horiz-adv-x="471" 
d="M74 0q-5 0 -5 5v651q0 7 5 7h345q5 0 5 -6v-22q0 -6 -5 -6h-313v-268h282q5 0 5 -5v-20q0 -7 -5 -7h-282v-296h319q6 0 6 -5v-23q0 -5 -6 -5h-351z" />
    <glyph glyph-name="afii10024" unicode="&#x416;" horiz-adv-x="794" 
d="M415 360h126q14 0 30.5 3t33 13t30.5 28t24 47l66 201q3 11 12 11h15q11 0 7 -11l-66 -204q-14 -43 -32.5 -68t-49.5 -32q38 -8 57.5 -32t36.5 -77l68 -227q3 -12 -6 -12h-18q-5 0 -7.5 1t-4.5 7l-68 228q-9 29 -20.5 47t-26.5 27.5t-33.5 13t-42.5 3.5h-131v-319
q0 -8 -7 -8h-23q-6 0 -6 8v319h-131q-24 0 -42.5 -3.5t-33.5 -13t-26.5 -27.5t-20.5 -47l-68 -228q-2 -6 -4.5 -7t-7.5 -1h-18q-9 0 -6 12l68 227q17 53 36.5 77t57.5 32q-31 7 -49.5 32t-32.5 68l-66 204q-4 11 7 11h15q9 0 12 -11l66 -201q10 -29 24 -47t30.5 -28t33 -13
t30.5 -3h126v296q0 7 6 7h23q7 0 7 -7v-296z" />
    <glyph glyph-name="afii10025" unicode="&#x417;" horiz-adv-x="468" 
d="M282 353q66 -15 103.5 -53t37.5 -113q0 -54 -18 -91.5t-49.5 -60.5t-75 -33t-93.5 -10q-17 0 -41 1.5t-48.5 4.5t-48 7.5t-40.5 11.5q-7 2 -5 9l2 11q1 6 9 5q22 -4 47.5 -6.5t50.5 -4.5t46.5 -3t34.5 -1q84 0 136 37t52 116q0 45 -13 74t-37 46.5t-58.5 24.5t-77.5 7
h-24q-7 0 -7 6v21q0 7 7 7h14q36 0 69.5 10.5t59 29.5t40.5 45.5t15 57.5q0 43 -16.5 68.5t-41.5 38.5t-53.5 16.5t-53.5 3.5q-13 0 -32.5 -1t-40.5 -3.5t-42 -5.5t-36 -6q-6 -2 -7 -0.5t-3 5.5l-3 10q-2 5 -0.5 6.5t6.5 3.5q22 8 45 13.5t44.5 8.5t40 4.5t31.5 1.5
q56 0 95 -10.5t63 -31t35 -51t11 -69.5q0 -24 -8 -48.5t-24 -45.5t-40.5 -37t-57.5 -25v-2z" />
    <glyph glyph-name="afii10026" unicode="&#x418;" horiz-adv-x="603" 
d="M70 656q0 7 7 7h24q5 0 5 -7v-592h2l383 593l3 4.5t6 1.5h27q6 0 6 -7l1 -649q0 -7 -7 -7h-24q-5 0 -5 7v592h-2l-383 -593q-2 -4 -3 -5t-6 -1h-27q-6 0 -6 7z" />
    <glyph glyph-name="afii10027" unicode="&#x419;" horiz-adv-x="603" 
d="M295 703q-35 0 -68.5 17t-52.5 55q-2 5 -4.5 11t2.5 10l10 7q8 6 13 -3q24 -36 46.5 -49.5t54.5 -13.5q26 0 49.5 14.5t48.5 49.5q5 7 13 3l9 -6q5 -4 2.5 -9t-5.5 -12q-21 -39 -52.5 -56.5t-65.5 -17.5zM70 656q0 7 7 7h24q5 0 5 -7v-592h2l383 593l3 4.5t6 1.5h27
q6 0 6 -7l1 -649q0 -7 -7 -7h-24q-5 0 -5 7v592h-2l-383 -593q-2 -4 -3 -5t-6 -1h-27q-6 0 -6 7z" />
    <glyph glyph-name="afii10028" unicode="&#x41a;" horiz-adv-x="524" 
d="M106 360h156q14 0 30.5 3t33 13t30.5 28t24 47l66 201q3 11 12 11h15q11 0 7 -11l-66 -204q-14 -43 -32.5 -68t-49.5 -32q38 -8 57.5 -32t36.5 -77l68 -227q3 -12 -6 -12h-18q-5 0 -7.5 1t-4.5 7l-68 228q-9 29 -20.5 47t-26.5 27.5t-33.5 13t-42.5 3.5h-161v-319
q0 -8 -7 -8h-23q-6 0 -6 8v648q0 7 6 7h23q7 0 7 -7v-296z" />
    <glyph glyph-name="afii10029" unicode="&#x41b;" horiz-adv-x="573" 
d="M166 186q-3 -44 -11 -78.5t-24.5 -59.5t-43 -39.5t-66.5 -16.5q-11 -1 -13.5 2t-2.5 11v12q0 6 2 7t9 2q35 4 56.5 18.5t34 38.5t17.5 59t8 80l26 435q0 6 5 6h334q5 0 5 -6v-651q0 -6 -5 -6h-24q-7 0 -7 6v624h-272z" />
    <glyph glyph-name="afii10030" unicode="&#x41c;" horiz-adv-x="713" 
d="M640 7q0 -7 -5 -7h-24q-7 0 -7 7v580h-2l-226 -467q-4 -7 -8 -7h-22q-8 0 -10 6l-225 468h-2v-580q0 -7 -5 -7h-24q-7 0 -7 7v649q0 7 6 7h28q7 0 9 -6l240 -500h1l239 498q2 5 3 6.5t9 1.5h24q8 0 8 -8v-648v0z" />
    <glyph glyph-name="afii10031" unicode="&#x41d;" horiz-adv-x="570" 
d="M470 0q-7 0 -7 6v330h-355v-330q0 -6 -5 -6h-26q-5 0 -5 6v651q0 6 5 6h26q5 0 5 -6v-289h355v289q0 6 7 6h24q5 0 5 -6v-651q0 -6 -5 -6h-24z" />
    <glyph glyph-name="afii10032" unicode="&#x41e;" horiz-adv-x="616" 
d="M551 341q0 -63 -7.5 -125.5t-33 -112.5t-74.5 -81t-132 -31t-130.5 31t-72.5 81t-31.5 112.5t-6.5 125.5q0 33 3 70.5t12 74t25.5 70t43.5 59t65.5 41t91.5 15.5q80 0 128.5 -28t75 -74t35 -105.5t8.5 -122.5zM516 331q0 69 -9.5 125.5t-33.5 97t-65 62.5t-104 22
q-60 0 -99.5 -23.5t-63 -64.5t-32.5 -97t-9 -122q0 -63 8.5 -119t31 -98t62 -66t102.5 -24q61 0 101.5 22.5t65 63.5t35 97t10.5 124z" />
    <glyph glyph-name="afii10033" unicode="&#x41f;" horiz-adv-x="570" 
d="M470 0q-7 0 -7 6v624h-355v-624q0 -6 -5 -6h-26q-5 0 -5 6v651q0 6 5 6h417q5 0 5 -6v-651q0 -6 -5 -6h-24z" />
    <glyph glyph-name="afii10034" unicode="&#x420;" horiz-adv-x="482" 
d="M101 287v-280q0 -7 -6 -7h-24q-7 0 -7 7v650q0 6 7 6h191q41 0 75.5 -11.5t60 -34.5t40 -57t14.5 -80q0 -35 -10.5 -69.5t-33 -62t-58 -44.5t-85.5 -17h-164zM101 629v-310h163q13 0 38.5 4.5t50 21t43 48t18.5 85.5q0 39 -12.5 67.5t-34 47t-51.5 27.5t-66 9h-149z" />
    <glyph glyph-name="afii10035" unicode="&#x421;" horiz-adv-x="511" 
d="M71 324q0 70 9.5 133t36.5 110t74.5 75t123.5 28q16 0 39 -1t46.5 -3t46 -6t38.5 -10q7 -2 5 -9l-1 -11q-1 -3 -2.5 -4.5t-6.5 -0.5q-15 1 -33.5 2.5t-39.5 3t-42.5 2.5t-41.5 1q-72 0 -114.5 -28t-64.5 -72t-28.5 -99.5t-6.5 -110.5q0 -58 8 -111.5t31.5 -94.5t65 -65.5
t107.5 -24.5q17 0 38.5 0.5t43 2t42 2.5t35.5 3q8 0 9 -6l2 -11q0 -6 -6 -9q-16 -6 -40.5 -9.5t-49.5 -5.5t-47 -3t-33 -1q-75 0 -122.5 26t-74.5 71.5t-37 106t-10 129.5z" />
    <glyph glyph-name="afii10036" unicode="&#x422;" horiz-adv-x="455" 
d="M247 630l-1 -624q0 -6 -5 -6h-24q-7 0 -7 6v624h-187q-6 0 -6 5v22q0 6 6 6h412q5 0 5 -6v-22q0 -5 -5 -5h-188z" />
    <glyph glyph-name="afii10037" unicode="&#x423;" horiz-adv-x="485" 
d="M423 658q2 4 4 4.5t4 0.5h24q7 0 5 -5l-197 -508q-15 -39 -28 -68.5t-28 -49t-34.5 -29.5t-49.5 -12q-16 -1 -32 1.5t-29 7.5q-6 4 -5 9l3 13q2 9 13 7q17 -4 28.5 -5t20.5 0q36 3 54.5 27.5t36.5 69.5l12 30l-202 507q-3 5 6 5h27q5 0 7 -5l181 -461z" />
    <glyph glyph-name="afii10038" unicode="&#x424;" horiz-adv-x="688" 
d="M366 65q67 4 112 25t72 56t38.5 82t11.5 104q0 40 -7 87t-31.5 86.5t-71 66.5t-124.5 28v-535zM329 601q-75 -4 -122.5 -28.5t-74.5 -61.5t-37 -83t-10 -94q0 -56 12 -104t40.5 -83t75 -56.5t116.5 -25.5v536zM365 6q0 -6 -5 -6h-26q-5 0 -5 6v29q-83 2 -137 28.5
t-86 68.5t-44.5 95t-12.5 107q0 136 68 213.5t212 84.5v25q0 6 5 6h26q5 0 5 -6v-25q75 -3 126.5 -24.5t84 -60t46.5 -92.5t14 -121q0 -66 -15 -119.5t-47 -92t-84 -61.5t-125 -27v-28z" />
    <glyph glyph-name="afii10039" unicode="&#x425;" horiz-adv-x="496" 
d="M271 343l199 -337q2 -6 -5 -6h-28q-4 0 -8 6l-180 306l-181 -306q-2 -6 -8 -6h-27q-3 0 -5 1t0 5l199 337l-185 314q-2 3 0.5 4.5t4.5 1.5h26q5 0 6 -2t3 -4l167 -283l166 283q4 6 9 6h27q2 0 4.5 -1.5t0.5 -4.5z" />
    <glyph glyph-name="afii10040" unicode="&#x426;" horiz-adv-x="582" 
d="M504 0h-423q-5 0 -5 6v651q0 6 5 6h26q5 0 5 -6v-624h355v624q0 6 7 6h24q5 0 5 -6v-622l30 -3q8 -1 11 -4t2 -14l-7 -145q-1 -10 -3.5 -12.5t-7.5 -2.5h-10q-5 0 -8 2t-3 13z" />
    <glyph glyph-name="afii10041" unicode="&#x427;" horiz-adv-x="514" 
d="M33 656q0 7 8 7h22q7 0 7 -6v-180q0 -51 14 -81.5t36 -47t48.5 -22t51.5 -5.5q50 0 93.5 8t92.5 25v302q0 7 8 7h22q7 0 7 -6v-650q0 -7 -7 -7h-24q-6 0 -6 7v314q-42 -15 -92 -25t-104 -10q-55 0 -89.5 16.5t-54 43.5t-26.5 61.5t-7 69.5v179z" />
    <glyph glyph-name="afii10042" unicode="&#x428;" horiz-adv-x="844" 
d="M764 663q5 0 5 -6v-651q0 -6 -5 -6h-683q-5 0 -5 6v651q0 6 5 6h26q5 0 5 -6v-624h291v624q0 6 5 6h26q5 0 5 -6v-624h294v624q0 6 7 6h24z" />
    <glyph glyph-name="afii10043" unicode="&#x429;" horiz-adv-x="848" 
d="M439 33h294v624q0 6 7 6h24q5 0 5 -6v-622l30 -3q8 -1 11 -4t2 -14l-7 -145q-1 -10 -3.5 -12.5t-7.5 -2.5h-10q-5 0 -8 2t-3 13l-3 131h-689q-5 0 -5 6v651q0 6 5 6h26q5 0 5 -6v-624h291v624q0 6 5 6h26q5 0 5 -6v-624z" />
    <glyph glyph-name="afii10044" unicode="&#x42a;" horiz-adv-x="639" 
d="M252 378h184q50 0 84 -17t54.5 -44.5t29.5 -62.5t9 -70q0 -46 -14.5 -80.5t-40 -57.5t-60 -34.5t-75.5 -11.5h-201q-7 0 -7 6v624h-208q-5 0 -5 5v22q0 6 5 6h239q6 0 6 -7v-278zM412 33q36 0 66 9t51.5 28t34 48t12.5 68q0 54 -18.5 85.5t-43 48t-50 21.5t-38.5 5h-174
v-313h160z" />
    <glyph glyph-name="afii10045" unicode="&#x42b;" horiz-adv-x="657" 
d="M585 6q0 -6 -5 -6h-26q-5 0 -5 6v651q0 6 5 6h26q5 0 5 -6v-651zM293 378q50 0 84 -17t54.5 -44.5t29.5 -62.5t9 -70q0 -46 -14.5 -80.5t-40 -57.5t-60 -34.5t-75.5 -11.5h-201q-7 0 -7 6v650q0 7 7 7h24q6 0 6 -7v-278h184zM269 33q36 0 66 9t51.5 28t34 48t12.5 68
q0 54 -18.5 85.5t-43 48t-50 21.5t-38.5 5h-174v-313h160z" />
    <glyph glyph-name="afii10046" unicode="&#x42c;" horiz-adv-x="495" 
d="M293 378q50 0 84 -17t54.5 -44.5t29.5 -62.5t9 -70q0 -46 -14.5 -80.5t-40 -57.5t-60 -34.5t-75.5 -11.5h-201q-7 0 -7 6v650q0 7 7 7h24q6 0 6 -7v-278h184zM269 33q36 0 66 9t51.5 28t34 48t12.5 68q0 54 -18.5 85.5t-43 48t-50 21.5t-38.5 5h-174v-313h160z" />
    <glyph glyph-name="afii10047" unicode="&#x42d;" horiz-adv-x="511" 
d="M461 338q0 -69 -10.5 -132t-38.5 -110.5t-75.5 -76t-122.5 -28.5q-11 0 -33 1t-47 3t-49.5 5.5t-40.5 9.5q-6 3 -6 9l2 11q1 6 9 6q15 -2 35 -3t42 -2.5t43.5 -2t38.5 -0.5q66 0 107.5 25.5t65 67.5t32.5 95.5t10 109.5h-279q-5 0 -5 7v20q0 5 5 5h279q-1 49 -8.5 98.5
t-30 89t-64.5 64t-111 24.5q-40 0 -78 -3.5t-67 -5.5q-5 -1 -6.5 0.5t-2.5 4.5l-1 11q-2 7 5 9q16 6 36.5 10t42 6t42 3t37.5 1q77 0 125 -25.5t74.5 -70.5t35.5 -105.5t9 -130.5z" />
    <glyph glyph-name="afii10048" unicode="&#x42e;" horiz-adv-x="729" 
d="M669 341q0 -63 -7 -125.5t-31 -112.5t-70.5 -81t-125.5 -31q-78 0 -123.5 30.5t-69 79.5t-30 110.5t-6.5 124.5h-98v-330q0 -6 -5 -6h-26q-5 0 -5 6v651q0 6 5 6h26q5 0 5 -6v-289h98q1 49 10.5 102.5t34 98t69 73.5t115.5 29q76 0 122 -28t71 -74t33 -105.5t8 -122.5z
M634 331q0 69 -8.5 125.5t-31 97t-61 62.5t-98.5 22q-57 0 -94.5 -23.5t-59 -64.5t-30 -97t-8.5 -122q0 -63 7.5 -119t28.5 -98t58.5 -66t97.5 -24q58 0 96 22.5t61 63.5t32.5 97t9.5 124z" />
    <glyph glyph-name="afii10049" unicode="&#x42f;" horiz-adv-x="523" 
d="M414 297h-156q-24 0 -44.5 -3.5t-37.5 -13t-30.5 -27.5t-22.5 -47l-58 -198q-2 -6 -4.5 -7t-7.5 -1h-18q-9 0 -6 12l58 197q14 45 31 68.5t49 34.5q-29 7 -48.5 23.5t-32 38.5t-18 47.5t-5.5 52.5q0 48 16 84t43 59t62.5 34.5t75.5 11.5h184q7 0 7 -6v-650q0 -7 -7 -7
h-24q-6 0 -6 7v290zM272 629q-36 0 -67 -9t-54 -28t-36.5 -48.5t-13.5 -71.5q0 -54 20.5 -83t48 -42t55 -15t41.5 -2h148v299h-142z" />
    <glyph glyph-name="afii10065" unicode="&#x430;" horiz-adv-x="495" 
d="M388 60q-25 -15 -49 -27.5t-50.5 -21.5t-56.5 -14.5t-67 -5.5q-62 0 -91 32t-29 96q0 86 41 124t129 38h173v58q0 31 -5.5 55t-20.5 39.5t-42.5 23.5t-70.5 8q-38 0 -75 -3.5t-75 -7.5q-7 0 -8 5l-2 11q0 5 5 7q17 6 38 10.5t42 7t39.5 3.5t32.5 1q51 0 85 -8.5t54.5 -28
t28.5 -51t8 -77.5v-272q0 -26 9.5 -32t37.5 -7q6 0 6 -6v-13q0 -7 -10 -8q-45 -3 -61 10t-16 54zM388 249h-177q-28 0 -51.5 -5t-41 -19t-27 -38.5t-9.5 -63.5q0 -58 22.5 -79t80.5 -21q26 0 57.5 8.5t60.5 20t52 23l33 16.5v158z" />
    <glyph glyph-name="afii10066" unicode="&#x431;" horiz-adv-x="478" 
d="M45 237q0 71 3.5 136t22.5 118.5t58 93t111 59.5q32 9 74 16.5t76 13.5q6 1 8.5 0t3.5 -6l2 -12q1 -8 -1.5 -9.5t-6.5 -2.5q-41 -8 -70 -13t-55 -12q-47 -12 -80 -30.5t-54.5 -46.5t-33.5 -66t-17 -88l3 -2q21 32 63 56.5t97 24.5q62 0 98.5 -22.5t55.5 -55.5t24.5 -70
t5.5 -66q0 -42 -6 -88t-26.5 -84.5t-61 -63.5t-109.5 -25q-67 0 -104 24t-55 60t-22 79t-4 82zM243 434q-49 0 -80 -19.5t-49 -48.5t-24.5 -63t-6.5 -63q0 -47 5 -86.5t21 -68.5t45.5 -45.5t78.5 -16.5q50 0 82 17t50 47t24.5 70.5t6.5 87.5q0 34 -6 68t-22.5 61t-46.5 43.5
t-78 16.5z" />
    <glyph glyph-name="afii10067" unicode="&#x432;" horiz-adv-x="459" 
d="M330 255q27 -7 44.5 -21t27.5 -32t13.5 -36.5t3.5 -34.5q0 -59 -37.5 -95t-106.5 -36h-213q-8 0 -10 2.5t-2 5.5v473q0 7 8 7h200q38 0 65 -9.5t44.5 -26.5t25.5 -40t8 -49q0 -12 -2 -26t-9.5 -28.5t-21.5 -28t-38 -24.5v-1zM84 237v-208h172q35 0 59.5 8t39.5 22.5
t22 33t7 39.5q0 20 -6.5 39t-21.5 33.5t-40.5 23.5t-62.5 9h-169zM84 459v-193h150q64 0 98 26.5t34 69.5q0 42 -27 69.5t-91 27.5h-164z" />
    <glyph glyph-name="afii10068" unicode="&#x433;" horiz-adv-x="378" 
d="M368 466q0 -3 -1 -5t-6 -2h-268v-452q0 -7 -7 -7h-20q-5 0 -5.5 1t-0.5 6v474q0 7 5 7h296q7 0 7 -6v-16v0z" />
    <glyph glyph-name="afii10069" unicode="&#x434;" horiz-adv-x="527" 
d="M414 459h-232l-29 -243q-8 -64 -21.5 -110t-45.5 -77h328v430zM50 0l-6 -113q-1 -13 -10 -13h-10q-5 0 -7 2.5t-3 10.5l-4 124q0 9 2.5 12t8.5 5l24 3q39 35 53.5 76.5t21.5 97.5l30 255q2 14 8 21t30 7h251q9 0 9 -9v-449l24 -2q11 -1 11 -15l-6 -123q-1 -11 -3.5 -13.5
t-7.5 -2.5h-9q-5 0 -7 2t-3 11l-5 113h-392z" />
    <glyph glyph-name="afii10070" unicode="&#x435;" horiz-adv-x="460" 
d="M45 247q0 45 6.5 89.5t27 80.5t57.5 58t98 22q60 0 97.5 -18t58 -48.5t28 -70t7.5 -81.5q0 -22 -6.5 -32t-25.5 -10h-310q0 -42 5 -80.5t20.5 -68t45.5 -46.5t80 -17q40 0 76.5 3.5t76.5 7.5q8 0 9 -5l1 -9q2 -7 -4 -8q-15 -6 -36 -10t-43.5 -7t-44.5 -4t-38 -1
q-63 0 -100 21t-56 56t-24.5 81.5t-5.5 96.5zM234 464q-46 0 -75 -15t-45.5 -41.5t-23.5 -62.5t-8 -79h306q-1 38 -5.5 73.5t-20 63.5t-46 44.5t-82.5 16.5z" />
    <glyph glyph-name="afii10072" unicode="&#x436;" horiz-adv-x="666" 
d="M438 266q13 0 29 3t31 12t29 26t23 44l43 126q3 10 11 10h14q11 0 7 -10l-43 -128q-14 -41 -31.5 -64.5t-46.5 -30.5q36 -7 54 -30t35 -72l47 -141q3 -11 -6 -11h-17q-4 0 -6.5 1t-4.5 7l-47 141q-9 27 -20 44t-24.5 26.5t-31.5 12.5t-40 3h-93v-227q0 -8 -7 -8h-21
q-6 0 -6 8v227h-93q-23 0 -40.5 -3t-31 -12.5t-24.5 -26.5t-20 -44l-47 -141q-2 -6 -4.5 -7t-6.5 -1h-17q-9 0 -6 11l47 141q8 25 16.5 42.5t18.5 29.5t23 19.5t31 10.5q-29 7 -46.5 30.5t-31.5 64.5l-43 128q-4 10 7 10h14q8 0 11 -10l43 -126q9 -27 23 -44t29 -26
t30.5 -12t29.5 -3h88v215q0 7 6 7h21q7 0 7 -7v-215h88z" />
    <glyph glyph-name="afii10073" unicode="&#x437;" horiz-adv-x="402" 
d="M252 259q19 -1 38.5 -9t35.5 -23t26 -37t10 -49q0 -75 -52 -112t-149 -37q-29 0 -67 4t-73 16q-7 3 -5 10l2 10q2 7 10 6q27 -4 47 -7t35 -4.5t27 -2t23 -0.5q78 0 121.5 27.5t43.5 84.5q0 32 -12.5 53t-33 33t-47 16.5t-54.5 4.5h-21q-8 0 -8 7v18q0 6 8 6h17
q28 0 54 6.5t45 19.5t30.5 30.5t11.5 40.5q0 28 -10.5 46.5t-28.5 29.5t-43 15t-54 4q-11 0 -27 -1t-33.5 -2.5t-34.5 -3.5t-31 -4q-11 -2 -12 5l-1 7q-2 9 6 12q38 13 75.5 16t61.5 3q52 0 85 -10.5t52 -27.5t26 -40t7 -47q0 -18 -6 -36t-18.5 -33.5t-31.5 -27t-45 -15.5
v-2z" />
    <glyph glyph-name="afii10074" unicode="&#x438;" horiz-adv-x="474" 
d="M50 481q0 7 8 7h21q5 0 5 -7v-427l145 207l153 218q9 9 13 9h22q7 0 7 -7v-474q0 -7 -8 -7h-21q-5 0 -5 7v431l-128 -183l-176 -251q-1 -1 -3 -2.5t-5 -1.5h-21q-7 0 -7 7v474z" />
    <glyph glyph-name="afii10075" unicode="&#x439;" horiz-adv-x="474" 
d="M242 551q-35 0 -68.5 17t-52.5 55q-2 5 -4.5 11t2.5 10l10 7q8 6 13 -3q24 -36 46.5 -49.5t54.5 -13.5q26 0 49.5 14.5t48.5 49.5q5 7 13 3l9 -6q5 -4 2.5 -9t-5.5 -12q-21 -39 -52.5 -56.5t-65.5 -17.5zM50 481q0 7 8 7h21q5 0 5 -7v-427l145 207l153 218q9 9 13 9h22
q7 0 7 -7v-474q0 -7 -8 -7h-21q-5 0 -5 7v431l-128 -183l-176 -251q-1 -1 -3 -2.5t-5 -1.5h-21q-7 0 -7 7v474z" />
    <glyph glyph-name="afii10076" unicode="&#x43a;" horiz-adv-x="413" 
d="M190 266q13 0 29 3t31 12t29 26t23 44l43 126q3 10 11 10h14q11 0 7 -10l-43 -128q-14 -41 -31.5 -64.5t-46.5 -30.5q36 -7 54 -30t35 -72l47 -141q3 -11 -6 -11h-17q-4 0 -6.5 1t-4.5 7l-47 141q-9 27 -20 44t-24.5 26.5t-31.5 12.5t-40 3h-111v-227q0 -8 -7 -8h-21
q-6 0 -6 8v473q0 7 6 7h21q7 0 7 -7v-215h106z" />
    <glyph glyph-name="afii10077" unicode="&#x43b;" horiz-adv-x="504" 
d="M438 488q6 0 6 -6v-476q0 -6 -6 -6h-21q-8 0 -8 6v453h-225l-22 -290q-3 -33 -8 -65t-20.5 -57.5t-44 -40.5t-77.5 -13q-7 0 -7 7v14q0 6 3 7t8 1q34 2 54.5 12t32.5 30t17.5 50t8.5 72l20 262q2 23 10.5 31.5t31.5 8.5h247z" />
    <glyph glyph-name="afii10078" unicode="&#x43c;" horiz-adv-x="560" 
d="M510 7q0 -7 -5 -7h-21q-8 0 -8 7v418l-181 -337q-1 -2 -3 -4t-5 -2h-19q-9 0 -12 6q-24 42 -45 83.5t-41 83.5t-41 84.5t-45 84.5v-417q0 -7 -7 -7h-19q-8 0 -8 7v474q0 7 7 7h23q7 0 10 -5l187 -363l191 361q3 7 13 7h20q9 0 9 -8v-473v0z" />
    <glyph glyph-name="afii10079" unicode="&#x43d;" horiz-adv-x="469" 
d="M391 0q-8 0 -8 6v238h-298v-238q0 -6 -7 -6h-22q-5 0 -5 6v476q0 6 5 6h22q7 0 7 -6v-211h298v211q0 6 8 6h22q6 0 6 -6v-476q0 -6 -6 -6h-22z" />
    <glyph glyph-name="afii10080" unicode="&#x43e;" horiz-adv-x="477" 
d="M235 -8q-67 0 -105 23.5t-57 60.5t-23.5 83.5t-4.5 93.5q0 37 6 80t25.5 79.5t57 60.5t101.5 24q65 0 104 -21t59.5 -55.5t27 -78t6.5 -89.5q0 -45 -5 -91.5t-24.5 -84t-59 -61.5t-108.5 -24zM235 464q-49 0 -79 -17t-46.5 -46.5t-22 -69.5t-5.5 -86q0 -47 5.5 -87.5
t22 -70.5t46.5 -47t79 -17q50 0 81.5 16.5t49 46t23.5 70t6 89.5t-6 89.5t-23 69t-48.5 44.5t-82.5 16z" />
    <glyph glyph-name="afii10081" unicode="&#x43f;" horiz-adv-x="469" 
d="M419 6q0 -6 -6 -6h-25q-5 0 -5 6v453h-298v-453q0 -6 -7 -6h-22q-5 0 -5 6v476q0 6 8 6h354q5 0 5 -5l1 -477v0z" />
    <glyph glyph-name="afii10082" unicode="&#x440;" horiz-adv-x="479" 
d="M62 482q0 6 3 6h26q5 0 5 -6v-53q17 10 39.5 22t48.5 22t54.5 17t57.5 7q41 0 69 -14.5t44.5 -44.5t23.5 -76.5t7 -109.5q0 -65 -8 -114t-28.5 -81.5t-55 -49t-88.5 -16.5q-29 0 -71.5 5.5t-90.5 25.5l-3 -1v-191q0 -6 -5 -6h-25q-3 0 -3 6v652zM96 51q50 -15 91 -22
t79 -7q78 0 108 55t30 178q0 60 -7 100.5t-21.5 65t-36 34.5t-51.5 10q-22 0 -50 -8t-55 -18.5t-50.5 -22.5t-36.5 -19v-346z" />
    <glyph glyph-name="afii10083" unicode="&#x441;" horiz-adv-x="392" 
d="M377 19q1 -6 -5 -8q-15 -5 -35 -9t-41.5 -6.5t-41 -3.5t-32.5 -1q-59 0 -93.5 18.5t-53.5 52.5t-24.5 81t-5.5 104q0 51 6 96.5t25 79.5t55 54t96 20q13 0 32 -1t39 -3.5t39.5 -6.5t34.5 -9q6 -2 5 -8l-2 -10q-2 -6 -9 -5q-40 5 -72.5 8t-63.5 3q-42 0 -70.5 -11.5
t-46 -37.5t-25 -67.5t-7.5 -100.5q0 -62 7 -104.5t24 -69t45.5 -38.5t72.5 -12q31 0 70.5 3t66.5 7q5 1 6 -0.5t2 -4.5z" />
    <glyph glyph-name="afii10084" unicode="&#x442;" horiz-adv-x="398" 
d="M216 459v-453q0 -6 -7 -6h-19q-8 0 -8 6v453h-161q-8 0 -8 6v17q0 6 8 6h360q5 0 5 -6v-17q0 -6 -5 -6h-165z" />
    <glyph glyph-name="afii10085" unicode="&#x443;" horiz-adv-x="440" 
d="M176 -171q-1 -2 -2 -3.5t-6 -1.5h-20q-5 0 -6 0.5t0 5.5l55 159l-171 493q-2 5 4 5h24q8 0 10 -7l150 -441h2l161 442q2 7 10 7h21q5 0 5.5 -1.5t-0.5 -5.5l-237 -652v0z" />
    <glyph glyph-name="afii10086" unicode="&#x444;" horiz-adv-x="577" 
d="M271 657q0 6 6 6h24q4 0 4 -6v-160q65 -2 108.5 -21.5t70 -52.5t37.5 -76t11 -91q0 -51 -10 -97t-36 -82t-70 -58t-111 -24v-165q0 -6 -4 -6h-24q-6 0 -6 6v165q-68 0 -111.5 22t-69 58t-35.5 83t-10 98q0 47 11 90t37.5 76t69.5 53t108 22v160zM305 26q99 4 145 58
t46 164q0 103 -44.5 158.5t-146.5 57.5v-438zM272 464q-102 -2 -146.5 -57.5t-44.5 -158.5q0 -110 45 -163.5t146 -58.5v438z" />
    <glyph glyph-name="afii10087" unicode="&#x445;" horiz-adv-x="405" 
d="M225 248l162 -240q6 -8 -4 -8h-23q-8 0 -12 5l-144 217l-142 -217q-4 -5 -12 -5h-25q-7 0 -3 7l161 241l-151 231q-2 2 -1.5 5t5.5 3h23q6 0 10 -6l135 -207l135 207q4 6 10 6h23q5 0 5 -3t-2 -5z" />
    <glyph glyph-name="afii10088" unicode="&#x446;" horiz-adv-x="483" 
d="M422 0h-365q-7 0 -7 6v476q0 6 7 6h20q6 0 6 -6v-453h305v453q0 6 8 6h21q5 0 5 -6v-450l30 -1q11 -2 11 -15l-6 -123q-1 -11 -3.5 -13.5t-7.5 -2.5h-9q-5 0 -7 3t-3 12z" />
    <glyph glyph-name="afii10089" unicode="&#x447;" horiz-adv-x="444" 
d="M165 194q-50 0 -77.5 15t-40 40t-15 58.5t-2.5 69.5v102q0 6 5 6h28q3 0 3 -6v-106q0 -31 2 -58t12.5 -46.5t32 -31t59.5 -11.5q26 0 54 7t53.5 17t46.5 21t34 18v190q0 6 5 6h26q3 0 3 -6v-473q0 -6 -3 -6h-26q-5 0 -5 6v250q-15 -9 -37 -20t-48 -20t-54 -15.5t-56 -6.5
z" />
    <glyph glyph-name="afii10090" unicode="&#x448;" horiz-adv-x="706" 
d="M651 488q5 0 5 -6v-476q0 -6 -5 -6h-594q-7 0 -7 6v476q0 6 7 6h22q6 0 6 -6v-453h250v453q0 6 7 6h21q5 0 5.5 -1t0.5 -5v-453h253v453q0 6 8 6h21z" />
    <glyph glyph-name="afii10091" unicode="&#x449;" horiz-adv-x="718" 
d="M369 29h254v453q0 6 8 6h21q5 0 5 -6v-450l30 -1q11 -2 11 -15l-6 -123q-1 -11 -3.5 -13.5t-7.5 -2.5h-9q-5 0 -7 3t-3 12l-5 108h-600q-7 0 -7 6v476q0 6 7 6h22q6 0 6 -6v-453h250v453q0 6 7 6h21q5 0 5.5 -1t0.5 -5v-453z" />
    </font>
</defs>
</svg>
