<?xml version="1.0" encoding="UTF-8" standalone="no"?>
<!DOCTYPE svg PUBLIC "-//W3C//DTD SVG 1.1//EN"
 "http://www.w3.org/Graphics/SVG/1.1/DTD/svg11.dtd">
<!-- Generated by graphviz version 2.36.0 (20140111.2315)
 -->
<!-- Title: controllers_diagram Pages: 1 -->
<svg width="1409pt" height="1395pt"
 viewBox="0.00 0.00 1409.00 1395.00" xmlns="http://www.w3.org/2000/svg" xmlns:xlink="http://www.w3.org/1999/xlink">
<g id="graph0" class="graph" transform="scale(1 1) rotate(0) translate(4 1391)">
<title>controllers_diagram</title>
<polygon fill="white" stroke="none" points="-4,4 -4,-1391 1405,-1391 1405,4 -4,4"/>
<!-- _diagram_info -->
<g id="node1" class="node"><title>_diagram_info</title>
<text text-anchor="start" x="1070" y="-459.6" font-family="Times,serif" font-size="13.00">Controllers diagram</text>
<text text-anchor="start" x="1070" y="-445.6" font-family="Times,serif" font-size="13.00">Date: May 05 2015 &#45; 17:16</text>
<text text-anchor="start" x="1070" y="-431.6" font-family="Times,serif" font-size="13.00">Migration version: 20150429122525</text>
<text text-anchor="start" x="1070" y="-417.6" font-family="Times,serif" font-size="13.00">Generated by RailRoady 1.3.0</text>
<text text-anchor="start" x="1070" y="-403.6" font-family="Times,serif" font-size="13.00">http://railroady.prestonlee.com</text>
</g>
<!-- Api::ApplicationController -->
<g id="node2" class="node"><title>Api::ApplicationController</title>
<path fill="none" stroke="black" d="M822,-54.5C822,-54.5 962,-54.5 962,-54.5 968,-54.5 974,-60.5 974,-66.5 974,-66.5 974,-136.5 974,-136.5 974,-142.5 968,-148.5 962,-148.5 962,-148.5 822,-148.5 822,-148.5 816,-148.5 810,-142.5 810,-136.5 810,-136.5 810,-66.5 810,-66.5 810,-60.5 816,-54.5 822,-54.5"/>
<text text-anchor="middle" x="892" y="-133.3" font-family="Times,serif" font-size="14.00">Api::ApplicationController</text>
<polyline fill="none" stroke="black" points="810,-125.5 974,-125.5 "/>
<polyline fill="none" stroke="black" points="810,-101.5 974,-101.5 "/>
<polyline fill="none" stroke="black" points="810,-77.5 974,-77.5 "/>
<text text-anchor="start" x="818" y="-62.3" font-family="Times,serif" font-size="14.00">_layout</text>
</g>
<!-- Api::Admin::ApplicationController -->
<g id="node3" class="node"><title>Api::Admin::ApplicationController</title>
<path fill="none" stroke="black" d="M228,-1044.5C228,-1044.5 413,-1044.5 413,-1044.5 419,-1044.5 425,-1050.5 425,-1056.5 425,-1056.5 425,-1126.5 425,-1126.5 425,-1132.5 419,-1138.5 413,-1138.5 413,-1138.5 228,-1138.5 228,-1138.5 222,-1138.5 216,-1132.5 216,-1126.5 216,-1126.5 216,-1056.5 216,-1056.5 216,-1050.5 222,-1044.5 228,-1044.5"/>
<text text-anchor="middle" x="320.5" y="-1123.3" font-family="Times,serif" font-size="14.00">Api::Admin::ApplicationController</text>
<polyline fill="none" stroke="black" points="216,-1115.5 425,-1115.5 "/>
<polyline fill="none" stroke="black" points="216,-1091.5 425,-1091.5 "/>
<polyline fill="none" stroke="black" points="216,-1067.5 425,-1067.5 "/>
<text text-anchor="start" x="224" y="-1052.3" font-family="Times,serif" font-size="14.00">_layout</text>
</g>
<!-- Api::Admin::EventsController -->
<g id="node4" class="node"><title>Api::Admin::EventsController</title>
<path fill="none" stroke="black" d="M66,-648.5C66,-648.5 224,-648.5 224,-648.5 230,-648.5 236,-654.5 236,-660.5 236,-660.5 236,-729.5 236,-729.5 236,-735.5 230,-741.5 224,-741.5 224,-741.5 66,-741.5 66,-741.5 60,-741.5 54,-735.5 54,-729.5 54,-729.5 54,-660.5 54,-660.5 54,-654.5 60,-648.5 66,-648.5"/>
<text text-anchor="middle" x="145" y="-726.3" font-family="Times,serif" font-size="14.00">Api::Admin::EventsController</text>
<polyline fill="none" stroke="black" points="54,-718.5 236,-718.5 "/>
<text text-anchor="start" x="62" y="-703.3" font-family="Times,serif" font-size="14.00">index</text>
<polyline fill="none" stroke="black" points="54,-695.5 236,-695.5 "/>
<polyline fill="none" stroke="black" points="54,-671.5 236,-671.5 "/>
<text text-anchor="start" x="62" y="-656.3" font-family="Times,serif" font-size="14.00">_layout</text>
</g>
<!-- Api::Admin::TeamsController -->
<g id="node5" class="node"><title>Api::Admin::TeamsController</title>
<path fill="none" stroke="black" d="M66,-90.5C66,-90.5 224,-90.5 224,-90.5 230,-90.5 236,-96.5 236,-102.5 236,-102.5 236,-171.5 236,-171.5 236,-177.5 230,-183.5 224,-183.5 224,-183.5 66,-183.5 66,-183.5 60,-183.5 54,-177.5 54,-171.5 54,-171.5 54,-102.5 54,-102.5 54,-96.5 60,-90.5 66,-90.5"/>
<text text-anchor="middle" x="145" y="-168.3" font-family="Times,serif" font-size="14.00">Api::Admin::TeamsController</text>
<polyline fill="none" stroke="black" points="54,-160.5 236,-160.5 "/>
<text text-anchor="start" x="62" y="-145.3" font-family="Times,serif" font-size="14.00">index</text>
<polyline fill="none" stroke="black" points="54,-137.5 236,-137.5 "/>
<polyline fill="none" stroke="black" points="54,-113.5 236,-113.5 "/>
<text text-anchor="start" x="62" y="-98.3" font-family="Times,serif" font-size="14.00">_layout</text>
</g>
<!-- Api::Admin::TagsController -->
<g id="node6" class="node"><title>Api::Admin::TagsController</title>
<path fill="none" stroke="black" d="M426,-1170.5C426,-1170.5 574,-1170.5 574,-1170.5 580,-1170.5 586,-1176.5 586,-1182.5 586,-1182.5 586,-1281.5 586,-1281.5 586,-1287.5 580,-1293.5 574,-1293.5 574,-1293.5 426,-1293.5 426,-1293.5 420,-1293.5 414,-1287.5 414,-1281.5 414,-1281.5 414,-1182.5 414,-1182.5 414,-1176.5 420,-1170.5 426,-1170.5"/>
<text text-anchor="middle" x="500" y="-1278.3" font-family="Times,serif" font-size="14.00">Api::Admin::TagsController</text>
<polyline fill="none" stroke="black" points="414,-1270.5 586,-1270.5 "/>
<text text-anchor="start" x="422" y="-1255.3" font-family="Times,serif" font-size="14.00">create</text>
<text text-anchor="start" x="422" y="-1240.3" font-family="Times,serif" font-size="14.00">destroy</text>
<text text-anchor="start" x="422" y="-1225.3" font-family="Times,serif" font-size="14.00">index</text>
<polyline fill="none" stroke="black" points="414,-1217.5 586,-1217.5 "/>
<polyline fill="none" stroke="black" points="414,-1193.5 586,-1193.5 "/>
<text text-anchor="start" x="422" y="-1178.3" font-family="Times,serif" font-size="14.00">_layout</text>
</g>
<!-- Api::Admin::ActivityLinesController -->
<g id="node7" class="node"><title>Api::Admin::ActivityLinesController</title>
<path fill="none" stroke="black" d="M1002,-828.5C1002,-828.5 1198,-828.5 1198,-828.5 1204,-828.5 1210,-834.5 1210,-840.5 1210,-840.5 1210,-909.5 1210,-909.5 1210,-915.5 1204,-921.5 1198,-921.5 1198,-921.5 1002,-921.5 1002,-921.5 996,-921.5 990,-915.5 990,-909.5 990,-909.5 990,-840.5 990,-840.5 990,-834.5 996,-828.5 1002,-828.5"/>
<text text-anchor="middle" x="1100" y="-906.3" font-family="Times,serif" font-size="14.00">Api::Admin::ActivityLinesController</text>
<polyline fill="none" stroke="black" points="990,-898.5 1210,-898.5 "/>
<text text-anchor="start" x="998" y="-883.3" font-family="Times,serif" font-size="14.00">index</text>
<polyline fill="none" stroke="black" points="990,-875.5 1210,-875.5 "/>
<polyline fill="none" stroke="black" points="990,-851.5 1210,-851.5 "/>
<text text-anchor="start" x="998" y="-836.3" font-family="Times,serif" font-size="14.00">_layout</text>
</g>
<!-- Api::Admin::MembersController -->
<g id="node8" class="node"><title>Api::Admin::MembersController</title>
<path fill="none" stroke="black" d="M192,-1170.5C192,-1170.5 366,-1170.5 366,-1170.5 372,-1170.5 378,-1176.5 378,-1182.5 378,-1182.5 378,-1251.5 378,-1251.5 378,-1257.5 372,-1263.5 366,-1263.5 366,-1263.5 192,-1263.5 192,-1263.5 186,-1263.5 180,-1257.5 180,-1251.5 180,-1251.5 180,-1182.5 180,-1182.5 180,-1176.5 186,-1170.5 192,-1170.5"/>
<text text-anchor="middle" x="279" y="-1248.3" font-family="Times,serif" font-size="14.00">Api::Admin::MembersController</text>
<polyline fill="none" stroke="black" points="180,-1240.5 378,-1240.5 "/>
<text text-anchor="start" x="188" y="-1225.3" font-family="Times,serif" font-size="14.00">index</text>
<polyline fill="none" stroke="black" points="180,-1217.5 378,-1217.5 "/>
<polyline fill="none" stroke="black" points="180,-1193.5 378,-1193.5 "/>
<text text-anchor="start" x="188" y="-1178.3" font-family="Times,serif" font-size="14.00">_layout</text>
</g>
<!-- Api::Admin::PlacesController -->
<g id="node9" class="node"><title>Api::Admin::PlacesController</title>
<path fill="none" stroke="black" d="M282,-90.5C282,-90.5 438,-90.5 438,-90.5 444,-90.5 450,-96.5 450,-102.5 450,-102.5 450,-171.5 450,-171.5 450,-177.5 444,-183.5 438,-183.5 438,-183.5 282,-183.5 282,-183.5 276,-183.5 270,-177.5 270,-171.5 270,-171.5 270,-102.5 270,-102.5 270,-96.5 276,-90.5 282,-90.5"/>
<text text-anchor="middle" x="360" y="-168.3" font-family="Times,serif" font-size="14.00">Api::Admin::PlacesController</text>
<polyline fill="none" stroke="black" points="270,-160.5 450,-160.5 "/>
<text text-anchor="start" x="278" y="-145.3" font-family="Times,serif" font-size="14.00">index</text>
<polyline fill="none" stroke="black" points="270,-137.5 450,-137.5 "/>
<polyline fill="none" stroke="black" points="270,-113.5 450,-113.5 "/>
<text text-anchor="start" x="278" y="-98.3" font-family="Times,serif" font-size="14.00">_layout</text>
</g>
<!-- Api::Events::ApplicationController -->
<g id="node10" class="node"><title>Api::Events::ApplicationController</title>
<path fill="none" stroke="black" d="M228,-918.5C228,-918.5 412,-918.5 412,-918.5 418,-918.5 424,-924.5 424,-930.5 424,-930.5 424,-1000.5 424,-1000.5 424,-1006.5 418,-1012.5 412,-1012.5 412,-1012.5 228,-1012.5 228,-1012.5 222,-1012.5 216,-1006.5 216,-1000.5 216,-1000.5 216,-930.5 216,-930.5 216,-924.5 222,-918.5 228,-918.5"/>
<text text-anchor="middle" x="320" y="-997.3" font-family="Times,serif" font-size="14.00">Api::Events::ApplicationController</text>
<polyline fill="none" stroke="black" points="216,-989.5 424,-989.5 "/>
<polyline fill="none" stroke="black" points="216,-965.5 424,-965.5 "/>
<polyline fill="none" stroke="black" points="216,-941.5 424,-941.5 "/>
<text text-anchor="start" x="224" y="-926.3" font-family="Times,serif" font-size="14.00">_layout</text>
</g>
<!-- Api::Events::RegistrationsController -->
<g id="node11" class="node"><title>Api::Events::RegistrationsController</title>
<path fill="none" stroke="black" d="M192,-216.5C192,-216.5 383,-216.5 383,-216.5 389,-216.5 395,-222.5 395,-228.5 395,-228.5 395,-312.5 395,-312.5 395,-318.5 389,-324.5 383,-324.5 383,-324.5 192,-324.5 192,-324.5 186,-324.5 180,-318.5 180,-312.5 180,-312.5 180,-228.5 180,-228.5 180,-222.5 186,-216.5 192,-216.5"/>
<text text-anchor="middle" x="287.5" y="-309.3" font-family="Times,serif" font-size="14.00">Api::Events::RegistrationsController</text>
<polyline fill="none" stroke="black" points="180,-301.5 395,-301.5 "/>
<text text-anchor="start" x="188" y="-286.3" font-family="Times,serif" font-size="14.00">create</text>
<text text-anchor="start" x="188" y="-271.3" font-family="Times,serif" font-size="14.00">destroy</text>
<polyline fill="none" stroke="black" points="180,-263.5 395,-263.5 "/>
<polyline fill="none" stroke="black" points="180,-239.5 395,-239.5 "/>
<text text-anchor="start" x="188" y="-224.3" font-family="Times,serif" font-size="14.00">_layout</text>
</g>
<!-- ApplicationController -->
<g id="node12" class="node"><title>ApplicationController</title>
<path fill="none" stroke="black" d="M12,-1260.5C12,-1260.5 124,-1260.5 124,-1260.5 130,-1260.5 136,-1266.5 136,-1272.5 136,-1272.5 136,-1357.5 136,-1357.5 136,-1363.5 130,-1369.5 124,-1369.5 124,-1369.5 12,-1369.5 12,-1369.5 6,-1369.5 0,-1363.5 0,-1357.5 0,-1357.5 0,-1272.5 0,-1272.5 0,-1266.5 6,-1260.5 12,-1260.5"/>
<text text-anchor="middle" x="68" y="-1354.3" font-family="Times,serif" font-size="14.00">ApplicationController</text>
<polyline fill="none" stroke="black" points="0,-1346.5 136,-1346.5 "/>
<polyline fill="none" stroke="black" points="0,-1322.5 136,-1322.5 "/>
<polyline fill="none" stroke="black" points="0,-1298.5 136,-1298.5 "/>
<text text-anchor="start" x="8" y="-1283.3" font-family="Times,serif" font-size="14.00">_layout</text>
<text text-anchor="start" x="8" y="-1268.3" font-family="Times,serif" font-size="14.00">get_categories</text>
</g>
<!-- Web::OmniauthController -->
<g id="node13" class="node"><title>Web::OmniauthController</title>
<path fill="none" stroke="black" d="M1074,-198.5C1074,-198.5 1211,-198.5 1211,-198.5 1217,-198.5 1223,-204.5 1223,-210.5 1223,-210.5 1223,-339.5 1223,-339.5 1223,-345.5 1217,-351.5 1211,-351.5 1211,-351.5 1074,-351.5 1074,-351.5 1068,-351.5 1062,-345.5 1062,-339.5 1062,-339.5 1062,-210.5 1062,-210.5 1062,-204.5 1068,-198.5 1074,-198.5"/>
<text text-anchor="middle" x="1142.5" y="-336.3" font-family="Times,serif" font-size="14.00">Web::OmniauthController</text>
<polyline fill="none" stroke="black" points="1062,-328.5 1223,-328.5 "/>
<text text-anchor="start" x="1070" y="-313.3" font-family="Times,serif" font-size="14.00">callback</text>
<text text-anchor="start" x="1070" y="-298.3" font-family="Times,serif" font-size="14.00">facebook</text>
<text text-anchor="start" x="1070" y="-283.3" font-family="Times,serif" font-size="14.00">google</text>
<text text-anchor="start" x="1070" y="-268.3" font-family="Times,serif" font-size="14.00">twitter</text>
<text text-anchor="start" x="1070" y="-253.3" font-family="Times,serif" font-size="14.00">vkontakte</text>
<polyline fill="none" stroke="black" points="1062,-245.5 1223,-245.5 "/>
<polyline fill="none" stroke="black" points="1062,-221.5 1223,-221.5 "/>
<text text-anchor="start" x="1070" y="-206.3" font-family="Times,serif" font-size="14.00">_layout</text>
</g>
<!-- Web::ApplicationController -->
<g id="node14" class="node"><title>Web::ApplicationController</title>
<path fill="none" stroke="black" d="M876,-180.5C876,-180.5 1022,-180.5 1022,-180.5 1028,-180.5 1034,-186.5 1034,-192.5 1034,-192.5 1034,-261.5 1034,-261.5 1034,-267.5 1028,-273.5 1022,-273.5 1022,-273.5 876,-273.5 876,-273.5 870,-273.5 864,-267.5 864,-261.5 864,-261.5 864,-192.5 864,-192.5 864,-186.5 870,-180.5 876,-180.5"/>
<text text-anchor="middle" x="949" y="-258.3" font-family="Times,serif" font-size="14.00">Web::ApplicationController</text>
<polyline fill="none" stroke="black" points="864,-250.5 1034,-250.5 "/>
<text text-anchor="start" x="872" y="-235.3" font-family="Times,serif" font-size="14.00">load_categories_tree</text>
<polyline fill="none" stroke="black" points="864,-227.5 1034,-227.5 "/>
<polyline fill="none" stroke="black" points="864,-203.5 1034,-203.5 "/>
<text text-anchor="start" x="872" y="-188.3" font-family="Times,serif" font-size="14.00">_layout</text>
</g>
<!-- Web::WelcomeController -->
<g id="node15" class="node"><title>Web::WelcomeController</title>
<path fill="none" stroke="black" d="M1254,-828.5C1254,-828.5 1389,-828.5 1389,-828.5 1395,-828.5 1401,-834.5 1401,-840.5 1401,-840.5 1401,-909.5 1401,-909.5 1401,-915.5 1395,-921.5 1389,-921.5 1389,-921.5 1254,-921.5 1254,-921.5 1248,-921.5 1242,-915.5 1242,-909.5 1242,-909.5 1242,-840.5 1242,-840.5 1242,-834.5 1248,-828.5 1254,-828.5"/>
<text text-anchor="middle" x="1321.5" y="-906.3" font-family="Times,serif" font-size="14.00">Web::WelcomeController</text>
<polyline fill="none" stroke="black" points="1242,-898.5 1401,-898.5 "/>
<text text-anchor="start" x="1250" y="-883.3" font-family="Times,serif" font-size="14.00">index</text>
<polyline fill="none" stroke="black" points="1242,-875.5 1401,-875.5 "/>
<polyline fill="none" stroke="black" points="1242,-851.5 1401,-851.5 "/>
<text text-anchor="start" x="1250" y="-836.3" font-family="Times,serif" font-size="14.00">_layout</text>
</g>
<!-- Web::SessionsController -->
<g id="node16" class="node"><title>Web::SessionsController</title>
<path fill="none" stroke="black" d="M48,-1008.5C48,-1008.5 176,-1008.5 176,-1008.5 182,-1008.5 188,-1014.5 188,-1020.5 188,-1020.5 188,-1119.5 188,-1119.5 188,-1125.5 182,-1131.5 176,-1131.5 176,-1131.5 48,-1131.5 48,-1131.5 42,-1131.5 36,-1125.5 36,-1119.5 36,-1119.5 36,-1020.5 36,-1020.5 36,-1014.5 42,-1008.5 48,-1008.5"/>
<text text-anchor="middle" x="112" y="-1116.3" font-family="Times,serif" font-size="14.00">Web::SessionsController</text>
<polyline fill="none" stroke="black" points="36,-1108.5 188,-1108.5 "/>
<text text-anchor="start" x="44" y="-1093.3" font-family="Times,serif" font-size="14.00">create</text>
<text text-anchor="start" x="44" y="-1078.3" font-family="Times,serif" font-size="14.00">destroy</text>
<text text-anchor="start" x="44" y="-1063.3" font-family="Times,serif" font-size="14.00">new</text>
<polyline fill="none" stroke="black" points="36,-1055.5 188,-1055.5 "/>
<polyline fill="none" stroke="black" points="36,-1031.5 188,-1031.5 "/>
<text text-anchor="start" x="44" y="-1016.3" font-family="Times,serif" font-size="14.00">_layout</text>
</g>
<!-- Web::EventsController -->
<g id="node17" class="node"><title>Web::EventsController</title>
<path fill="none" stroke="black" d="M12,-324.5C12,-324.5 131,-324.5 131,-324.5 137,-324.5 143,-330.5 143,-336.5 143,-336.5 143,-420.5 143,-420.5 143,-426.5 137,-432.5 131,-432.5 131,-432.5 12,-432.5 12,-432.5 6,-432.5 0,-426.5 0,-420.5 0,-420.5 0,-336.5 0,-336.5 0,-330.5 6,-324.5 12,-324.5"/>
<text text-anchor="middle" x="71.5" y="-417.3" font-family="Times,serif" font-size="14.00">Web::EventsController</text>
<polyline fill="none" stroke="black" points="0,-409.5 143,-409.5 "/>
<text text-anchor="start" x="8" y="-394.3" font-family="Times,serif" font-size="14.00">index</text>
<text text-anchor="start" x="8" y="-379.3" font-family="Times,serif" font-size="14.00">show</text>
<polyline fill="none" stroke="black" points="0,-371.5 143,-371.5 "/>
<polyline fill="none" stroke="black" points="0,-347.5 143,-347.5 "/>
<text text-anchor="start" x="8" y="-332.3" font-family="Times,serif" font-size="14.00">_layout</text>
</g>
<!-- Web::Admin::ApplicationController -->
<g id="node18" class="node"><title>Web::Admin::ApplicationController</title>
<path fill="none" stroke="black" d="M624,-180.5C624,-180.5 815,-180.5 815,-180.5 821,-180.5 827,-186.5 827,-192.5 827,-192.5 827,-261.5 827,-261.5 827,-267.5 821,-273.5 815,-273.5 815,-273.5 624,-273.5 624,-273.5 618,-273.5 612,-267.5 612,-261.5 612,-261.5 612,-192.5 612,-192.5 612,-186.5 618,-180.5 624,-180.5"/>
<text text-anchor="middle" x="719.5" y="-258.3" font-family="Times,serif" font-size="14.00">Web::Admin::ApplicationController</text>
<polyline fill="none" stroke="black" points="612,-250.5 827,-250.5 "/>
<polyline fill="none" stroke="black" points="612,-226.5 827,-226.5 "/>
<text text-anchor="start" x="620" y="-211.3" font-family="Times,serif" font-size="14.00">choose_members</text>
<polyline fill="none" stroke="black" points="612,-203.5 827,-203.5 "/>
<text text-anchor="start" x="620" y="-188.3" font-family="Times,serif" font-size="14.00">_layout</text>
</g>
<!-- Web::Admin::DocumentsController -->
<g id="node19" class="node"><title>Web::Admin::DocumentsController</title>
<path fill="none" stroke="black" d="M768,-504.5C768,-504.5 958,-504.5 958,-504.5 964,-504.5 970,-510.5 970,-516.5 970,-516.5 970,-660.5 970,-660.5 970,-666.5 964,-672.5 958,-672.5 958,-672.5 768,-672.5 768,-672.5 762,-672.5 756,-666.5 756,-660.5 756,-660.5 756,-516.5 756,-516.5 756,-510.5 762,-504.5 768,-504.5"/>
<text text-anchor="middle" x="863" y="-657.3" font-family="Times,serif" font-size="14.00">Web::Admin::DocumentsController</text>
<polyline fill="none" stroke="black" points="756,-649.5 970,-649.5 "/>
<text text-anchor="start" x="764" y="-634.3" font-family="Times,serif" font-size="14.00">create</text>
<text text-anchor="start" x="764" y="-619.3" font-family="Times,serif" font-size="14.00">destroy</text>
<text text-anchor="start" x="764" y="-604.3" font-family="Times,serif" font-size="14.00">edit</text>
<text text-anchor="start" x="764" y="-589.3" font-family="Times,serif" font-size="14.00">index</text>
<text text-anchor="start" x="764" y="-574.3" font-family="Times,serif" font-size="14.00">new</text>
<text text-anchor="start" x="764" y="-559.3" font-family="Times,serif" font-size="14.00">update</text>
<polyline fill="none" stroke="black" points="756,-551.5 970,-551.5 "/>
<polyline fill="none" stroke="black" points="756,-527.5 970,-527.5 "/>
<text text-anchor="start" x="764" y="-512.3" font-family="Times,serif" font-size="14.00">_layout</text>
</g>
<!-- Web::Admin::WelcomeController -->
<g id="node20" class="node"><title>Web::Admin::WelcomeController</title>
<path fill="none" stroke="black" d="M1128,-1152.5C1128,-1152.5 1309,-1152.5 1309,-1152.5 1315,-1152.5 1321,-1158.5 1321,-1164.5 1321,-1164.5 1321,-1233.5 1321,-1233.5 1321,-1239.5 1315,-1245.5 1309,-1245.5 1309,-1245.5 1128,-1245.5 1128,-1245.5 1122,-1245.5 1116,-1239.5 1116,-1233.5 1116,-1233.5 1116,-1164.5 1116,-1164.5 1116,-1158.5 1122,-1152.5 1128,-1152.5"/>
<text text-anchor="middle" x="1218.5" y="-1230.3" font-family="Times,serif" font-size="14.00">Web::Admin::WelcomeController</text>
<polyline fill="none" stroke="black" points="1116,-1222.5 1321,-1222.5 "/>
<text text-anchor="start" x="1124" y="-1207.3" font-family="Times,serif" font-size="14.00">index</text>
<polyline fill="none" stroke="black" points="1116,-1199.5 1321,-1199.5 "/>
<polyline fill="none" stroke="black" points="1116,-1175.5 1321,-1175.5 "/>
<text text-anchor="start" x="1124" y="-1160.3" font-family="Times,serif" font-size="14.00">_layout</text>
</g>
<!-- Web::Admin::TrashController -->
<g id="node21" class="node"><title>Web::Admin::TrashController</title>
<path fill="none" stroke="black" d="M120,-468.5C120,-468.5 278,-468.5 278,-468.5 284,-468.5 290,-474.5 290,-480.5 290,-480.5 290,-594.5 290,-594.5 290,-600.5 284,-606.5 278,-606.5 278,-606.5 120,-606.5 120,-606.5 114,-606.5 108,-600.5 108,-594.5 108,-594.5 108,-480.5 108,-480.5 108,-474.5 114,-468.5 120,-468.5"/>
<text text-anchor="middle" x="199" y="-591.3" font-family="Times,serif" font-size="14.00">Web::Admin::TrashController</text>
<polyline fill="none" stroke="black" points="108,-583.5 290,-583.5 "/>
<text text-anchor="start" x="116" y="-568.3" font-family="Times,serif" font-size="14.00">destroy</text>
<text text-anchor="start" x="116" y="-553.3" font-family="Times,serif" font-size="14.00">index</text>
<text text-anchor="start" x="116" y="-538.3" font-family="Times,serif" font-size="14.00">restore</text>
<polyline fill="none" stroke="black" points="108,-530.5 290,-530.5 "/>
<polyline fill="none" stroke="black" points="108,-506.5 290,-506.5 "/>
<text text-anchor="start" x="116" y="-491.3" font-family="Times,serif" font-size="14.00">_layout</text>
<text text-anchor="start" x="116" y="-476.3" font-family="Times,serif" font-size="14.00">resource_type</text>
</g>
<!-- Web::Admin::EventsController -->
<g id="node22" class="node"><title>Web::Admin::EventsController</title>
<path fill="none" stroke="black" d="M930,-954.5C930,-954.5 1094,-954.5 1094,-954.5 1100,-954.5 1106,-960.5 1106,-966.5 1106,-966.5 1106,-1110.5 1106,-1110.5 1106,-1116.5 1100,-1122.5 1094,-1122.5 1094,-1122.5 930,-1122.5 930,-1122.5 924,-1122.5 918,-1116.5 918,-1110.5 918,-1110.5 918,-966.5 918,-966.5 918,-960.5 924,-954.5 930,-954.5"/>
<text text-anchor="middle" x="1012" y="-1107.3" font-family="Times,serif" font-size="14.00">Web::Admin::EventsController</text>
<polyline fill="none" stroke="black" points="918,-1099.5 1106,-1099.5 "/>
<text text-anchor="start" x="926" y="-1084.3" font-family="Times,serif" font-size="14.00">create</text>
<text text-anchor="start" x="926" y="-1069.3" font-family="Times,serif" font-size="14.00">destroy</text>
<text text-anchor="start" x="926" y="-1054.3" font-family="Times,serif" font-size="14.00">edit</text>
<text text-anchor="start" x="926" y="-1039.3" font-family="Times,serif" font-size="14.00">index</text>
<text text-anchor="start" x="926" y="-1024.3" font-family="Times,serif" font-size="14.00">new</text>
<text text-anchor="start" x="926" y="-1009.3" font-family="Times,serif" font-size="14.00">update</text>
<polyline fill="none" stroke="black" points="918,-1001.5 1106,-1001.5 "/>
<polyline fill="none" stroke="black" points="918,-977.5 1106,-977.5 "/>
<text text-anchor="start" x="926" y="-962.3" font-family="Times,serif" font-size="14.00">_layout</text>
</g>
<!-- Web::Admin::TeamsController -->
<g id="node23" class="node"><title>Web::Admin::TeamsController</title>
<path fill="none" stroke="black" d="M714,-972.5C714,-972.5 878,-972.5 878,-972.5 884,-972.5 890,-978.5 890,-984.5 890,-984.5 890,-1128.5 890,-1128.5 890,-1134.5 884,-1140.5 878,-1140.5 878,-1140.5 714,-1140.5 714,-1140.5 708,-1140.5 702,-1134.5 702,-1128.5 702,-1128.5 702,-984.5 702,-984.5 702,-978.5 708,-972.5 714,-972.5"/>
<text text-anchor="middle" x="796" y="-1125.3" font-family="Times,serif" font-size="14.00">Web::Admin::TeamsController</text>
<polyline fill="none" stroke="black" points="702,-1117.5 890,-1117.5 "/>
<text text-anchor="start" x="710" y="-1102.3" font-family="Times,serif" font-size="14.00">create</text>
<text text-anchor="start" x="710" y="-1087.3" font-family="Times,serif" font-size="14.00">destroy</text>
<text text-anchor="start" x="710" y="-1072.3" font-family="Times,serif" font-size="14.00">edit</text>
<text text-anchor="start" x="710" y="-1057.3" font-family="Times,serif" font-size="14.00">index</text>
<text text-anchor="start" x="710" y="-1042.3" font-family="Times,serif" font-size="14.00">new</text>
<text text-anchor="start" x="710" y="-1027.3" font-family="Times,serif" font-size="14.00">update</text>
<polyline fill="none" stroke="black" points="702,-1019.5 890,-1019.5 "/>
<polyline fill="none" stroke="black" points="702,-995.5 890,-995.5 "/>
<text text-anchor="start" x="710" y="-980.3" font-family="Times,serif" font-size="14.00">_layout</text>
</g>
<!-- Web::Admin::ActivityLinesController -->
<g id="node24" class="node"><title>Web::Admin::ActivityLinesController</title>
<path fill="none" stroke="black" d="M498,-558.5C498,-558.5 700,-558.5 700,-558.5 706,-558.5 712,-564.5 712,-570.5 712,-570.5 712,-714.5 712,-714.5 712,-720.5 706,-726.5 700,-726.5 700,-726.5 498,-726.5 498,-726.5 492,-726.5 486,-720.5 486,-714.5 486,-714.5 486,-570.5 486,-570.5 486,-564.5 492,-558.5 498,-558.5"/>
<text text-anchor="middle" x="599" y="-711.3" font-family="Times,serif" font-size="14.00">Web::Admin::ActivityLinesController</text>
<polyline fill="none" stroke="black" points="486,-703.5 712,-703.5 "/>
<text text-anchor="start" x="494" y="-688.3" font-family="Times,serif" font-size="14.00">create</text>
<text text-anchor="start" x="494" y="-673.3" font-family="Times,serif" font-size="14.00">destroy</text>
<text text-anchor="start" x="494" y="-658.3" font-family="Times,serif" font-size="14.00">edit</text>
<text text-anchor="start" x="494" y="-643.3" font-family="Times,serif" font-size="14.00">index</text>
<text text-anchor="start" x="494" y="-628.3" font-family="Times,serif" font-size="14.00">new</text>
<text text-anchor="start" x="494" y="-613.3" font-family="Times,serif" font-size="14.00">update</text>
<polyline fill="none" stroke="black" points="486,-605.5 712,-605.5 "/>
<polyline fill="none" stroke="black" points="486,-581.5 712,-581.5 "/>
<text text-anchor="start" x="494" y="-566.3" font-family="Times,serif" font-size="14.00">_layout</text>
</g>
<!-- Web::Admin::BannersController -->
<g id="node25" class="node"><title>Web::Admin::BannersController</title>
<path fill="none" stroke="black" d="M480,-972.5C480,-972.5 652,-972.5 652,-972.5 658,-972.5 664,-978.5 664,-984.5 664,-984.5 664,-1128.5 664,-1128.5 664,-1134.5 658,-1140.5 652,-1140.5 652,-1140.5 480,-1140.5 480,-1140.5 474,-1140.5 468,-1134.5 468,-1128.5 468,-1128.5 468,-984.5 468,-984.5 468,-978.5 474,-972.5 480,-972.5"/>
<text text-anchor="middle" x="566" y="-1125.3" font-family="Times,serif" font-size="14.00">Web::Admin::BannersController</text>
<polyline fill="none" stroke="black" points="468,-1117.5 664,-1117.5 "/>
<text text-anchor="start" x="476" y="-1102.3" font-family="Times,serif" font-size="14.00">create</text>
<text text-anchor="start" x="476" y="-1087.3" font-family="Times,serif" font-size="14.00">destroy</text>
<text text-anchor="start" x="476" y="-1072.3" font-family="Times,serif" font-size="14.00">edit</text>
<text text-anchor="start" x="476" y="-1057.3" font-family="Times,serif" font-size="14.00">index</text>
<text text-anchor="start" x="476" y="-1042.3" font-family="Times,serif" font-size="14.00">new</text>
<text text-anchor="start" x="476" y="-1027.3" font-family="Times,serif" font-size="14.00">update</text>
<polyline fill="none" stroke="black" points="468,-1019.5 664,-1019.5 "/>
<polyline fill="none" stroke="black" points="468,-995.5 664,-995.5 "/>
<text text-anchor="start" x="476" y="-980.3" font-family="Times,serif" font-size="14.00">_layout</text>
</g>
<!-- Web::Admin::NewsController -->
<g id="node26" class="node"><title>Web::Admin::NewsController</title>
<path fill="none" stroke="black" d="M282,-648.5C282,-648.5 440,-648.5 440,-648.5 446,-648.5 452,-654.5 452,-660.5 452,-660.5 452,-819.5 452,-819.5 452,-825.5 446,-831.5 440,-831.5 440,-831.5 282,-831.5 282,-831.5 276,-831.5 270,-825.5 270,-819.5 270,-819.5 270,-660.5 270,-660.5 270,-654.5 276,-648.5 282,-648.5"/>
<text text-anchor="middle" x="361" y="-816.3" font-family="Times,serif" font-size="14.00">Web::Admin::NewsController</text>
<polyline fill="none" stroke="black" points="270,-808.5 452,-808.5 "/>
<text text-anchor="start" x="278" y="-793.3" font-family="Times,serif" font-size="14.00">create</text>
<text text-anchor="start" x="278" y="-778.3" font-family="Times,serif" font-size="14.00">destroy</text>
<text text-anchor="start" x="278" y="-763.3" font-family="Times,serif" font-size="14.00">edit</text>
<text text-anchor="start" x="278" y="-748.3" font-family="Times,serif" font-size="14.00">index</text>
<text text-anchor="start" x="278" y="-733.3" font-family="Times,serif" font-size="14.00">new</text>
<text text-anchor="start" x="278" y="-718.3" font-family="Times,serif" font-size="14.00">show</text>
<text text-anchor="start" x="278" y="-703.3" font-family="Times,serif" font-size="14.00">update</text>
<polyline fill="none" stroke="black" points="270,-695.5 452,-695.5 "/>
<polyline fill="none" stroke="black" points="270,-671.5 452,-671.5 "/>
<text text-anchor="start" x="278" y="-656.3" font-family="Times,serif" font-size="14.00">_layout</text>
</g>
<!-- Web::Admin::MembersController -->
<g id="node27" class="node"><title>Web::Admin::MembersController</title>
<path fill="none" stroke="black" d="M498,-774.5C498,-774.5 678,-774.5 678,-774.5 684,-774.5 690,-780.5 690,-786.5 690,-786.5 690,-930.5 690,-930.5 690,-936.5 684,-942.5 678,-942.5 678,-942.5 498,-942.5 498,-942.5 492,-942.5 486,-936.5 486,-930.5 486,-930.5 486,-786.5 486,-786.5 486,-780.5 492,-774.5 498,-774.5"/>
<text text-anchor="middle" x="588" y="-927.3" font-family="Times,serif" font-size="14.00">Web::Admin::MembersController</text>
<polyline fill="none" stroke="black" points="486,-919.5 690,-919.5 "/>
<text text-anchor="start" x="494" y="-904.3" font-family="Times,serif" font-size="14.00">create</text>
<text text-anchor="start" x="494" y="-889.3" font-family="Times,serif" font-size="14.00">destroy</text>
<text text-anchor="start" x="494" y="-874.3" font-family="Times,serif" font-size="14.00">edit</text>
<text text-anchor="start" x="494" y="-859.3" font-family="Times,serif" font-size="14.00">index</text>
<text text-anchor="start" x="494" y="-844.3" font-family="Times,serif" font-size="14.00">new</text>
<text text-anchor="start" x="494" y="-829.3" font-family="Times,serif" font-size="14.00">update</text>
<polyline fill="none" stroke="black" points="486,-821.5 690,-821.5 "/>
<polyline fill="none" stroke="black" points="486,-797.5 690,-797.5 "/>
<text text-anchor="start" x="494" y="-782.3" font-family="Times,serif" font-size="14.00">_layout</text>
</g>
<!-- Web::Admin::ArticlesController -->
<g id="node28" class="node"><title>Web::Admin::ArticlesController</title>
<path fill="none" stroke="black" d="M624,-306.5C624,-306.5 794,-306.5 794,-306.5 800,-306.5 806,-312.5 806,-318.5 806,-318.5 806,-462.5 806,-462.5 806,-468.5 800,-474.5 794,-474.5 794,-474.5 624,-474.5 624,-474.5 618,-474.5 612,-468.5 612,-462.5 612,-462.5 612,-318.5 612,-318.5 612,-312.5 618,-306.5 624,-306.5"/>
<text text-anchor="middle" x="709" y="-459.3" font-family="Times,serif" font-size="14.00">Web::Admin::ArticlesController</text>
<polyline fill="none" stroke="black" points="612,-451.5 806,-451.5 "/>
<text text-anchor="start" x="620" y="-436.3" font-family="Times,serif" font-size="14.00">create</text>
<text text-anchor="start" x="620" y="-421.3" font-family="Times,serif" font-size="14.00">destroy</text>
<text text-anchor="start" x="620" y="-406.3" font-family="Times,serif" font-size="14.00">edit</text>
<text text-anchor="start" x="620" y="-391.3" font-family="Times,serif" font-size="14.00">index</text>
<text text-anchor="start" x="620" y="-376.3" font-family="Times,serif" font-size="14.00">new</text>
<text text-anchor="start" x="620" y="-361.3" font-family="Times,serif" font-size="14.00">update</text>
<polyline fill="none" stroke="black" points="612,-353.5 806,-353.5 "/>
<polyline fill="none" stroke="black" points="612,-329.5 806,-329.5 "/>
<text text-anchor="start" x="620" y="-314.3" font-family="Times,serif" font-size="14.00">_layout</text>
</g>
<!-- Web::Admin::QuestionariesController -->
<g id="node29" class="node"><title>Web::Admin::QuestionariesController</title>
<path fill="none" stroke="black" d="M732,-756.5C732,-756.5 934,-756.5 934,-756.5 940,-756.5 946,-762.5 946,-768.5 946,-768.5 946,-912.5 946,-912.5 946,-918.5 940,-924.5 934,-924.5 934,-924.5 732,-924.5 732,-924.5 726,-924.5 720,-918.5 720,-912.5 720,-912.5 720,-768.5 720,-768.5 720,-762.5 726,-756.5 732,-756.5"/>
<text text-anchor="middle" x="833" y="-909.3" font-family="Times,serif" font-size="14.00">Web::Admin::QuestionariesController</text>
<polyline fill="none" stroke="black" points="720,-901.5 946,-901.5 "/>
<text text-anchor="start" x="728" y="-886.3" font-family="Times,serif" font-size="14.00">create</text>
<text text-anchor="start" x="728" y="-871.3" font-family="Times,serif" font-size="14.00">destroy</text>
<text text-anchor="start" x="728" y="-856.3" font-family="Times,serif" font-size="14.00">edit</text>
<text text-anchor="start" x="728" y="-841.3" font-family="Times,serif" font-size="14.00">index</text>
<text text-anchor="start" x="728" y="-826.3" font-family="Times,serif" font-size="14.00">new</text>
<text text-anchor="start" x="728" y="-811.3" font-family="Times,serif" font-size="14.00">update</text>
<polyline fill="none" stroke="black" points="720,-803.5 946,-803.5 "/>
<polyline fill="none" stroke="black" points="720,-779.5 946,-779.5 "/>
<text text-anchor="start" x="728" y="-764.3" font-family="Times,serif" font-size="14.00">_layout</text>
</g>
<!-- Web::Admin::UsersController -->
<g id="node30" class="node"><title>Web::Admin::UsersController</title>
<path fill="none" stroke="black" d="M858,-306.5C858,-306.5 1016,-306.5 1016,-306.5 1022,-306.5 1028,-312.5 1028,-318.5 1028,-318.5 1028,-462.5 1028,-462.5 1028,-468.5 1022,-474.5 1016,-474.5 1016,-474.5 858,-474.5 858,-474.5 852,-474.5 846,-468.5 846,-462.5 846,-462.5 846,-318.5 846,-318.5 846,-312.5 852,-306.5 858,-306.5"/>
<text text-anchor="middle" x="937" y="-459.3" font-family="Times,serif" font-size="14.00">Web::Admin::UsersController</text>
<polyline fill="none" stroke="black" points="846,-451.5 1028,-451.5 "/>
<text text-anchor="start" x="854" y="-436.3" font-family="Times,serif" font-size="14.00">create</text>
<text text-anchor="start" x="854" y="-421.3" font-family="Times,serif" font-size="14.00">destroy</text>
<text text-anchor="start" x="854" y="-406.3" font-family="Times,serif" font-size="14.00">edit</text>
<text text-anchor="start" x="854" y="-391.3" font-family="Times,serif" font-size="14.00">index</text>
<text text-anchor="start" x="854" y="-376.3" font-family="Times,serif" font-size="14.00">new</text>
<text text-anchor="start" x="854" y="-361.3" font-family="Times,serif" font-size="14.00">update</text>
<polyline fill="none" stroke="black" points="846,-353.5 1028,-353.5 "/>
<polyline fill="none" stroke="black" points="846,-329.5 1028,-329.5 "/>
<text text-anchor="start" x="854" y="-314.3" font-family="Times,serif" font-size="14.00">_layout</text>
</g>
<!-- Web::Admin::CategoriesController -->
<g id="node31" class="node"><title>Web::Admin::CategoriesController</title>
<path fill="none" stroke="black" d="M336,-360.5C336,-360.5 521,-360.5 521,-360.5 527,-360.5 533,-366.5 533,-372.5 533,-372.5 533,-516.5 533,-516.5 533,-522.5 527,-528.5 521,-528.5 521,-528.5 336,-528.5 336,-528.5 330,-528.5 324,-522.5 324,-516.5 324,-516.5 324,-372.5 324,-372.5 324,-366.5 330,-360.5 336,-360.5"/>
<text text-anchor="middle" x="428.5" y="-513.3" font-family="Times,serif" font-size="14.00">Web::Admin::CategoriesController</text>
<polyline fill="none" stroke="black" points="324,-505.5 533,-505.5 "/>
<text text-anchor="start" x="332" y="-490.3" font-family="Times,serif" font-size="14.00">create</text>
<text text-anchor="start" x="332" y="-475.3" font-family="Times,serif" font-size="14.00">destroy</text>
<text text-anchor="start" x="332" y="-460.3" font-family="Times,serif" font-size="14.00">edit</text>
<text text-anchor="start" x="332" y="-445.3" font-family="Times,serif" font-size="14.00">index</text>
<text text-anchor="start" x="332" y="-430.3" font-family="Times,serif" font-size="14.00">new</text>
<text text-anchor="start" x="332" y="-415.3" font-family="Times,serif" font-size="14.00">update</text>
<polyline fill="none" stroke="black" points="324,-407.5 533,-407.5 "/>
<polyline fill="none" stroke="black" points="324,-383.5 533,-383.5 "/>
<text text-anchor="start" x="332" y="-368.3" font-family="Times,serif" font-size="14.00">_layout</text>
</g>
<!-- Web::Admin::UnviewedController -->
<g id="node32" class="node"><title>Web::Admin::UnviewedController</title>
<path fill="none" stroke="black" d="M1146,-954.5C1146,-954.5 1329,-954.5 1329,-954.5 1335,-954.5 1341,-960.5 1341,-966.5 1341,-966.5 1341,-1035.5 1341,-1035.5 1341,-1041.5 1335,-1047.5 1329,-1047.5 1329,-1047.5 1146,-1047.5 1146,-1047.5 1140,-1047.5 1134,-1041.5 1134,-1035.5 1134,-1035.5 1134,-966.5 1134,-966.5 1134,-960.5 1140,-954.5 1146,-954.5"/>
<text text-anchor="middle" x="1237.5" y="-1032.3" font-family="Times,serif" font-size="14.00">Web::Admin::UnviewedController</text>
<polyline fill="none" stroke="black" points="1134,-1024.5 1341,-1024.5 "/>
<text text-anchor="start" x="1142" y="-1009.3" font-family="Times,serif" font-size="14.00">index</text>
<polyline fill="none" stroke="black" points="1134,-1001.5 1341,-1001.5 "/>
<polyline fill="none" stroke="black" points="1134,-977.5 1341,-977.5 "/>
<text text-anchor="start" x="1142" y="-962.3" font-family="Times,serif" font-size="14.00">_layout</text>
</g>
<!-- Web::NewsController -->
<g id="node33" class="node"><title>Web::NewsController</title>
<path fill="none" stroke="black" d="M1254,-1278.5C1254,-1278.5 1367,-1278.5 1367,-1278.5 1373,-1278.5 1379,-1284.5 1379,-1290.5 1379,-1290.5 1379,-1374.5 1379,-1374.5 1379,-1380.5 1373,-1386.5 1367,-1386.5 1367,-1386.5 1254,-1386.5 1254,-1386.5 1248,-1386.5 1242,-1380.5 1242,-1374.5 1242,-1374.5 1242,-1290.5 1242,-1290.5 1242,-1284.5 1248,-1278.5 1254,-1278.5"/>
<text text-anchor="middle" x="1310.5" y="-1371.3" font-family="Times,serif" font-size="14.00">Web::NewsController</text>
<polyline fill="none" stroke="black" points="1242,-1363.5 1379,-1363.5 "/>
<text text-anchor="start" x="1250" y="-1348.3" font-family="Times,serif" font-size="14.00">index</text>
<text text-anchor="start" x="1250" y="-1333.3" font-family="Times,serif" font-size="14.00">show</text>
<polyline fill="none" stroke="black" points="1242,-1325.5 1379,-1325.5 "/>
<polyline fill="none" stroke="black" points="1242,-1301.5 1379,-1301.5 "/>
<text text-anchor="start" x="1250" y="-1286.3" font-family="Times,serif" font-size="14.00">_layout</text>
</g>
<!-- Web::MembersController -->
<g id="node34" class="node"><title>Web::MembersController</title>
<path fill="none" stroke="black" d="M1074,-36.5C1074,-36.5 1208,-36.5 1208,-36.5 1214,-36.5 1220,-42.5 1220,-48.5 1220,-48.5 1220,-147.5 1220,-147.5 1220,-153.5 1214,-159.5 1208,-159.5 1208,-159.5 1074,-159.5 1074,-159.5 1068,-159.5 1062,-153.5 1062,-147.5 1062,-147.5 1062,-48.5 1062,-48.5 1062,-42.5 1068,-36.5 1074,-36.5"/>
<text text-anchor="middle" x="1141" y="-144.3" font-family="Times,serif" font-size="14.00">Web::MembersController</text>
<polyline fill="none" stroke="black" points="1062,-136.5 1220,-136.5 "/>
<text text-anchor="start" x="1070" y="-121.3" font-family="Times,serif" font-size="14.00">create</text>
<text text-anchor="start" x="1070" y="-106.3" font-family="Times,serif" font-size="14.00">new</text>
<text text-anchor="start" x="1070" y="-91.3" font-family="Times,serif" font-size="14.00">show</text>
<polyline fill="none" stroke="black" points="1062,-83.5 1220,-83.5 "/>
<polyline fill="none" stroke="black" points="1062,-59.5 1220,-59.5 "/>
<text text-anchor="start" x="1070" y="-44.3" font-family="Times,serif" font-size="14.00">_layout</text>
</g>
<!-- Web::ArticlesController -->
<g id="node35" class="node"><title>Web::ArticlesController</title>
<path fill="none" stroke="black" d="M444,-234.5C444,-234.5 569,-234.5 569,-234.5 575,-234.5 581,-240.5 581,-246.5 581,-246.5 581,-315.5 581,-315.5 581,-321.5 575,-327.5 569,-327.5 569,-327.5 444,-327.5 444,-327.5 438,-327.5 432,-321.5 432,-315.5 432,-315.5 432,-246.5 432,-246.5 432,-240.5 438,-234.5 444,-234.5"/>
<text text-anchor="middle" x="506.5" y="-312.3" font-family="Times,serif" font-size="14.00">Web::ArticlesController</text>
<polyline fill="none" stroke="black" points="432,-304.5 581,-304.5 "/>
<text text-anchor="start" x="440" y="-289.3" font-family="Times,serif" font-size="14.00">show</text>
<polyline fill="none" stroke="black" points="432,-281.5 581,-281.5 "/>
<polyline fill="none" stroke="black" points="432,-257.5 581,-257.5 "/>
<text text-anchor="start" x="440" y="-242.3" font-family="Times,serif" font-size="14.00">_layout</text>
</g>
<!-- Web::Users::AuthenticationsController -->
<g id="node36" class="node"><title>Web::Users::AuthenticationsController</title>
<path fill="none" stroke="black" d="M1020,-504.5C1020,-504.5 1226,-504.5 1226,-504.5 1232,-504.5 1238,-510.5 1238,-516.5 1238,-516.5 1238,-585.5 1238,-585.5 1238,-591.5 1232,-597.5 1226,-597.5 1226,-597.5 1020,-597.5 1020,-597.5 1014,-597.5 1008,-591.5 1008,-585.5 1008,-585.5 1008,-516.5 1008,-516.5 1008,-510.5 1014,-504.5 1020,-504.5"/>
<text text-anchor="middle" x="1123" y="-582.3" font-family="Times,serif" font-size="14.00">Web::Users::AuthenticationsController</text>
<polyline fill="none" stroke="black" points="1008,-574.5 1238,-574.5 "/>
<text text-anchor="start" x="1016" y="-559.3" font-family="Times,serif" font-size="14.00">destroy</text>
<polyline fill="none" stroke="black" points="1008,-551.5 1238,-551.5 "/>
<polyline fill="none" stroke="black" points="1008,-527.5 1238,-527.5 "/>
<text text-anchor="start" x="1016" y="-512.3" font-family="Times,serif" font-size="14.00">_layout</text>
</g>
<!-- Web::Users::ApplicationController -->
<g id="node37" class="node"><title>Web::Users::ApplicationController</title>
<path fill="none" stroke="black" d="M876,-1170.5C876,-1170.5 1060,-1170.5 1060,-1170.5 1066,-1170.5 1072,-1176.5 1072,-1182.5 1072,-1182.5 1072,-1252.5 1072,-1252.5 1072,-1258.5 1066,-1264.5 1060,-1264.5 1060,-1264.5 876,-1264.5 876,-1264.5 870,-1264.5 864,-1258.5 864,-1252.5 864,-1252.5 864,-1182.5 864,-1182.5 864,-1176.5 870,-1170.5 876,-1170.5"/>
<text text-anchor="middle" x="968" y="-1249.3" font-family="Times,serif" font-size="14.00">Web::Users::ApplicationController</text>
<polyline fill="none" stroke="black" points="864,-1241.5 1072,-1241.5 "/>
<polyline fill="none" stroke="black" points="864,-1217.5 1072,-1217.5 "/>
<polyline fill="none" stroke="black" points="864,-1193.5 1072,-1193.5 "/>
<text text-anchor="start" x="872" y="-1178.3" font-family="Times,serif" font-size="14.00">_layout</text>
</g>
<!-- Web::Users::AttributeAccessesController -->
<g id="node38" class="node"><title>Web::Users::AttributeAccessesController</title>
<path fill="none" stroke="black" d="M1002,-702.5C1002,-702.5 1220,-702.5 1220,-702.5 1226,-702.5 1232,-708.5 1232,-714.5 1232,-714.5 1232,-783.5 1232,-783.5 1232,-789.5 1226,-795.5 1220,-795.5 1220,-795.5 1002,-795.5 1002,-795.5 996,-795.5 990,-789.5 990,-783.5 990,-783.5 990,-714.5 990,-714.5 990,-708.5 996,-702.5 1002,-702.5"/>
<text text-anchor="middle" x="1111" y="-780.3" font-family="Times,serif" font-size="14.00">Web::Users::AttributeAccessesController</text>
<polyline fill="none" stroke="black" points="990,-772.5 1232,-772.5 "/>
<text text-anchor="start" x="998" y="-757.3" font-family="Times,serif" font-size="14.00">create</text>
<polyline fill="none" stroke="black" points="990,-749.5 1232,-749.5 "/>
<polyline fill="none" stroke="black" points="990,-725.5 1232,-725.5 "/>
<text text-anchor="start" x="998" y="-710.3" font-family="Times,serif" font-size="14.00">_layout</text>
</g>
<!-- Web::Users::PositionsController -->
<g id="node39" class="node"><title>Web::Users::PositionsController</title>
<path fill="none" stroke="black" d="M642,-1170.5C642,-1170.5 812,-1170.5 812,-1170.5 818,-1170.5 824,-1176.5 824,-1182.5 824,-1182.5 824,-1281.5 824,-1281.5 824,-1287.5 818,-1293.5 812,-1293.5 812,-1293.5 642,-1293.5 642,-1293.5 636,-1293.5 630,-1287.5 630,-1281.5 630,-1281.5 630,-1182.5 630,-1182.5 630,-1176.5 636,-1170.5 642,-1170.5"/>
<text text-anchor="middle" x="727" y="-1278.3" font-family="Times,serif" font-size="14.00">Web::Users::PositionsController</text>
<polyline fill="none" stroke="black" points="630,-1270.5 824,-1270.5 "/>
<text text-anchor="start" x="638" y="-1255.3" font-family="Times,serif" font-size="14.00">create</text>
<text text-anchor="start" x="638" y="-1240.3" font-family="Times,serif" font-size="14.00">destroy</text>
<text text-anchor="start" x="638" y="-1225.3" font-family="Times,serif" font-size="14.00">update</text>
<polyline fill="none" stroke="black" points="630,-1217.5 824,-1217.5 "/>
<polyline fill="none" stroke="black" points="630,-1193.5 824,-1193.5 "/>
<text text-anchor="start" x="638" y="-1178.3" font-family="Times,serif" font-size="14.00">_layout</text>
</g>
<!-- Web::Users::JoinController -->
<g id="node40" class="node"><title>Web::Users::JoinController</title>
<path fill="none" stroke="black" d="M624,-36.5C624,-36.5 767,-36.5 767,-36.5 773,-36.5 779,-42.5 779,-48.5 779,-48.5 779,-132.5 779,-132.5 779,-138.5 773,-144.5 767,-144.5 767,-144.5 624,-144.5 624,-144.5 618,-144.5 612,-138.5 612,-132.5 612,-132.5 612,-48.5 612,-48.5 612,-42.5 618,-36.5 624,-36.5"/>
<text text-anchor="middle" x="695.5" y="-129.3" font-family="Times,serif" font-size="14.00">Web::Users::JoinController</text>
<polyline fill="none" stroke="black" points="612,-121.5 779,-121.5 "/>
<text text-anchor="start" x="620" y="-106.3" font-family="Times,serif" font-size="14.00">create</text>
<text text-anchor="start" x="620" y="-91.3" font-family="Times,serif" font-size="14.00">new</text>
<polyline fill="none" stroke="black" points="612,-83.5 779,-83.5 "/>
<polyline fill="none" stroke="black" points="612,-59.5 779,-59.5 "/>
<text text-anchor="start" x="620" y="-44.3" font-family="Times,serif" font-size="14.00">_layout</text>
</g>
<!-- Web::Users::AccountController -->
<g id="node41" class="node"><title>Web::Users::AccountController</title>
<path fill="none" stroke="black" d="M48,-774.5C48,-774.5 214,-774.5 214,-774.5 220,-774.5 226,-780.5 226,-786.5 226,-786.5 226,-870.5 226,-870.5 226,-876.5 220,-882.5 214,-882.5 214,-882.5 48,-882.5 48,-882.5 42,-882.5 36,-876.5 36,-870.5 36,-870.5 36,-786.5 36,-786.5 36,-780.5 42,-774.5 48,-774.5"/>
<text text-anchor="middle" x="131" y="-867.3" font-family="Times,serif" font-size="14.00">Web::Users::AccountController</text>
<polyline fill="none" stroke="black" points="36,-859.5 226,-859.5 "/>
<text text-anchor="start" x="44" y="-844.3" font-family="Times,serif" font-size="14.00">index</text>
<text text-anchor="start" x="44" y="-829.3" font-family="Times,serif" font-size="14.00">update</text>
<polyline fill="none" stroke="black" points="36,-821.5 226,-821.5 "/>
<polyline fill="none" stroke="black" points="36,-797.5 226,-797.5 "/>
<text text-anchor="start" x="44" y="-782.3" font-family="Times,serif" font-size="14.00">_layout</text>
</g>
<!-- Web::UsersController -->
<g id="node42" class="node"><title>Web::UsersController</title>
<path fill="none" stroke="black" d="M1272,-0.5C1272,-0.5 1385,-0.5 1385,-0.5 1391,-0.5 1397,-6.5 1397,-12.5 1397,-12.5 1397,-96.5 1397,-96.5 1397,-102.5 1391,-108.5 1385,-108.5 1385,-108.5 1272,-108.5 1272,-108.5 1266,-108.5 1260,-102.5 1260,-96.5 1260,-96.5 1260,-12.5 1260,-12.5 1260,-6.5 1266,-0.5 1272,-0.5"/>
<text text-anchor="middle" x="1328.5" y="-93.3" font-family="Times,serif" font-size="14.00">Web::UsersController</text>
<polyline fill="none" stroke="black" points="1260,-85.5 1397,-85.5 "/>
<text text-anchor="start" x="1268" y="-70.3" font-family="Times,serif" font-size="14.00">create</text>
<text text-anchor="start" x="1268" y="-55.3" font-family="Times,serif" font-size="14.00">new</text>
<polyline fill="none" stroke="black" points="1260,-47.5 1397,-47.5 "/>
<polyline fill="none" stroke="black" points="1260,-23.5 1397,-23.5 "/>
<text text-anchor="start" x="1268" y="-8.3" font-family="Times,serif" font-size="14.00">_layout</text>
</g>
</g>
</svg>
