<?xml version="1.0" encoding="UTF-8" standalone="no"?>
<!DOCTYPE svg PUBLIC "-//W3C//DTD SVG 1.1//EN"
 "http://www.w3.org/Graphics/SVG/1.1/DTD/svg11.dtd">
<!-- Generated by graphviz version 2.36.0 (20140111.2315)
 -->
<!-- Title: models_diagram Pages: 1 -->
<svg width="966pt" height="674pt"
 viewBox="0.00 0.00 966.45 674.00" xmlns="http://www.w3.org/2000/svg" xmlns:xlink="http://www.w3.org/1999/xlink">
<g id="graph0" class="graph" transform="scale(1 1) rotate(0) translate(4 670)">
<title>models_diagram</title>
<polygon fill="white" stroke="none" points="-4,4 -4,-670 962.45,-670 962.45,4 -4,4"/>
<!-- _diagram_info -->
<g id="node1" class="node"><title>_diagram_info</title>
<text text-anchor="start" x="333.45" y="-651.6" font-family="Times,serif" font-size="13.00">Models diagram</text>
<text text-anchor="start" x="333.45" y="-637.6" font-family="Times,serif" font-size="13.00">Date: May 05 2015 &#45; 17:16</text>
<text text-anchor="start" x="333.45" y="-623.6" font-family="Times,serif" font-size="13.00">Migration version: 20150429122525</text>
<text text-anchor="start" x="333.45" y="-609.6" font-family="Times,serif" font-size="13.00">Generated by RailRoady 1.3.0</text>
<text text-anchor="start" x="333.45" y="-595.6" font-family="Times,serif" font-size="13.00">http://railroady.prestonlee.com</text>
</g>
<!-- Authentication -->
<g id="node2" class="node"><title>Authentication</title>
<ellipse fill="none" stroke="black" cx="655.45" cy="-268" rx="63.0666" ry="18"/>
<text text-anchor="middle" x="655.45" y="-264.3" font-family="Times,serif" font-size="14.00">Authentication</text>
</g>
<!-- Member -->
<g id="node3" class="node"><title>Member</title>
<ellipse fill="none" stroke="black" cx="536.45" cy="-518" rx="41.394" ry="18"/>
<text text-anchor="middle" x="536.45" y="-514.3" font-family="Times,serif" font-size="14.00">Member</text>
</g>
<!-- Member&#45;&gt;Authentication -->
<g id="edge1" class="edge"><title>Member&#45;&gt;Authentication</title>
<path fill="none" stroke="#150565" d="M547.795,-492.83C556.429,-474.475 568.63,-448.62 579.45,-426 601.497,-379.903 627.499,-326.364 642.663,-295.221"/>
<ellipse fill="none" stroke="#150565" cx="546.029" cy="-496.586" rx="4.00002" ry="4.00002"/>
<polygon fill="#150565" stroke="#150565" points="642.808,-294.925 651.233,-287.906 644.998,-290.43 647.187,-285.935 647.187,-285.935 647.187,-285.935 644.998,-290.43 643.142,-283.964 642.808,-294.925 642.808,-294.925"/>
</g>
<!-- Member&#45;&gt;Member -->
<g id="edge4" class="edge"><title>Member&#45;&gt;Member</title>
<path fill="none" stroke="#58df14" d="M582.888,-524.223C590.342,-523.318 595.45,-521.243 595.45,-518 595.45,-515.095 591.351,-513.127 585.138,-512.098"/>
<ellipse fill="none" stroke="#58df14" cx="578.745" cy="-524.486" rx="4" ry="4"/>
<polygon fill="#58df14" stroke="#58df14" points="584.721,-512.064 575.115,-506.775 579.737,-511.662 574.753,-511.26 574.753,-511.26 574.753,-511.26 579.737,-511.662 574.392,-515.746 584.721,-512.064 584.721,-512.064"/>
<text text-anchor="middle" x="617.95" y="-514.3" font-family="Times,serif" font-size="14.00">children</text>
</g>
<!-- News -->
<g id="node4" class="node"><title>News</title>
<ellipse fill="none" stroke="black" cx="398.45" cy="-268" rx="30.3206" ry="18"/>
<text text-anchor="middle" x="398.45" y="-264.3" font-family="Times,serif" font-size="14.00">News</text>
</g>
<!-- Member&#45;&gt;News -->
<g id="edge2" class="edge"><title>Member&#45;&gt;News</title>
<path fill="none" stroke="#e7bec5" d="M513.847,-495.38C510.094,-491.159 506.453,-486.606 503.45,-482 479.736,-445.628 484.302,-431.113 465.45,-392 448.785,-357.426 427.201,-318.729 413.098,-294.136"/>
<ellipse fill="none" stroke="#e7bec5" cx="516.635" cy="-498.37" rx="4.00002" ry="4.00002"/>
<polygon fill="#e7bec5" stroke="#e7bec5" points="413.079,-294.103 411.984,-283.191 410.582,-289.771 408.085,-285.439 408.085,-285.439 408.085,-285.439 410.582,-289.771 404.186,-287.686 413.079,-294.103 413.079,-294.103"/>
</g>
<!-- Tag -->
<g id="node8" class="node"><title>Tag</title>
<ellipse fill="none" stroke="black" cx="270.45" cy="-18" rx="27" ry="18"/>
<text text-anchor="middle" x="270.45" y="-14.3" font-family="Times,serif" font-size="14.00">Tag</text>
</g>
<!-- Member&#45;&gt;Tag -->
<g id="edge7" class="edge"><title>Member&#45;&gt;Tag</title>
<path fill="none" stroke="#b58fa3" d="M555.479,-494.941C559.136,-490.662 562.924,-486.201 566.45,-482 587.154,-457.327 586.61,-445.229 612.45,-426 716.81,-348.34 882.45,-443.086 882.45,-313 882.45,-313 882.45,-313 882.45,-91 882.45,-32.7995 440.251,-21.5197 307.616,-19.4454"/>
<ellipse fill="none" stroke="#b58fa3" cx="552.863" cy="-497.993" rx="4.00002" ry="4.00002"/>
<polygon fill="#b58fa3" stroke="#b58fa3" points="307.535,-19.4443 297.603,-14.7969 302.536,-19.3703 297.536,-19.2964 297.536,-19.2964 297.536,-19.2964 302.536,-19.3703 297.469,-23.7959 307.535,-19.4443 307.535,-19.4443"/>
</g>
<!-- AttributeAccess -->
<g id="node9" class="node"><title>AttributeAccess</title>
<ellipse fill="none" stroke="black" cx="689.45" cy="-444" rx="67.3907" ry="18"/>
<text text-anchor="middle" x="689.45" y="-440.3" font-family="Times,serif" font-size="14.00">AttributeAccess</text>
</g>
<!-- Member&#45;&gt;AttributeAccess -->
<g id="edge5" class="edge"><title>Member&#45;&gt;AttributeAccess</title>
<path fill="none" stroke="#f8acbb" d="M570.863,-500.806C593.837,-489.994 624.163,-475.723 648.396,-464.319"/>
<ellipse fill="none" stroke="#f8acbb" cx="567.07" cy="-502.59" rx="4.00002" ry="4.00002"/>
<polygon fill="#f8acbb" stroke="#f8acbb" points="648.645,-464.202 659.61,-464.016 653.169,-462.073 657.693,-459.944 657.693,-459.944 657.693,-459.944 653.169,-462.073 655.777,-455.872 648.645,-464.202 648.645,-464.202"/>
</g>
<!-- Event -->
<g id="node11" class="node"><title>Event</title>
<ellipse fill="none" stroke="black" cx="223.45" cy="-356" rx="31.2965" ry="18"/>
<text text-anchor="middle" x="223.45" y="-352.3" font-family="Times,serif" font-size="14.00">Event</text>
</g>
<!-- Member&#45;&gt;Event -->
<g id="edge10" class="edge"><title>Member&#45;&gt;Event</title>
<path fill="none" stroke="#3eb1db" d="M488.238,-512.39C442.829,-506.317 374.231,-492.561 322.45,-462 287.86,-441.585 257.769,-405.563 240.106,-381.486"/>
<ellipse fill="none" stroke="#3eb1db" cx="492.47" cy="-512.93" rx="4.00001" ry="4.00001"/>
<polygon fill="#3eb1db" stroke="#3eb1db" points="239.999,-381.337 237.834,-370.587 237.088,-377.272 234.176,-373.207 234.176,-373.207 234.176,-373.207 237.088,-377.272 230.518,-375.828 239.999,-381.337 239.999,-381.337"/>
</g>
<!-- Position -->
<g id="node12" class="node"><title>Position</title>
<ellipse fill="none" stroke="black" cx="814.45" cy="-444" rx="39.4691" ry="18"/>
<text text-anchor="middle" x="814.45" y="-440.3" font-family="Times,serif" font-size="14.00">Position</text>
</g>
<!-- Member&#45;&gt;Position -->
<g id="edge6" class="edge"><title>Member&#45;&gt;Position</title>
<path fill="none" stroke="#ec3bf8" d="M580.873,-507.688C627.26,-497.648 701.964,-480.588 765.45,-462 768.56,-461.089 771.766,-460.098 774.977,-459.068"/>
<ellipse fill="none" stroke="#ec3bf8" cx="576.742" cy="-508.577" rx="4.00001" ry="4.00001"/>
<polygon fill="#ec3bf8" stroke="#ec3bf8" points="775.048,-459.044 785.956,-460.171 779.794,-457.472 784.54,-455.899 784.54,-455.899 784.54,-455.899 779.794,-457.472 783.125,-451.627 775.048,-459.044 775.048,-459.044"/>
</g>
<!-- Team -->
<g id="node13" class="node"><title>Team</title>
<ellipse fill="none" stroke="black" cx="362.45" cy="-444" rx="31.2965" ry="18"/>
<text text-anchor="middle" x="362.45" y="-440.3" font-family="Times,serif" font-size="14.00">Team</text>
</g>
<!-- Member&#45;&gt;Team -->
<g id="edge8" class="edge"><title>Member&#45;&gt;Team</title>
<path fill="none" stroke="#7c9461" d="M488.199,-508.967C463.167,-503.568 432.641,-495.004 407.45,-482 399.74,-478.02 392.145,-472.553 385.452,-467.042"/>
<polygon fill="#7c9461" stroke="#7c9461" points="488.408,-509.01 497.299,-515.43 493.306,-510.016 498.204,-511.022 498.204,-511.022 498.204,-511.022 493.306,-510.016 499.109,-506.614 488.408,-509.01 488.408,-509.01"/>
<polygon fill="#7c9461" stroke="#7c9461" points="385.066,-466.707 380.47,-456.751 381.292,-463.427 377.518,-460.147 377.518,-460.147 377.518,-460.147 381.292,-463.427 374.566,-463.544 385.066,-466.707 385.066,-466.707"/>
</g>
<!-- Article -->
<g id="node16" class="node"><title>Article</title>
<ellipse fill="none" stroke="black" cx="458.45" cy="-92" rx="35.1455" ry="18"/>
<text text-anchor="middle" x="458.45" y="-88.3" font-family="Times,serif" font-size="14.00">Article</text>
</g>
<!-- Member&#45;&gt;Article -->
<g id="edge3" class="edge"><title>Member&#45;&gt;Article</title>
<path fill="none" stroke="#a1fce2" d="M539.665,-491.876C546.338,-432.854 558.33,-281.331 523.45,-162 518.764,-145.97 518.147,-140.825 507.45,-128 502.478,-122.039 496.268,-116.592 489.956,-111.861"/>
<ellipse fill="none" stroke="#a1fce2" cx="539.19" cy="-495.925" rx="4.00001" ry="4.00001"/>
<polygon fill="#a1fce2" stroke="#a1fce2" points="489.589,-111.605 483.972,-102.187 485.491,-108.74 481.394,-105.875 481.394,-105.875 481.394,-105.875 485.491,-108.74 478.815,-109.563 489.589,-111.605 489.589,-111.605"/>
</g>
<!-- Event::Registration -->
<g id="node17" class="node"><title>Event::Registration</title>
<ellipse fill="none" stroke="black" cx="221.45" cy="-268" rx="78.9404" ry="18"/>
<text text-anchor="middle" x="221.45" y="-264.3" font-family="Times,serif" font-size="14.00">Event::Registration</text>
</g>
<!-- Member&#45;&gt;Event::Registration -->
<g id="edge9" class="edge"><title>Member&#45;&gt;Event::Registration</title>
<path fill="none" stroke="#f7b994" d="M508.857,-497.534C479.593,-476.5 432.438,-441.483 394.45,-408 345.646,-364.984 344.133,-342.165 291.45,-304 283.691,-298.38 274.897,-293.2 266.225,-288.645"/>
<ellipse fill="none" stroke="#f7b994" cx="512.284" cy="-499.987" rx="4.00002" ry="4.00002"/>
<polygon fill="#f7b994" stroke="#f7b994" points="266.209,-288.637 259.309,-280.115 261.745,-286.385 257.281,-284.132 257.281,-284.132 257.281,-284.132 261.745,-286.385 255.254,-288.15 266.209,-288.637 266.209,-288.637"/>
<text text-anchor="middle" x="427.95" y="-396.3" font-family="Times,serif" font-size="14.00">registrations</text>
</g>
<!-- Document -->
<g id="node6" class="node"><title>Document</title>
<ellipse fill="none" stroke="black" cx="346.45" cy="-180" rx="48.1437" ry="18"/>
<text text-anchor="middle" x="346.45" y="-176.3" font-family="Times,serif" font-size="14.00">Document</text>
</g>
<!-- News&#45;&gt;Document -->
<g id="edge12" class="edge"><title>News&#45;&gt;Document</title>
<path fill="none" stroke="#27e159" d="M361.7,-255.978C350.31,-250.642 339.031,-242.94 332.45,-232 327.959,-224.536 328.72,-215.599 331.456,-207.307"/>
<polygon fill="#27e159" stroke="#27e159" points="361.959,-256.085 369.467,-264.078 366.576,-258.004 371.193,-259.923 371.193,-259.923 371.193,-259.923 366.576,-258.004 372.92,-255.768 361.959,-256.085 361.959,-256.085"/>
<polygon fill="#27e159" stroke="#27e159" points="331.497,-207.211 339.527,-199.743 333.438,-202.603 335.38,-197.995 335.38,-197.995 335.38,-197.995 333.438,-202.603 331.233,-196.248 331.497,-207.211 331.497,-207.211"/>
<text text-anchor="middle" x="365.45" y="-220.3" font-family="Times,serif" font-size="14.00">attachments</text>
</g>
<!-- News&#45;&gt;Tag -->
<g id="edge11" class="edge"><title>News&#45;&gt;Tag</title>
<path fill="none" stroke="#939560" d="M364.067,-256.319C337.861,-246.073 303.897,-227.694 289.45,-198 265.474,-148.722 265.429,-82.9637 267.781,-46.4256"/>
<ellipse fill="none" stroke="#939560" cx="367.826" cy="-257.722" rx="4.00001" ry="4.00001"/>
<polygon fill="#939560" stroke="#939560" points="267.809,-46.0464 273.05,-36.4142 268.186,-41.0606 268.563,-36.0749 268.563,-36.0749 268.563,-36.0749 268.186,-41.0606 264.076,-35.7355 267.809,-46.0464 267.809,-46.0464"/>
</g>
<!-- Category -->
<g id="node5" class="node"><title>Category</title>
<ellipse fill="none" stroke="black" cx="455.45" cy="-180" rx="42.3456" ry="18"/>
<text text-anchor="middle" x="455.45" y="-176.3" font-family="Times,serif" font-size="14.00">Category</text>
</g>
<!-- Category&#45;&gt;Article -->
<g id="edge13" class="edge"><title>Category&#45;&gt;Article</title>
<path fill="none" stroke="#de23d1" d="M456.345,-153.339C456.71,-142.855 457.134,-130.718 457.504,-120.091"/>
<ellipse fill="none" stroke="#de23d1" cx="456.196" cy="-157.599" rx="4" ry="4"/>
<polygon fill="#de23d1" stroke="#de23d1" points="457.505,-120.078 462.351,-110.241 457.679,-115.081 457.854,-110.084 457.854,-110.084 457.854,-110.084 457.679,-115.081 453.356,-109.927 457.505,-120.078 457.505,-120.078"/>
</g>
<!-- Document&#45;&gt;News -->
<g id="edge15" class="edge"><title>Document&#45;&gt;News</title>
<path fill="none" stroke="#952388" d="M384.846,-200.193C390.317,-204.619 395.186,-209.869 398.45,-216 402.268,-223.173 403.349,-231.759 403.164,-239.821"/>
<polygon fill="#952388" stroke="#952388" points="384.676,-200.072 379.119,-190.618 380.596,-197.181 376.517,-194.289 376.517,-194.289 376.517,-194.289 380.596,-197.181 373.915,-197.961 384.676,-200.072 384.676,-200.072"/>
<polygon fill="#952388" stroke="#952388" points="403.149,-239.991 397.831,-249.581 402.732,-244.974 402.315,-249.956 402.315,-249.956 402.315,-249.956 402.732,-244.974 406.799,-250.332 403.149,-239.991 403.149,-239.991"/>
</g>
<!-- Document&#45;&gt;Article -->
<g id="edge14" class="edge"><title>Document&#45;&gt;Article</title>
<path fill="none" stroke="#33dab5" d="M347.773,-151.926C349.417,-143.413 352.568,-134.538 358.45,-128 372.697,-112.163 394.519,-103.492 414.147,-98.7447"/>
<polygon fill="#33dab5" stroke="#33dab5" points="347.759,-152.038 341.974,-161.354 347.096,-156.994 346.434,-161.95 346.434,-161.95 346.434,-161.95 347.096,-156.994 350.894,-162.546 347.759,-152.038 347.759,-152.038"/>
<polygon fill="#33dab5" stroke="#33dab5" points="414.381,-98.6948 425.101,-101.003 419.27,-97.6486 424.159,-96.6025 424.159,-96.6025 424.159,-96.6025 419.27,-97.6486 423.218,-92.2021 414.381,-98.6948 414.381,-98.6948"/>
</g>
<!-- ActivityLine -->
<g id="node7" class="node"><title>ActivityLine</title>
<ellipse fill="none" stroke="black" cx="143.45" cy="-444" rx="55.3436" ry="18"/>
<text text-anchor="middle" x="143.45" y="-440.3" font-family="Times,serif" font-size="14.00">ActivityLine</text>
</g>
<!-- ActivityLine&#45;&gt;Tag -->
<g id="edge17" class="edge"><title>ActivityLine&#45;&gt;Tag</title>
<path fill="none" stroke="#01d71a" d="M114.233,-421.994C96.1844,-406.381 76.4495,-383.296 76.4495,-357 76.4495,-357 76.4495,-357 76.4495,-91 76.4495,-57.687 178.264,-34.8539 234.375,-24.7998"/>
<ellipse fill="none" stroke="#01d71a" cx="117.685" cy="-424.85" rx="4.00002" ry="4.00002"/>
<polygon fill="#01d71a" stroke="#01d71a" points="234.434,-24.7895 245.059,-27.5046 239.36,-23.9305 244.286,-23.0715 244.286,-23.0715 244.286,-23.0715 239.36,-23.9305 243.513,-18.6384 234.434,-24.7895 234.434,-24.7895"/>
</g>
<!-- ActivityLine&#45;&gt;Event -->
<g id="edge16" class="edge"><title>ActivityLine&#45;&gt;Event</title>
<path fill="none" stroke="#5c96e5" d="M164.663,-420.195C176.385,-407.594 190.893,-391.999 202.562,-379.454"/>
<ellipse fill="none" stroke="#5c96e5" cx="161.599" cy="-423.49" rx="4.00002" ry="4.00002"/>
<polygon fill="#5c96e5" stroke="#5c96e5" points="202.601,-379.413 212.706,-375.156 206.006,-375.752 209.412,-372.091 209.412,-372.091 209.412,-372.091 206.006,-375.752 206.117,-369.026 202.601,-379.413 202.601,-379.413"/>
</g>
<!-- Banner -->
<g id="node10" class="node"><title>Banner</title>
<ellipse fill="none" stroke="black" cx="719.45" cy="-627" rx="36.096" ry="18"/>
<text text-anchor="middle" x="719.45" y="-623.3" font-family="Times,serif" font-size="14.00">Banner</text>
</g>
<!-- Event&#45;&gt;Tag -->
<g id="edge19" class="edge"><title>Event&#45;&gt;Tag</title>
<path fill="none" stroke="#a4c34a" d="M188.652,-343.938C156.754,-331.365 114.45,-307.443 114.45,-269 114.45,-269 114.45,-269 114.45,-91 114.45,-38.9744 186.861,-24.4187 233.015,-20.4251"/>
<ellipse fill="none" stroke="#a4c34a" cx="192.762" cy="-345.484" rx="4.00001" ry="4.00001"/>
<polygon fill="#a4c34a" stroke="#a4c34a" points="233.303,-20.404 243.606,-24.1593 238.29,-20.0377 243.276,-19.6714 243.276,-19.6714 243.276,-19.6714 238.29,-20.0377 242.947,-15.1835 233.303,-20.404 233.303,-20.404"/>
</g>
<!-- Event&#45;&gt;Event::Registration -->
<g id="edge18" class="edge"><title>Event&#45;&gt;Event::Registration</title>
<path fill="none" stroke="#3b8e88" d="M221.036,-329.876C220.793,-326.558 220.586,-323.199 220.45,-320 220.116,-312.214 220.131,-303.754 220.292,-296.005"/>
<ellipse fill="none" stroke="#3b8e88" cx="221.367" cy="-333.942" rx="4" ry="4"/>
<polygon fill="#3b8e88" stroke="#3b8e88" points="220.292,-296.002 225.084,-286.138 220.439,-291.004 220.586,-286.006 220.586,-286.006 220.586,-286.006 220.439,-291.004 216.088,-285.874 220.292,-296.002 220.292,-296.002"/>
<text text-anchor="middle" x="253.95" y="-308.3" font-family="Times,serif" font-size="14.00">registrations</text>
</g>
<!-- Team&#45;&gt;Tag -->
<g id="edge20" class="edge"><title>Team&#45;&gt;Tag</title>
<path fill="none" stroke="#8dd06b" d="M358.496,-418.111C351.875,-380.378 336.533,-307.053 309.45,-250 303.368,-237.188 277.506,-211.25 272.45,-198 263.84,-175.439 268.844,-168.029 266.45,-144 262.481,-104.175 259.506,-93.8274 263.45,-54 263.706,-51.41 264.067,-48.7278 264.491,-46.0534"/>
<ellipse fill="none" stroke="#8dd06b" cx="359.176" cy="-422.097" rx="4.00001" ry="4.00001"/>
<polygon fill="#8dd06b" stroke="#8dd06b" points="264.533,-45.8218 270.776,-36.8065 265.442,-40.9051 266.351,-35.9884 266.351,-35.9884 266.351,-35.9884 265.442,-40.9051 261.926,-35.1703 264.533,-45.8218 264.533,-45.8218"/>
</g>
<!-- Team&#45;&gt;Event -->
<g id="edge22" class="edge"><title>Team&#45;&gt;Event</title>
<path fill="none" stroke="#65a886" d="M335.109,-426.084C311.386,-411.407 277.13,-390.212 252.828,-375.176"/>
<ellipse fill="none" stroke="#65a886" cx="338.538" cy="-428.206" rx="4.00002" ry="4.00002"/>
<polygon fill="#65a886" stroke="#65a886" points="252.548,-375.003 246.411,-365.915 248.296,-372.372 244.044,-369.742 244.044,-369.742 244.044,-369.742 248.296,-372.372 241.676,-373.568 252.548,-375.003 252.548,-375.003"/>
</g>
<!-- User -->
<g id="node15" class="node"><title>User</title>
<ellipse fill="none" stroke="black" cx="503.45" cy="-356" rx="26.949" ry="18"/>
<text text-anchor="middle" x="503.45" y="-352.3" font-family="Times,serif" font-size="14.00">User</text>
</g>
<!-- Team&#45;&gt;User -->
<g id="edge21" class="edge"><title>Team&#45;&gt;User</title>
<path fill="none" stroke="#7cf3ab" d="M365.767,-415.867C368.065,-407.242 371.937,-398.314 378.45,-392 401.764,-369.397 438.434,-361.15 466.039,-358.259"/>
<polygon fill="#7cf3ab" stroke="#7cf3ab" points="365.762,-415.887 359.322,-424.762 364.745,-420.783 363.728,-425.678 363.728,-425.678 363.728,-425.678 364.745,-420.783 368.133,-426.594 365.762,-415.887 365.762,-415.887"/>
<polygon fill="#7cf3ab" stroke="#7cf3ab" points="466.165,-358.249 476.513,-361.879 471.147,-357.822 476.128,-357.395 476.128,-357.395 476.128,-357.395 471.147,-357.822 475.744,-352.912 466.165,-358.249 466.165,-358.249"/>
</g>
<!-- Questionary -->
<g id="node14" class="node"><title>Questionary</title>
<ellipse fill="none" stroke="black" cx="611.45" cy="-627" rx="53.4184" ry="18"/>
<text text-anchor="middle" x="611.45" y="-623.3" font-family="Times,serif" font-size="14.00">Questionary</text>
</g>
<!-- Questionary&#45;&gt;Authentication -->
<g id="edge23" class="edge"><title>Questionary&#45;&gt;Authentication</title>
<path fill="none" stroke="#ea6a41" d="M643.043,-606.476C709.113,-565.496 856.309,-473.346 862.45,-462 905.978,-381.562 776.764,-316.06 703.003,-286.302"/>
<ellipse fill="none" stroke="#ea6a41" cx="639.555" cy="-608.638" rx="4.00002" ry="4.00002"/>
<polygon fill="#ea6a41" stroke="#ea6a41" points="702.723,-286.191 695.08,-278.327 698.073,-284.351 693.424,-282.512 693.424,-282.512 693.424,-282.512 698.073,-284.351 691.768,-286.696 702.723,-286.191 702.723,-286.191"/>
</g>
<!-- Questionary&#45;&gt;Member -->
<g id="edge26" class="edge"><title>Questionary&#45;&gt;Member</title>
<path fill="none" stroke="#462e5c" d="M594.981,-602.504C582.895,-585.262 566.503,-561.876 554.14,-544.238"/>
<ellipse fill="none" stroke="#462e5c" cx="597.435" cy="-606.006" rx="4.00002" ry="4.00002"/>
<polygon fill="#462e5c" stroke="#462e5c" points="553.826,-543.79 551.771,-533.018 550.956,-539.696 548.086,-535.601 548.086,-535.601 548.086,-535.601 550.956,-539.696 544.401,-538.184 553.826,-543.79 553.826,-543.79"/>
<text text-anchor="middle" x="593.95" y="-558.3" font-family="Times,serif" font-size="14.00">children</text>
</g>
<!-- Questionary&#45;&gt;News -->
<g id="edge24" class="edge"><title>Questionary&#45;&gt;News</title>
<path fill="none" stroke="#27289e" d="M581.371,-606.437C570.884,-600.08 558.878,-593.304 547.45,-588 525.266,-577.704 518.167,-579.059 495.45,-570 411.255,-536.427 362.854,-543.138 322.45,-462 292.752,-402.362 345.671,-328.124 377.306,-291.536"/>
<ellipse fill="none" stroke="#27289e" cx="584.958" cy="-608.649" rx="4.00002" ry="4.00002"/>
<polygon fill="#27289e" stroke="#27289e" points="377.439,-291.385 387.44,-286.888 380.756,-287.644 384.073,-283.903 384.073,-283.903 384.073,-283.903 380.756,-287.644 380.706,-280.918 377.439,-291.385 377.439,-291.385"/>
</g>
<!-- Questionary&#45;&gt;Tag -->
<g id="edge29" class="edge"><title>Questionary&#45;&gt;Tag</title>
<path fill="none" stroke="#f98d0b" d="M638.514,-605.849C649.176,-598.966 661.868,-592.001 674.45,-588 726.685,-571.389 872.393,-596.362 920.45,-570 945.232,-556.405 958.45,-547.267 958.45,-519 958.45,-519 958.45,-519 958.45,-91 958.45,-24.9484 450.369,-19.249 307.45,-18.9524"/>
<ellipse fill="none" stroke="#f98d0b" cx="635.147" cy="-608.103" rx="4.00002" ry="4.00002"/>
<polygon fill="#f98d0b" stroke="#f98d0b" points="307.42,-18.9524 297.426,-14.4394 302.42,-18.9459 297.42,-18.9394 297.42,-18.9394 297.42,-18.9394 302.42,-18.9459 297.414,-23.4394 307.42,-18.9524 307.42,-18.9524"/>
</g>
<!-- Questionary&#45;&gt;AttributeAccess -->
<g id="edge27" class="edge"><title>Questionary&#45;&gt;AttributeAccess</title>
<path fill="none" stroke="#eee56b" d="M621.985,-601.552C636.583,-567.678 662.864,-506.693 677.954,-471.675"/>
<ellipse fill="none" stroke="#eee56b" cx="620.371" cy="-605.299" rx="4.00002" ry="4.00002"/>
<polygon fill="#eee56b" stroke="#eee56b" points="678.117,-471.298 686.207,-463.896 680.095,-466.706 682.074,-462.115 682.074,-462.115 682.074,-462.115 680.095,-466.706 677.942,-460.334 678.117,-471.298 678.117,-471.298"/>
</g>
<!-- Questionary&#45;&gt;Event -->
<g id="edge32" class="edge"><title>Questionary&#45;&gt;Event</title>
<path fill="none" stroke="#35fa13" d="M583.921,-605.828C573.085,-598.943 560.198,-591.982 547.45,-588 492.59,-570.866 334.498,-605.689 289.45,-570 232.281,-524.709 223.511,-430.722 222.866,-384.241"/>
<ellipse fill="none" stroke="#35fa13" cx="587.383" cy="-608.109" rx="4.00002" ry="4.00002"/>
<polygon fill="#35fa13" stroke="#35fa13" points="222.866,-384.028 227.347,-374.019 222.856,-379.028 222.847,-374.028 222.847,-374.028 222.847,-374.028 222.856,-379.028 218.347,-374.036 222.866,-384.028 222.866,-384.028"/>
</g>
<!-- Questionary&#45;&gt;Position -->
<g id="edge28" class="edge"><title>Questionary&#45;&gt;Position</title>
<path fill="none" stroke="#9c4735" d="M635.512,-604.546C674.287,-569.972 750.217,-502.272 789.532,-467.218"/>
<ellipse fill="none" stroke="#9c4735" cx="632.45" cy="-607.275" rx="4.00002" ry="4.00002"/>
<polygon fill="#9c4735" stroke="#9c4735" points="789.875,-466.912 800.333,-463.615 793.607,-463.584 797.339,-460.257 797.339,-460.257 797.339,-460.257 793.607,-463.584 794.344,-456.898 789.875,-466.912 789.875,-466.912"/>
</g>
<!-- Questionary&#45;&gt;Team -->
<g id="edge30" class="edge"><title>Questionary&#45;&gt;Team</title>
<path fill="none" stroke="#686b57" d="M577.811,-605.59C535.074,-579.096 459.746,-530.489 400.45,-482 394.894,-477.457 389.199,-472.251 383.965,-467.206"/>
<polygon fill="#686b57" stroke="#686b57" points="577.908,-605.65 584.056,-614.73 582.163,-608.275 586.419,-610.9 586.419,-610.9 586.419,-610.9 582.163,-608.275 588.781,-607.07 577.908,-605.65 577.908,-605.65"/>
<polygon fill="#686b57" stroke="#686b57" points="383.81,-467.054 379.857,-456.825 380.253,-463.541 376.695,-460.027 376.695,-460.027 376.695,-460.027 380.253,-463.541 373.533,-463.229 383.81,-467.054 383.81,-467.054"/>
</g>
<!-- Questionary&#45;&gt;Article -->
<g id="edge25" class="edge"><title>Questionary&#45;&gt;Article</title>
<path fill="none" stroke="#65bd62" d="M640.592,-606.181C650.959,-599.744 662.923,-592.984 674.45,-588 778.677,-542.934 920.45,-632.553 920.45,-519 920.45,-519 920.45,-519 920.45,-311 920.45,-127.841 619.791,-98.3243 503.56,-93.7565"/>
<ellipse fill="none" stroke="#65bd62" cx="637.073" cy="-608.416" rx="4.00002" ry="4.00002"/>
<polygon fill="#65bd62" stroke="#65bd62" points="503.548,-93.7562 493.711,-88.9103 498.551,-93.5819 493.554,-93.4076 493.554,-93.4076 493.554,-93.4076 498.551,-93.5819 493.397,-97.9049 503.548,-93.7562 503.548,-93.7562"/>
</g>
<!-- Questionary&#45;&gt;Event::Registration -->
<g id="edge31" class="edge"><title>Questionary&#45;&gt;Event::Registration</title>
<path fill="none" stroke="#3dadb1" d="M583.932,-605.793C573.098,-598.903 560.209,-591.949 547.45,-588 428.746,-551.265 389.403,-598.464 268.45,-570 147.846,-541.618 80.0192,-565.194 11.4495,-462 -39.4689,-385.371 94.1483,-318.308 171.254,-287.291"/>
<ellipse fill="none" stroke="#3dadb1" cx="587.393" cy="-608.076" rx="4.00002" ry="4.00002"/>
<polygon fill="#3dadb1" stroke="#3dadb1" points="171.519,-287.187 182.473,-287.696 176.169,-285.349 180.819,-283.511 180.819,-283.511 180.819,-283.511 176.169,-285.349 179.165,-279.326 171.519,-287.187 171.519,-287.187"/>
<text text-anchor="middle" x="44.9495" y="-440.3" font-family="Times,serif" font-size="14.00">registrations</text>
</g>
<!-- User&#45;&gt;Authentication -->
<g id="edge33" class="edge"><title>User&#45;&gt;Authentication</title>
<path fill="none" stroke="#06491b" d="M528.232,-337.853C543.555,-327.542 563.795,-314.439 582.45,-304 592.404,-298.43 603.383,-292.874 613.737,-287.883"/>
<ellipse fill="none" stroke="#06491b" cx="524.872" cy="-340.13" rx="4.00002" ry="4.00002"/>
<polygon fill="#06491b" stroke="#06491b" points="613.989,-287.763 624.953,-287.539 618.506,-285.619 623.023,-283.474 623.023,-283.474 623.023,-283.474 618.506,-285.619 621.093,-279.409 613.989,-287.763 613.989,-287.763"/>
</g>
<!-- User&#45;&gt;News -->
<g id="edge34" class="edge"><title>User&#45;&gt;News</title>
<path fill="none" stroke="#eb4ede" d="M488.204,-332.253C481.118,-322.768 472.122,-312.099 462.45,-304 453.137,-296.203 441.82,-289.336 431.307,-283.796"/>
<ellipse fill="none" stroke="#eb4ede" cx="490.665" cy="-335.656" rx="4.00002" ry="4.00002"/>
<polygon fill="#eb4ede" stroke="#eb4ede" points="431.275,-283.78 424.371,-275.261 426.81,-281.53 422.346,-279.279 422.346,-279.279 422.346,-279.279 426.81,-281.53 420.32,-283.298 431.275,-283.78 431.275,-283.78"/>
</g>
<!-- User&#45;&gt;Article -->
<g id="edge35" class="edge"><title>User&#45;&gt;Article</title>
<path fill="none" stroke="#feb1ec" d="M508.712,-330.092C515.556,-292.622 524.629,-219.968 506.45,-162 501.148,-145.095 490.079,-128.706 479.906,-116.145"/>
<ellipse fill="none" stroke="#feb1ec" cx="507.959" cy="-334.039" rx="4.00001" ry="4.00001"/>
<polygon fill="#feb1ec" stroke="#feb1ec" points="479.878,-116.112 476.855,-105.571 476.649,-112.294 473.42,-108.477 473.42,-108.477 473.42,-108.477 476.649,-112.294 469.984,-111.383 479.878,-116.112 479.878,-116.112"/>
</g>
<!-- Article&#45;&gt;Document -->
<g id="edge37" class="edge"><title>Article&#45;&gt;Document</title>
<path fill="none" stroke="#19a982" d="M421.204,-107.195C409.414,-112.679 396.776,-119.665 386.45,-128 377.425,-135.284 369.184,-144.969 362.558,-153.941"/>
<polygon fill="#19a982" stroke="#19a982" points="421.271,-107.166 432.237,-107.238 425.844,-105.144 430.417,-103.122 430.417,-103.122 430.417,-103.122 425.844,-105.144 428.597,-99.0063 421.271,-107.166 421.271,-107.166"/>
<polygon fill="#19a982" stroke="#19a982" points="362.484,-154.047 353.048,-159.633 359.605,-158.135 356.727,-162.223 356.727,-162.223 356.727,-162.223 359.605,-158.135 360.407,-164.814 362.484,-154.047 362.484,-154.047"/>
<text text-anchor="middle" x="419.45" y="-132.3" font-family="Times,serif" font-size="14.00">attachments</text>
</g>
<!-- Article&#45;&gt;Tag -->
<g id="edge36" class="edge"><title>Article&#45;&gt;Tag</title>
<path fill="none" stroke="#8614ce" d="M423.346,-77.5561C388.751,-64.3071 336.333,-44.232 302.745,-31.3684"/>
<ellipse fill="none" stroke="#8614ce" cx="427.377" cy="-79.1" rx="4.00001" ry="4.00001"/>
<polygon fill="#8614ce" stroke="#8614ce" points="302.722,-31.3599 294.993,-23.581 298.053,-29.5716 293.384,-27.7833 293.384,-27.7833 293.384,-27.7833 298.053,-29.5716 291.774,-31.9857 302.722,-31.3599 302.722,-31.3599"/>
</g>
</g>
</svg>
