<?xml version="1.0" encoding="UTF-8" standalone="no"?>
<!DOCTYPE svg PUBLIC "-//W3C//DTD SVG 1.1//EN"
 "http://www.w3.org/Graphics/SVG/1.1/DTD/svg11.dtd">
<!-- Generated by graphviz version 2.36.0 (20140111.2315)
 -->
<!-- Title: models_diagram Pages: 1 -->
<svg width="1100pt" height="2388pt"
 viewBox="0.00 0.00 1099.77 2388.00" xmlns="http://www.w3.org/2000/svg" xmlns:xlink="http://www.w3.org/1999/xlink">
<g id="graph0" class="graph" transform="scale(1 1) rotate(0) translate(4 2384)">
<title>models_diagram</title>
<polygon fill="white" stroke="none" points="-4,4 -4,-2384 1095.77,-2384 1095.77,4 -4,4"/>
<!-- _diagram_info -->
<g id="node1" class="node"><title>_diagram_info</title>
<text text-anchor="start" x="386.766" y="-2208.6" font-family="Times,serif" font-size="13.00">Models diagram</text>
<text text-anchor="start" x="386.766" y="-2194.6" font-family="Times,serif" font-size="13.00">Date: May 05 2015 &#45; 17:16</text>
<text text-anchor="start" x="386.766" y="-2180.6" font-family="Times,serif" font-size="13.00">Migration version: 20150429122525</text>
<text text-anchor="start" x="386.766" y="-2166.6" font-family="Times,serif" font-size="13.00">Generated by RailRoady 1.3.0</text>
<text text-anchor="start" x="386.766" y="-2152.6" font-family="Times,serif" font-size="13.00">http://railroady.prestonlee.com</text>
</g>
<!-- Authentication -->
<g id="node2" class="node"><title>Authentication</title>
<path fill="none" stroke="black" d="M768.266,-668.5C768.266,-668.5 875.266,-668.5 875.266,-668.5 881.266,-668.5 887.266,-674.5 887.266,-680.5 887.266,-680.5 887.266,-777.5 887.266,-777.5 887.266,-783.5 881.266,-789.5 875.266,-789.5 875.266,-789.5 768.266,-789.5 768.266,-789.5 762.266,-789.5 756.266,-783.5 756.266,-777.5 756.266,-777.5 756.266,-680.5 756.266,-680.5 756.266,-674.5 762.266,-668.5 768.266,-668.5"/>
<text text-anchor="middle" x="821.766" y="-774.3" font-family="Times,serif" font-size="14.00">Authentication</text>
<polyline fill="none" stroke="black" points="756.266,-766.5 887.266,-766.5 "/>
<text text-anchor="start" x="764.266" y="-751.3" font-family="Times,serif" font-size="14.00">id :integer</text>
<text text-anchor="start" x="764.266" y="-736.3" font-family="Times,serif" font-size="14.00">provider :text</text>
<text text-anchor="start" x="764.266" y="-721.3" font-family="Times,serif" font-size="14.00">uid :text</text>
<text text-anchor="start" x="764.266" y="-706.3" font-family="Times,serif" font-size="14.00">user_id :integer</text>
<text text-anchor="start" x="764.266" y="-691.3" font-family="Times,serif" font-size="14.00">created_at :datetime</text>
<text text-anchor="start" x="764.266" y="-676.3" font-family="Times,serif" font-size="14.00">updated_at :datetime</text>
</g>
<!-- Member -->
<g id="node3" class="node"><title>Member</title>
<path fill="none" stroke="black" d="M541.766,-1544.5C541.766,-1544.5 651.766,-1544.5 651.766,-1544.5 657.766,-1544.5 663.766,-1550.5 663.766,-1556.5 663.766,-1556.5 663.766,-1923.5 663.766,-1923.5 663.766,-1929.5 657.766,-1935.5 651.766,-1935.5 651.766,-1935.5 541.766,-1935.5 541.766,-1935.5 535.766,-1935.5 529.766,-1929.5 529.766,-1923.5 529.766,-1923.5 529.766,-1556.5 529.766,-1556.5 529.766,-1550.5 535.766,-1544.5 541.766,-1544.5"/>
<text text-anchor="middle" x="596.766" y="-1920.3" font-family="Times,serif" font-size="14.00">Member</text>
<polyline fill="none" stroke="black" points="529.766,-1912.5 663.766,-1912.5 "/>
<text text-anchor="start" x="537.766" y="-1897.3" font-family="Times,serif" font-size="14.00">id :integer</text>
<text text-anchor="start" x="537.766" y="-1882.3" font-family="Times,serif" font-size="14.00">email :text</text>
<text text-anchor="start" x="537.766" y="-1867.3" font-family="Times,serif" font-size="14.00">password_digest :text</text>
<text text-anchor="start" x="537.766" y="-1852.3" font-family="Times,serif" font-size="14.00">first_name :text</text>
<text text-anchor="start" x="537.766" y="-1837.3" font-family="Times,serif" font-size="14.00">last_name :text</text>
<text text-anchor="start" x="537.766" y="-1822.3" font-family="Times,serif" font-size="14.00">patronymic :text</text>
<text text-anchor="start" x="537.766" y="-1807.3" font-family="Times,serif" font-size="14.00">user_id :integer</text>
<text text-anchor="start" x="537.766" y="-1792.3" font-family="Times,serif" font-size="14.00">motto :text</text>
<text text-anchor="start" x="537.766" y="-1777.3" font-family="Times,serif" font-size="14.00">ticket :integer</text>
<text text-anchor="start" x="537.766" y="-1762.3" font-family="Times,serif" font-size="14.00">parent_id :integer</text>
<text text-anchor="start" x="537.766" y="-1747.3" font-family="Times,serif" font-size="14.00">mobile_phone :text</text>
<text text-anchor="start" x="537.766" y="-1732.3" font-family="Times,serif" font-size="14.00">birth_date :datetime</text>
<text text-anchor="start" x="537.766" y="-1717.3" font-family="Times,serif" font-size="14.00">home_adress :text</text>
<text text-anchor="start" x="537.766" y="-1702.3" font-family="Times,serif" font-size="14.00">municipality :text</text>
<text text-anchor="start" x="537.766" y="-1687.3" font-family="Times,serif" font-size="14.00">locality :text</text>
<text text-anchor="start" x="537.766" y="-1672.3" font-family="Times,serif" font-size="14.00">avatar :text</text>
<text text-anchor="start" x="537.766" y="-1657.3" font-family="Times,serif" font-size="14.00">role :text</text>
<text text-anchor="start" x="537.766" y="-1642.3" font-family="Times,serif" font-size="14.00">state :text</text>
<text text-anchor="start" x="537.766" y="-1627.3" font-family="Times,serif" font-size="14.00">experience :text</text>
<text text-anchor="start" x="537.766" y="-1612.3" font-family="Times,serif" font-size="14.00">want_to_do :text</text>
<text text-anchor="start" x="537.766" y="-1597.3" font-family="Times,serif" font-size="14.00">type :string</text>
<text text-anchor="start" x="537.766" y="-1582.3" font-family="Times,serif" font-size="14.00">created_at :datetime</text>
<text text-anchor="start" x="537.766" y="-1567.3" font-family="Times,serif" font-size="14.00">updated_at :datetime</text>
<text text-anchor="start" x="537.766" y="-1552.3" font-family="Times,serif" font-size="14.00">join_date :datetime</text>
</g>
<!-- Member&#45;&gt;Authentication -->
<g id="edge1" class="edge"><title>Member&#45;&gt;Authentication</title>
<path fill="none" stroke="#4aec39" d="M608.623,-1536.15C616.922,-1449.33 630.799,-1359.75 653.766,-1324 677.093,-1287.69 712.062,-1308.06 735.766,-1272 831.964,-1125.65 834.353,-910.022 828.053,-800.062"/>
<ellipse fill="none" stroke="#4aec39" cx="608.235" cy="-1540.28" rx="4" ry="4"/>
<polygon fill="#4aec39" stroke="#4aec39" points="828.033,-799.738 831.911,-789.48 827.726,-794.747 827.419,-789.757 827.419,-789.757 827.419,-789.757 827.726,-794.747 822.928,-790.033 828.033,-799.738 828.033,-799.738"/>
</g>
<!-- Member&#45;&gt;Member -->
<g id="edge4" class="edge"><title>Member&#45;&gt;Member</title>
<path fill="none" stroke="#ae1f6f" d="M670.888,-1771.79C677.569,-1765.16 681.766,-1754.56 681.766,-1740 681.766,-1726.33 678.067,-1716.15 672.087,-1709.47"/>
<ellipse fill="none" stroke="#ae1f6f" cx="667.328" cy="-1774.41" rx="4.00002" ry="4.00002"/>
<polygon fill="#ae1f6f" stroke="#ae1f6f" points="671.981,-1709.39 666.875,-1699.68 668.042,-1706.31 664.103,-1703.23 664.103,-1703.23 664.103,-1703.23 668.042,-1706.31 661.331,-1706.77 671.981,-1709.39 671.981,-1709.39"/>
<text text-anchor="middle" x="704.266" y="-1736.3" font-family="Times,serif" font-size="14.00">children</text>
</g>
<!-- News -->
<g id="node4" class="node"><title>News</title>
<path fill="none" stroke="black" d="M407.766,-631C407.766,-631 523.766,-631 523.766,-631 529.766,-631 535.766,-637 535.766,-643 535.766,-643 535.766,-815 535.766,-815 535.766,-821 529.766,-827 523.766,-827 523.766,-827 407.766,-827 407.766,-827 401.766,-827 395.766,-821 395.766,-815 395.766,-815 395.766,-643 395.766,-643 395.766,-637 401.766,-631 407.766,-631"/>
<text text-anchor="middle" x="465.766" y="-811.8" font-family="Times,serif" font-size="14.00">News</text>
<polyline fill="none" stroke="black" points="395.766,-804 535.766,-804 "/>
<text text-anchor="start" x="403.766" y="-788.8" font-family="Times,serif" font-size="14.00">id :integer</text>
<text text-anchor="start" x="403.766" y="-773.8" font-family="Times,serif" font-size="14.00">title :string</text>
<text text-anchor="start" x="403.766" y="-758.8" font-family="Times,serif" font-size="14.00">body :text</text>
<text text-anchor="start" x="403.766" y="-743.8" font-family="Times,serif" font-size="14.00">published_at :datetime</text>
<text text-anchor="start" x="403.766" y="-728.8" font-family="Times,serif" font-size="14.00">photo :text</text>
<text text-anchor="start" x="403.766" y="-713.8" font-family="Times,serif" font-size="14.00">user_id :integer</text>
<text text-anchor="start" x="403.766" y="-698.8" font-family="Times,serif" font-size="14.00">created_at :datetime</text>
<text text-anchor="start" x="403.766" y="-683.8" font-family="Times,serif" font-size="14.00">updated_at :datetime</text>
<text text-anchor="start" x="403.766" y="-668.8" font-family="Times,serif" font-size="14.00">state :text</text>
<text text-anchor="start" x="403.766" y="-653.8" font-family="Times,serif" font-size="14.00">lead :text</text>
<text text-anchor="start" x="403.766" y="-638.8" font-family="Times,serif" font-size="14.00">views :integer</text>
</g>
<!-- Member&#45;&gt;News -->
<g id="edge2" class="edge"><title>Member&#45;&gt;News</title>
<path fill="none" stroke="#8a0a8a" d="M574.335,-1536.39C553.615,-1355.15 520.819,-1082.41 485.766,-846 485.338,-843.11 484.894,-840.181 484.44,-837.226"/>
<ellipse fill="none" stroke="#8a0a8a" cx="574.797" cy="-1540.44" rx="4.00001" ry="4.00001"/>
<polygon fill="#8a0a8a" stroke="#8a0a8a" points="484.401,-836.98 487.3,-826.404 483.628,-832.041 482.854,-827.101 482.854,-827.101 482.854,-827.101 483.628,-832.041 478.408,-827.797 484.401,-836.98 484.401,-836.98"/>
</g>
<!-- Tag -->
<g id="node8" class="node"><title>Tag</title>
<path fill="none" stroke="black" d="M299.266,-1C299.266,-1 406.266,-1 406.266,-1 412.266,-1 418.266,-7 418.266,-13 418.266,-13 418.266,-155 418.266,-155 418.266,-161 412.266,-167 406.266,-167 406.266,-167 299.266,-167 299.266,-167 293.266,-167 287.266,-161 287.266,-155 287.266,-155 287.266,-13 287.266,-13 287.266,-7 293.266,-1 299.266,-1"/>
<text text-anchor="middle" x="352.766" y="-151.8" font-family="Times,serif" font-size="14.00">Tag</text>
<polyline fill="none" stroke="black" points="287.266,-144 418.266,-144 "/>
<text text-anchor="start" x="295.266" y="-128.8" font-family="Times,serif" font-size="14.00">id :integer</text>
<text text-anchor="start" x="295.266" y="-113.8" font-family="Times,serif" font-size="14.00">text :text</text>
<text text-anchor="start" x="295.266" y="-98.8" font-family="Times,serif" font-size="14.00">tag_type :text</text>
<text text-anchor="start" x="295.266" y="-83.8" font-family="Times,serif" font-size="14.00">record_id :integer</text>
<text text-anchor="start" x="295.266" y="-68.8" font-family="Times,serif" font-size="14.00">record_type :string</text>
<text text-anchor="start" x="295.266" y="-53.8" font-family="Times,serif" font-size="14.00">target_id :integer</text>
<text text-anchor="start" x="295.266" y="-38.8" font-family="Times,serif" font-size="14.00">target_type :string</text>
<text text-anchor="start" x="295.266" y="-23.8" font-family="Times,serif" font-size="14.00">created_at :datetime</text>
<text text-anchor="start" x="295.266" y="-8.8" font-family="Times,serif" font-size="14.00">updated_at :datetime</text>
</g>
<!-- Member&#45;&gt;Tag -->
<g id="edge7" class="edge"><title>Member&#45;&gt;Tag</title>
<path fill="none" stroke="#36b385" d="M640.439,-1536.49C663.144,-1431.39 686.301,-1324.59 686.766,-1324 703.586,-1302.83 777.25,-1290.71 796.766,-1272 947.865,-1127.12 1015.77,-1064.34 1015.77,-855 1015.77,-855 1015.77,-855 1015.77,-296 1015.77,-173.94 602.564,-113.099 428.564,-92.8895"/>
<ellipse fill="none" stroke="#36b385" cx="639.58" cy="-1540.46" rx="4.00001" ry="4.00001"/>
<polygon fill="#36b385" stroke="#36b385" points="428.391,-92.8697 418.969,-87.2593 423.423,-92.2998 418.456,-91.73 418.456,-91.73 418.456,-91.73 423.423,-92.2998 417.943,-96.2007 428.391,-92.8697 428.391,-92.8697"/>
</g>
<!-- AttributeAccess -->
<g id="node9" class="node"><title>AttributeAccess</title>
<path fill="none" stroke="black" d="M707.766,-1354.5C707.766,-1354.5 825.766,-1354.5 825.766,-1354.5 831.766,-1354.5 837.766,-1360.5 837.766,-1366.5 837.766,-1366.5 837.766,-1463.5 837.766,-1463.5 837.766,-1469.5 831.766,-1475.5 825.766,-1475.5 825.766,-1475.5 707.766,-1475.5 707.766,-1475.5 701.766,-1475.5 695.766,-1469.5 695.766,-1463.5 695.766,-1463.5 695.766,-1366.5 695.766,-1366.5 695.766,-1360.5 701.766,-1354.5 707.766,-1354.5"/>
<text text-anchor="middle" x="766.766" y="-1460.3" font-family="Times,serif" font-size="14.00">AttributeAccess</text>
<polyline fill="none" stroke="black" points="695.766,-1452.5 837.766,-1452.5 "/>
<text text-anchor="start" x="703.766" y="-1437.3" font-family="Times,serif" font-size="14.00">id :integer</text>
<text text-anchor="start" x="703.766" y="-1422.3" font-family="Times,serif" font-size="14.00">member_id :integer</text>
<text text-anchor="start" x="703.766" y="-1407.3" font-family="Times,serif" font-size="14.00">member_attribute :text</text>
<text text-anchor="start" x="703.766" y="-1392.3" font-family="Times,serif" font-size="14.00">access :text</text>
<text text-anchor="start" x="703.766" y="-1377.3" font-family="Times,serif" font-size="14.00">created_at :datetime</text>
<text text-anchor="start" x="703.766" y="-1362.3" font-family="Times,serif" font-size="14.00">updated_at :datetime</text>
</g>
<!-- Member&#45;&gt;AttributeAccess -->
<g id="edge5" class="edge"><title>Member&#45;&gt;AttributeAccess</title>
<path fill="none" stroke="#defd11" d="M667.716,-1604.19C689.311,-1563.16 712.151,-1519.77 730.449,-1485"/>
<ellipse fill="none" stroke="#defd11" cx="665.818" cy="-1607.8" rx="4.00002" ry="4.00002"/>
<polygon fill="#defd11" stroke="#defd11" points="730.584,-1484.75 739.224,-1477.99 732.913,-1480.32 735.242,-1475.9 735.242,-1475.9 735.242,-1475.9 732.913,-1480.32 731.259,-1473.8 730.584,-1484.75 730.584,-1484.75"/>
</g>
<!-- Event -->
<g id="node11" class="node"><title>Event</title>
<path fill="none" stroke="black" d="M165.766,-955.5C165.766,-955.5 287.766,-955.5 287.766,-955.5 293.766,-955.5 299.766,-961.5 299.766,-967.5 299.766,-967.5 299.766,-1184.5 299.766,-1184.5 299.766,-1190.5 293.766,-1196.5 287.766,-1196.5 287.766,-1196.5 165.766,-1196.5 165.766,-1196.5 159.766,-1196.5 153.766,-1190.5 153.766,-1184.5 153.766,-1184.5 153.766,-967.5 153.766,-967.5 153.766,-961.5 159.766,-955.5 165.766,-955.5"/>
<text text-anchor="middle" x="226.766" y="-1181.3" font-family="Times,serif" font-size="14.00">Event</text>
<polyline fill="none" stroke="black" points="153.766,-1173.5 299.766,-1173.5 "/>
<text text-anchor="start" x="161.766" y="-1158.3" font-family="Times,serif" font-size="14.00">id :integer</text>
<text text-anchor="start" x="161.766" y="-1143.3" font-family="Times,serif" font-size="14.00">title :string</text>
<text text-anchor="start" x="161.766" y="-1128.3" font-family="Times,serif" font-size="14.00">description :string</text>
<text text-anchor="start" x="161.766" y="-1113.3" font-family="Times,serif" font-size="14.00">main_photo :string</text>
<text text-anchor="start" x="161.766" y="-1098.3" font-family="Times,serif" font-size="14.00">creator_id :integer</text>
<text text-anchor="start" x="161.766" y="-1083.3" font-family="Times,serif" font-size="14.00">begin_date :datetime</text>
<text text-anchor="start" x="161.766" y="-1068.3" font-family="Times,serif" font-size="14.00">end_date :datetime</text>
<text text-anchor="start" x="161.766" y="-1053.3" font-family="Times,serif" font-size="14.00">created_at :datetime</text>
<text text-anchor="start" x="161.766" y="-1038.3" font-family="Times,serif" font-size="14.00">updated_at :datetime</text>
<text text-anchor="start" x="161.766" y="-1023.3" font-family="Times,serif" font-size="14.00">state :text</text>
<text text-anchor="start" x="161.766" y="-1008.3" font-family="Times,serif" font-size="14.00">place :text</text>
<text text-anchor="start" x="161.766" y="-993.3" font-family="Times,serif" font-size="14.00">activity_line_id :integer</text>
<text text-anchor="start" x="161.766" y="-978.3" font-family="Times,serif" font-size="14.00">organizer_id :integer</text>
<text text-anchor="start" x="161.766" y="-963.3" font-family="Times,serif" font-size="14.00">organizer_type :text</text>
</g>
<!-- Member&#45;&gt;Event -->
<g id="edge10" class="edge"><title>Member&#45;&gt;Event</title>
<path fill="none" stroke="#5876aa" d="M523.315,-1688.21C467.147,-1645.7 391.907,-1580.18 346.766,-1506 316.162,-1455.71 279.517,-1313.5 254.84,-1206.5"/>
<ellipse fill="none" stroke="#5876aa" cx="526.523" cy="-1690.62" rx="4.00002" ry="4.00002"/>
<polygon fill="#5876aa" stroke="#5876aa" points="254.802,-1206.33 256.951,-1195.58 253.683,-1201.46 252.565,-1196.58 252.565,-1196.58 252.565,-1196.58 253.683,-1201.46 248.179,-1197.59 254.802,-1206.33 254.802,-1206.33"/>
</g>
<!-- Position -->
<g id="node12" class="node"><title>Position</title>
<path fill="none" stroke="black" d="M868.266,-1347C868.266,-1347 975.266,-1347 975.266,-1347 981.266,-1347 987.266,-1353 987.266,-1359 987.266,-1359 987.266,-1471 987.266,-1471 987.266,-1477 981.266,-1483 975.266,-1483 975.266,-1483 868.266,-1483 868.266,-1483 862.266,-1483 856.266,-1477 856.266,-1471 856.266,-1471 856.266,-1359 856.266,-1359 856.266,-1353 862.266,-1347 868.266,-1347"/>
<text text-anchor="middle" x="921.766" y="-1467.8" font-family="Times,serif" font-size="14.00">Position</text>
<polyline fill="none" stroke="black" points="856.266,-1460 987.266,-1460 "/>
<text text-anchor="start" x="864.266" y="-1444.8" font-family="Times,serif" font-size="14.00">id :integer</text>
<text text-anchor="start" x="864.266" y="-1429.8" font-family="Times,serif" font-size="14.00">title :text</text>
<text text-anchor="start" x="864.266" y="-1414.8" font-family="Times,serif" font-size="14.00">member_id :integer</text>
<text text-anchor="start" x="864.266" y="-1399.8" font-family="Times,serif" font-size="14.00">begin_date :datetime</text>
<text text-anchor="start" x="864.266" y="-1384.8" font-family="Times,serif" font-size="14.00">end_date :text</text>
<text text-anchor="start" x="864.266" y="-1369.8" font-family="Times,serif" font-size="14.00">created_at :datetime</text>
<text text-anchor="start" x="864.266" y="-1354.8" font-family="Times,serif" font-size="14.00">updated_at :datetime</text>
</g>
<!-- Member&#45;&gt;Position -->
<g id="edge6" class="edge"><title>Member&#45;&gt;Position</title>
<path fill="none" stroke="#dfc446" d="M670.073,-1675.12C721.163,-1629.54 790.052,-1565.95 846.766,-1506 851.368,-1501.14 856.026,-1496.03 860.651,-1490.84"/>
<ellipse fill="none" stroke="#dfc446" cx="666.92" cy="-1677.92" rx="4.00002" ry="4.00002"/>
<polygon fill="#dfc446" stroke="#dfc446" points="860.789,-1490.68 870.771,-1486.14 864.09,-1486.92 867.392,-1483.17 867.392,-1483.17 867.392,-1483.17 864.09,-1486.92 864.012,-1480.2 860.789,-1490.68 860.789,-1490.68"/>
</g>
<!-- Team -->
<g id="node13" class="node"><title>Team</title>
<path fill="none" stroke="black" d="M368.266,-1332C368.266,-1332 475.266,-1332 475.266,-1332 481.266,-1332 487.266,-1338 487.266,-1344 487.266,-1344 487.266,-1486 487.266,-1486 487.266,-1492 481.266,-1498 475.266,-1498 475.266,-1498 368.266,-1498 368.266,-1498 362.266,-1498 356.266,-1492 356.266,-1486 356.266,-1486 356.266,-1344 356.266,-1344 356.266,-1338 362.266,-1332 368.266,-1332"/>
<text text-anchor="middle" x="421.766" y="-1482.8" font-family="Times,serif" font-size="14.00">Team</text>
<polyline fill="none" stroke="black" points="356.266,-1475 487.266,-1475 "/>
<text text-anchor="start" x="364.266" y="-1459.8" font-family="Times,serif" font-size="14.00">id :integer</text>
<text text-anchor="start" x="364.266" y="-1444.8" font-family="Times,serif" font-size="14.00">title :string</text>
<text text-anchor="start" x="364.266" y="-1429.8" font-family="Times,serif" font-size="14.00">member_id :integer</text>
<text text-anchor="start" x="364.266" y="-1414.8" font-family="Times,serif" font-size="14.00">description :string</text>
<text text-anchor="start" x="364.266" y="-1399.8" font-family="Times,serif" font-size="14.00">created_at :datetime</text>
<text text-anchor="start" x="364.266" y="-1384.8" font-family="Times,serif" font-size="14.00">updated_at :datetime</text>
<text text-anchor="start" x="364.266" y="-1369.8" font-family="Times,serif" font-size="14.00">state :text</text>
<text text-anchor="start" x="364.266" y="-1354.8" font-family="Times,serif" font-size="14.00">municipality :text</text>
<text text-anchor="start" x="364.266" y="-1339.8" font-family="Times,serif" font-size="14.00">type :text</text>
</g>
<!-- Member&#45;&gt;Team -->
<g id="edge8" class="edge"><title>Member&#45;&gt;Team</title>
<path fill="none" stroke="#81efb7" d="M524.609,-1605.82C506.622,-1572.62 487.743,-1537.78 471.141,-1507.13"/>
<polygon fill="#81efb7" stroke="#81efb7" points="524.843,-1606.25 525.65,-1617.19 527.225,-1610.65 529.607,-1615.04 529.607,-1615.04 529.607,-1615.04 527.225,-1610.65 533.564,-1612.9 524.843,-1606.25 524.843,-1606.25"/>
<polygon fill="#81efb7" stroke="#81efb7" points="471.058,-1506.98 470.25,-1496.04 468.676,-1502.58 466.294,-1498.19 466.294,-1498.19 466.294,-1498.19 468.676,-1502.58 462.337,-1500.33 471.058,-1506.98 471.058,-1506.98"/>
</g>
<!-- Article -->
<g id="node16" class="node"><title>Article</title>
<path fill="none" stroke="black" d="M542.266,-206.5C542.266,-206.5 649.266,-206.5 649.266,-206.5 655.266,-206.5 661.266,-212.5 661.266,-218.5 661.266,-218.5 661.266,-375.5 661.266,-375.5 661.266,-381.5 655.266,-387.5 649.266,-387.5 649.266,-387.5 542.266,-387.5 542.266,-387.5 536.266,-387.5 530.266,-381.5 530.266,-375.5 530.266,-375.5 530.266,-218.5 530.266,-218.5 530.266,-212.5 536.266,-206.5 542.266,-206.5"/>
<text text-anchor="middle" x="595.766" y="-372.3" font-family="Times,serif" font-size="14.00">Article</text>
<polyline fill="none" stroke="black" points="530.266,-364.5 661.266,-364.5 "/>
<text text-anchor="start" x="538.266" y="-349.3" font-family="Times,serif" font-size="14.00">id :integer</text>
<text text-anchor="start" x="538.266" y="-334.3" font-family="Times,serif" font-size="14.00">title :string</text>
<text text-anchor="start" x="538.266" y="-319.3" font-family="Times,serif" font-size="14.00">body :text</text>
<text text-anchor="start" x="538.266" y="-304.3" font-family="Times,serif" font-size="14.00">view :string</text>
<text text-anchor="start" x="538.266" y="-289.3" font-family="Times,serif" font-size="14.00">created_at :datetime</text>
<text text-anchor="start" x="538.266" y="-274.3" font-family="Times,serif" font-size="14.00">updated_at :datetime</text>
<text text-anchor="start" x="538.266" y="-259.3" font-family="Times,serif" font-size="14.00">state :text</text>
<text text-anchor="start" x="538.266" y="-244.3" font-family="Times,serif" font-size="14.00">category_id :integer</text>
<text text-anchor="start" x="538.266" y="-229.3" font-family="Times,serif" font-size="14.00">user_id :integer</text>
<text text-anchor="start" x="538.266" y="-214.3" font-family="Times,serif" font-size="14.00">views :integer</text>
</g>
<!-- Member&#45;&gt;Article -->
<g id="edge3" class="edge"><title>Member&#45;&gt;Article</title>
<path fill="none" stroke="#9ab426" d="M583.647,-1536.12C581.774,-1449.44 585.98,-1359.98 607.766,-1324 623.841,-1297.45 641.493,-1304.82 668.766,-1290 683.79,-1281.84 693.925,-1286.63 702.766,-1272 740.687,-1209.23 704.655,-685.334 704.766,-612 704.906,-519.479 723.851,-484.427 674.766,-406 672.241,-401.966 669.615,-397.886 666.919,-393.794"/>
<ellipse fill="none" stroke="#9ab426" cx="583.745" cy="-1540.23" rx="4" ry="4"/>
<polygon fill="#9ab426" stroke="#9ab426" points="666.856,-393.7 665.04,-382.885 664.078,-389.543 661.299,-385.386 661.299,-385.386 661.299,-385.386 664.078,-389.543 657.558,-387.887 666.856,-393.7 666.856,-393.7"/>
</g>
<!-- Event::Registration -->
<g id="node17" class="node"><title>Event::Registration</title>
<ellipse fill="none" stroke="black" cx="230.766" cy="-729" rx="78.9404" ry="18"/>
<text text-anchor="middle" x="230.766" y="-725.3" font-family="Times,serif" font-size="14.00">Event::Registration</text>
</g>
<!-- Member&#45;&gt;Event::Registration -->
<g id="edge9" class="edge"><title>Member&#45;&gt;Event::Registration</title>
<path fill="none" stroke="#94152e" d="M550.333,-1536.58C526.806,-1436.15 501.921,-1334.03 495.766,-1324 489.336,-1313.52 481.827,-1316.06 474.766,-1306 349.208,-1127.08 396.292,-1042.6 300.766,-846 285.066,-813.688 263.185,-778.644 248.086,-755.627"/>
<ellipse fill="none" stroke="#94152e" cx="551.257" cy="-1540.52" rx="4.00001" ry="4.00001"/>
<polygon fill="#94152e" stroke="#94152e" points="247.982,-755.47 246.214,-744.648 245.221,-751.301 242.461,-747.132 242.461,-747.132 242.461,-747.132 245.221,-751.301 238.709,-749.616 247.982,-755.47 247.982,-755.47"/>
<text text-anchor="middle" x="508.266" y="-1294.3" font-family="Times,serif" font-size="14.00">registrations</text>
</g>
<!-- Document -->
<g id="node6" class="node"><title>Document</title>
<path fill="none" stroke="black" d="M393.266,-448.5C393.266,-448.5 500.266,-448.5 500.266,-448.5 506.266,-448.5 512.266,-454.5 512.266,-460.5 512.266,-460.5 512.266,-557.5 512.266,-557.5 512.266,-563.5 506.266,-569.5 500.266,-569.5 500.266,-569.5 393.266,-569.5 393.266,-569.5 387.266,-569.5 381.266,-563.5 381.266,-557.5 381.266,-557.5 381.266,-460.5 381.266,-460.5 381.266,-454.5 387.266,-448.5 393.266,-448.5"/>
<text text-anchor="middle" x="446.766" y="-554.3" font-family="Times,serif" font-size="14.00">Document</text>
<polyline fill="none" stroke="black" points="381.266,-546.5 512.266,-546.5 "/>
<text text-anchor="start" x="389.266" y="-531.3" font-family="Times,serif" font-size="14.00">id :integer</text>
<text text-anchor="start" x="389.266" y="-516.3" font-family="Times,serif" font-size="14.00">file :text</text>
<text text-anchor="start" x="389.266" y="-501.3" font-family="Times,serif" font-size="14.00">title :text</text>
<text text-anchor="start" x="389.266" y="-486.3" font-family="Times,serif" font-size="14.00">created_at :datetime</text>
<text text-anchor="start" x="389.266" y="-471.3" font-family="Times,serif" font-size="14.00">updated_at :datetime</text>
<text text-anchor="start" x="389.266" y="-456.3" font-family="Times,serif" font-size="14.00">state :text</text>
</g>
<!-- News&#45;&gt;Document -->
<g id="edge12" class="edge"><title>News&#45;&gt;Document</title>
<path fill="none" stroke="#63cdc3" d="M429.735,-620.591C429.037,-612.329 428.976,-604.067 429.766,-596 430.272,-590.831 430.945,-585.512 431.732,-580.175"/>
<polygon fill="#63cdc3" stroke="#63cdc3" points="429.75,-620.72 426.418,-631.167 430.319,-625.688 430.888,-630.655 430.888,-630.655 430.888,-630.655 430.319,-625.688 435.359,-630.143 429.75,-620.72 429.75,-620.72"/>
<polygon fill="#63cdc3" stroke="#63cdc3" points="431.792,-579.798 437.815,-570.634 432.582,-574.86 433.371,-569.923 433.371,-569.923 433.371,-569.923 432.582,-574.86 428.927,-569.213 431.792,-579.798 431.792,-579.798"/>
<text text-anchor="middle" x="462.766" y="-600.3" font-family="Times,serif" font-size="14.00">attachments</text>
</g>
<!-- News&#45;&gt;Tag -->
<g id="edge11" class="edge"><title>News&#45;&gt;Tag</title>
<path fill="none" stroke="#ab9fd5" d="M391.808,-623.425C384.161,-608.712 377.479,-593.356 372.766,-578 331.46,-443.408 334.949,-278.43 342.74,-177.559"/>
<ellipse fill="none" stroke="#ab9fd5" cx="393.752" cy="-627.065" rx="4.00002" ry="4.00002"/>
<polygon fill="#ab9fd5" stroke="#ab9fd5" points="342.755,-177.365 348.042,-167.757 343.156,-172.381 343.556,-167.397 343.556,-167.397 343.556,-167.397 343.156,-172.381 339.07,-167.037 342.755,-177.365 342.755,-177.365"/>
</g>
<!-- Category -->
<g id="node5" class="node"><title>Category</title>
<path fill="none" stroke="black" d="M542.266,-441C542.266,-441 649.266,-441 649.266,-441 655.266,-441 661.266,-447 661.266,-453 661.266,-453 661.266,-565 661.266,-565 661.266,-571 655.266,-577 649.266,-577 649.266,-577 542.266,-577 542.266,-577 536.266,-577 530.266,-571 530.266,-565 530.266,-565 530.266,-453 530.266,-453 530.266,-447 536.266,-441 542.266,-441"/>
<text text-anchor="middle" x="595.766" y="-561.8" font-family="Times,serif" font-size="14.00">Category</text>
<polyline fill="none" stroke="black" points="530.266,-554 661.266,-554 "/>
<text text-anchor="start" x="538.266" y="-538.8" font-family="Times,serif" font-size="14.00">id :integer</text>
<text text-anchor="start" x="538.266" y="-523.8" font-family="Times,serif" font-size="14.00">name :string</text>
<text text-anchor="start" x="538.266" y="-508.8" font-family="Times,serif" font-size="14.00">parent_id :integer</text>
<text text-anchor="start" x="538.266" y="-493.8" font-family="Times,serif" font-size="14.00">created_at :datetime</text>
<text text-anchor="start" x="538.266" y="-478.8" font-family="Times,serif" font-size="14.00">updated_at :datetime</text>
<text text-anchor="start" x="538.266" y="-463.8" font-family="Times,serif" font-size="14.00">is_last :boolean</text>
<text text-anchor="start" x="538.266" y="-448.8" font-family="Times,serif" font-size="14.00">state :text</text>
</g>
<!-- Category&#45;&gt;Article -->
<g id="edge13" class="edge"><title>Category&#45;&gt;Article</title>
<path fill="none" stroke="#9e358e" d="M595.766,-432.94C595.766,-421.619 595.766,-409.791 595.766,-398.045"/>
<ellipse fill="none" stroke="#9e358e" cx="595.766" cy="-436.977" rx="4" ry="4"/>
<polygon fill="#9e358e" stroke="#9e358e" points="595.766,-397.76 600.266,-387.76 595.766,-392.76 595.766,-387.76 595.766,-387.76 595.766,-387.76 595.766,-392.76 591.266,-387.76 595.766,-397.76 595.766,-397.76"/>
</g>
<!-- Document&#45;&gt;News -->
<g id="edge15" class="edge"><title>Document&#45;&gt;News</title>
<path fill="none" stroke="#61e0e9" d="M490.037,-579.134C492.312,-584.703 494.272,-590.36 495.766,-596 497.884,-603.995 498.852,-612.286 498.948,-620.641"/>
<polygon fill="#61e0e9" stroke="#61e0e9" points="489.981,-579.006 490.051,-568.04 487.958,-574.433 485.936,-569.86 485.936,-569.86 485.936,-569.86 487.958,-574.433 481.82,-571.68 489.981,-579.006 489.981,-579.006"/>
<polygon fill="#61e0e9" stroke="#61e0e9" points="498.942,-620.852 494.151,-630.716 498.796,-625.85 498.65,-630.848 498.65,-630.848 498.65,-630.848 498.796,-625.85 503.148,-630.979 498.942,-620.852 498.942,-620.852"/>
</g>
<!-- Document&#45;&gt;Article -->
<g id="edge14" class="edge"><title>Document&#45;&gt;Article</title>
<path fill="none" stroke="#a7ef63" d="M460.704,-438.843C464.593,-427.395 469.526,-416.008 475.766,-406 488.047,-386.303 504.94,-368.047 522.177,-352.362"/>
<polygon fill="#a7ef63" stroke="#a7ef63" points="460.684,-438.909 453.385,-447.093 459.18,-443.677 457.677,-448.446 457.677,-448.446 457.677,-448.446 459.18,-443.677 461.969,-449.799 460.684,-438.909 460.684,-438.909"/>
<polygon fill="#a7ef63" stroke="#a7ef63" points="522.619,-351.97 533.088,-348.708 526.362,-348.655 530.105,-345.34 530.105,-345.34 530.105,-345.34 526.362,-348.655 527.121,-341.971 522.619,-351.97 522.619,-351.97"/>
</g>
<!-- ActivityLine -->
<g id="node7" class="node"><title>ActivityLine</title>
<path fill="none" stroke="black" d="M103.766,-1324.5C103.766,-1324.5 211.766,-1324.5 211.766,-1324.5 217.766,-1324.5 223.766,-1330.5 223.766,-1336.5 223.766,-1336.5 223.766,-1493.5 223.766,-1493.5 223.766,-1499.5 217.766,-1505.5 211.766,-1505.5 211.766,-1505.5 103.766,-1505.5 103.766,-1505.5 97.7661,-1505.5 91.7661,-1499.5 91.7661,-1493.5 91.7661,-1493.5 91.7661,-1336.5 91.7661,-1336.5 91.7661,-1330.5 97.7661,-1324.5 103.766,-1324.5"/>
<text text-anchor="middle" x="157.766" y="-1490.3" font-family="Times,serif" font-size="14.00">ActivityLine</text>
<polyline fill="none" stroke="black" points="91.7661,-1482.5 223.766,-1482.5 "/>
<text text-anchor="start" x="99.7661" y="-1467.3" font-family="Times,serif" font-size="14.00">id :integer</text>
<text text-anchor="start" x="99.7661" y="-1452.3" font-family="Times,serif" font-size="14.00">title :string</text>
<text text-anchor="start" x="99.7661" y="-1437.3" font-family="Times,serif" font-size="14.00">found_date :datetime</text>
<text text-anchor="start" x="99.7661" y="-1422.3" font-family="Times,serif" font-size="14.00">activity_type :string</text>
<text text-anchor="start" x="99.7661" y="-1407.3" font-family="Times,serif" font-size="14.00">description :string</text>
<text text-anchor="start" x="99.7661" y="-1392.3" font-family="Times,serif" font-size="14.00">member_id :integer</text>
<text text-anchor="start" x="99.7661" y="-1377.3" font-family="Times,serif" font-size="14.00">created_at :datetime</text>
<text text-anchor="start" x="99.7661" y="-1362.3" font-family="Times,serif" font-size="14.00">updated_at :datetime</text>
<text text-anchor="start" x="99.7661" y="-1347.3" font-family="Times,serif" font-size="14.00">state :string</text>
<text text-anchor="start" x="99.7661" y="-1332.3" font-family="Times,serif" font-size="14.00">logo :text</text>
</g>
<!-- ActivityLine&#45;&gt;Tag -->
<g id="edge17" class="edge"><title>ActivityLine&#45;&gt;Tag</title>
<path fill="none" stroke="#4e843a" d="M125.529,-1316.28C106.366,-1249.63 85.7661,-1158.92 85.7661,-1077 85.7661,-1077 85.7661,-1077 85.7661,-296 85.7661,-254.602 83.5844,-238.067 109.766,-206 152.435,-153.74 223.37,-122.09 277.615,-104.342"/>
<ellipse fill="none" stroke="#4e843a" cx="126.74" cy="-1320.44" rx="4.00001" ry="4.00001"/>
<polygon fill="#4e843a" stroke="#4e843a" points="277.667,-104.326 288.56,-105.583 282.431,-102.81 287.196,-101.294 287.196,-101.294 287.196,-101.294 282.431,-102.81 285.832,-97.0062 277.667,-104.326 277.667,-104.326"/>
</g>
<!-- ActivityLine&#45;&gt;Event -->
<g id="edge16" class="edge"><title>ActivityLine&#45;&gt;Event</title>
<path fill="none" stroke="#172543" d="M177.78,-1316.25C184.77,-1282.11 192.731,-1243.23 200.172,-1206.89"/>
<ellipse fill="none" stroke="#172543" cx="176.969" cy="-1320.21" rx="4.00001" ry="4.00001"/>
<polygon fill="#172543" stroke="#172543" points="200.25,-1206.5 206.665,-1197.61 201.253,-1201.61 202.256,-1196.71 202.256,-1196.71 202.256,-1196.71 201.253,-1201.61 197.848,-1195.81 200.25,-1206.5 200.25,-1206.5"/>
</g>
<!-- Banner -->
<g id="node10" class="node"><title>Banner</title>
<path fill="none" stroke="black" d="M775.266,-2108.5C775.266,-2108.5 882.266,-2108.5 882.266,-2108.5 888.266,-2108.5 894.266,-2114.5 894.266,-2120.5 894.266,-2120.5 894.266,-2247.5 894.266,-2247.5 894.266,-2253.5 888.266,-2259.5 882.266,-2259.5 882.266,-2259.5 775.266,-2259.5 775.266,-2259.5 769.266,-2259.5 763.266,-2253.5 763.266,-2247.5 763.266,-2247.5 763.266,-2120.5 763.266,-2120.5 763.266,-2114.5 769.266,-2108.5 775.266,-2108.5"/>
<text text-anchor="middle" x="828.766" y="-2244.3" font-family="Times,serif" font-size="14.00">Banner</text>
<polyline fill="none" stroke="black" points="763.266,-2236.5 894.266,-2236.5 "/>
<text text-anchor="start" x="771.266" y="-2221.3" font-family="Times,serif" font-size="14.00">id :integer</text>
<text text-anchor="start" x="771.266" y="-2206.3" font-family="Times,serif" font-size="14.00">photo :string</text>
<text text-anchor="start" x="771.266" y="-2191.3" font-family="Times,serif" font-size="14.00">link :string</text>
<text text-anchor="start" x="771.266" y="-2176.3" font-family="Times,serif" font-size="14.00">begin_date :datetime</text>
<text text-anchor="start" x="771.266" y="-2161.3" font-family="Times,serif" font-size="14.00">end_date :datetime</text>
<text text-anchor="start" x="771.266" y="-2146.3" font-family="Times,serif" font-size="14.00">created_at :datetime</text>
<text text-anchor="start" x="771.266" y="-2131.3" font-family="Times,serif" font-size="14.00">updated_at :datetime</text>
<text text-anchor="start" x="771.266" y="-2116.3" font-family="Times,serif" font-size="14.00">state :string</text>
</g>
<!-- Event&#45;&gt;Tag -->
<g id="edge19" class="edge"><title>Event&#45;&gt;Tag</title>
<path fill="none" stroke="#176a0d" d="M169.649,-947.722C145.901,-883.728 123.766,-804.182 123.766,-730 123.766,-730 123.766,-730 123.766,-296 123.766,-210.549 211.069,-150.18 277.866,-116.496"/>
<ellipse fill="none" stroke="#176a0d" cx="171.144" cy="-951.703" rx="4.00001" ry="4.00001"/>
<polygon fill="#176a0d" stroke="#176a0d" points="278.175,-116.343 289.134,-115.956 282.66,-114.132 287.144,-111.92 287.144,-111.92 287.144,-111.92 282.66,-114.132 285.153,-107.884 278.175,-116.343 278.175,-116.343"/>
</g>
<!-- Event&#45;&gt;Event::Registration -->
<g id="edge18" class="edge"><title>Event&#45;&gt;Event::Registration</title>
<path fill="none" stroke="#639b48" d="M228.249,-947.079C229.053,-877.722 229.977,-798.042 230.45,-757.224"/>
<ellipse fill="none" stroke="#639b48" cx="228.2" cy="-951.304" rx="4" ry="4"/>
<polygon fill="#639b48" stroke="#639b48" points="230.453,-757.014 235.068,-747.067 230.511,-752.014 230.569,-747.015 230.569,-747.015 230.569,-747.015 230.511,-752.014 226.069,-746.963 230.453,-757.014 230.453,-757.014"/>
<text text-anchor="middle" x="263.266" y="-850.3" font-family="Times,serif" font-size="14.00">registrations</text>
</g>
<!-- Team&#45;&gt;Tag -->
<g id="edge20" class="edge"><title>Team&#45;&gt;Tag</title>
<path fill="none" stroke="#1cc546" d="M410.059,-1323.67C387.83,-1145.24 341.152,-734.776 334.766,-388 333.277,-307.125 328.799,-286.668 334.766,-206 335.458,-196.647 336.447,-186.92 337.609,-177.227"/>
<ellipse fill="none" stroke="#1cc546" cx="410.57" cy="-1327.77" rx="4.00001" ry="4.00001"/>
<polygon fill="#1cc546" stroke="#1cc546" points="337.628,-177.076 343.344,-167.717 338.254,-172.115 338.879,-167.154 338.879,-167.154 338.879,-167.154 338.254,-172.115 334.414,-166.592 337.628,-177.076 337.628,-177.076"/>
</g>
<!-- Team&#45;&gt;Event -->
<g id="edge22" class="edge"><title>Team&#45;&gt;Event</title>
<path fill="none" stroke="#3736b4" d="M363.295,-1324.93C359.34,-1318.56 355.462,-1312.2 351.766,-1306 332.558,-1273.76 312.691,-1238.41 294.603,-1205.33"/>
<ellipse fill="none" stroke="#3736b4" cx="365.494" cy="-1328.46" rx="4.00002" ry="4.00002"/>
<polygon fill="#3736b4" stroke="#3736b4" points="294.587,-1205.3 293.749,-1194.37 292.193,-1200.91 289.799,-1196.52 289.799,-1196.52 289.799,-1196.52 292.193,-1200.91 285.848,-1198.68 294.587,-1205.3 294.587,-1205.3"/>
</g>
<!-- User -->
<g id="node15" class="node"><title>User</title>
<path fill="none" stroke="black" d="M571.766,-880.5C571.766,-880.5 681.766,-880.5 681.766,-880.5 687.766,-880.5 693.766,-886.5 693.766,-892.5 693.766,-892.5 693.766,-1259.5 693.766,-1259.5 693.766,-1265.5 687.766,-1271.5 681.766,-1271.5 681.766,-1271.5 571.766,-1271.5 571.766,-1271.5 565.766,-1271.5 559.766,-1265.5 559.766,-1259.5 559.766,-1259.5 559.766,-892.5 559.766,-892.5 559.766,-886.5 565.766,-880.5 571.766,-880.5"/>
<text text-anchor="middle" x="626.766" y="-1256.3" font-family="Times,serif" font-size="14.00">User</text>
<polyline fill="none" stroke="black" points="559.766,-1248.5 693.766,-1248.5 "/>
<text text-anchor="start" x="567.766" y="-1233.3" font-family="Times,serif" font-size="14.00">id :integer</text>
<text text-anchor="start" x="567.766" y="-1218.3" font-family="Times,serif" font-size="14.00">email :text</text>
<text text-anchor="start" x="567.766" y="-1203.3" font-family="Times,serif" font-size="14.00">password_digest :text</text>
<text text-anchor="start" x="567.766" y="-1188.3" font-family="Times,serif" font-size="14.00">first_name :text</text>
<text text-anchor="start" x="567.766" y="-1173.3" font-family="Times,serif" font-size="14.00">last_name :text</text>
<text text-anchor="start" x="567.766" y="-1158.3" font-family="Times,serif" font-size="14.00">patronymic :text</text>
<text text-anchor="start" x="567.766" y="-1143.3" font-family="Times,serif" font-size="14.00">user_id :integer</text>
<text text-anchor="start" x="567.766" y="-1128.3" font-family="Times,serif" font-size="14.00">motto :text</text>
<text text-anchor="start" x="567.766" y="-1113.3" font-family="Times,serif" font-size="14.00">ticket :integer</text>
<text text-anchor="start" x="567.766" y="-1098.3" font-family="Times,serif" font-size="14.00">parent_id :integer</text>
<text text-anchor="start" x="567.766" y="-1083.3" font-family="Times,serif" font-size="14.00">mobile_phone :text</text>
<text text-anchor="start" x="567.766" y="-1068.3" font-family="Times,serif" font-size="14.00">birth_date :datetime</text>
<text text-anchor="start" x="567.766" y="-1053.3" font-family="Times,serif" font-size="14.00">home_adress :text</text>
<text text-anchor="start" x="567.766" y="-1038.3" font-family="Times,serif" font-size="14.00">municipality :text</text>
<text text-anchor="start" x="567.766" y="-1023.3" font-family="Times,serif" font-size="14.00">locality :text</text>
<text text-anchor="start" x="567.766" y="-1008.3" font-family="Times,serif" font-size="14.00">avatar :text</text>
<text text-anchor="start" x="567.766" y="-993.3" font-family="Times,serif" font-size="14.00">role :text</text>
<text text-anchor="start" x="567.766" y="-978.3" font-family="Times,serif" font-size="14.00">state :text</text>
<text text-anchor="start" x="567.766" y="-963.3" font-family="Times,serif" font-size="14.00">experience :text</text>
<text text-anchor="start" x="567.766" y="-948.3" font-family="Times,serif" font-size="14.00">want_to_do :text</text>
<text text-anchor="start" x="567.766" y="-933.3" font-family="Times,serif" font-size="14.00">type :string</text>
<text text-anchor="start" x="567.766" y="-918.3" font-family="Times,serif" font-size="14.00">created_at :datetime</text>
<text text-anchor="start" x="567.766" y="-903.3" font-family="Times,serif" font-size="14.00">updated_at :datetime</text>
<text text-anchor="start" x="567.766" y="-888.3" font-family="Times,serif" font-size="14.00">join_date :datetime</text>
</g>
<!-- Team&#45;&gt;User -->
<g id="edge21" class="edge"><title>Team&#45;&gt;User</title>
<path fill="none" stroke="#842aed" d="M437.374,-1322C440.744,-1310.95 444.825,-1300.03 449.766,-1290 475.461,-1237.84 516.381,-1187.42 552.406,-1148.75"/>
<polygon fill="#842aed" stroke="#842aed" points="437.34,-1322.13 430.266,-1330.51 435.966,-1326.93 434.593,-1331.74 434.593,-1331.74 434.593,-1331.74 435.966,-1326.93 438.92,-1332.98 437.34,-1322.13 437.34,-1322.13"/>
<polygon fill="#842aed" stroke="#842aed" points="552.684,-1148.45 562.816,-1144.26 556.112,-1144.81 559.54,-1141.17 559.54,-1141.17 559.54,-1141.17 556.112,-1144.81 556.263,-1138.09 552.684,-1148.45 552.684,-1148.45"/>
</g>
<!-- Questionary -->
<g id="node14" class="node"><title>Questionary</title>
<path fill="none" stroke="black" d="M622.766,-1988.5C622.766,-1988.5 732.766,-1988.5 732.766,-1988.5 738.766,-1988.5 744.766,-1994.5 744.766,-2000.5 744.766,-2000.5 744.766,-2367.5 744.766,-2367.5 744.766,-2373.5 738.766,-2379.5 732.766,-2379.5 732.766,-2379.5 622.766,-2379.5 622.766,-2379.5 616.766,-2379.5 610.766,-2373.5 610.766,-2367.5 610.766,-2367.5 610.766,-2000.5 610.766,-2000.5 610.766,-1994.5 616.766,-1988.5 622.766,-1988.5"/>
<text text-anchor="middle" x="677.766" y="-2364.3" font-family="Times,serif" font-size="14.00">Questionary</text>
<polyline fill="none" stroke="black" points="610.766,-2356.5 744.766,-2356.5 "/>
<text text-anchor="start" x="618.766" y="-2341.3" font-family="Times,serif" font-size="14.00">id :integer</text>
<text text-anchor="start" x="618.766" y="-2326.3" font-family="Times,serif" font-size="14.00">email :text</text>
<text text-anchor="start" x="618.766" y="-2311.3" font-family="Times,serif" font-size="14.00">password_digest :text</text>
<text text-anchor="start" x="618.766" y="-2296.3" font-family="Times,serif" font-size="14.00">first_name :text</text>
<text text-anchor="start" x="618.766" y="-2281.3" font-family="Times,serif" font-size="14.00">last_name :text</text>
<text text-anchor="start" x="618.766" y="-2266.3" font-family="Times,serif" font-size="14.00">patronymic :text</text>
<text text-anchor="start" x="618.766" y="-2251.3" font-family="Times,serif" font-size="14.00">user_id :integer</text>
<text text-anchor="start" x="618.766" y="-2236.3" font-family="Times,serif" font-size="14.00">motto :text</text>
<text text-anchor="start" x="618.766" y="-2221.3" font-family="Times,serif" font-size="14.00">ticket :integer</text>
<text text-anchor="start" x="618.766" y="-2206.3" font-family="Times,serif" font-size="14.00">parent_id :integer</text>
<text text-anchor="start" x="618.766" y="-2191.3" font-family="Times,serif" font-size="14.00">mobile_phone :text</text>
<text text-anchor="start" x="618.766" y="-2176.3" font-family="Times,serif" font-size="14.00">birth_date :datetime</text>
<text text-anchor="start" x="618.766" y="-2161.3" font-family="Times,serif" font-size="14.00">home_adress :text</text>
<text text-anchor="start" x="618.766" y="-2146.3" font-family="Times,serif" font-size="14.00">municipality :text</text>
<text text-anchor="start" x="618.766" y="-2131.3" font-family="Times,serif" font-size="14.00">locality :text</text>
<text text-anchor="start" x="618.766" y="-2116.3" font-family="Times,serif" font-size="14.00">avatar :text</text>
<text text-anchor="start" x="618.766" y="-2101.3" font-family="Times,serif" font-size="14.00">role :text</text>
<text text-anchor="start" x="618.766" y="-2086.3" font-family="Times,serif" font-size="14.00">state :text</text>
<text text-anchor="start" x="618.766" y="-2071.3" font-family="Times,serif" font-size="14.00">experience :text</text>
<text text-anchor="start" x="618.766" y="-2056.3" font-family="Times,serif" font-size="14.00">want_to_do :text</text>
<text text-anchor="start" x="618.766" y="-2041.3" font-family="Times,serif" font-size="14.00">type :string</text>
<text text-anchor="start" x="618.766" y="-2026.3" font-family="Times,serif" font-size="14.00">created_at :datetime</text>
<text text-anchor="start" x="618.766" y="-2011.3" font-family="Times,serif" font-size="14.00">updated_at :datetime</text>
<text text-anchor="start" x="618.766" y="-1996.3" font-family="Times,serif" font-size="14.00">join_date :datetime</text>
</g>
<!-- Questionary&#45;&gt;Authentication -->
<g id="edge23" class="edge"><title>Questionary&#45;&gt;Authentication</title>
<path fill="none" stroke="#04bc05" d="M749.806,-1994.21C751.426,-1992.1 753.079,-1990.03 754.766,-1988 782.595,-1954.53 810.339,-1969.8 837.766,-1936 966.047,-1777.89 960.104,-1706.46 995.766,-1506 1042.59,-1242.83 919.073,-933.89 856.082,-798.925"/>
<ellipse fill="none" stroke="#04bc05" cx="747.425" cy="-1997.43" rx="4.00002" ry="4.00002"/>
<polygon fill="#04bc05" stroke="#04bc05" points="855.911,-798.56 855.727,-787.596 853.783,-794.036 851.655,-789.511 851.655,-789.511 851.655,-789.511 853.783,-794.036 847.582,-791.426 855.911,-798.56 855.911,-798.56"/>
</g>
<!-- Questionary&#45;&gt;Member -->
<g id="edge26" class="edge"><title>Questionary&#45;&gt;Member</title>
<path fill="none" stroke="#6735a9" d="M640.616,-1980.28C638.517,-1968.83 636.407,-1957.31 634.307,-1945.85"/>
<ellipse fill="none" stroke="#6735a9" cx="641.399" cy="-1984.55" rx="4.00001" ry="4.00001"/>
<polygon fill="#6735a9" stroke="#6735a9" points="634.268,-1945.64 636.892,-1934.99 633.367,-1940.72 632.465,-1935.8 632.465,-1935.8 632.465,-1935.8 633.367,-1940.72 628.039,-1936.61 634.268,-1945.64 634.268,-1945.64"/>
<text text-anchor="middle" x="659.266" y="-1958.3" font-family="Times,serif" font-size="14.00">children</text>
</g>
<!-- Questionary&#45;&gt;News -->
<g id="edge24" class="edge"><title>Questionary&#45;&gt;News</title>
<path fill="none" stroke="#16323c" d="M604.824,-1991.78C603.495,-1990.49 602.143,-1989.23 600.766,-1988 578.119,-1967.71 564.06,-1978.14 534.766,-1970 481.359,-1955.15 456.673,-1972.28 414.766,-1936 343.021,-1873.88 327.766,-1835.9 327.766,-1741 327.766,-1741 327.766,-1741 327.766,-1075 327.766,-990.592 363.817,-902.341 399.067,-836.226"/>
<ellipse fill="none" stroke="#16323c" cx="607.702" cy="-1994.73" rx="4.00002" ry="4.00002"/>
<polygon fill="#16323c" stroke="#16323c" points="399.274,-835.842 407.99,-829.187 401.653,-831.444 404.031,-827.046 404.031,-827.046 404.031,-827.046 401.653,-831.444 400.073,-824.905 399.274,-835.842 399.274,-835.842"/>
</g>
<!-- Questionary&#45;&gt;Tag -->
<g id="edge29" class="edge"><title>Questionary&#45;&gt;Tag</title>
<path fill="none" stroke="#2b7045" d="M751.035,-1991.19C752.258,-1990.11 753.502,-1989.04 754.766,-1988 788.608,-1960.12 808.808,-1978.79 851.766,-1970 919.587,-1956.13 950.09,-1979.71 1003.77,-1936 1077.49,-1875.96 1091.77,-1836.08 1091.77,-1741 1091.77,-1741 1091.77,-1741 1091.77,-296 1091.77,-247.427 1070.6,-232.302 1029.77,-206 930.968,-142.365 583.81,-105.049 428.664,-91.202"/>
<ellipse fill="none" stroke="#2b7045" cx="747.994" cy="-1994.07" rx="4.00002" ry="4.00002"/>
<polygon fill="#2b7045" stroke="#2b7045" points="428.24,-91.1647 418.675,-85.8022 423.26,-90.7247 418.279,-90.2847 418.279,-90.2847 418.279,-90.2847 423.26,-90.7247 417.883,-94.7673 428.24,-91.1647 428.24,-91.1647"/>
</g>
<!-- Questionary&#45;&gt;AttributeAccess -->
<g id="edge27" class="edge"><title>Questionary&#45;&gt;AttributeAccess</title>
<path fill="none" stroke="#8f4b4f" d="M728.231,-1980.57C731.076,-1965.54 733.637,-1950.57 735.766,-1936 759.13,-1776.11 764.981,-1586.1 766.384,-1485.9"/>
<ellipse fill="none" stroke="#8f4b4f" cx="727.474" cy="-1984.5" rx="4.00001" ry="4.00001"/>
<polygon fill="#8f4b4f" stroke="#8f4b4f" points="766.388,-1485.6 771.017,-1475.66 766.453,-1480.6 766.517,-1475.61 766.517,-1475.61 766.517,-1475.61 766.453,-1480.6 762.018,-1475.55 766.388,-1485.6 766.388,-1485.6"/>
</g>
<!-- Questionary&#45;&gt;Event -->
<g id="edge32" class="edge"><title>Questionary&#45;&gt;Event</title>
<path fill="none" stroke="#e25690" d="M604.205,-1990.6C603.076,-1989.71 601.93,-1988.85 600.766,-1988 549.081,-1950.42 359.725,-2014.4 313.766,-1970 260.022,-1918.08 237.966,-1442.22 230.29,-1207.17"/>
<ellipse fill="none" stroke="#e25690" cx="607.422" cy="-1993.31" rx="4.00002" ry="4.00002"/>
<polygon fill="#e25690" stroke="#e25690" points="230.279,-1206.84 234.454,-1196.7 230.118,-1201.84 229.957,-1196.85 229.957,-1196.85 229.957,-1196.85 230.118,-1201.84 225.459,-1196.99 230.279,-1206.84 230.279,-1206.84"/>
</g>
<!-- Questionary&#45;&gt;Position -->
<g id="edge28" class="edge"><title>Questionary&#45;&gt;Position</title>
<path fill="none" stroke="#d0c603" d="M747.435,-1985.15C753.042,-1968.55 758.551,-1952.01 763.766,-1936 814.762,-1779.51 869.622,-1594.84 899.402,-1493.06"/>
<ellipse fill="none" stroke="#d0c603" cx="746.135" cy="-1988.99" rx="4.00001" ry="4.00001"/>
<polygon fill="#d0c603" stroke="#d0c603" points="899.486,-1492.77 906.612,-1484.43 900.889,-1487.97 902.292,-1483.17 902.292,-1483.17 902.292,-1483.17 900.889,-1487.97 897.973,-1481.91 899.486,-1492.77 899.486,-1492.77"/>
</g>
<!-- Questionary&#45;&gt;Team -->
<g id="edge30" class="edge"><title>Questionary&#45;&gt;Team</title>
<path fill="none" stroke="#aed4f9" d="M604.594,-1992.83C603.338,-1991.19 602.062,-1989.59 600.766,-1988 573.928,-1955.17 544.404,-1971.21 520.766,-1936 433.585,-1806.15 418.566,-1619.13 418.292,-1508.34"/>
<polygon fill="#aed4f9" stroke="#aed4f9" points="604.799,-1993.11 607.087,-2003.83 607.757,-1997.14 610.715,-2001.17 610.715,-2001.17 610.715,-2001.17 607.757,-1997.14 614.343,-1998.51 604.799,-1993.11 604.799,-1993.11"/>
<polygon fill="#aed4f9" stroke="#aed4f9" points="418.293,-1508.2 422.808,-1498.2 418.3,-1503.2 418.308,-1498.2 418.308,-1498.2 418.308,-1498.2 418.3,-1503.2 413.808,-1498.19 418.293,-1508.2 418.293,-1508.2"/>
</g>
<!-- Questionary&#45;&gt;Article -->
<g id="edge25" class="edge"><title>Questionary&#45;&gt;Article</title>
<path fill="none" stroke="#197236" d="M750.286,-1992.31C751.75,-1990.84 753.243,-1989.4 754.766,-1988 762.11,-1981.24 918.78,-1941.99 926.766,-1936 1009.5,-1873.94 1053.77,-1844.43 1053.77,-1741 1053.77,-1741 1053.77,-1741 1053.77,-853 1053.77,-614.865 799.831,-423.649 670.126,-341.512"/>
<ellipse fill="none" stroke="#197236" cx="747.531" cy="-1995.22" rx="4.00002" ry="4.00002"/>
<polygon fill="#197236" stroke="#197236" points="669.855,-341.342 663.78,-332.213 665.621,-338.683 661.386,-336.024 661.386,-336.024 661.386,-336.024 665.621,-338.683 658.993,-339.834 669.855,-341.342 669.855,-341.342"/>
</g>
<!-- Questionary&#45;&gt;Event::Registration -->
<g id="edge31" class="edge"><title>Questionary&#45;&gt;Event::Registration</title>
<path fill="none" stroke="#51094f" d="M604.208,-1990.59C603.078,-1989.71 601.931,-1988.84 600.766,-1988 546.512,-1948.67 363.806,-1989.72 299.766,-1970 271.575,-1961.32 263.074,-1957.39 242.766,-1936 93.9888,-1779.26 67.7356,-1715.76 15.7661,-1506 -57.8378,-1208.91 151.707,-852.405 213.924,-755.404"/>
<ellipse fill="none" stroke="#51094f" cx="607.429" cy="-1993.3" rx="4.00002" ry="4.00002"/>
<polygon fill="#51094f" stroke="#51094f" points="214.035,-755.232 223.247,-749.284 216.753,-751.035 219.47,-746.838 219.47,-746.838 219.47,-746.838 216.753,-751.035 215.693,-744.392 214.035,-755.232 214.035,-755.232"/>
<text text-anchor="middle" x="49.2661" y="-1411.3" font-family="Times,serif" font-size="14.00">registrations</text>
</g>
<!-- User&#45;&gt;Authentication -->
<g id="edge33" class="edge"><title>User&#45;&gt;Authentication</title>
<path fill="none" stroke="#8c78cc" d="M697.771,-932.905C713.074,-903.861 729.542,-873.714 745.766,-846 754.951,-830.31 765.331,-813.782 775.401,-798.277"/>
<ellipse fill="none" stroke="#8c78cc" cx="695.766" cy="-936.722" rx="4.00002" ry="4.00002"/>
<polygon fill="#8c78cc" stroke="#8c78cc" points="775.483,-798.151 784.721,-792.242 778.218,-793.965 780.954,-789.78 780.954,-789.78 780.954,-789.78 778.218,-793.965 777.187,-787.318 775.483,-798.151 775.483,-798.151"/>
</g>
<!-- User&#45;&gt;News -->
<g id="edge34" class="edge"><title>User&#45;&gt;News</title>
<path fill="none" stroke="#806e22" d="M558.716,-873.013C554.548,-863.79 550.228,-854.744 545.766,-846 544.082,-842.701 542.318,-839.386 540.489,-836.069"/>
<ellipse fill="none" stroke="#806e22" cx="560.398" cy="-876.79" rx="4.00002" ry="4.00002"/>
<polygon fill="#806e22" stroke="#806e22" points="540.443,-835.989 539.417,-825.071 537.973,-831.641 535.504,-827.294 535.504,-827.294 535.504,-827.294 537.973,-831.641 531.591,-829.516 540.443,-835.989 540.443,-835.989"/>
</g>
<!-- User&#45;&gt;Article -->
<g id="edge35" class="edge"><title>User&#45;&gt;Article</title>
<path fill="none" stroke="#7619a0" d="M671.692,-872.026C691.952,-746.01 704.459,-581.642 669.766,-440 666.24,-425.603 660.972,-411.043 654.842,-397.012"/>
<ellipse fill="none" stroke="#7619a0" cx="670.991" cy="-876.323" rx="4.00001" ry="4.00001"/>
<polygon fill="#7619a0" stroke="#7619a0" points="654.828,-396.983 654.796,-386.017 652.763,-392.429 650.698,-387.876 650.698,-387.876 650.698,-387.876 652.763,-392.429 646.6,-389.735 654.828,-396.983 654.828,-396.983"/>
</g>
<!-- Article&#45;&gt;Document -->
<g id="edge37" class="edge"><title>Article&#45;&gt;Document</title>
<path fill="none" stroke="#47023c" d="M526.368,-395.809C515.815,-410.683 505.124,-425.751 495.148,-439.81"/>
<polygon fill="#47023c" stroke="#47023c" points="526.425,-395.729 535.882,-390.177 529.319,-391.651 532.212,-387.573 532.212,-387.573 532.212,-387.573 529.319,-391.651 528.542,-384.969 526.425,-395.729 526.425,-395.729"/>
<polygon fill="#47023c" stroke="#47023c" points="494.852,-440.228 485.395,-445.78 491.958,-444.306 489.065,-448.384 489.065,-448.384 489.065,-448.384 491.958,-444.306 492.735,-450.988 494.852,-440.228 494.852,-440.228"/>
<text text-anchor="middle" x="549.766" y="-410.3" font-family="Times,serif" font-size="14.00">attachments</text>
</g>
<!-- Article&#45;&gt;Tag -->
<g id="edge36" class="edge"><title>Article&#45;&gt;Tag</title>
<path fill="none" stroke="#74c023" d="M523.853,-233.557C493.108,-206.861 457.251,-175.725 426.327,-148.874"/>
<ellipse fill="none" stroke="#74c023" cx="526.986" cy="-236.278" rx="4.00002" ry="4.00002"/>
<polygon fill="#74c023" stroke="#74c023" points="426.129,-148.702 421.528,-138.747 422.353,-145.423 418.578,-142.145 418.578,-142.145 418.578,-142.145 422.353,-145.423 415.628,-145.543 426.129,-148.702 426.129,-148.702"/>
</g>
</g>
</svg>
